<?xml version="1.0" encoding="UTF-8"?>
<svg version="1.1" xmlns="http://www.w3.org/2000/svg" width="318" height="159">
<path d="M0 0 C104.94 0 209.88 0 318 0 C318 52.47 318 104.94 318 159 C213.06 159 108.12 159 0 159 C0 106.53 0 54.06 0 0 Z " fill="#FEFEFE" transform="translate(0,0)"/>
<path d="M0 0 C2.59709333 1.11713206 4.6447328 2.39641382 7 4 C5.5642161 7.51329086 3.90704395 9.06559106 0.78125 11.171875 C-0.06469727 11.75050293 -0.91064453 12.32913086 -1.78222656 12.92529297 C-2.6790918 13.52744629 -3.57595703 14.12959961 -4.5 14.75 C-11.56927818 19.58667572 -18.46005788 24.45825957 -25 30 C-24.68575733 33.07259503 -23.97179764 34.02728951 -21.70703125 36.21875 C-18.81733865 38.49618655 -15.91811267 40.75908648 -13 43 C-12.42378906 43.49757812 -11.84757812 43.99515625 -11.25390625 44.5078125 C-8.47817024 46.7567091 -6.32378361 47.23281271 -2.875 46.99609375 C2.95106076 46.22916631 6.49986831 43.14859176 10.875 39.4375 C12.44720874 38.16318858 14.02012378 36.88974808 15.59375 35.6171875 C16.3465625 34.99811523 17.099375 34.37904297 17.875 33.74121094 C20.66665816 31.45374472 23.49496148 29.23801297 26.375 27.0625 C27.18710938 26.43472656 27.99921875 25.80695312 28.8359375 25.16015625 C31 24 31 24 33.1796875 24.23828125 C35.52562744 25.2199514 36.57357768 25.86036651 38 28 C38.4375 31.4375 38.4375 31.4375 38 35 C36 37.4375 36 37.4375 34 39 C35.15173355 41.46800047 36.04783565 43.04783565 38 45 C38.44949688 48.33911969 38.71658313 50.85396635 36.87890625 53.79296875 C35.65335768 55.25460033 34.33201246 56.63468722 33 58 C33.639375 58.309375 34.27875 58.61875 34.9375 58.9375 C37 60 37 60 38 61 C38.7151039 64.33715154 38.95833374 65.81462933 38 69 C35.37492703 72.00594294 32.24006601 74.23144403 29.00488281 76.54833984 C26.63808864 78.26204639 24.31585934 80.02905771 21.9921875 81.80078125 C18.49502152 84.45876784 14.99491747 87.11228878 11.4765625 89.7421875 C10.73486816 90.2976123 9.99317383 90.85303711 9.22900391 91.42529297 C2.98904355 95.83358917 -1.35297308 97.23545282 -9 96 C-12.43999447 94.55291746 -15.09915521 92.32401975 -18 90 C-19.33863592 88.98106911 -20.68004177 87.96577213 -22.0234375 86.953125 C-26.37278027 83.66592034 -30.68946773 80.33784941 -35 77 C-36.010625 76.22011719 -37.02125 75.44023438 -38.0625 74.63671875 C-43.81914894 70.18085106 -43.81914894 70.18085106 -45 69 C-45.46596067 62.82602118 -45.46596067 62.82602118 -43.625 59.5625 C-42 58 -42 58 -40 58 C-40.825 57.154375 -41.65 56.30875 -42.5 55.4375 C-44.66786914 52.82493975 -45.01197577 51.92282283 -45.5625 48.375 C-44.92389342 44.54336054 -44.01264559 43.35362937 -41 41 C-41.69390671 38.01286106 -41.69390671 38.01286106 -43.5625 36.75 C-45 35 -45 35 -45.75 31.8125 C-44.57909926 25.86042125 -40.67342364 23.49984602 -36 20 C-35.28650391 19.46358887 -34.57300781 18.92717773 -33.83789062 18.37451172 C-29.01556998 14.7656702 -24.16230602 11.20152165 -19.27856445 7.67626953 C-17.76353008 6.56170551 -16.2667608 5.42186442 -14.78979492 4.25732422 C-14.09861572 3.71350098 -13.40743652 3.16967773 -12.6953125 2.609375 C-11.78869873 1.87799316 -11.78869873 1.87799316 -10.86376953 1.13183594 C-7.39647599 -0.9737932 -3.87219579 -0.84358551 0 0 Z " fill="#48DEF4" transform="translate(64,36)"/>
<path d="M0 0 C6.84261724 4.91085795 10.61490586 9.89654491 13 18 C14.06841069 27.78962355 12.42962223 35.41098599 7.3125 43.75 C-1.28706121 52.11714064 -9.36986843 53.5384726 -21.15625 53.48046875 C-28.27228009 52.59096499 -33.49447441 48.84986546 -38.16015625 43.54296875 C-43.82621471 35.71153763 -45.13356437 27.51259174 -44 18 C-42.3009256 10.78144722 -38.90535754 5.48568573 -33 1 C-22.50906971 -5.43182268 -10.87895406 -6.15993756 0 0 Z " fill="#3D6DB5" transform="translate(223,54)"/>
<path d="M0 0 C2.59709333 1.11713206 4.6447328 2.39641382 7 4 C5.5642161 7.51329086 3.90704395 9.06559106 0.78125 11.171875 C-0.06469727 11.75050293 -0.91064453 12.32913086 -1.78222656 12.92529297 C-2.6790918 13.52744629 -3.57595703 14.12959961 -4.5 14.75 C-11.56927818 19.58667572 -18.46005788 24.45825957 -25 30 C-24.68575733 33.07259503 -23.97179764 34.02728951 -21.70703125 36.21875 C-18.81733865 38.49618655 -15.91811267 40.75908648 -13 43 C-12.42378906 43.49757812 -11.84757812 43.99515625 -11.25390625 44.5078125 C-8.47817024 46.7567091 -6.32378361 47.23281271 -2.875 46.99609375 C2.95106076 46.22916631 6.49986831 43.14859176 10.875 39.4375 C12.44720874 38.16318858 14.02012378 36.88974808 15.59375 35.6171875 C16.3465625 34.99811523 17.099375 34.37904297 17.875 33.74121094 C20.66665816 31.45374472 23.49496148 29.23801297 26.375 27.0625 C27.18710938 26.43472656 27.99921875 25.80695312 28.8359375 25.16015625 C31 24 31 24 33.1796875 24.23828125 C35.52562744 25.2199514 36.57357768 25.86036651 38 28 C38.75 31.1875 38.75 31.1875 38 35 C33.37699009 40.54317735 26.96432695 44.61272393 21.12109375 48.7734375 C16.69258881 51.93269634 12.32371807 55.17202704 7.95068359 58.4074707 C2.31921642 62.55312306 -1.01673163 64.03646058 -8 63 C-10.07519531 61.93041992 -10.07519531 61.93041992 -12.140625 60.48046875 C-13.30863647 59.66316284 -13.30863647 59.66316284 -14.50024414 58.8293457 C-18.94642747 55.5755854 -23.32803078 52.24382281 -27.6875 48.875 C-34.49253295 43.55598462 -34.49253295 43.55598462 -41.58203125 38.6328125 C-44.73319361 36.50488703 -44.87947535 35.60262325 -45.625 31.875 C-44.64887309 25.82301316 -40.70592357 23.52418466 -36 20 C-35.28650391 19.46358887 -34.57300781 18.92717773 -33.83789062 18.37451172 C-29.01556998 14.7656702 -24.16230602 11.20152165 -19.27856445 7.67626953 C-17.76353008 6.56170551 -16.2667608 5.42186442 -14.78979492 4.25732422 C-14.09861572 3.71350098 -13.40743652 3.16967773 -12.6953125 2.609375 C-11.78869873 1.87799316 -11.78869873 1.87799316 -10.86376953 1.13183594 C-7.39647599 -0.9737932 -3.87219579 -0.84358551 0 0 Z " fill="#3D6DB5" transform="translate(64,36)"/>
<path d="M0 0 C0.46510986 0.34973877 0.93021973 0.69947754 1.40942383 1.05981445 C6.81989276 5.12348851 12.24705218 9.16405911 17.6875 13.1875 C18.51572266 13.80302734 19.34394531 14.41855469 20.19726562 15.05273438 C28.42004613 21.61985743 28.42004613 21.61985743 38.359375 23.6640625 C44.35745974 22.15566841 49.19285118 17.74283543 54 14 C55.16998164 13.10469555 56.3405548 12.21016356 57.51171875 11.31640625 C59.69566302 9.64564596 61.86429295 7.95989138 64.02734375 6.26171875 C66.95242829 4.0361945 69.92194438 2.00463533 73 0 C76.09859556 3.17606045 77.7539098 5.05079495 78.875 9.375 C76.42053296 19.54350632 61.3008321 26.7126531 53.10498047 32.50341797 C51.73692332 33.47606821 50.37607329 34.45896462 49.02392578 35.45361328 C44.80023806 38.55203243 41.2946706 40.76380652 36 41 C29.45196588 39.98907543 23.71106831 36.60837472 19 32 C19 31.34 19 30.68 19 30 C17.68 29.67 16.36 29.34 15 29 C15 28.34 15 27.68 15 27 C14.40977051 26.88519287 13.81954102 26.77038574 13.21142578 26.65209961 C10.84503389 25.95430399 9.53148402 25.09990785 7.6171875 23.56640625 C7.00746094 23.08236328 6.39773437 22.59832031 5.76953125 22.09960938 C5.14433594 21.59236328 4.51914062 21.08511719 3.875 20.5625 C3.24207031 20.05912109 2.60914063 19.55574219 1.95703125 19.03710938 C-4.92820929 13.53330245 -4.92820929 13.53330245 -5.4375 9.75 C-4.8694211 4.88075225 -3.36384471 3.44794083 0 0 Z " fill="#43A5F4" transform="translate(24,75)"/>
<path d="M0 0 C3.0625 2.25 3.0625 2.25 5 4 C3.62407747 7.32514612 2.24369708 9.33181293 -1 11 C-3.54650547 10.29971099 -5.55014337 9.25953267 -7.828125 7.9453125 C-12.64464061 5.84891542 -18.47250528 6.06109649 -23.35546875 7.875 C-28.03844946 10.54596836 -31.38019939 13.78626679 -33 19 C-34.08738504 25.83013726 -33.02176822 32.2879234 -29 38 C-26.72157458 39.83694878 -24.71588654 40.79293932 -22 42 C-21.34 42.33 -20.68 42.66 -20 43 C-14.8355129 43.75002925 -11.07969419 43.41714211 -6.6875 40.5 C-6.07261719 40.0359375 -5.45773438 39.571875 -4.82421875 39.09375 C-3 38 -3 38 1 38 C3.75 40.5 3.75 40.5 6 43 C4.614012 46.35066172 3.2243823 47.83371851 0.125 49.6875 C-0.55304688 50.10386719 -1.23109375 50.52023438 -1.9296875 50.94921875 C-8.64326666 54.35667685 -17.65111434 53.97446762 -25 53 C-28.72245526 51.62750289 -31.19300602 49.7716117 -34 47 C-34.65484375 46.37351563 -35.3096875 45.74703125 -35.984375 45.1015625 C-42.17474494 38.6298121 -44.12440439 33.02372682 -44.5 24.125 C-44.25257021 14.86122884 -41.35921246 8.92255807 -34.6875 2.5625 C-24.55187434 -5.67581642 -11.37184164 -6.9980564 0 0 Z " fill="#3E6EB5" transform="translate(167,54)"/>
<path d="M0 0 C5.70194628 2.19376829 9.07793617 5.62340256 12 11 C13.84152373 16.52457118 13.8169855 21.91005661 11.375 27.25 C8.61339484 32.13142884 5.22804646 35.00448988 0.0625 37.3125 C-6.21168397 38.72099028 -10.6287548 38.2742841 -16.20703125 35.19921875 C-20.75379501 32.15813711 -22.81579558 28.23023617 -24 23 C-24.61603152 17.36237822 -24.65955694 12.40685234 -21.375 7.60546875 C-15.26714703 0.47385633 -9.38312348 -1.67735944 0 0 Z " fill="#FBFCFD" transform="translate(213,60)"/>
<path d="M0 0 C3.63 0 7.26 0 11 0 C11 14.85 11 29.7 11 45 C18.59 45 26.18 45 34 45 C34 48.63 34 52.26 34 56 C22.78 56 11.56 56 0 56 C0 37.52 0 19.04 0 0 Z " fill="#4A76B9" transform="translate(266,51)"/>
<path d="M0 0 C3.3 0 6.6 0 10 0 C10 18.15 10 36.3 10 55 C6.7 55 3.4 55 0 55 C0 36.85 0 18.7 0 0 Z " fill="#3C6CB4" transform="translate(245,51)"/>
</svg>
