<?xml version="1.0" encoding="UTF-8"?>
<svg version="1.1" xmlns="http://www.w3.org/2000/svg" width="225" height="225">
<path d="M0 0 C74.25 0 148.5 0 225 0 C225 74.25 225 148.5 225 225 C150.75 225 76.5 225 0 225 C0 150.75 0 76.5 0 0 Z " fill="#F6F6F6" transform="translate(0,0)"/>
<path d="M0 0 C3.11328125 1.0625 3.11328125 1.0625 5.1328125 4.0625 C5.75208932 5.38593001 6.34840321 6.72026106 6.92578125 8.0625 C7.59906925 9.51808295 8.27494545 10.97247091 8.953125 12.42578125 C9.47495361 13.56394287 9.47495361 13.56394287 10.00732422 14.72509766 C11.86026195 18.64121815 13.92899223 22.43950128 15.98828125 26.25 C18.2669352 30.46741149 20.3471244 34.60103422 22.11328125 39.0625 C22.91098093 40.45847445 23.74357501 41.83521286 24.61328125 43.1875 C25.03609375 43.85007813 25.45890625 44.51265625 25.89453125 45.1953125 C26.95768687 46.82412143 28.03434753 48.44409942 29.11328125 50.0625 C31.44594547 47.28551878 32.85477618 44.49246698 34.21875 41.14453125 C35.98829141 37.02590431 38.08037767 33.05599044 40.11328125 29.0625 C42.80078125 28.5625 42.80078125 28.5625 46.11328125 29.0625 C48.2342429 31.74160945 49.57961589 34.03695853 51.11328125 37.0625 C51.80946545 38.38043577 52.50611843 39.69812397 53.203125 41.015625 C53.94643819 42.44665823 54.68730357 43.87896544 55.42578125 45.3125 C55.78784668 46.00988281 56.14991211 46.70726562 56.52294922 47.42578125 C58.29311034 50.9575972 59.11328125 53.04032445 59.11328125 57.0625 C59.77328125 57.0625 60.43328125 57.0625 61.11328125 57.0625 C61.60828125 60.0325 61.60828125 60.0325 62.11328125 63.0625 C62.77328125 63.0625 63.43328125 63.0625 64.11328125 63.0625 C64.77328125 65.0425 65.43328125 67.0225 66.11328125 69.0625 C66.59539062 68.629375 67.0775 68.19625 67.57421875 67.75 C68.20585937 67.193125 68.8375 66.63625 69.48828125 66.0625 C70.11476563 65.505625 70.74125 64.94875 71.38671875 64.375 C73.11328125 63.0625 73.11328125 63.0625 75.11328125 63.0625 C75.48453125 62.19625 75.48453125 62.19625 75.86328125 61.3125 C77.29628113 58.73310021 78.89752801 57.00128408 81.11328125 55.0625 C81.77328125 55.0625 82.43328125 55.0625 83.11328125 55.0625 C83.48453125 54.19625 83.48453125 54.19625 83.86328125 53.3125 C85.29628113 50.73310021 86.89752801 49.00128408 89.11328125 47.0625 C89.77328125 47.0625 90.43328125 47.0625 91.11328125 47.0625 C91.11328125 46.4025 91.11328125 45.7425 91.11328125 45.0625 C94.96359175 42.49562633 96.69897888 43.22961276 101.11328125 44.0625 C104.37023365 63.46082656 104.37023365 63.46082656 104.8046875 73.203125 C105.10052371 75.94429089 105.76554802 78.36894367 106.56274414 80.99951172 C107.74388283 85.42550814 108.34540355 89.97872488 109.05078125 94.5 C109.22480469 95.60037598 109.39882812 96.70075195 109.578125 97.83447266 C110.871355 106.15845218 111.96444011 114.49686707 112.96191406 122.86083984 C114.05950873 131.96010899 115.41601924 141.01487683 116.84375 150.06787109 C117.67431208 155.4640913 118.34050216 160.60136289 118.11328125 166.0625 C117.26507813 166.46339844 116.416875 166.86429688 115.54296875 167.27734375 C108.40645397 170.73580861 101.71620963 174.47355535 95.10522461 178.85180664 C90.92745835 181.59888782 86.68444484 183.92497327 82.171875 186.06640625 C79.91367072 187.11984104 79.91367072 187.11984104 77.11328125 188.875 C75.11328125 190.0625 75.11328125 190.0625 73.11328125 190.0625 C73.11328125 190.7225 73.11328125 191.3825 73.11328125 192.0625 C71.49078184 192.90069158 69.86519628 193.7329116 68.23828125 194.5625 C67.33335937 195.0265625 66.4284375 195.490625 65.49609375 195.96875 C63.11328125 197.0625 63.11328125 197.0625 61.11328125 197.0625 C61.11328125 197.7225 61.11328125 198.3825 61.11328125 199.0625 C60.28183594 199.47242188 59.45039063 199.88234375 58.59375 200.3046875 C57.50707031 200.84351563 56.42039062 201.38234375 55.30078125 201.9375 C54.22183594 202.47117188 53.14289063 203.00484375 52.03125 203.5546875 C49.0348986 205.03471139 49.0348986 205.03471139 46.11328125 207.0625 C41.50405831 207.56350249 38.80753766 206.8875196 35.11328125 204.0625 C35.11328125 203.4025 35.11328125 202.7425 35.11328125 202.0625 C34.20578125 201.77375 33.29828125 201.485 32.36328125 201.1875 C29.79125217 200.29718224 27.49981359 199.34755587 25.11328125 198.0625 C25.11328125 197.4025 25.11328125 196.7425 25.11328125 196.0625 C23.84677734 195.67578125 23.84677734 195.67578125 22.5546875 195.28125 C18.88935115 193.98319672 15.49498413 192.3461717 12.05078125 190.5625 C8.83725157 188.90903694 5.65358655 187.27802344 2.29296875 185.9375 C-0.06908693 184.98929127 -1.31323266 184.05006137 -2.88671875 182.0625 C-2.88671875 181.4025 -2.88671875 180.7425 -2.88671875 180.0625 C-3.81484375 179.876875 -4.74296875 179.69125 -5.69921875 179.5 C-10.39271349 178.17936079 -14.12071356 175.48374169 -18.15234375 172.81640625 C-21.61806027 170.59339666 -25.16596657 168.81757178 -28.88671875 167.0625 C-28.88671875 166.4025 -28.88671875 165.7425 -28.88671875 165.0625 C-29.54671875 165.0625 -30.20671875 165.0625 -30.88671875 165.0625 C-30.77105438 162.89531491 -30.64369634 160.72875284 -30.51171875 158.5625 C-30.40730469 156.75265625 -30.40730469 156.75265625 -30.30078125 154.90625 C-29.92841176 151.44953699 -29.253634 148.38462052 -28.36376953 145.04541016 C-27.60577772 141.89474 -27.33025923 138.72115938 -27.01171875 135.5 C-26.29911494 128.76974821 -25.25632275 122.1361344 -24.05859375 115.4765625 C-22.09639565 104.37671685 -20.27680204 93.25800799 -18.50839233 82.12582397 C-17.99672184 78.90561666 -17.48256744 75.68581285 -16.96801758 72.46606445 C-15.33826204 62.25657875 -13.7236519 52.04496294 -12.140625 41.828125 C-11.8716468 40.09902964 -11.60260559 38.36994407 -11.33349609 36.64086914 C-10.84272655 33.48721178 -10.35812815 30.33269817 -9.87744141 27.17749023 C-5.70810981 0.1235856 -5.70810981 0.1235856 0 0 Z " fill="#FCC402" transform="translate(68.88671875,8.9375)"/>
<path d="M0 0 C3.11328125 1.0625 3.11328125 1.0625 5.1328125 4.0625 C5.75208932 5.38593001 6.34840321 6.72026106 6.92578125 8.0625 C7.59906925 9.51808295 8.27494545 10.97247091 8.953125 12.42578125 C9.47495361 13.56394287 9.47495361 13.56394287 10.00732422 14.72509766 C11.86026195 18.64121815 13.92899223 22.43950128 15.98828125 26.25 C18.2669352 30.46741149 20.3471244 34.60103422 22.11328125 39.0625 C22.91098093 40.45847445 23.74357501 41.83521286 24.61328125 43.1875 C25.03609375 43.85007813 25.45890625 44.51265625 25.89453125 45.1953125 C26.95768687 46.82412143 28.03434753 48.44409942 29.11328125 50.0625 C31.44594547 47.28551878 32.85477618 44.49246698 34.21875 41.14453125 C35.98829141 37.02590431 38.08037767 33.05599044 40.11328125 29.0625 C42.80078125 28.5625 42.80078125 28.5625 46.11328125 29.0625 C48.2342429 31.74160945 49.57961589 34.03695853 51.11328125 37.0625 C51.80946545 38.38043577 52.50611843 39.69812397 53.203125 41.015625 C53.94643819 42.44665823 54.68730357 43.87896544 55.42578125 45.3125 C55.78784668 46.00988281 56.14991211 46.70726562 56.52294922 47.42578125 C58.29311034 50.9575972 59.11328125 53.04032445 59.11328125 57.0625 C59.77328125 57.0625 60.43328125 57.0625 61.11328125 57.0625 C61.60828125 60.0325 61.60828125 60.0325 62.11328125 63.0625 C62.77328125 63.0625 63.43328125 63.0625 64.11328125 63.0625 C65.70741926 66.25077602 65.77360773 69.61176162 65.11328125 73.0625 C62.67578125 74.875 62.67578125 74.875 60.11328125 76.0625 C59.61828125 77.5475 59.61828125 77.5475 59.11328125 79.0625 C57.62828125 79.5575 57.62828125 79.5575 56.11328125 80.0625 C55.43265625 80.743125 54.75203125 81.42375 54.05078125 82.125 C53.41140625 82.764375 52.77203125 83.40375 52.11328125 84.0625 C51.45328125 84.0625 50.79328125 84.0625 50.11328125 84.0625 C50.02046875 84.92875 50.02046875 84.92875 49.92578125 85.8125 C48.78595575 88.96893986 46.77733496 90.09617464 44.11328125 92.0625 C42.36463227 93.74120302 40.71417605 95.4857934 39.05078125 97.25 C37.11328125 99.0625 37.11328125 99.0625 35.11328125 99.0625 C34.74203125 99.92875 34.74203125 99.92875 34.36328125 100.8125 C32.93028137 103.39189979 31.32903449 105.12371592 29.11328125 107.0625 C28.45328125 107.0625 27.79328125 107.0625 27.11328125 107.0625 C26.84515625 107.701875 26.57703125 108.34125 26.30078125 109 C25.11328125 111.0625 25.11328125 111.0625 22.11328125 112.0625 C22.11328125 112.7225 22.11328125 113.3825 22.11328125 114.0625 C20.45942892 115.41169532 18.79157925 116.74383728 17.11328125 118.0625 C16.45328125 119.0525 15.79328125 120.0425 15.11328125 121.0625 C14.45328125 121.0625 13.79328125 121.0625 13.11328125 121.0625 C13.11328125 121.7225 13.11328125 122.3825 13.11328125 123.0625 C12.30890625 123.31 11.50453125 123.5575 10.67578125 123.8125 C9.83015625 124.225 8.98453125 124.6375 8.11328125 125.0625 C7.46114833 127.08713255 7.46114833 127.08713255 7.11328125 129.0625 C6.12328125 129.3925 5.13328125 129.7225 4.11328125 130.0625 C3.55640625 130.76375 2.99953125 131.465 2.42578125 132.1875 C-0.09874375 135.32609865 -2.864364 137.74564037 -5.921875 140.34765625 C-7.62665744 141.835528 -9.20074603 143.36491581 -10.76171875 145 C-12.88671875 147.0625 -12.88671875 147.0625 -14.88671875 147.0625 C-15.13421875 147.64 -15.38171875 148.2175 -15.63671875 148.8125 C-17.06971863 151.39189979 -18.67096551 153.12371592 -20.88671875 155.0625 C-21.54671875 155.0625 -22.20671875 155.0625 -22.88671875 155.0625 C-23.11359375 155.660625 -23.34046875 156.25875 -23.57421875 156.875 C-25.22483008 159.62601888 -27.08392685 160.58734637 -29.88671875 162.0625 C-29.94185287 160.39622448 -29.98001168 158.72938588 -30.01171875 157.0625 C-30.03492188 156.134375 -30.058125 155.20625 -30.08203125 154.25 C-29.88296791 151.00128628 -29.21880488 148.22509577 -28.38134766 145.09814453 C-27.61138807 141.92937699 -27.33227787 138.74157229 -27.01171875 135.5 C-26.29911494 128.76974821 -25.25632275 122.1361344 -24.05859375 115.4765625 C-22.09639565 104.37671685 -20.27680204 93.25800799 -18.50839233 82.12582397 C-17.99672184 78.90561666 -17.48256744 75.68581285 -16.96801758 72.46606445 C-15.33826204 62.25657875 -13.7236519 52.04496294 -12.140625 41.828125 C-11.8716468 40.09902964 -11.60260559 38.36994407 -11.33349609 36.64086914 C-10.84272655 33.48721178 -10.35812815 30.33269817 -9.87744141 27.17749023 C-5.70810981 0.1235856 -5.70810981 0.1235856 0 0 Z " fill="#FB9F04" transform="translate(68.88671875,8.9375)"/>
<path d="M0 0 C0.66 0 1.32 0 2 0 C2 0.66 2 1.32 2 2 C2.66 2 3.32 2 4 2 C7.08467498 7.39459439 8.55643705 11.79011871 9 18 C9.99 18 10.98 18 12 18 C13.76462683 21.08809695 14 22.23312136 14 26 C14.99 26 15.98 26 17 26 C17.68025637 27.99541868 18.34490497 29.99617991 19 32 C19.28875 32.680625 19.5775 33.36125 19.875 34.0625 C20 36 20 36 18.3125 38.625 C16.17596199 40.81928228 14.70606738 41.73716856 12 43 C11.34 43.99 10.68 44.98 10 46 C9.34 46 8.68 46 8 46 C7.62875 46.86625 7.62875 46.86625 7.25 47.75 C5.81700012 50.32939979 4.21575324 52.06121592 2 54 C1.34 54 0.68 54 0 54 C-0.268125 54.639375 -0.53625 55.27875 -0.8125 55.9375 C-2 58 -2 58 -5 59 C-5 59.66 -5 60.32 -5 61 C-6.65385233 62.34919532 -8.321702 63.68133728 -10 65 C-10.66 65.99 -11.32 66.98 -12 68 C-12.66 68 -13.32 68 -14 68 C-14 68.66 -14 69.32 -14 70 C-14.804375 70.2475 -15.60875 70.495 -16.4375 70.75 C-17.283125 71.1625 -18.12875 71.575 -19 72 C-19.65213292 74.02463255 -19.65213292 74.02463255 -20 76 C-20.99 76.33 -21.98 76.66 -23 77 C-23.556875 77.70125 -24.11375 78.4025 -24.6875 79.125 C-27.212025 82.26359865 -29.97764525 84.68314037 -33.03515625 87.28515625 C-34.73993869 88.773028 -36.31402728 90.30241581 -37.875 91.9375 C-40 94 -40 94 -42 94 C-42.2475 94.5775 -42.495 95.155 -42.75 95.75 C-44.18299988 98.32939979 -45.78424676 100.06121592 -48 102 C-48.66 102 -49.32 102 -50 102 C-50.226875 102.598125 -50.45375 103.19625 -50.6875 103.8125 C-52.33811133 106.56351888 -54.1972081 107.52484637 -57 109 C-57.08886184 105.80097361 -56.91058531 103.07322544 -56 100 C-55.01 100 -54.02 100 -53 100 C-52.34 98.35 -51.68 96.7 -51 95 C-50.34 95 -49.68 95 -49 95 C-48.87625 94.29875 -48.7525 93.5975 -48.625 92.875 C-47.96161655 89.82343613 -47.02788045 86.94659062 -46 84 C-45.34 84 -44.68 84 -44 84 C-44 83.34 -44 82.68 -44 82 C-43.34 82 -42.68 82 -42 82 C-41.855625 81.236875 -41.71125 80.47375 -41.5625 79.6875 C-41 77 -41 77 -40 74 C-39.34 74 -38.68 74 -38 74 C-37.87625 73.4225 -37.7525 72.845 -37.625 72.25 C-36.99351176 69.97664233 -36.11141809 68.0746471 -35 66 C-34.34 66 -33.68 66 -33 66 C-32.67 64.68 -32.34 63.36 -32 62 C-31.34 62 -30.68 62 -30 62 C-29.896875 60.948125 -29.79375 59.89625 -29.6875 58.8125 C-29.02050668 55.11371887 -28.25009992 52.97013189 -26 50 C-25.34 50 -24.68 50 -24 50 C-23.88785156 49.29488281 -23.77570313 48.58976562 -23.66015625 47.86328125 C-22.93685092 44.72610488 -21.80542309 42.09872094 -20.4375 39.1875 C-19.75494141 37.72376953 -19.75494141 37.72376953 -19.05859375 36.23046875 C-18.53458984 35.12638672 -18.53458984 35.12638672 -18 34 C-17.34 34 -16.68 34 -16 34 C-15.9175 33.0925 -15.835 32.185 -15.75 31.25 C-14.87368099 27.45261761 -13.69341866 26.69341866 -11 24 C-9.79420328 21.37561889 -8.91575362 18.74726087 -8 16 C-7.34 16 -6.68 16 -6 16 C-5.938125 15.21625 -5.87625 14.4325 -5.8125 13.625 C-4.6967665 8.64711207 -2.39693773 4.47546306 0 0 Z " fill="#FD7101" transform="translate(96,62)"/>
<path d="M0 0 C2.6875 -0.5 2.6875 -0.5 6 0 C8.12096165 2.67910945 9.46633464 4.97445853 11 8 C11.6961842 9.31793577 12.39283718 10.63562397 13.08984375 11.953125 C13.83315694 13.38415823 14.57402232 14.81646544 15.3125 16.25 C15.67456543 16.94738281 16.03663086 17.64476563 16.40966797 18.36328125 C18.17982909 21.8950972 19 23.97782445 19 28 C19.66 28 20.32 28 21 28 C21.495 30.97 21.495 30.97 22 34 C22.66 34 23.32 34 24 34 C25.59413801 37.18827602 25.66032648 40.54926162 25 44 C22.5625 45.8125 22.5625 45.8125 20 47 C19.67 47.99 19.34 48.98 19 50 C17.515 50.495 17.515 50.495 16 51 C15.319375 51.680625 14.63875 52.36125 13.9375 53.0625 C12.9784375 54.0215625 12.9784375 54.0215625 12 55 C11.34 55 10.68 55 10 55 C9.67 56.32 9.34 57.64 9 59 C6 58 6 58 4 55 C3.875 52.3125 3.875 52.3125 4 50 C3.01 50 2.02 50 1 50 C-0.25664978 47.09399739 -1 45.20395416 -1 42 C-1.99 42 -2.98 42 -4 42 C-5.80304155 36.69905784 -7.50723624 31.39691512 -9 26 C-9.66 26 -10.32 26 -11 26 C-11.33 25.01 -11.66 24.02 -12 23 C-11.01 23 -10.02 23 -9 23 C-9.12181641 22.01580078 -9.12181641 22.01580078 -9.24609375 21.01171875 C-8.89623366 16.73009763 -7.05168555 13.56985048 -5.0625 9.8125 C-4.50272461 8.72678711 -4.50272461 8.72678711 -3.93164062 7.61914062 C-2.96247051 5.74191923 -1.98198635 3.87054904 -1 2 C-0.67 1.34 -0.34 0.68 0 0 Z " fill="#FD8E03" transform="translate(109,38)"/>
<path d="M0 0 C0.66 0.33 1.32 0.66 2 1 C2 1.99 2 2.98 2 4 C2.31669821 6.33564933 2.64820803 8.6693782 3 11 C-1 11 -5 11 -9 11 C-9.33 14.3 -9.66 17.6 -10 21 C-13.63 21 -17.26 21 -21 21 C-21.86866414 15.26681667 -21.86866414 15.26681667 -21 12 C-16.3143325 7.59159093 -10.20285718 5.34844721 -4 4 C-4 3.34 -4 2.68 -4 2 C-2.125 0.9375 -2.125 0.9375 0 0 Z " fill="#F0EFE8" transform="translate(134,204)"/>
<path d="M0 0 C3.63 0 7.26 0 11 0 C11.26986196 6.02691701 11.24150005 8.88840377 8 14 C7.15603391 17.30425512 6.55517768 20.63627641 6 24 C5.67 24 5.34 24 5 24 C4.34 20.04 3.68 16.08 3 12 C2.01 11.67 1.02 11.34 0 11 C0 7.37 0 3.74 0 0 Z " fill="#EFEFEF" transform="translate(56,0)"/>
<path d="M0 0 C2.57161458 0.03255208 5.14322917 0.06510417 7.71484375 0.09765625 C7.71484375 3.72765625 7.71484375 7.35765625 7.71484375 11.09765625 C4.08484375 11.09765625 0.45484375 11.09765625 -3.28515625 11.09765625 C-3.3828125 3.3828125 -3.3828125 3.3828125 -3.28515625 1.09765625 C-2.28515625 0.09765625 -2.28515625 0.09765625 0 0 Z " fill="#FEFEFE" transform="translate(217.28515625,213.90234375)"/>
<path d="M0 0 C7.71484375 -0.09765625 7.71484375 -0.09765625 10 0 C11 1 11 1 11.09765625 3.28515625 C11.04882812 7.14257812 11.04882812 7.14257812 11 11 C7.37 11 3.74 11 0 11 C0 7.37 0 3.74 0 0 Z " fill="#FDFDFD" transform="translate(124,214)"/>
<path d="M0 0 C3.96 0 7.92 0 12 0 C12 3.63 12 7.26 12 11 C11.01 11.33 10.02 11.66 9 12 C9 10.68 9 9.36 9 8 C8.071875 8.350625 7.14375 8.70125 6.1875 9.0625 C3 10 3 10 0 9 C0 6.03 0 3.06 0 0 Z " fill="#FDFDFD" transform="translate(67,0)"/>
<path d="M0 0 C3.63 0.33 7.26 0.66 11 1 C11 3.97 11 6.94 11 10 C7.04 10 3.08 10 -1 10 C-1.125 2.25 -1.125 2.25 0 0 Z " fill="#FDFDFD" transform="translate(102,215)"/>
<path d="M0 0 C0.66 0.66 1.32 1.32 2 2 C5.09926819 1.67801034 5.09926819 1.67801034 8 1 C10 4 10 4 9.625 6.1875 C9.41875 6.785625 9.2125 7.38375 9 8 C11.31 8 13.62 8 16 8 C16 9.32 16 10.64 16 12 C16.66 12 17.32 12 18 12 C18 13.32 18 14.64 18 16 C14.20950293 14.57250019 10.72877544 12.83763458 7.1875 10.875 C5.72376953 10.06675781 5.72376953 10.06675781 4.23046875 9.2421875 C3.49441406 8.83226562 2.75835937 8.42234375 2 8 C2 7.34 2 6.68 2 6 C1.34 6 0.68 6 0 6 C0 4.02 0 2.04 0 0 Z " fill="#F8C501" transform="translate(38,168)"/>
<path d="M0 0 C0.66 0 1.32 0 2 0 C1.45520982 8.75965262 0.45892001 17.34562983 -1 26 C-1.33 26 -1.66 26 -2 26 C-2 22.7 -2 19.4 -2 16 C-3.32 15.67 -4.64 15.34 -6 15 C-6 11.7 -6 8.4 -6 5 C-4.68 4.67 -3.36 4.34 -2 4 C-0.71563266 2.0162233 -0.71563266 2.0162233 0 0 Z " fill="#F0EEE4" transform="translate(51,75)"/>
<path d="M0 0 C0.33 0 0.66 0 1 0 C1 1.98 1 3.96 1 6 C1.66 6 2.32 6 3 6 C3 8.31 3 10.62 3 13 C2.34 12.34 1.68 11.68 1 11 C-0.22109334 12.00149445 -0.22109334 12.00149445 -0.1328125 14.00390625 C-0.119905 18.23111088 -0.01845147 22.26385287 0.6875 26.4375 C1 30 1 30 -0.4375 32 C-1.2109375 32.495 -1.2109375 32.495 -2 33 C-2.66 32.67 -3.32 32.34 -4 32 C-3.67 33.32 -3.34 34.64 -3 36 C-3.66 36 -4.32 36 -5 36 C-4.35980826 29.03038314 -3.50717694 22.11308797 -2.5 15.1875 C-2.36980469 14.27291016 -2.23960938 13.35832031 -2.10546875 12.41601562 C-1.50544286 8.24916914 -0.85140929 4.12412794 0 0 Z " fill="#F6A00C" transform="translate(44,130)"/>
<path d="M0 0 C5.45168673 1.37539286 10.1903792 3.38028795 15.1875 5.9375 C15.88552734 6.28490234 16.58355469 6.63230469 17.30273438 6.99023438 C20.77746475 8.74578321 23.97942654 10.5101733 27 13 C25.35 13 23.7 13 22 13 C22 12.34 22 11.68 22 11 C20.35 11 18.7 11 17 11 C17 10.34 17 9.68 17 9 C15.68 9 14.36 9 13 9 C13 8.34 13 7.68 13 7 C12.34 7 11.68 7 11 7 C11 7.66 11 8.32 11 9 C10.34 9 9.68 9 9 9 C9 8.01 9 7.02 9 6 C7.88625 6.2784375 7.88625 6.2784375 6.75 6.5625 C4.05009037 6.99203108 2.55368923 6.85122974 0 6 C0 4.02 0 2.04 0 0 Z " fill="#EEEDEB" transform="translate(67,193)"/>
<path d="M0 0 C0.33 0.66 0.66 1.32 1 2 C3.16874252 1.49396008 4.99967627 1.00016187 7 0 C6.76228882 0.80872559 6.76228882 0.80872559 6.51977539 1.63378906 C5.91090977 4.40557189 5.78489684 7.02288851 5.68359375 9.859375 C5.64169922 10.97441406 5.59980469 12.08945313 5.55664062 13.23828125 C5.49766602 14.97658203 5.49766602 14.97658203 5.4375 16.75 C5.37272461 18.51150391 5.37272461 18.51150391 5.30664062 20.30859375 C5.20065206 23.20561451 5.09858362 26.10271935 5 29 C4.67 29 4.34 29 4 29 C3.32821737 24.91749118 2.66346058 20.83386883 2 16.75 C1.80921875 15.59113281 1.6184375 14.43226562 1.421875 13.23828125 C1.24140625 12.12324219 1.0609375 11.00820312 0.875 9.859375 C0.70742187 8.83295898 0.53984375 7.80654297 0.3671875 6.74902344 C0 4 0 4 0 0 Z " fill="#F6F2DD" transform="translate(175,88)"/>
<path d="M0 0 C2.6875 -0.5 2.6875 -0.5 6 0 C8.47575002 2.80201165 11 6.16508611 11 10 C9.35 10 7.7 10 6 10 C6 9.34 6 8.68 6 8 C5.236875 7.855625 4.47375 7.71125 3.6875 7.5625 C1 7 1 7 -2 6 C-1.34 4.02 -0.68 2.04 0 0 Z " fill="#F69412" transform="translate(109,38)"/>
<path d="M0 0 C1.15941038 3.47823115 0.70820884 5.45895578 0 9 C0.99 8.67 1.98 8.34 3 8 C3 8.66 3 9.32 3 10 C2.21625 10.2475 1.4325 10.495 0.625 10.75 C-2.46879902 12.22323763 -2.56554536 13.04143731 -4 16 C-6.625 17.75 -6.625 17.75 -9 19 C-9.08886184 15.80097361 -8.91058531 13.07322544 -8 10 C-7.01 10 -6.02 10 -5 10 C-4.34 8.35 -3.68 6.7 -3 5 C-2.34 5 -1.68 5 -1 5 C-0.67 3.35 -0.34 1.7 0 0 Z " fill="#F88102" transform="translate(48,152)"/>
<path d="M0 0 C0.66 0 1.32 0 2 0 C2.33 0.66 2.66 1.32 3 2 C4.97888961 2.72693904 6.97954558 3.39816251 9 4 C8.34 5.32 7.68 6.64 7 8 C7.66 8 8.32 8 9 8 C9.33 7.34 9.66 6.68 10 6 C11.125 13.75 11.125 13.75 10 16 C9.01 16 8.02 16 7 16 C5.82845707 13.71070947 4.66261926 11.41881638 3.5 9.125 C3.16613281 8.47402344 2.83226563 7.82304687 2.48828125 7.15234375 C0 2.2265625 0 2.2265625 0 0 Z " fill="#F1EFE9" transform="translate(77,20)"/>
<path d="M0 0 C0.66 0.33 1.32 0.66 2 1 C0.625 3 0.625 3 -1 5 C-1.66 5 -2.32 5 -3 5 C-3.33 5.99 -3.66 6.98 -4 8 C-6.24159347 9.85793612 -8.59225381 11.50274913 -10.96875 13.18359375 C-13.2098741 15.18767588 -13.48733574 16.12908016 -14 19 C-15.8125 20.3125 -15.8125 20.3125 -18 21 C-20.25 20.625 -20.25 20.625 -22 20 C-21.01 19.67 -20.02 19.34 -19 19 C-18.67 18.01 -18.34 17.02 -18 16 C-17.01 16 -16.02 16 -15 16 C-14.938125 15.38125 -14.87625 14.7625 -14.8125 14.125 C-14 12 -14 12 -11.4375 10.75 C-10.633125 10.5025 -9.82875 10.255 -9 10 C-9 9.34 -9 8.68 -9 8 C-6.22027515 4.98863141 -3.35088259 2.35802849 0 0 Z " fill="#FDBA0A" transform="translate(91,122)"/>
<path d="M0 0 C0.66 0.66 1.32 1.32 2 2 C4.60280568 1.67958603 4.60280568 1.67958603 7 1 C6.67 1.99 6.34 2.98 6 4 C6.39397335 6.63804589 6.39397335 6.63804589 7 9 C5.35 9 3.7 9 2 9 C1.67 9.99 1.34 10.98 1 12 C1 10.02 1 8.04 1 6 C-1.97 5.505 -1.97 5.505 -5 5 C-3.68 4.67 -2.36 4.34 -1 4 C-0.67 2.68 -0.34 1.36 0 0 Z " fill="#EEF0F0" transform="translate(169,47)"/>
<path d="M0 0 C7.42857143 1 7.42857143 1 11 2 C11 2.99 11 3.98 11 5 C11.99 5 12.98 5 14 5 C14.33 4.34 14.66 3.68 15 3 C15.66 3 16.32 3 17 3 C17.66 5.31 18.32 7.62 19 10 C13.90448155 8.83227702 10.20491235 7.07954269 5.89453125 4.12109375 C3.92890157 2.95792732 2.23001234 2.44006895 0 2 C0 1.34 0 0.68 0 0 Z " fill="#F6CB23" transform="translate(69,192)"/>
<path d="M0 0 C0.33 0.66 0.66 1.32 1 2 C1.66 2 2.32 2 3 2 C1.63016497 5.16115776 1.0109362 5.9927092 -2 8 C-2.58481121 10.88595946 -2.58481121 10.88595946 -2.6875 14.125 C-2.75324219 15.22070312 -2.81898437 16.31640625 -2.88671875 17.4453125 C-2.92410156 18.28835937 -2.96148437 19.13140625 -3 20 C-3.66 20 -4.32 20 -5 20 C-7.16167037 11.97093863 -4.01084635 6.97538495 0 0 Z M-9 17 C-6 18 -6 18 -6 18 Z " fill="#F68F07" transform="translate(106,44)"/>
<path d="M0 0 C0.66 1.32 1.32 2.64 2 4 C2.66 3.34 3.32 2.68 4 2 C4.71033431 7.52967941 5.30267176 12.49983036 4 18 C3.67 18 3.34 18 3 18 C3 16.02 3 14.04 3 12 C1.68 11.67 0.36 11.34 -1 11 C-1.14285714 3.57142857 -1.14285714 3.57142857 0 0 Z " fill="#F0EDEA" transform="translate(41,112)"/>
<path d="M0 0 C3.63 0 7.26 0 11 0 C11 1.32 11 2.64 11 4 C11.66 4 12.32 4 13 4 C13 5.32 13 6.64 13 8 C8.27626146 6.37621488 4.05818166 3.89006982 0 1 C0 0.67 0 0.34 0 0 Z " fill="#F6C920" transform="translate(43,176)"/>
<path d="M0 0 C0.45375 0.66 0.9075 1.32 1.375 2 C1.91125 2.66 2.4475 3.32 3 4 C3.66 4 4.32 4 5 4 C4.11392405 11.59493671 4.11392405 11.59493671 3.4375 14 C2.71277009 17.313051 2.94361949 20.6171693 3 24 C0.87719437 20.81579155 0.71980463 19.79462745 0.5859375 16.11328125 C0.54726562 15.17548828 0.50859375 14.23769531 0.46875 13.27148438 C0.4378125 12.29501953 0.406875 11.31855469 0.375 10.3125 C0.33632812 9.32443359 0.29765625 8.33636719 0.2578125 7.31835938 C0.16354133 4.87909293 0.07793782 2.43983405 0 0 Z " fill="#F3EABF" transform="translate(172,64)"/>
<path d="M0 0 C1.32 0.33 2.64 0.66 4 1 C4 8.59 4 16.18 4 24 C3.67 24 3.34 24 3 24 C2.49357075 20.93852743 1.99600678 17.87567701 1.5 14.8125 C1.35691406 13.94818359 1.21382812 13.08386719 1.06640625 12.19335938 C0.40685738 8.09473423 -0.20709266 4.16773976 0 0 Z " fill="#F5EBC7" transform="translate(180,123)"/>
<path d="M0 0 C0 3.63 0 7.26 0 11 C-0.33 10.01 -0.66 9.02 -1 8 C-1.66 8 -2.32 8 -3 8 C-3 8.99 -3 9.98 -3 11 C-3.66 11 -4.32 11 -5 11 C-5.08096803 9.54257537 -5.13917774 8.08387193 -5.1875 6.625 C-5.22230469 5.81289063 -5.25710937 5.00078125 -5.29296875 4.1640625 C-5.19628906 3.44992188 -5.09960938 2.73578125 -5 2 C-2 0 -2 0 0 0 Z " fill="#ECEFEE" transform="translate(54,56)"/>
<path d="M0 0 C0.33 0.66 0.66 1.32 1 2 C1.66 2 2.32 2 3 2 C3 1.34 3 0.68 3 0 C3.66 0 4.32 0 5 0 C3.68 5.28 2.36 10.56 1 16 C0.67 16 0.34 16 0 16 C-0.38971999 13.89850989 -0.76131477 11.7936518 -1.125 9.6875 C-1.33382812 8.51574219 -1.54265625 7.34398437 -1.7578125 6.13671875 C-2 3 -2 3 0 0 Z " fill="#F8F2DF" transform="translate(61,8)"/>
<path d="M0 0 C0.99 0.495 0.99 0.495 2 1 C2 2.65 2 4.3 2 6 C2.99 6 3.98 6 5 6 C5 8.64 5 11.28 5 14 C3.68 14 2.36 14 1 14 C0.67 9.38 0.34 4.76 0 0 Z " fill="#F5F1D9" transform="translate(186,162)"/>
<path d="M0 0 C2.77398263 3.46747828 4.95912413 7.06402511 7 11 C6.67 11.66 6.34 12.32 6 13 C3.28878505 12.14382686 1.44611539 11.54750525 -0.375 9.3125 C-1.26232255 6.02940656 -0.63470425 3.30046211 0 0 Z " fill="#F5A920" transform="translate(82,32)"/>
<path d="M0 0 C2.96659857 3.55991828 5.381348 7.65222543 7 12 C6.67 12.66 6.34 13.32 6 14 C3.83125748 13.49396008 2.00032373 13.00016187 0 12 C0 8 0 4 0 0 Z " fill="#F59B20" transform="translate(121,50)"/>
<path d="M0 0 C0.66 0 1.32 0 2 0 C2 0.66 2 1.32 2 2 C2.66 2 3.32 2 4 2 C4 1.34 4 0.68 4 0 C4.66 0 5.32 0 6 0 C6.33 1.65 6.66 3.3 7 5 C6.34 5 5.68 5 5 5 C4.67 6.32 4.34 7.64 4 9 C2.0625 8.375 2.0625 8.375 0 7 C-0.8125 3.9375 -0.8125 3.9375 -1 1 C-0.67 0.67 -0.34 0.34 0 0 Z " fill="#F3EFE2" transform="translate(89,40)"/>
<path d="M0 0 C4.33304076 0.64465202 7.86672065 2.18925122 11.8125 4.0625 C12.97394531 4.61035156 14.13539062 5.15820312 15.33203125 5.72265625 C16.21246094 6.14417969 17.09289062 6.56570312 18 7 C18 7.33 18 7.66 18 8 C16.35 8 14.7 8 13 8 C13 7.34 13 6.68 13 6 C11.35 6 9.7 6 8 6 C8 5.34 8 4.68 8 4 C6.68 4 5.36 4 4 4 C4 3.34 4 2.68 4 2 C3.34 2 2.68 2 2 2 C2 2.66 2 3.32 2 4 C1.34 4 0.68 4 0 4 C0 2.68 0 1.36 0 0 Z " fill="#F7F0CD" transform="translate(76,198)"/>
<path d="M0 0 C2.64 0 5.28 0 8 0 C7.45276317 3.37462715 6.9451 5.08235 5 8 C4.34 7.01 3.68 6.02 3 5 C0.43717258 4.27034634 0.43717258 4.27034634 -2 4 C-1.01 3.67 -0.02 3.34 1 3 C0.67 2.01 0.34 1.02 0 0 Z " fill="#F1E9DD" transform="translate(112,34)"/>
<path d="M0 0 C2.97 0.495 2.97 0.495 6 1 C6.33 2.32 6.66 3.64 7 5 C3.37 5 -0.26 5 -4 5 C-4 3.68 -4 2.36 -4 1 C-3.01 1.495 -3.01 1.495 -2 2 C-2.33 2.66 -2.66 3.32 -3 4 C-2.34 4 -1.68 4 -1 4 C-0.67 2.68 -0.34 1.36 0 0 Z " fill="#EDEEF0" transform="translate(83,203)"/>
<path d="M0 0 C-0.33 1.32 -0.66 2.64 -1 4 C-2.32 3.67 -3.64 3.34 -5 3 C-4.67 4.32 -4.34 5.64 -4 7 C-6.57856865 7.92091738 -7.5943287 8.18506902 -10.140625 7.0234375 C-10.75421875 6.68570313 -11.3678125 6.34796875 -12 6 C-10.70903219 5.18639005 -9.41720125 4.37414954 -8.125 3.5625 C-7.04605469 2.88380859 -7.04605469 2.88380859 -5.9453125 2.19140625 C-2.36721311 0 -2.36721311 0 0 0 Z " fill="#F4E9C7" transform="translate(184,176)"/>
<path d="M0 0 C0.66 0.33 1.32 0.66 2 1 C1.09373216 2.2989839 0.17450463 3.58893167 -0.75 4.875 C-1.26046875 5.59429687 -1.7709375 6.31359375 -2.296875 7.0546875 C-4.61579064 9.7033572 -6.79369674 10.72427354 -10.1875 11.5 C-10.785625 11.665 -11.38375 11.83 -12 12 C-12.33 12.66 -12.66 13.32 -13 14 C-13 13.01 -13 12.02 -13 11 C-12.195625 10.731875 -11.39125 10.46375 -10.5625 10.1875 C-9.716875 9.795625 -8.87125 9.40375 -8 9 C-7.67 8.01 -7.34 7.02 -7 6 C-6.01 6 -5.02 6 -4 6 C-3.896875 5.38125 -3.79375 4.7625 -3.6875 4.125 C-3 2 -3 2 0 0 Z " fill="#FBB507" transform="translate(132,82)"/>
<path d="M0 0 C0.33 0 0.66 0 1 0 C1.33 5.94 1.66 11.88 2 18 C1.34 16.68 0.68 15.36 0 14 C-0.66 14.99 -1.32 15.98 -2 17 C-2.25706972 11.08739655 -1.2982126 5.76081841 0 0 Z " fill="#F2A922" transform="translate(59,38)"/>
<path d="M0 0 C3.48670834 1.1094072 6.77484237 2.26337666 10 4 C10 4.66 10 5.32 10 6 C10.66 6.33 11.32 6.66 12 7 C11.01 7 10.02 7 9 7 C9 6.34 9 5.68 9 5 C8.443125 5.185625 7.88625 5.37125 7.3125 5.5625 C4.600867 6.07551165 2.65628961 5.6640724 0 5 C0 3.35 0 1.7 0 0 Z " fill="#F6EDD7" transform="translate(56,185)"/>
<path d="M0 0 C-2.85324437 1.42662219 -4.83454549 1.31033868 -8 1 C-10.875 -1 -10.875 -1 -13 -3 C-7.51451894 -4.5672803 -4.61677582 -3.07785055 0 0 Z " fill="#F3CD2F" transform="translate(117,215)"/>
<path d="M0 0 C0.33 0 0.66 0 1 0 C1 1.98 1 3.96 1 6 C1.66 6 2.32 6 3 6 C3 8.31 3 10.62 3 13 C2.34 12.34 1.68 11.68 1 11 C0.01 11.99 -0.98 12.98 -2 14 C-1.03644647 4.58997722 -1.03644647 4.58997722 0 0 Z " fill="#F3AD2A" transform="translate(44,130)"/>
<path d="M0 0 C0.66 0.33 1.32 0.66 2 1 C0.02 1.99 0.02 1.99 -2 3 C-2 4.98 -2 6.96 -2 9 C-4.64 9.66 -7.28 10.32 -10 11 C-7.17477391 6.32751069 -4.32239956 3.34003602 0 0 Z " fill="#FDB40A" transform="translate(110,103)"/>
<path d="M0 0 C1.98 0.66 3.96 1.32 6 2 C4.70700306 4.88437779 3.34058637 6.87219421 1 9 C-1.125 3.375 -1.125 3.375 0 0 Z " fill="#F8EFDA" transform="translate(96,51)"/>
<path d="M0 0 C1.98 0 3.96 0 6 0 C4.95125002 2.62187494 4.35068687 3.79371361 1.875 5.25 C1.25625 5.4975 0.6375 5.745 0 6 C0 6.66 0 7.32 0 8 C-0.66 8 -1.32 8 -2 8 C-1.34 5.36 -0.68 2.72 0 0 Z " fill="#FBFBEE" transform="translate(160,48)"/>
<path d="M0 0 C1 4 1 4 -0.0625 6.25 C-2 8 -2 8 -5.1875 8.25 C-6.115625 8.1675 -7.04375 8.085 -8 8 C-7.67 6.68 -7.34 5.36 -7 4 C-7 4.66 -7 5.32 -7 6 C-4.69 4.02 -2.38 2.04 0 0 Z " fill="#F2C323" transform="translate(142,72)"/>
<path d="M0 0 C1.09658936 3.28976808 0.79953138 4.71303767 0 8 C-0.99 8 -1.98 8 -3 8 C-5 5 -5 5 -5 2 C-3.35 2 -1.7 2 0 2 C0 1.34 0 0.68 0 0 Z " fill="#F2F0E6" transform="translate(127,48)"/>
<path d="M0 0 C0.66 0.66 1.32 1.32 2 2 C4.06874034 2.6425235 4.06874034 2.6425235 6 3 C5.34 4.65 4.68 6.3 4 8 C3.34 8 2.68 8 2 8 C2 7.34 2 6.68 2 6 C1.34 6 0.68 6 0 6 C0 4.02 0 2.04 0 0 Z " fill="#F7BD1E" transform="translate(38,168)"/>
<path d="M0 0 C1.50416548 3.00833096 0.60839737 5.34961578 0.0625 8.625 C-0.13214844 9.81351563 -0.32679687 11.00203125 -0.52734375 12.2265625 C-0.68332031 13.14179688 -0.83929688 14.05703125 -1 15 C-1.33 15 -1.66 15 -2 15 C-3.10962199 10.56151204 -3.2982655 6.54854894 -3 2 C-2.01 1.34 -1.02 0.68 0 0 Z " fill="#F3E8CE" transform="translate(39,158)"/>
<path d="M0 0 C0.66 0 1.32 0 2 0 C2 0.99 2 1.98 2 3 C2.66 3 3.32 3 4 3 C4 4.65 4 6.3 4 8 C3.34 8 2.68 8 2 8 C1.67 8.99 1.34 9.98 1 11 C0.67 7.37 0.34 3.74 0 0 Z " fill="#EFE9C9" transform="translate(184,149)"/>
<path d="M0 0 C-1.26794449 3.80383347 -2.64453288 4.00269814 -6 6 C-7.78344178 8.06954847 -7.78344178 8.06954847 -9 10 C-9.99 9.67 -10.98 9.34 -12 9 C-10.57189185 7.49105554 -9.13218981 5.99307655 -7.6875 4.5 C-6.88699219 3.6646875 -6.08648437 2.829375 -5.26171875 1.96875 C-3 0 -3 0 0 0 Z " fill="#FDB00B" transform="translate(68,146)"/>
<path d="M0 0 C1.32 0.33 2.64 0.66 4 1 C4 3.97 4 6.94 4 10 C3.34 10 2.68 10 2 10 C2 8.35 2 6.7 2 5 C1.34 5 0.68 5 0 5 C0 3.35 0 1.7 0 0 Z " fill="#EEEEF4" transform="translate(186,147)"/>
<path d="M0 0 C0.99 1.485 0.99 1.485 2 3 C2.66 2.01 3.32 1.02 4 0 C4.08333357 4.8333472 3.95261487 9.23692563 3 14 C2.67 14 2.34 14 2 14 C2 11.36 2 8.72 2 6 C1.34 6 0.68 6 0 6 C0 4.02 0 2.04 0 0 Z " fill="#F6EAD2" transform="translate(57,24)"/>
<path d="M0 0 C0.33 0.66 0.66 1.32 1 2 C0.67 2.99 0.34 3.98 0 5 C-0.03874921 6.66621616 -0.0450286 8.33394172 0 10 C-0.99 10 -1.98 10 -3 10 C-3.29296875 3.9453125 -3.29296875 3.9453125 -3 2 C-2.01 1.34 -1.02 0.68 0 0 Z " fill="#EEF2EE" transform="translate(183,102)"/>
<path d="M0 0 C0.66 0 1.32 0 2 0 C2 0.66 2 1.32 2 2 C2.66 2 3.32 2 4 2 C3.67 3.98 3.34 5.96 3 8 C2.01 7.67 1.02 7.34 0 7 C-1.17755913 4.05610218 -1.03348696 3.10046087 0 0 Z " fill="#F9FBED" transform="translate(93,46)"/>
<path d="M0 0 C0.33 0 0.66 0 1 0 C0.88590407 1.45922693 0.75834456 2.91740598 0.625 4.375 C0.55539063 5.18710937 0.48578125 5.99921875 0.4140625 6.8359375 C0 9 0 9 -2 11 C-3 10 -3 10 -3.25 7.75 C-2.95129547 4.46425018 -1.90159742 2.66223639 0 0 Z " fill="#F5A210" transform="translate(59,51)"/>
<path d="M0 0 C2.64 0.33 5.28 0.66 8 1 C6 4 6 4 3.375 4.6875 C2.199375 4.8421875 2.199375 4.8421875 1 5 C0.67 3.35 0.34 1.7 0 0 Z " fill="#F6CB22" transform="translate(152,188)"/>
<path d="M0 0 C0.66 0.33 1.32 0.66 2 1 C2 2.98 2 4.96 2 7 C1.01 7.495 1.01 7.495 0 8 C0 7.34 0 6.68 0 6 C-0.66 6 -1.32 6 -2 6 C-2.33 4.35 -2.66 2.7 -3 1 C-2.01 0.67 -1.02 0.34 0 0 Z " fill="#F3E9DF" transform="translate(133,66)"/>
<path d="M0 0 C2.13586678 3.20380017 2.23132175 4.01939967 2.125 7.6875 C2.10695312 8.49574219 2.08890625 9.30398437 2.0703125 10.13671875 C2.03550781 11.05904297 2.03550781 11.05904297 2 12 C1.67 12 1.34 12 1 12 C1 10.02 1 8.04 1 6 C-1.97 5.505 -1.97 5.505 -5 5 C-3.68 4.67 -2.36 4.34 -1 4 C-0.67 2.68 -0.34 1.36 0 0 Z " fill="#F6EBD2" transform="translate(169,47)"/>
<path d="M0 0 C-0.33 1.32 -0.66 2.64 -1 4 C-2.32 4 -3.64 4 -5 4 C-5.66 4.66 -6.32 5.32 -7 6 C-7.66 5.34 -8.32 4.68 -9 4 C-2.25 0 -2.25 0 0 0 Z " fill="#F6F0CB" transform="translate(172,183)"/>
<path d="M0 0 C0 2.83967231 -0.40267181 5.23735711 -1 8 C-2.65 7.67 -4.3 7.34 -6 7 C-4.02 4.69 -2.04 2.38 0 0 Z " fill="#F8CB2B" transform="translate(150,64)"/>
<path d="M0 0 C0.33 0.66 0.66 1.32 1 2 C1.66 2 2.32 2 3 2 C1.54744301 5.82946843 -0.42895561 7.12050295 -4 9 C-2.80100302 5.9168649 -1.52299523 2.93720508 0 0 Z " fill="#F3951E" transform="translate(106,44)"/>
<path d="M0 0 C3.3125 0.1875 3.3125 0.1875 7 1 C8.9375 3.5625 8.9375 3.5625 10 6 C5 4 5 4 0 2 C0 1.34 0 0.68 0 0 Z " fill="#F5D564" transform="translate(69,192)"/>
<path d="M0 0 C0.66 0 1.32 0 2 0 C1.67 4.29 1.34 8.58 1 13 C0.67 13 0.34 13 0 13 C-0.19397476 11.02145742 -0.38001321 9.0421352 -0.5625 7.0625 C-0.66691406 5.96035156 -0.77132812 4.85820313 -0.87890625 3.72265625 C-0.91886719 2.82417969 -0.95882812 1.92570312 -1 1 C-0.67 0.67 -0.34 0.34 0 0 Z " fill="#FAEDD5" transform="translate(51,75)"/>
<path d="M0 0 C2.475 0.99 2.475 0.99 5 2 C5 2.66 5 3.32 5 4 C5.66 4.33 6.32 4.66 7 5 C4.03 5.66 1.06 6.32 -2 7 C-1.01 6.01 -0.02 5.02 1 4 C0.77242269 1.83700789 0.77242269 1.83700789 0 0 Z " fill="#F5E9C3" transform="translate(99,209)"/>
<path d="M0 0 C2.31 0 4.62 0 7 0 C7.33 0.99 7.66 1.98 8 3 C4.25 4.125 4.25 4.125 2 3 C2 2.34 2 1.68 2 1 C1.34 0.67 0.68 0.34 0 0 Z " fill="#F6CB1D" transform="translate(64,188)"/>
<path d="M0 0 C0.99 0.33 1.98 0.66 3 1 C2.34 1 1.68 1 1 1 C1 1.66 1 2.32 1 3 C-0.63604196 4.37073786 -2.30678061 5.70055256 -4 7 C-5.0173873 7.98230498 -6.02596117 8.97469597 -7 10 C-6.3125 7.125 -6.3125 7.125 -5 4 C-2.375 2.625 -2.375 2.625 0 2 C0 1.34 0 0.68 0 0 Z " fill="#F18300" transform="translate(90,120)"/>
<path d="M0 0 C2 3 2 3 1.75 6.0625 C1 9 1 9 -1 11 C-1.125 3.375 -1.125 3.375 0 0 Z " fill="#F6C510" transform="translate(173,85)"/>
<path d="M0 0 C2.97 0.495 2.97 0.495 6 1 C6 1.99 6 2.98 6 4 C3.36 3.67 0.72 3.34 -2 3 C-1.34 2.01 -0.68 1.02 0 0 Z " fill="#F1B137" transform="translate(66,9)"/>
<path d="M0 0 C0.33 1.32 0.66 2.64 1 4 C1.99 4 2.98 4 4 4 C3.67 4.99 3.34 5.98 3 7 C2.01 6.67 1.02 6.34 0 6 C0.33 7.32 0.66 8.64 1 10 C0.34 10 -0.32 10 -1 10 C-0.67 6.7 -0.34 3.4 0 0 Z " fill="#F8A727" transform="translate(40,156)"/>
<path d="M0 0 C1.32 0.66 2.64 1.32 4 2 C3.01 2.33 2.02 2.66 1 3 C-0.70855022 6.00007271 -0.70855022 6.00007271 -2 9 C-2.33 9 -2.66 9 -3 9 C-3 7.02 -3 5.04 -3 3 C-2.34 3 -1.68 3 -1 3 C-0.67 2.01 -0.34 1.02 0 0 Z " fill="#FCF9E8" transform="translate(109,35)"/>
<path d="M0 0 C0.33 0.66 0.66 1.32 1 2 C-0.32 2.33 -1.64 2.66 -3 3 C-3 3.66 -3 4.32 -3 5 C-3.66 4.67 -4.32 4.34 -5 4 C-4.67 3.34 -4.34 2.68 -4 2 C-4.99 1.67 -5.98 1.34 -7 1 C-4.53721199 -0.231394 -2.7204945 -0.07159196 0 0 Z " fill="#F5CA17" transform="translate(145,196)"/>
<path d="M0 0 C1.485 0.99 1.485 0.99 3 2 C2.67 2.99 2.34 3.98 2 5 C2.66 5.33 3.32 5.66 4 6 C2.68 6.99 1.36 7.98 0 9 C0.33 7.35 0.66 5.7 1 4 C0.34 3.67 -0.32 3.34 -1 3 C-0.67 2.01 -0.34 1.02 0 0 Z " fill="#F7F3E1" transform="translate(144,61)"/>
<path d="M0 0 C0.99 0 1.98 0 3 0 C3 0.99 3 1.98 3 3 C2.34 3 1.68 3 1 3 C1.33 4.65 1.66 6.3 2 8 C0.4375 6.8125 0.4375 6.8125 -1 5 C-0.6875 2.3125 -0.6875 2.3125 0 0 Z " fill="#FAF5E7" transform="translate(73,8)"/>
<path d="M0 0 C1.98 0 3.96 0 6 0 C6.66 1.32 7.32 2.64 8 4 C6.68 4 5.36 4 4 4 C4 3.01 4 2.02 4 1 C2.68 1.33 1.36 1.66 0 2 C0 1.34 0 0.68 0 0 Z " fill="#EF9C2C" transform="translate(109,38)"/>
<path d="M0 0 C2.31 0 4.62 0 7 0 C6 2 6 2 2.9375 3.125 C1.4834375 3.558125 1.4834375 3.558125 0 4 C0 2.68 0 1.36 0 0 Z " fill="#F7CC2E" transform="translate(133,201)"/>
<path d="M0 0 C1.98 0.495 1.98 0.495 4 1 C3.67 1.99 3.34 2.98 3 4 C2.01 4.33 1.02 4.66 0 5 C-0.33 4.01 -0.66 3.02 -1 2 C-0.67 1.34 -0.34 0.68 0 0 Z " fill="#F8F9E0" transform="translate(153,56)"/>
</svg>
