<?xml version="1.0" encoding="UTF-8"?>
<svg version="1.1" xmlns="http://www.w3.org/2000/svg" width="275" height="184">
<path d="M0 0 C1.85473633 0.29760742 1.85473633 0.29760742 4 1 C5.73782743 3.42127553 7.22430506 5.73563774 8.6875 8.3125 C9.09033203 8.98990234 9.49316406 9.66730469 9.90820312 10.36523438 C11.78123072 13.57479423 13.21635167 16.34079068 14 20 C15.0415625 19.65066406 16.083125 19.30132812 17.15625 18.94140625 C36.39040462 12.7337011 53.85011925 12.77495342 73 20 C73.37511719 18.72576172 73.37511719 18.72576172 73.7578125 17.42578125 C75.10766987 13.7030614 76.82445606 10.57283198 78.875 7.1875 C79.38353516 6.31061523 79.38353516 6.31061523 79.90234375 5.41601562 C82.46611624 1.20967407 82.46611624 1.20967407 85.2578125 0.11328125 C85.83273438 0.07589844 86.40765625 0.03851563 87 0 C87.80859375 1.94921875 87.80859375 1.94921875 88 5 C86.66690541 8.12831848 84.87460452 10.94152962 83.0625 13.8125 C82.58103516 14.60076172 82.09957031 15.38902344 81.60351562 16.20117188 C80.41516296 18.14254008 79.21391745 20.07455237 78 22 C78.72445312 22.57234375 79.44890625 23.1446875 80.1953125 23.734375 C84.62898032 27.3158894 88.84503172 31.09981751 93 35 C93.63421875 35.59425781 94.2684375 36.18851563 94.921875 36.80078125 C104.56059316 46.77110668 111 62.22932195 111 76 C66.45 76 21.9 76 -24 76 C-22.11323351 57.13233514 -14.74749447 42.05007396 -0.26953125 29.6640625 C1.45044018 28.28907813 3.18354867 26.93024765 4.93359375 25.59375 C7.06573328 24.01964811 7.06573328 24.01964811 9 22 C8.6918335 21.51120361 8.38366699 21.02240723 8.06616211 20.51879883 C6.67454092 18.29257399 5.30598921 16.05301179 3.9375 13.8125 C3.45216797 13.04357422 2.96683594 12.27464844 2.46679688 11.48242188 C-1.04283955 5.68280992 -1.04283955 5.68280992 -0.80859375 1.94921875 C-0.54175781 1.30597656 -0.27492188 0.66273437 0 0 Z M8 49 C7.49985047 51.54258463 7.49985047 51.54258463 8 54 C8.66 54.66 9.32 55.32 10 56 C13.59679066 55.67673447 13.59679066 55.67673447 17 55 C17.85974801 52.70705512 17.85974801 52.70705512 18 50 C16.29118236 47.62419982 16.29118236 47.62419982 14 46 C11.1176825 46 10.04424538 47.02389614 8 49 Z M70.75 47.6875 C68.67852223 49.8856322 68.67852223 49.8856322 69.25 52.75 C69.4975 53.4925 69.745 54.235 70 55 C73.40320934 55.67673447 73.40320934 55.67673447 77 56 C79.22966747 54.17796419 79.22966747 54.17796419 79.3125 51.5625 C79.2071948 48.97824934 79.2071948 48.97824934 77.6875 47.1875 C74.85911509 45.19715506 73.41618169 45.68786373 70.75 47.6875 Z " fill="#3DDA84" transform="translate(94,33)"/>
<path d="M0 0 C2.64 0 5.28 0 8 0 C8 2.31 8 4.62 8 7 C9.98 7 11.96 7 14 7 C14 4.69 14 2.38 14 0 C16.33294775 -0.04241723 18.66702567 -0.04092937 21 0 C22 1 22 1 22.11352539 3.04125977 C22.10828857 3.91580811 22.10305176 4.79035645 22.09765625 5.69140625 C22.09443359 6.63564453 22.09121094 7.57988281 22.08789062 8.55273438 C22.07951172 9.54595703 22.07113281 10.53917969 22.0625 11.5625 C22.05798828 12.55958984 22.05347656 13.55667969 22.04882812 14.58398438 C22.03700007 17.05604849 22.02051849 19.52799518 22 22 C19.36 22 16.72 22 14 22 C14 19.03 14 16.06 14 13 C12.02 13 10.04 13 8 13 C8 15.97 8 18.94 8 22 C5.36 22 2.72 22 0 22 C0 14.74 0 7.48 0 0 Z " fill="#48C280" transform="translate(142,115)"/>
<path d="M0 0 C1.01610352 -0.04350586 1.01610352 -0.04350586 2.05273438 -0.08789062 C5.53087119 -0.13208982 7.33157661 0.03362626 10.10546875 2.20703125 C12.56714899 5.48319335 12.91934118 7.55598577 13.0625 11.625 C13.11148438 12.56988281 13.16046875 13.51476562 13.2109375 14.48828125 C12.45867309 18.54714071 11.01043059 19.912365 7.6875 22.3125 C4.88014107 22.88595004 2.22494433 22.79054636 -0.625 22.625 C-1.36556641 22.60244141 -2.10613281 22.57988281 -2.86914062 22.55664062 C-4.68447357 22.4980815 -6.49875681 22.40840886 -8.3125 22.3125 C-8.34137814 18.83335059 -8.35925687 15.35423169 -8.375 11.875 C-8.38337891 10.88177734 -8.39175781 9.88855469 -8.40039062 8.86523438 C-8.40361328 7.92099609 -8.40683594 6.97675781 -8.41015625 6.00390625 C-8.41539307 5.12935791 -8.42062988 4.25480957 -8.42602539 3.35375977 C-8.16830864 -1.28015371 -3.63637324 0.05102488 0 0 Z M-0.3125 6.3125 C-0.3125 9.6125 -0.3125 12.9125 -0.3125 16.3125 C1.3375 16.3125 2.9875 16.3125 4.6875 16.3125 C5.88738045 11.03050407 5.88738045 11.03050407 3.6875 6.3125 C2.3675 6.3125 1.0475 6.3125 -0.3125 6.3125 Z " fill="#42D083" transform="translate(85.3125,114.6875)"/>
<path d="M0 0 C0 1.98 0 3.96 0 6 C0.99 6 1.98 6 3 6 C3 7.65 3 9.3 3 11 C2.01 11 1.02 11 0 11 C0.34227572 13.97065509 0.34227572 13.97065509 1 17 C1.66 17.33 2.32 17.66 3 18 C2.67 19.65 2.34 21.3 2 23 C-3.625 23.25 -3.625 23.25 -7 21 C-8.1577506 17.52674819 -8.06866652 14.63932552 -8 11 C-8.66 11 -9.32 11 -10 11 C-10 9.35 -10 7.7 -10 6 C-9.34 6 -8.68 6 -8 6 C-7.9175 5.38125 -7.835 4.7625 -7.75 4.125 C-7 2 -7 2 -5.125 0.75 C-3 0 -3 0 0 0 Z " fill="#46C683" transform="translate(196,115)"/>
<path d="M0 0 C1.98 0 3.96 0 6 0 C6 2.31 6 4.62 6 7 C8.64 7 11.28 7 14 7 C14 4.69 14 2.38 14 0 C15.98 0 17.96 0 20 0 C19.67 2.31 19.34 4.62 19 7 C17.68 7.33 16.36 7.66 15 8 C15.33 8.66 15.66 9.32 16 10 C11.545 10.495 11.545 10.495 7 11 C6.67 13.97 6.34 16.94 6 20 C4.02 19.67 2.04 19.34 0 19 C0 12.73 0 6.46 0 0 Z " fill="#3CD982" transform="translate(143,116)"/>
<path d="M0 0 C2.64 0 5.28 0 8 0 C8 7.26 8 14.52 8 22 C5.36 22 2.72 22 0 22 C0 14.74 0 7.48 0 0 Z " fill="#47CC82" transform="translate(101,115)"/>
<path d="M0 0 C2.31 0 4.62 0 7 0 C7 7.26 7 14.52 7 22 C4.69 22 2.38 22 0 22 C0 14.74 0 7.48 0 0 Z " fill="#45CD82" transform="translate(177,115)"/>
<path d="M0 0 C2.125 0.375 2.125 0.375 4 1 C3.52195518 6.58008684 1.35840734 10.25880341 -1.5625 14.875 C-1.98724609 15.56335937 -2.41199219 16.25171875 -2.84960938 16.9609375 C-3.8910775 18.64600952 -4.94435916 20.32377031 -6 22 C-4.35 23.65 -2.7 25.3 -1 27 C-3.96175123 26.38722388 -5.38058783 25.74627478 -8 24 C-9.125 22 -9.125 22 -10 20 C-10.33 19.34 -10.66 18.68 -11 18 C-10.3190918 16.3359375 -10.3190918 16.3359375 -9.19921875 14.375 C-8.79896484 13.66859375 -8.39871094 12.9621875 -7.98632812 12.234375 C-7.55771484 11.49703125 -7.12910156 10.7596875 -6.6875 10 C-6.27048828 9.26265625 -5.85347656 8.5253125 -5.42382812 7.765625 C-2.29311034 2.29311034 -2.29311034 2.29311034 0 0 Z " fill="#45CC83" transform="translate(178,33)"/>
<path d="M0 0 C1.09570312 0.00902344 2.19140625 0.01804687 3.3203125 0.02734375 C4.16335937 0.03894531 5.00640625 0.05054687 5.875 0.0625 C7 3.8125 7 3.8125 5.875 6.0625 C4.885 5.7325 3.895 5.4025 2.875 5.0625 C2.875 4.4025 2.875 3.7425 2.875 3.0625 C0.565 3.0625 -1.745 3.0625 -4.125 3.0625 C-4.063125 4.155625 -4.00125 5.24875 -3.9375 6.375 C-4.125 10.0625 -4.125 10.0625 -5.625 12 C-6.12 12.350625 -6.615 12.70125 -7.125 13.0625 C-6.135 13.0625 -5.145 13.0625 -4.125 13.0625 C-3.795 13.7225 -3.465 14.3825 -3.125 15.0625 C-1.145 15.0625 0.835 15.0625 2.875 15.0625 C3.205 14.4025 3.535 13.7425 3.875 13.0625 C6.9375 12.4375 6.9375 12.4375 9.875 12.0625 C9.545 13.7125 9.215 15.3625 8.875 17.0625 C3.44864835 18.87128388 -2.45614562 18.11450784 -8.125 18.0625 C-8.125 12.4525 -8.125 6.8425 -8.125 1.0625 C-5.36047967 -0.31976016 -3.0788637 -0.03275387 0 0 Z " fill="#39DC82" transform="translate(87.125,116.9375)"/>
<path d="M0 0 C2.37328966 0.37889965 3.66306738 0.62492527 5.29614258 2.44287109 C5.65861084 3.04695801 6.0210791 3.65104492 6.39453125 4.2734375 C6.79220703 4.9334375 7.18988281 5.5934375 7.59960938 6.2734375 C7.99986328 6.96695313 8.40011719 7.66046875 8.8125 8.375 C9.23208984 9.06078125 9.65167969 9.7465625 10.08398438 10.453125 C11.14607191 12.25184986 12.08242905 14.12343277 13 16 C12.67 16.99 12.34 17.98 12 19 C11.34 19 10.68 19 10 19 C9.67 19.99 9.34 20.98 9 22 C7.28845035 19.28523614 5.61032091 16.55126836 3.9375 13.8125 C3.45216797 13.04357422 2.96683594 12.27464844 2.46679688 11.48242188 C-1.04283955 5.68280992 -1.04283955 5.68280992 -0.80859375 1.94921875 C-0.54175781 1.30597656 -0.27492188 0.66273437 0 0 Z " fill="#41D284" transform="translate(94,33)"/>
<path d="M0 0 C2.31 0 4.62 0 7 0 C7 5.28 7 10.56 7 16 C4.69 16 2.38 16 0 16 C0 10.72 0 5.44 0 0 Z " fill="#51C885" transform="translate(167,121)"/>
<path d="M0 0 C0.99 0 1.98 0 3 0 C2.41640925 8.31616812 0.26200586 16.01459326 -2 24 C-3.32 24 -4.64 24 -6 24 C-2.38297872 2.38297872 -2.38297872 2.38297872 0 0 Z " fill="#42C57F" transform="translate(127,114)"/>
<path d="M0 0 C1.98 0.66 3.96 1.32 6 2 C6 3.32 6 4.64 6 6 C5.01 6 4.02 6 3 6 C3.33 6.66 3.66 7.32 4 8 C4.25860135 12.05142119 4.30441554 13.54337669 2 17 C1.34 17 0.68 17 0 17 C-1.04792525 13.56513389 -1.13372185 10.39281963 -1.125 6.8125 C-1.12757813 5.74644531 -1.13015625 4.68039063 -1.1328125 3.58203125 C-1 1 -1 1 0 0 Z " fill="#3DDA81" transform="translate(191,119)"/>
<path d="M0 0 C1.39456452 0.00667256 2.78911118 0.01863093 4.18359375 0.03515625 C4.89451172 0.03966797 5.60542969 0.04417969 6.33789062 0.04882812 C8.09899388 0.06064761 9.86005411 0.07858362 11.62109375 0.09765625 C11.62109375 0.42765625 11.62109375 0.75765625 11.62109375 1.09765625 C7.00109375 1.42765625 2.38109375 1.75765625 -2.37890625 2.09765625 C-2.37890625 8.03765625 -2.37890625 13.97765625 -2.37890625 20.09765625 C6.03609375 19.60265625 6.03609375 19.60265625 14.62109375 19.09765625 C11.62109375 22.09765625 11.62109375 22.09765625 7.828125 22.390625 C6.36299442 22.37073635 4.89801008 22.33503593 3.43359375 22.28515625 C2.68400391 22.27162109 1.93441406 22.25808594 1.16210938 22.24414062 C-0.68520392 22.20884164 -2.53214691 22.15503542 -4.37890625 22.09765625 C-4.40778439 18.61850684 -4.42566312 15.13938794 -4.44140625 11.66015625 C-4.44978516 10.66693359 -4.45816406 9.67371094 -4.46679688 8.65039062 C-4.47001953 7.70615234 -4.47324219 6.76191406 -4.4765625 5.7890625 C-4.48179932 4.91451416 -4.48703613 4.03996582 -4.49243164 3.13891602 C-4.29828606 -0.35194686 -3.60712831 0.10425226 0 0 Z " fill="#56B981" transform="translate(81.37890625,114.90234375)"/>
<path d="M0 0 C3.4375 0.25 3.4375 0.25 7 1 C9.45811625 4.68717438 9.31118164 6.64345704 9 11 C8.01 12.485 8.01 12.485 7 14 C3.875 14.1875 3.875 14.1875 1 14 C0.67 13.01 0.34 12.02 0 11 C-0.99 11 -1.98 11 -3 11 C-2.33333333 9.66666667 -1.66666667 8.33333333 -1 7 C-1 5.989375 -1 4.97875 -1 3.9375 C-1 1 -1 1 0 0 Z M2 2 C2 5.3 2 8.6 2 12 C3.65 12 5.3 12 7 12 C8.19988045 6.71800407 8.19988045 6.71800407 6 2 C4.68 2 3.36 2 2 2 Z " fill="#4CCA85" transform="translate(83,119)"/>
<path d="M0 0 C0.33 1.32 0.66 2.64 1 4 C0.34 4 -0.32 4 -1 4 C-1.12375 4.70125 -1.2475 5.4025 -1.375 6.125 C-2.24846484 10.14293825 -3.62400721 13.94252028 -5 17.8125 C-6.25915944 21.82607071 -7.14044575 25.88511265 -8 30 C-6.68 30.33 -5.36 30.66 -4 31 C-5.98 31 -7.96 31 -10 31 C-9.71943624 19.93048418 -5.97008325 9.28679617 0 0 Z " fill="#4DC286" transform="translate(80,78)"/>
<path d="M0 0 C2 2 2 2 2.1953125 3.9453125 C2.13020833 5.96354167 2.06510417 7.98177083 2 10 C0.02 10 -1.96 10 -4 10 C-4.25 7.25 -4.25 7.25 -4 4 C-2 1.625 -2 1.625 0 0 Z " fill="#3BD980" transform="translate(161,125)"/>
<path d="M0 0 C3.75732602 2.07781457 6.62096351 4.37668619 9.625 7.4375 C10.38039062 8.19933594 11.13578125 8.96117188 11.9140625 9.74609375 C17 15.24157303 17 15.24157303 17 18 C16.34 18 15.68 18 15 18 C12.78578579 15.43981482 10.87799375 12.81699062 9 10 C8.319375 9.835 7.63875 9.67 6.9375 9.5 C6.298125 9.335 5.65875 9.17 5 9 C4.67 8.01 4.34 7.02 4 6 C3.319375 5.319375 2.63875 4.63875 1.9375 3.9375 C1.298125 3.298125 0.65875 2.65875 0 2 C0 1.34 0 0.68 0 0 Z " fill="#4AC284" transform="translate(177,60)"/>
<path d="M0 0 C3.01093246 3.50093432 5.0312048 6.80568881 6.8125 11.0625 C7.25207031 12.08472656 7.69164062 13.10695313 8.14453125 14.16015625 C9.01108985 17.03681425 9.07451633 18.251084 8 21 C7.51080078 19.75283203 7.51080078 19.75283203 7.01171875 18.48046875 C6.57472656 17.39378906 6.13773438 16.30710937 5.6875 15.1875 C5.25824219 14.10855469 4.82898438 13.02960938 4.38671875 11.91796875 C3.11695645 9.24610273 2.05390062 8.00613549 0 6 C-0.1875 2.8125 -0.1875 2.8125 0 0 Z " fill="#50C288" transform="translate(194,78)"/>
<path d="M0 0 C2.31 0 4.62 0 7 0 C7 1.65 7 3.3 7 5 C4.69 5 2.38 5 0 5 C0 3.35 0 1.7 0 0 Z " fill="#4BC184" transform="translate(167,115)"/>
<path d="M0 0 C1.98 0.495 1.98 0.495 4 1 C4 1.99 4 2.98 4 4 C3.01 3.67 2.02 3.34 1 3 C1 3.99 1 4.98 1 6 C1.66 6 2.32 6 3 6 C3.99 8.97 4.98 11.94 6 15 C2.90471401 11.90471401 0.63692864 9.06563254 -1 5 C-0.75 2.0625 -0.75 2.0625 0 0 Z " fill="#52BC84" transform="translate(94,33)"/>
<path d="M0 0 C0.99 0.33 1.98 0.66 3 1 C3 3.31 3 5.62 3 8 C0.59454362 9.20272819 -0.94996953 9.10071472 -3.625 9.0625 C-4.85089844 9.04896484 -4.85089844 9.04896484 -6.1015625 9.03515625 C-7.04128906 9.01775391 -7.04128906 9.01775391 -8 9 C-8.33 7.35 -8.66 5.7 -9 4 C-8.67 4.99 -8.34 5.98 -8 7 C-5.66705225 7.04241723 -3.33297433 7.04092937 -1 7 C0.35618499 5.87465895 0.35618499 5.87465895 0.0625 2.9375 C0.041875 1.968125 0.02125 0.99875 0 0 Z " fill="#51BC82" transform="translate(172,81)"/>
<path d="M0 0 C0 0.33 0 0.66 0 1 C-1.134375 1.12375 -2.26875 1.2475 -3.4375 1.375 C-5.2009375 1.684375 -5.2009375 1.684375 -7 2 C-7.33 2.66 -7.66 3.32 -8 4 C-10.0625 4.625 -10.0625 4.625 -12 5 C-12 4.34 -12 3.68 -12 3 C-14.64 3.33 -17.28 3.66 -20 4 C-13.80545641 -0.12969572 -7.21503643 -0.30062652 0 0 Z " fill="#4BC284" transform="translate(134,48)"/>
<path d="M0 0 C2.0625 0.4375 2.0625 0.4375 4 1 C3.57202798 6.70629354 1.15654048 10.41078616 -2 15 C-3 12 -3 12 -2.22265625 9.95703125 C-1.83980469 9.24933594 -1.45695313 8.54164062 -1.0625 7.8125 C-0.68222656 7.09707031 -0.30195313 6.38164063 0.08984375 5.64453125 C0.39019531 5.10183594 0.69054687 4.55914062 1 4 C1.66 4 2.32 4 3 4 C3 3.34 3 2.68 3 2 C1.68 1.67 0.36 1.34 -1 1 C-0.67 0.67 -0.34 0.34 0 0 Z " fill="#48BB7F" transform="translate(178,33)"/>
<path d="M0 0 C0.99 0.33 1.98 0.66 3 1 C3.33 3.97 3.66 6.94 4 10 C2.68 10 1.36 10 0 10 C0 6.7 0 3.4 0 0 Z " fill="#3BDB82" transform="translate(169,125)"/>
<path d="M0 0 C2.50037734 2.17424117 3.43628586 3.73045798 4 7 C3.01 7.33 2.02 7.66 1 8 C0.67 8.99 0.34 9.98 0 11 C-0.99 9.02 -1.98 7.04 -3 5 C-2.01 5 -1.02 5 0 5 C0 3.35 0 1.7 0 0 Z " fill="#4CC483" transform="translate(103,44)"/>
<path d="M0 0 C0.33 0 0.66 0 1 0 C1.66 1.98 2.32 3.96 3 6 C5.31 6 7.62 6 10 6 C9.67 6.99 9.34 7.98 9 9 C5.7 8.67 2.4 8.34 -1 8 C-0.67 5.36 -0.34 2.72 0 0 Z " fill="#4CC283" transform="translate(101,82)"/>
<path d="M0 0 C4.455 0.99 4.455 0.99 9 2 C9 2.66 9 3.32 9 4 C9.99 4.33 10.98 4.66 12 5 C11.21625 4.814375 10.4325 4.62875 9.625 4.4375 C7.02910225 3.74037734 7.02910225 3.74037734 5 5 C5 4.34 5 3.68 5 3 C3.02 3.33 1.04 3.66 -1 4 C-0.67 2.68 -0.34 1.36 0 0 Z " fill="#48CB87" transform="translate(155,50)"/>
<path d="M0 0 C0 1.98 0 3.96 0 6 C-2.91517292 4.92598892 -4.77810176 4.22189824 -7 2 C-4.35261084 0.5393715 -3.10551666 0 0 0 Z " fill="#43BF7C" transform="translate(196,115)"/>
<path d="M0 0 C0.33 0 0.66 0 1 0 C1 2.31 1 4.62 1 7 C1.66 6.67 2.32 6.34 3 6 C2.67 7.65 2.34 9.3 2 11 C0.68 11 -0.64 11 -2 11 C-1.34 7.37 -0.68 3.74 0 0 Z " fill="#4CB47F" transform="translate(123,127)"/>
<path d="M0 0 C0.99 0 1.98 0 3 0 C3 1.65 3 3.3 3 5 C1.68 5.33 0.36 5.66 -1 6 C-0.67 4.02 -0.34 2.04 0 0 Z " fill="#45D085" transform="translate(201,99)"/>
<path d="M0 0 C0.66 1.32 1.32 2.64 2 4 C0.25 5.5625 0.25 5.5625 -2 7 C-3.32 6.67 -4.64 6.34 -6 6 C-4.02 4.02 -2.04 2.04 0 0 Z " fill="#49C584" transform="translate(92,64)"/>
</svg>
