<?xml version="1.0" encoding="UTF-8"?>
<svg version="1.1" xmlns="http://www.w3.org/2000/svg" width="216" height="233">
<path d="M0 0 C3.00252131 1.57877351 5.91256999 3.26494102 8.82373047 5.00634766 C11.0278102 6.28429067 13.23224804 7.56161622 15.43701172 8.83837891 C17.12238037 9.82572021 17.12238037 9.82572021 18.84179688 10.83300781 C23.28987037 13.41623142 27.78393156 15.91160483 32.28344727 18.40380859 C37.29167048 21.18123032 42.27720398 23.99830829 47.26123047 26.81884766 C48.01017578 27.23924316 48.75912109 27.65963867 49.53076172 28.09277344 C56.09614139 31.80093812 61.64276106 34.96960199 65.26123047 41.81884766 C66.29665483 45.76427425 66.39903022 49.52510523 66.42236328 53.59350586 C66.42732819 54.25438202 66.43229309 54.91525818 66.43740845 55.59616089 C66.45194769 57.77066104 66.45881825 59.94508824 66.46435547 62.11962891 C66.46859653 63.23964326 66.46859653 63.23964326 66.47292328 64.38228416 C66.48788272 68.3337171 66.49713263 72.28511383 66.50146484 76.23657227 C66.5069445 80.30166478 66.53097091 84.36642151 66.5594368 88.43140888 C66.57813416 91.57227015 66.58327254 94.71305165 66.58480072 97.85396385 C66.58781181 99.35176618 66.59578771 100.84956763 66.6089859 102.34731483 C66.74787545 119.32000769 66.74787545 119.32000769 61.81054688 125.69067383 C56.70934099 129.69197674 51.27265713 132.93835328 45.63623047 136.13134766 C43.51219774 137.35211947 41.38851634 138.57350271 39.26513672 139.79541016 C38.13994629 140.44026367 37.01475586 141.08511719 35.85546875 141.74951172 C30.04973265 145.08453848 24.27987456 148.48120697 18.50640869 151.87167358 C16.60346394 152.98889116 14.69979738 154.10486841 12.79589844 155.22045898 C6.6687613 158.78640717 6.6687613 158.78640717 0.62133789 162.48413086 C-3.31797657 164.71194012 -7.3216693 165.33428504 -11.71826172 164.39672852 C-18.36018295 162.22641722 -24.20128209 158.9889995 -30.23876953 155.50634766 C-32.44951188 154.24819219 -34.66045545 152.99039024 -36.87158203 151.73291016 C-38.00112305 151.08741211 -39.13066406 150.44191406 -40.29443359 149.77685547 C-43.69989225 147.84094829 -47.11833359 145.93065453 -50.54345703 144.02978516 C-51.64496094 143.4178833 -52.74646484 142.80598145 -53.88134766 142.17553711 C-55.97022691 141.01608291 -58.06000924 139.85825356 -60.15087891 138.70239258 C-81.37425024 126.87323396 -81.37425024 126.87323396 -83.30697632 121.13053894 C-83.89250378 117.99580064 -83.88267149 114.97986268 -83.89990234 111.79052734 C-83.90486725 111.09078293 -83.90983215 110.39103851 -83.91494751 109.67008972 C-83.92952456 107.36029059 -83.93636437 105.05056019 -83.94189453 102.74072266 C-83.94765052 101.12892659 -83.9534082 99.51713053 -83.95916748 97.90533447 C-83.9696654 94.52607913 -83.97551568 91.14684748 -83.97900391 87.76757812 C-83.98448005 83.4524815 -84.00849418 79.13770177 -84.03697586 74.82270432 C-84.05566747 71.49225979 -84.06081134 68.16189054 -84.06233978 64.83139801 C-84.06535314 63.2414909 -84.07333686 61.6515847 -84.08652496 60.06172943 C-84.22766589 41.73587333 -84.22766589 41.73587333 -79.0715332 35.94702148 C-78.46027588 35.53991943 -77.84901855 35.13281738 -77.21923828 34.71337891 C-76.5107373 34.23465332 -75.80223633 33.75592773 -75.07226562 33.26269531 C-70.77178843 30.60178067 -66.44255846 28.01518382 -62.05126953 25.50634766 C-59.93370566 24.28564615 -57.81653667 23.06425946 -55.69970703 21.84228516 C-54.58047852 21.19743164 -53.46125 20.55257812 -52.30810547 19.88818359 C-48.51279942 17.69400992 -44.7383628 15.46510621 -40.96533203 13.23291016 C-39.65635874 12.45983323 -38.34735822 11.6868024 -37.03833008 10.91381836 C-35.12153201 9.78179839 -33.20543828 8.64867887 -31.29165649 7.51156616 C-29.50413304 6.44999375 -27.71357175 5.39371832 -25.92236328 4.33837891 C-24.3840686 3.4272937 -24.3840686 3.4272937 -22.81469727 2.49780273 C-14.62797777 -1.97081144 -8.7789802 -3.78612107 0 0 Z " fill="#3DD983" transform="translate(116.73876953125,35.18115234375)"/>
<path d="M0 0 C2.96595035 2.4501329 3.4489322 4.24510131 4 8 C4.10007332 10.25664021 4.14817804 12.51583729 4.16113281 14.7746582 C4.16858017 15.76597244 4.16858017 15.76597244 4.17617798 16.77731323 C4.19071722 18.95181338 4.19758778 21.12624059 4.203125 23.30078125 C4.20736607 24.4207956 4.20736607 24.4207956 4.21169281 25.56343651 C4.22665225 29.51486944 4.23590216 33.46626617 4.24023438 37.41772461 C4.24571403 41.48281712 4.26974045 45.54757385 4.29820633 49.61256123 C4.31690369 52.75342249 4.32204207 55.894204 4.32357025 59.0351162 C4.32658134 60.53291853 4.33455724 62.03071997 4.34775543 63.52846718 C4.48664498 80.50116004 4.48664498 80.50116004 -0.45068359 86.87182617 C-5.55188948 90.87312908 -10.98857334 94.11950563 -16.625 97.3125 C-18.74903272 98.53327182 -20.87271412 99.75465505 -22.99609375 100.9765625 C-24.12128418 101.62141602 -25.24647461 102.26626953 -26.40576172 102.93066406 C-32.21149782 106.26569082 -37.9813559 109.66235931 -43.75482178 113.05282593 C-45.65776653 114.1700435 -47.56143309 115.28602075 -49.46533203 116.40161133 C-55.53423543 119.89677534 -55.53423543 119.89677534 -61.43676758 123.6574707 C-64 125 -64 125 -71 126 C-71 109.5 -71 93 -71 76 C-72.65 75.67 -74.3 75.34 -76 75 C-77.84969797 74.10901296 -79.6652008 73.14503637 -81.44921875 72.12890625 C-82.46177734 71.55462891 -83.47433594 70.98035156 -84.51757812 70.38867188 C-85.56365234 69.78603516 -86.60972656 69.18339844 -87.6875 68.5625 C-88.74517578 67.96373047 -89.80285156 67.36496094 -90.89257812 66.74804688 C-98.71612258 62.28387742 -98.71612258 62.28387742 -101 60 C-101.23631423 57.54967567 -101.35218079 55.21573267 -101.37109375 52.76171875 C-101.38012222 52.04393753 -101.3891507 51.32615631 -101.39845276 50.58662415 C-101.41297036 49.06601133 -101.42184575 47.54533584 -101.42553711 46.0246582 C-101.43740474 43.70610997 -101.48654146 41.39024934 -101.53710938 39.07226562 C-101.54657726 37.59376297 -101.55381055 36.11524398 -101.55859375 34.63671875 C-101.57812607 33.94696457 -101.59765839 33.25721039 -101.61778259 32.54655457 C-101.58220579 28.71914483 -101.11774404 27.143066 -98.65576172 24.15161133 C-95.78177101 21.823198 -92.86769909 19.88907635 -89.6875 18 C-85.33887279 15.41505751 -81.08353837 12.77107977 -76.9765625 9.8125 C-73.81845564 8.51430587 -71.29386008 8.290576 -68 9 C-63.88519824 10.82863465 -60.05625031 13.07845943 -56.1875 15.375 C-55.13884766 15.97828125 -54.09019531 16.5815625 -53.00976562 17.203125 C-45.35509073 21.64490927 -45.35509073 21.64490927 -43 24 C-38.5600839 23.72298617 -35.68119744 21.70123139 -32.0625 19.25 C-25.58620942 14.94447275 -18.9521167 10.94363849 -12.25 7 C-11.27297119 6.42411133 -10.29594238 5.84822266 -9.28930664 5.25488281 C-2.32515068 1.16257534 -2.32515068 1.16257534 0 0 Z " fill="#4185F3" transform="translate(179,74)"/>
<path d="M0 0 C0.33 0.66 0.66 1.32 1 2 C2.65101584 2.70453454 4.32114424 3.36465321 6 4 C9.87867607 5.95632386 13.68288041 8.05150294 17.5 10.125 C19.01980469 10.94097656 19.01980469 10.94097656 20.5703125 11.7734375 C22.6468452 12.89844509 24.71026537 14.04796226 26.76049805 15.22021484 C30.01990066 17.07207735 30.01990066 17.07207735 33.65551758 18.61181641 C37.40091847 20.43870428 40.11286409 21.9842712 43 25 C44.47987231 30.76160599 44.12115898 36.23441391 43.6875 42.125 C43.1151012 50.59565123 43.1151012 50.59565123 44 59 C46.85063961 62.24935045 50.01768009 63.48339777 54 65 C55.47214184 65.81306579 56.93065272 66.65154092 58.37109375 67.51953125 C59.72573906 68.28531263 61.08119565 69.04966086 62.4375 69.8125 C63.13037109 70.20630859 63.82324219 70.60011719 64.53710938 71.00585938 C67.33158778 72.57994721 69.94950495 73.98316832 73 75 C73 91.5 73 108 73 125 C64.00129155 122.75032289 64.00129155 122.75032289 59.19140625 120.015625 C58.12664062 119.41685547 57.061875 118.81808594 55.96484375 118.20117188 C54.84207031 117.55728516 53.71929687 116.91339844 52.5625 116.25 C51.37550484 115.57788369 50.18799582 114.90667414 49 114.23632812 C46.54983001 112.85251692 44.1024373 111.46396182 41.65673828 110.07226562 C38.13631461 108.07247897 34.59974263 106.10349388 31.05859375 104.140625 C29.95507568 103.52799805 28.85155762 102.91537109 27.71459961 102.28417969 C25.63937249 101.13237899 23.56341517 99.98189247 21.48657227 98.83300781 C0.36605621 87.04729998 0.36605621 87.04729998 -1.56916809 81.31369019 C-2.15514479 78.16682826 -2.13565411 75.14125751 -2.14526367 71.93994141 C-2.15030159 70.88550591 -2.15030159 70.88550591 -2.15544128 69.80976868 C-2.16492514 67.49034854 -2.16689312 65.17100081 -2.16796875 62.8515625 C-2.17118317 61.23497488 -2.17454739 59.61838755 -2.17805481 58.00180054 C-2.1840397 54.61414923 -2.18589537 51.22652341 -2.18530273 47.83886719 C-2.18520116 43.50570846 -2.19885108 39.17271376 -2.21607494 34.83959389 C-2.22721338 31.50065363 -2.22922137 28.1617528 -2.22869301 24.82279587 C-2.22987043 23.22566538 -2.23427883 21.62853379 -2.24202538 20.03142166 C-2.25186235 17.79378134 -2.24893274 15.5564941 -2.24291992 13.31884766 C-2.24434494 12.04739899 -2.24576996 10.77595032 -2.24723816 9.4659729 C-1.9991535 5.98813316 -1.25464442 3.23920298 0 0 Z " fill="#082E41" transform="translate(35,75)"/>
<path d="M0 0 C4.07479033 1.78337642 7.86002737 3.99171861 11.6875 6.25 C12.71939453 6.83652344 13.75128906 7.42304687 14.81445312 8.02734375 C24.3770658 13.55020246 24.3770658 13.55020246 27 17 C27.44682868 19.60549935 27.65485257 21.7889606 27.671875 24.3984375 C27.6851886 25.11101715 27.6985022 25.8235968 27.71221924 26.55776978 C27.7324247 28.06217156 27.74185473 29.56675173 27.74121094 31.07128906 C27.74995445 33.36306072 27.82255057 35.64709459 27.8984375 37.9375 C28.06708624 48.45215013 28.06708624 48.45215013 25.50439453 52.16943359 C23.4196204 53.77595751 21.37479167 54.87015401 19 56 C17.41808032 56.98721551 15.84266222 57.98491488 14.2734375 58.9921875 C12.64379093 59.95848434 11.01094292 60.9194016 9.375 61.875 C8.55515625 62.37257812 7.7353125 62.87015625 6.890625 63.3828125 C6.08882812 63.85203125 5.28703125 64.32125 4.4609375 64.8046875 C3.74728027 65.22733887 3.03362305 65.64999023 2.29833984 66.08544922 C-1.82396192 67.72578727 -4.89020501 67.47244507 -8.94433594 65.74658203 C-10.44915527 64.88589111 -10.44915527 64.88589111 -11.984375 64.0078125 C-13.08394531 63.38519531 -14.18351562 62.76257813 -15.31640625 62.12109375 C-16.44949219 61.46238281 -17.58257812 60.80367187 -18.75 60.125 C-19.90953055 59.46634518 -21.06968189 58.80878197 -22.23046875 58.15234375 C-30.66726047 53.33273953 -30.66726047 53.33273953 -33 51 C-33.23631423 48.54967567 -33.35218079 46.21573267 -33.37109375 43.76171875 C-33.38012222 43.04393753 -33.3891507 42.32615631 -33.39845276 41.58662415 C-33.41297036 40.06601133 -33.42184575 38.54533584 -33.42553711 37.0246582 C-33.43740474 34.70610997 -33.48654146 32.39024934 -33.53710938 30.07226562 C-33.54657726 28.59376297 -33.55381055 27.11524398 -33.55859375 25.63671875 C-33.57812607 24.94696457 -33.59765839 24.25721039 -33.61778259 23.54655457 C-33.58220579 19.71914483 -33.11774404 18.143066 -30.65576172 15.15161133 C-27.78177101 12.823198 -24.86769909 10.88907635 -21.6875 9 C-17.33887279 6.41505751 -13.08353837 3.77107977 -8.9765625 0.8125 C-5.82500916 -0.48300019 -3.28827282 -0.69773735 0 0 Z " fill="#D5EFFD" transform="translate(111,83)"/>
<path d="M0 0 C0.92879906 2.78639717 1.13583034 4.51025731 1.16113281 7.39208984 C1.17074036 8.27665863 1.1803479 9.16122742 1.19024658 10.07260132 C1.19449646 11.02575226 1.19874634 11.9789032 1.203125 12.9609375 C1.20882507 13.94365631 1.21452515 14.92637512 1.22039795 15.93887329 C1.22984519 18.01848271 1.23638083 20.09810707 1.24023438 22.17773438 C1.24994116 25.35573481 1.28096786 28.53308882 1.3125 31.7109375 C1.31903011 33.73176699 1.32428055 35.75260111 1.328125 37.7734375 C1.3404718 38.72253998 1.3528186 39.67164246 1.36553955 40.64950562 C1.34894102 45.57676336 1.27008629 49.03271311 -2 53 C-9.12672715 58.53789299 -17.56576212 62.8371608 -26 66 C-26 66.66 -26 67.32 -26 68 C-28.0804054 69.15143825 -30.16401997 70.29624112 -32.25 71.4375 C-32.83652344 71.76298828 -33.42304687 72.08847656 -34.02734375 72.42382812 C-37.07135871 74.08264527 -39.60332415 75.15083104 -43 76 C-43 86.56 -43 97.12 -43 108 C-42.34 108.33 -41.68 108.66 -41 109 C-41.99 109 -42.98 109 -44 109 C-44 92.5 -44 76 -44 59 C-40.04 57.02 -36.08 55.04 -32 53 C-29.06292253 51.26546646 -26.17893505 49.5263981 -23.3125 47.6875 C-22.2615918 47.02524414 -22.2615918 47.02524414 -21.18945312 46.34960938 C-17.92469477 44.39710073 -17.92469477 44.39710073 -15 42 C-15.07246846 39.57249714 -15.20338639 37.16844771 -15.359375 34.74609375 C-15.46049448 32.44354127 -15.54981103 30.14070218 -15.63867188 27.83764648 C-15.71236377 26.2489075 -15.80777304 24.66101426 -15.92578125 23.07495117 C-16.85063467 10.21975754 -16.85063467 10.21975754 -13.7175293 6.46173096 C-9.97202984 3.32284642 -4.98427341 0 0 0 Z " fill="#3870B1" transform="translate(152,91)"/>
<path d="M0 0 C2.5 0.6875 2.5 0.6875 6 2 C6.68594238 2.2067334 7.37188477 2.4134668 8.07861328 2.62646484 C10.77395051 3.7686412 12.16920985 4.68491746 14 7 C15.05852605 13.39444339 14.57843967 19.84370057 14.2578125 26.2956543 C13.48991605 35.36383548 13.48991605 35.36383548 16.9699707 43.23364258 C19.58620449 44.81051963 22.14753287 45.91619488 25 47 C26.47215779 47.81303691 27.93065176 48.65154251 29.37109375 49.51953125 C30.72573906 50.28531263 32.08119565 51.04966086 33.4375 51.8125 C34.13037109 52.20630859 34.82324219 52.60011719 35.53710938 53.00585938 C38.33158778 54.57994721 40.94950495 55.98316832 44 57 C44 62.61 44 68.22 44 74 C37.2929537 72.65859074 32.05464606 69.51945857 26.1875 66.125 C24.95987813 65.41884871 23.73201311 64.71311997 22.50390625 64.0078125 C21.61276123 63.49589355 21.61276123 63.49589355 20.70361328 62.97363281 C17.1559967 60.94613283 13.57985206 58.96986568 10 57 C10 56.34 10 55.68 10 55 C9.278125 54.896875 8.55625 54.79375 7.8125 54.6875 C4.7004075 53.92676628 2.59245848 52.87233113 0 51 C-0.94639814 48.16080557 -1.12648534 46.41023554 -1.12939453 43.46850586 C-1.13254669 42.55423325 -1.13569885 41.63996063 -1.13894653 40.69798279 C-1.13591019 39.22132896 -1.13591019 39.22132896 -1.1328125 37.71484375 C-1.13376923 36.70281387 -1.13472595 35.690784 -1.13571167 34.64808655 C-1.13639223 32.5087986 -1.13454656 30.36950859 -1.13037109 28.23022461 C-1.12501559 24.94705597 -1.13032313 21.66402378 -1.13671875 18.38085938 C-1.13605806 16.3046872 -1.13477707 14.2285151 -1.1328125 12.15234375 C-1.13483673 11.16588364 -1.13686096 10.17942352 -1.13894653 9.16307068 C-1.13579437 8.25195023 -1.13264221 7.34082977 -1.12939453 6.40209961 C-1.12859894 5.59840439 -1.12780334 4.79470917 -1.12698364 3.96665955 C-1 2 -1 2 0 0 Z " fill="#04161B" transform="translate(64,93)"/>
<path d="M0 0 C3.46815613 1.601581 6.75820305 3.46159865 10.0625 5.375 C11.80287252 6.36288329 13.54374569 7.34988519 15.28515625 8.3359375 C16.0961377 8.79838867 16.90711914 9.26083984 17.74267578 9.73730469 C20.45458923 11.25428677 23.20216033 12.64931878 26 14 C26 14.66 26 15.32 26 16 C27.299375 16.37125 27.299375 16.37125 28.625 16.75 C32.22930787 18.08492884 34.97975979 19.62695412 38 22 C38 22.99 38 23.98 38 25 C35.734375 26.859375 35.734375 26.859375 32.75 28.75 C31.77546875 29.38421875 30.8009375 30.0184375 29.796875 30.671875 C26.63947898 32.17119713 26.15386094 32.09425748 23 31 C21.68713972 30.33237258 20.39949487 29.61357491 19.13671875 28.85546875 C18.41419922 28.42556641 17.69167969 27.99566406 16.94726562 27.55273438 C16.20154297 27.10220703 15.45582031 26.65167969 14.6875 26.1875 C12.48698213 24.87182602 10.28595524 23.55731324 8.07958984 22.25146484 C6.75264012 21.45292713 5.43858699 20.63226931 4.14306641 19.78369141 C-0.09331267 17.09942888 -3.02585714 16.2831058 -8 17 C-10.64273677 18.11265629 -12.97816637 19.55976532 -15.375 21.125 C-16.35182739 21.73807007 -16.35182739 21.73807007 -17.34838867 22.36352539 C-19.2433515 23.55936659 -21.123096 24.77606672 -23 26 C-23.95777344 26.61488281 -24.91554688 27.22976562 -25.90234375 27.86328125 C-30.17665336 30.64963714 -30.17665336 30.64963714 -34 34 C-35.60471728 33.04258894 -37.20875329 32.08403595 -38.8125 31.125 C-39.70582031 30.59132813 -40.59914063 30.05765625 -41.51953125 29.5078125 C-43.37294724 28.38116908 -45.19529917 27.20313389 -47 26 C-47 24.68 -47 23.36 -47 22 C-45.24316406 20.54956055 -45.24316406 20.54956055 -42.765625 19.19921875 C-41.85103516 18.68665527 -40.93644531 18.1740918 -39.99414062 17.64599609 C-39.00607422 17.10281738 -38.01800781 16.55963867 -37 16 C-34.99168 14.82430972 -32.98652755 13.64319398 -30.984375 12.45703125 C-28.90663586 11.24152768 -26.82850695 10.02669015 -24.75 8.8125 C-23.70070313 8.19697266 -22.65140625 7.58144531 -21.5703125 6.94726562 C-20.55195312 6.35236328 -19.53359375 5.75746094 -18.484375 5.14453125 C-17.57397461 4.61190674 -16.66357422 4.07928223 -15.72558594 3.53051758 C-6.35360133 -1.73219932 -6.35360133 -1.73219932 0 0 Z " fill="#37BE6E" transform="translate(112,67)"/>
<path d="M0 0 C4.54388359 4.54388359 4.12541769 8.57646274 4.14526367 14.80639648 C4.14862228 15.47048523 4.1519809 16.13457397 4.15544128 16.81878662 C4.16490052 19.00290829 4.16689173 21.1869529 4.16796875 23.37109375 C4.1711844 24.89657116 4.1745487 26.42204826 4.17805481 27.94752502 C4.18403319 31.14088659 4.18589599 34.33422113 4.18530273 37.52758789 C4.18520109 41.61073825 4.19886164 45.69371482 4.21607494 49.776824 C4.22721548 52.92618092 4.22922133 56.07549607 4.22869301 59.22487068 C4.2298697 60.72989565 4.23427401 62.23492182 4.24202538 63.73992729 C4.25186865 65.84814378 4.24893057 67.95598593 4.24291992 70.06420898 C4.24434494 71.26158188 4.24576996 72.45895477 4.24723816 73.69261169 C3.99281463 77.09612107 3.21856825 79.82431383 2 83 C1.01183262 80.03549787 0.92295258 78.08189674 1 75 C1 74.01 1 73.02 1 72 C1.00998968 69.93871776 1.02067814 67.87743888 1.03173828 65.81616211 C1.06380063 59.48529971 1.08690926 53.15445971 1.10362434 46.82353878 C1.11409098 42.99225762 1.12831415 39.1610645 1.15087891 35.32983398 C1.17256255 31.62407627 1.18455791 27.9184036 1.18975449 24.21258736 C1.19345532 22.79914569 1.20068198 21.3857088 1.21146011 19.97230339 C1.22591676 17.99972951 1.22681642 16.0270702 1.22705078 14.05444336 C1.231492 12.93098007 1.23593323 11.80751678 1.24050903 10.65000916 C1.27098165 7.84411521 1.27098165 7.84411521 -1 6 C-0.34 4.68 0.32 3.36 1 2 C-0.15628906 2.66708984 -0.15628906 2.66708984 -1.3359375 3.34765625 C-2.33882812 3.91355469 -3.34171875 4.47945313 -4.375 5.0625 C-5.87160156 5.91521484 -5.87160156 5.91521484 -7.3984375 6.78515625 C-8.25695312 7.18605469 -9.11546875 7.58695312 -10 8 C-10.66 7.67 -11.32 7.34 -12 7 C-8.04 4.69 -4.08 2.38 0 0 Z " fill="#3B81D9" transform="translate(179,74)"/>
<path d="M0 0 C0.33 0 0.66 0 1 0 C1 25.41 1 50.82 1 77 C2.98 76.505 2.98 76.505 5 76 C5.33 78.31 5.66 80.62 6 83 C4.1875 82.4375 4.1875 82.4375 2 81 C-0.59917475 75.97316989 -1.37280344 72.25571192 -1.35644531 66.52001953 C-1.35848969 65.80859299 -1.36053406 65.09716644 -1.36264038 64.36418152 C-1.36562388 62.03678821 -1.34725379 59.71012033 -1.328125 57.3828125 C-1.32506449 55.75853653 -1.32319059 54.13425793 -1.32244873 52.50997925 C-1.31786189 49.11917965 -1.30349197 45.72861969 -1.28125 42.33789062 C-1.25283315 37.98305946 -1.24202322 33.62841555 -1.2375679 29.27350044 C-1.23342248 25.92617917 -1.2236146 22.57889599 -1.21169281 19.23159409 C-1.20598337 17.62475769 -1.2012269 16.01791763 -1.19742584 14.41107559 C-1.19058741 12.17518835 -1.17697035 9.93945256 -1.16113281 7.70361328 C-1.15430481 6.43011017 -1.14747681 5.15660706 -1.14044189 3.84451294 C-1 1 -1 1 0 0 Z " fill="#051928" transform="translate(34,80)"/>
<path d="M0 0 C0.33 0 0.66 0 1 0 C1.04640402 8.89284087 1.08191014 17.78563985 1.10362434 26.67857552 C1.1140477 30.80822155 1.12818038 34.93778456 1.15087891 39.06738281 C1.17265903 43.0549895 1.18457952 47.04251647 1.18975449 51.03017807 C1.19344097 52.54916513 1.20063975 54.06814799 1.21146011 55.58710098 C1.22604393 57.71978325 1.22797509 59.85213892 1.22705078 61.98486328 C1.231492 63.1973172 1.23593323 64.40977112 1.24050903 65.65896606 C0.99413975 69.08140766 0.22810094 71.80886889 -1 75 C-1.98816738 72.03549787 -2.07704742 70.08189674 -2 67 C-2 66.01 -2 65.02 -2 64 C-1.67 63.34 -1.34 62.68 -1 62 C-0.87983328 60.02965512 -0.82264667 58.05535064 -0.79467773 56.08154297 C-0.77473251 54.84040741 -0.75478729 53.59927185 -0.73423767 52.32052612 C-0.7172534 50.9610812 -0.70037459 49.60163495 -0.68359375 48.2421875 C-0.66302419 46.85498433 -0.64202772 45.46778743 -0.62062073 44.08059692 C-0.56540019 40.42772495 -0.51599089 36.77479641 -0.46777344 33.12182617 C-0.41755825 29.39496826 -0.36187229 25.66819259 -0.30664062 21.94140625 C-0.19905929 14.62767379 -0.09761432 7.31387299 0 0 Z " fill="#4171BE" transform="translate(182,82)"/>
<path d="M0 0 C0.66 0.33 1.32 0.66 2 1 C1.01 1.33 0.02 1.66 -1 2 C-1 2.66 -1 3.32 -1 4 C-1.598125 4.226875 -2.19625 4.45375 -2.8125 4.6875 C-5.18844156 5.876424 -5.18844156 5.876424 -6.4375 8.4375 C-8.2568215 11.42118725 -9.85084201 12.54654247 -13 14 C-15 13 -15 13 -16 11 C-12.94900596 7.67633258 -9.76550484 5.45775774 -5.875 3.1875 C-4.82054687 2.56230469 -3.76609375 1.93710937 -2.6796875 1.29296875 C-1.35324219 0.65294922 -1.35324219 0.65294922 0 0 Z " fill="#42D986" transform="translate(61,57)"/>
<path d="M0 0 C1.32 0.66 2.64 1.32 4 2 C0.56853286 4.01048951 -2.87110912 6.00655245 -6.3125 8 C-7.28896484 8.57234375 -8.26542969 9.1446875 -9.27148438 9.734375 C-10.20927734 10.27578125 -11.14707031 10.8171875 -12.11328125 11.375 C-12.97735596 11.87773437 -13.84143066 12.38046875 -14.73168945 12.8984375 C-17 14 -17 14 -20 14 C-18.75 12 -18.75 12 -17 10 C-15.68 10 -14.36 10 -13 10 C-12.67 8.68 -12.34 7.36 -12 6 C-11.67 6.66 -11.34 7.32 -11 8 C-8.66924071 7.04134491 -8.66924071 7.04134491 -7 4 C-6.01 4.33 -5.02 4.66 -4 5 C-4 4.34 -4 3.68 -4 3 C-2.68 2.67 -1.36 2.34 0 2 C0 1.34 0 0.68 0 0 Z " fill="#4177D4" transform="translate(171,162)"/>
<path d="M0 0 C1.65 0 3.3 0 5 0 C2.25440052 2.94897721 -0.34117274 5.26205705 -4 7 C-6.72163054 6.83990409 -7.71723545 6.25246835 -9.75 4.4375 C-10.1625 3.963125 -10.575 3.48875 -11 3 C-3.57142857 1.71428571 -3.57142857 1.71428571 0 3 C0 2.01 0 1.02 0 0 Z " fill="#3FB57F" transform="translate(143,92)"/>
<path d="M0 0 C0.66 0 1.32 0 2 0 C2.66 1.65 3.32 3.3 4 5 C5.98 4.67 7.96 4.34 10 4 C10.33 5.98 10.66 7.96 11 10 C6.38486888 8.68139111 2.90102388 6.78644563 -1 4 C-0.67 2.68 -0.34 1.36 0 0 Z " fill="#45D08C" transform="translate(38,73)"/>
<path d="M0 0 C0.33 0.66 0.66 1.32 1 2 C-2 4 -2 4 -5 4 C-5 4.66 -5 5.32 -5 6 C-5.639375 6.103125 -6.27875 6.20625 -6.9375 6.3125 C-7.618125 6.539375 -8.29875 6.76625 -9 7 C-9.33 7.99 -9.66 8.98 -10 10 C-11.32 9.67 -12.64 9.34 -14 9 C-12.41906946 7.87162591 -10.83515284 6.74743482 -9.25 5.625 C-8.36828125 4.99851562 -7.4865625 4.37203125 -6.578125 3.7265625 C-4.42585021 2.28519059 -2.34539477 1.08501907 0 0 Z " fill="#C2F7EC" transform="translate(93,90)"/>
<path d="M0 0 C0.99 0.33 1.98 0.66 3 1 C-1.95 3.97 -6.9 6.94 -12 10 C-12.33 9.34 -12.66 8.68 -13 8 C-12.34 8 -11.68 8 -11 8 C-11 7.01 -11 6.02 -11 5 C-10.45730469 4.80664062 -9.91460937 4.61328125 -9.35546875 4.4140625 C-8.64003906 4.15367188 -7.92460937 3.89328125 -7.1875 3.625 C-6.47980469 3.36976562 -5.77210938 3.11453125 -5.04296875 2.8515625 C-2.75226641 1.9734231 -2.75226641 1.9734231 0 0 Z " fill="#47CDA8" transform="translate(167,79)"/>
<path d="M0 0 C0.66 0.33 1.32 0.66 2 1 C1.01 1.33 0.02 1.66 -1 2 C-1 2.66 -1 3.32 -1 4 C-2.76371818 5.03307771 -4.53625033 6.05112049 -6.3125 7.0625 C-7.79169922 7.91521484 -7.79169922 7.91521484 -9.30078125 8.78515625 C-12 10 -12 10 -15 9 C-12.54732365 7.46931512 -10.08866106 5.95031377 -7.625 4.4375 C-6.92632812 3.99986328 -6.22765625 3.56222656 -5.5078125 3.11132812 C-3.70814097 2.01249022 -1.85677657 0.99932133 0 0 Z " fill="#47C27F" transform="translate(61,57)"/>
<path d="M0 0 C0.99 0.66 1.98 1.32 3 2 C3 2.99 3 3.98 3 5 C-2.17578125 8.22265625 -2.17578125 8.22265625 -4 9 C-4.99 8.67 -5.98 8.34 -7 8 C-6.67 7.34 -6.34 6.68 -6 6 C-5.01 6 -4.02 6 -3 6 C-2.67 5.01 -2.34 4.02 -2 3 C-1.01 3.33 -0.02 3.66 1 4 C0.67 2.68 0.34 1.36 0 0 Z " fill="#43CB9B" transform="translate(176,70)"/>
<path d="M0 0 C0.33 0 0.66 0 1 0 C1 2.31 1 4.62 1 7 C-5.75 6.25 -5.75 6.25 -8 4 C-5.525 4.495 -5.525 4.495 -3 5 C-2.525625 4.175 -2.05125 3.35 -1.5625 2.5 C-1.046875 1.675 -0.53125 0.85 0 0 Z " fill="#072031" transform="translate(106,192)"/>
<path d="M0 0 C0.8125 1.625 0.8125 1.625 1 4 C-0.46818136 6.24609835 -2.15852858 8.02378677 -4 10 C-5.32 9.34 -6.64 8.68 -8 8 C-7.50628906 7.67386719 -7.01257813 7.34773437 -6.50390625 7.01171875 C-5.86324219 6.57472656 -5.22257813 6.13773438 -4.5625 5.6875 C-3.92441406 5.25824219 -3.28632813 4.82898438 -2.62890625 4.38671875 C-0.7114316 2.9965948 -0.7114316 2.9965948 0 0 Z " fill="#4483E3" transform="translate(152,139)"/>
<path d="M0 0 C0.66 0.33 1.32 0.66 2 1 C-0.25592876 4.56199279 -2.1336696 5.51294984 -6 7 C-6.66 7.99 -7.32 8.98 -8 10 C-7.9375 7.8125 -7.9375 7.8125 -7 5 C-4.8282781 3.06842043 -2.47398953 1.51798313 0 0 Z " fill="#41C081" transform="translate(44,67)"/>
<path d="M0 0 C0.99 0.33 1.98 0.66 3 1 C3 1.99 3 2.98 3 4 C-0.96 5.98 -0.96 5.98 -5 8 C-5 7.34 -5 6.68 -5 6 C-4.34 6 -3.68 6 -3 6 C-3 5.34 -3 4.68 -3 4 C-2.34 3.67 -1.68 3.34 -1 3 C-0.67 2.01 -0.34 1.02 0 0 Z " fill="#3E78D3" transform="translate(126,187)"/>
<path d="M0 0 C3.96 1.98 7.92 3.96 12 6 C8 7 8 7 5.859375 6.07421875 C5.16328125 5.61660156 4.4671875 5.15898438 3.75 4.6875 C3.04359375 4.23761719 2.3371875 3.78773437 1.609375 3.32421875 C1.07828125 2.88722656 0.5471875 2.45023437 0 2 C0 1.34 0 0.68 0 0 Z " fill="#BEF4E6" transform="translate(122,90)"/>
<path d="M0 0 C3.39536357 0.60631492 5.30660868 1.89578803 8 4 C9.31836295 4.69580267 10.64791086 5.37224433 12 6 C11.34 6.66 10.68 7.32 10 8 C8.32819726 7.05065487 6.66266064 6.09026687 5 5.125 C4.071875 4.59132813 3.14375 4.05765625 2.1875 3.5078125 C1.465625 3.01023437 0.74375 2.51265625 0 2 C0 1.34 0 0.68 0 0 Z " fill="#50B07C" transform="translate(68,93)"/>
<path d="M0 0 C3.96 0 7.92 0 12 0 C12 0.33 12 0.66 12 1 C8.68885166 2.12880057 5.41021743 3.21302675 2 4 C1.34 2.68 0.68 1.36 0 0 Z " fill="#44B97A" transform="translate(97,82)"/>
<path d="M0 0 C0.33 0.66 0.66 1.32 1 2 C2.65697379 2.69040574 4.3255761 3.3530635 6 4 C7.6829392 4.97236487 9.35443434 5.96564444 11 7 C9 8 9 8 5.875 7.0625 C4.92625 6.711875 3.9775 6.36125 3 6 C3 5.34 3 4.68 3 4 C2.01 4 1.02 4 0 4 C0 2.68 0 1.36 0 0 Z " fill="#053831" transform="translate(35,75)"/>
<path d="M0 0 C0 0.66 0 1.32 0 2 C0.99 2.33 1.98 2.66 3 3 C3.33 3.99 3.66 4.98 4 6 C0.22454612 4.90931332 -2.47043472 4.0916909 -5 1 C-2 0 -2 0 0 0 Z " fill="#061F2E" transform="translate(59,170)"/>
<path d="M0 0 C2.97 0.495 2.97 0.495 6 1 C6 1.66 6 2.32 6 3 C7.65 3.33 9.3 3.66 11 4 C10.67 4.99 10.34 5.98 10 7 C8.33073546 6.02526874 6.66464358 5.04510211 5 4.0625 C4.071875 3.51722656 3.14375 2.97195312 2.1875 2.41015625 C1.465625 1.94480469 0.74375 1.47945313 0 1 C0 0.67 0 0.34 0 0 Z " fill="#48B67C" transform="translate(120,88)"/>
<path d="M0 0 C4.8274799 1.41292095 8.7162359 3.42974154 13 6 C10 7 10 7 7.0625 5.6875 C6.051875 5.130625 5.04125 4.57375 4 4 C3.21625 3.608125 2.4325 3.21625 1.625 2.8125 C1.08875 2.544375 0.5525 2.27625 0 2 C0 1.34 0 0.68 0 0 Z " fill="#47BD81" transform="translate(135,47)"/>
<path d="M0 0 C0.721875 0.391875 1.44375 0.78375 2.1875 1.1875 C1.5275 1.8475 0.8675 2.5075 0.1875 3.1875 C-2.4375 2.8125 -2.4375 2.8125 -4.8125 2.1875 C-5.1425 2.8475 -5.4725 3.5075 -5.8125 4.1875 C-6.4725 3.5275 -7.1325 2.8675 -7.8125 2.1875 C-3.50480769 -1.0125 -3.50480769 -1.0125 0 0 Z " fill="#43CA7F" transform="translate(102.8125,34.8125)"/>
<path d="M0 0 C0.66 0.33 1.32 0.66 2 1 C2.625 4.0625 2.625 4.0625 3 7 C0.37812506 5.95125002 -0.79371361 5.35068687 -2.25 2.875 C-2.4975 2.25625 -2.745 1.6375 -3 1 C-2.01 0.67 -1.02 0.34 0 0 Z " fill="#062232" transform="translate(37,156)"/>
<path d="M0 0 C0.66 0.33 1.32 0.66 2 1 C1.5 2.9375 1.5 2.9375 0 5 C-2.69658452 5.68790422 -5.2017019 5.81946464 -8 6 C-5.63404067 3.38499232 -3.13950774 1.61000397 0 0 Z " fill="#3591D4" transform="translate(165,82)"/>
<path d="M0 0 C0.33 1.98 0.66 3.96 1 6 C-1.02045442 5.39816251 -3.02111039 4.72693904 -5 4 C-5.33 3.34 -5.66 2.68 -6 2 C-3 0 -3 0 0 0 Z " fill="#45CE88" transform="translate(55,81)"/>
<path d="M0 0 C3.45925163 1.2491742 6.14693203 2.67527795 9 5 C8.01 5.495 8.01 5.495 7 6 C4.375 5.0625 4.375 5.0625 2 4 C2 3.34 2 2.68 2 2 C1.34 2 0.68 2 0 2 C0 1.34 0 0.68 0 0 Z " fill="#45C180" transform="translate(160,61)"/>
<path d="M0 0 C0.6875 1.6875 0.6875 1.6875 1 4 C-0.4375 6.75 -0.4375 6.75 -2 9 C-2.66 8.67 -3.32 8.34 -4 8 C-2.66666667 5.33333333 -1.33333333 2.66666667 0 0 Z " fill="#3F6DA5" transform="translate(138,130)"/>
<path d="M0 0 C1.32 0.33 2.64 0.66 4 1 C1.69 2.65 -0.62 4.3 -3 6 C-3.66 5.67 -4.32 5.34 -5 5 C-2.75 2.4375 -2.75 2.4375 0 0 Z " fill="#3671C4" transform="translate(141,146)"/>
</svg>
