<?xml version="1.0" encoding="UTF-8"?>
<svg version="1.1" xmlns="http://www.w3.org/2000/svg" width="148" height="148">
<path d="M0 0 C48.84 0 97.68 0 148 0 C148 48.84 148 97.68 148 148 C99.16 148 50.32 148 0 148 C0 99.16 0 50.32 0 0 Z " fill="#222228" transform="translate(0,0)"/>
<path d="M0 0 C5.28 0 10.56 0 16 0 C16.33 8.91 16.66 17.82 17 27 C19.10375 24.091875 21.2075 21.18375 23.375 18.1875 C24.0354834 17.27508545 24.6959668 16.3626709 25.37646484 15.42260742 C26.16077881 14.33749878 26.16077881 14.33749878 26.9609375 13.23046875 C27.49509277 12.49207764 28.02924805 11.75368652 28.57958984 10.99291992 C29.7504741 9.35009967 30.88095806 7.67856292 32 6 C37.08938811 7.59043379 40.87456643 10.7446951 45 14 C44.11074327 18.36204452 41.78544337 21.41039233 39.1875 24.9375 C38.74857422 25.54529297 38.30964844 26.15308594 37.85742188 26.77929688 C35.32861316 30.26251483 32.71811357 33.66096538 30 37 C31.97959785 36.39724764 33.95865342 35.79271425 35.9375 35.1875 C37.71447266 34.64609375 37.71447266 34.64609375 39.52734375 34.09375 C43.06456111 32.97966579 46.53938948 31.74949272 50 30.41796875 C52.73474852 29.84644904 54.38140981 30.00467942 57 31 C58.36328125 33.3984375 58.36328125 33.3984375 59.3125 36.375 C59.63863281 37.35210937 59.96476562 38.32921875 60.30078125 39.3359375 C61 42 61 42 61 45 C52.75 47.64 44.5 50.28 36 53 C42.04157542 55.41663017 47.95834736 57.74898414 54.125 59.75 C54.7953125 59.97042969 55.465625 60.19085938 56.15625 60.41796875 C57.76989809 60.94816741 59.38480779 61.47452413 61 62 C60.3827904 64.1272758 59.75598201 66.25176857 59.125 68.375 C58.77695313 69.55835937 58.42890625 70.74171875 58.0703125 71.9609375 C57 75 57 75 55 77 C47.08 74.69 39.16 72.38 31 70 C34.10974168 74.3379462 34.10974168 74.3379462 37.22167969 78.67431641 C39.88981229 82.40297202 42.47849283 86.17060826 45 90 C43.55069329 93.59584747 41.77247922 95.18832656 38.5625 97.3125 C37.38880859 98.11107422 37.38880859 98.11107422 36.19140625 98.92578125 C34 100 34 100 31 99 C29.48193359 97.26586914 29.48193359 97.26586914 27.8984375 95.03515625 C27.32609375 94.23529297 26.75375 93.43542969 26.1640625 92.61132812 C25.27847656 91.3496582 25.27847656 91.3496582 24.375 90.0625 C23.776875 89.22525391 23.17875 88.38800781 22.5625 87.52539062 C18.18525298 81.37050595 18.18525298 81.37050595 17 79 C16.67 87.91 16.34 96.82 16 106 C10.72 106 5.44 106 0 106 C-0.495 93.13 -0.495 93.13 -1 80 C-4.44118735 84.71039439 -4.44118735 84.71039439 -7.87988281 89.42260742 C-10.50946462 93.01523718 -13.18522795 96.54855332 -16 100 C-21.08938811 98.40956621 -24.87456643 95.2553049 -29 92 C-27.72598605 88.48167877 -26.25703223 85.74187473 -23.9609375 82.79296875 C-23.38085938 82.04208984 -22.80078125 81.29121094 -22.203125 80.51757812 C-21.59984375 79.74865234 -20.9965625 78.97972656 -20.375 78.1875 C-19.76398437 77.39923828 -19.15296875 76.61097656 -18.5234375 75.79882812 C-17.0207657 73.86179026 -15.51286614 71.92907921 -14 70 C-17.03385561 70 -18.74476128 70.50230047 -21.5625 71.53125 C-22.44164063 71.84707031 -23.32078125 72.16289063 -24.2265625 72.48828125 C-25.14179687 72.82214844 -26.05703125 73.15601562 -27 73.5 C-28.81091816 74.16060254 -30.62336144 74.81704333 -32.4375 75.46875 C-33.64212891 75.90864258 -33.64212891 75.90864258 -34.87109375 76.35742188 C-37 77 -37 77 -40 77 C-40.70045456 75.08802961 -41.384919 73.17019565 -42.0625 71.25 C-42.44535156 70.18265625 -42.82820313 69.1153125 -43.22265625 68.015625 C-44.01629137 64.93679932 -44.2882432 63.8386952 -43 61 C-40.68334961 59.81152344 -40.68334961 59.81152344 -37.65234375 58.859375 C-36.57275391 58.51132813 -35.49316406 58.16328125 -34.38085938 57.8046875 C-33.24455078 57.45664063 -32.10824219 57.10859375 -30.9375 56.75 C-29.79732422 56.38648438 -28.65714844 56.02296875 -27.48242188 55.6484375 C-24.65928892 54.75070484 -21.8321709 53.86871366 -19 53 C-20.134375 52.67386719 -21.26875 52.34773438 -22.4375 52.01171875 C-23.95838066 51.5704756 -25.47921133 51.1290601 -27 50.6875 C-28.11568359 50.36749023 -28.11568359 50.36749023 -29.25390625 50.04101562 C-34.26889199 48.58012847 -39.12911996 46.88746602 -44 45 C-42.98408579 39.53135543 -41.92908943 34.23609987 -40 29 C-33.4597303 30.90999027 -27.00148871 32.9903553 -20.56640625 35.23046875 C-17.96761589 36.14360706 -17.96761589 36.14360706 -15 36 C-15.35304199 35.5059668 -15.70608398 35.01193359 -16.06982422 34.50292969 C-17.67445945 32.2540131 -19.27476382 30.00204863 -20.875 27.75 C-21.43058594 26.97269531 -21.98617187 26.19539063 -22.55859375 25.39453125 C-23.36103516 24.26337891 -23.36103516 24.26337891 -24.1796875 23.109375 C-24.67194824 22.41811523 -25.16420898 21.72685547 -25.67138672 21.01464844 C-27 19 -27 19 -29 15 C-25.37 12.03 -21.74 9.06 -18 6 C-13.50679915 8.24660043 -11.66505868 10.8593139 -8.9375 14.875 C-8.0719009 16.12259454 -7.20602261 17.36999541 -6.33984375 18.6171875 C-5.96206787 19.17003418 -5.58429199 19.72288086 -5.19506836 20.29248047 C-3.84119821 22.22689678 -2.41667749 24.11109668 -1 26 C-0.67 17.42 -0.34 8.84 0 0 Z " fill="#23232A" transform="translate(65,20)"/>
<path d="M0 0 C5.28 0 10.56 0 16 0 C16.16192903 4.10991297 16.30081028 8.2115819 16.38452148 12.32299805 C16.4194464 13.7169366 16.46700833 15.11062401 16.52807617 16.50366211 C16.88921593 24.96161605 16.58813347 31.01842226 10.71118164 37.57836914 C9 39 9 39 7 39 C4.79855191 36.12557036 2.95104804 33.05381433 1 30 C0.67 33.96 0.34 37.92 0 42 C-8.75 40.125 -8.75 40.125 -11 39 C-9.02 41.97 -7.04 44.94 -5 48 C-8.21663761 51.21663761 -9.64446733 52.01384166 -14 53 C-20.42054827 52.52074942 -26.24472028 50.90839839 -32.375 49 C-33.27605469 48.72671875 -34.17710938 48.4534375 -35.10546875 48.171875 C-41.67446911 46.16276544 -41.67446911 46.16276544 -44 45 C-42.98408579 39.53135543 -41.92908943 34.23609987 -40 29 C-33.4597303 30.90999027 -27.00148871 32.9903553 -20.56640625 35.23046875 C-17.96761589 36.14360706 -17.96761589 36.14360706 -15 36 C-15.35304199 35.5059668 -15.70608398 35.01193359 -16.06982422 34.50292969 C-17.67445945 32.2540131 -19.27476382 30.00204863 -20.875 27.75 C-21.43058594 26.97269531 -21.98617187 26.19539063 -22.55859375 25.39453125 C-23.36103516 24.26337891 -23.36103516 24.26337891 -24.1796875 23.109375 C-24.67194824 22.41811523 -25.16420898 21.72685547 -25.67138672 21.01464844 C-27 19 -27 19 -29 15 C-25.37 12.03 -21.74 9.06 -18 6 C-13.50679915 8.24660043 -11.66505868 10.8593139 -8.9375 14.875 C-8.0719009 16.12259454 -7.20602261 17.36999541 -6.33984375 18.6171875 C-5.96206787 19.17003418 -5.58429199 19.72288086 -5.19506836 20.29248047 C-3.84119821 22.22689678 -2.41667749 24.11109668 -1 26 C-0.67 17.42 -0.34 8.84 0 0 Z " fill="#01B4EB" transform="translate(65,20)"/>
<path d="M0 0 C1.49159399 0.51733938 2.98383006 1.03282973 4.4765625 1.546875 C8.6632002 2.99854942 12.8337818 4.49078379 17 6 C16.3827904 8.1272758 15.75598201 10.25176857 15.125 12.375 C14.60292969 14.15003906 14.60292969 14.15003906 14.0703125 15.9609375 C13 19 13 19 11 21 C3.08 18.69 -4.84 16.38 -13 14 C-9.89025832 18.3379462 -9.89025832 18.3379462 -6.77832031 22.67431641 C-4.11018771 26.40297202 -1.52150717 30.17060826 1 34 C-0.44930671 37.59584747 -2.22752078 39.18832656 -5.4375 41.3125 C-6.21996094 41.84488281 -7.00242188 42.37726563 -7.80859375 42.92578125 C-10 44 -10 44 -13 43 C-14.51806641 41.26586914 -14.51806641 41.26586914 -16.1015625 39.03515625 C-16.67390625 38.23529297 -17.24625 37.43542969 -17.8359375 36.61132812 C-18.42632812 35.77021484 -19.01671875 34.92910156 -19.625 34.0625 C-20.223125 33.22525391 -20.82125 32.38800781 -21.4375 31.52539062 C-25.81474702 25.37050595 -25.81474702 25.37050595 -27 23 C-27.33 31.91 -27.66 40.82 -28 50 C-33.28 50 -38.56 50 -44 50 C-44.1621939 46.05070716 -44.30097843 42.11004989 -44.38452148 38.15917969 C-44.43638505 36.16781002 -44.52540715 34.1775186 -44.61523438 32.1875 C-44.77653486 23.06250113 -43.20338932 17.77587154 -37 11 C-32.86281109 12.79046411 -31.33679861 15.16097371 -29 19 C-28.67 15.37 -28.34 11.74 -28 8 C-22.06 9.485 -22.06 9.485 -16 11 C-19.465 6.545 -19.465 6.545 -23 2 C-16.30265385 -4.69734615 -7.99405911 -2.9034113 0 0 Z " fill="#01B5EC" transform="translate(109,76)"/>
<path d="M0 0 C5.28 0 10.56 0 16 0 C16.16192903 4.10991297 16.30081028 8.2115819 16.38452148 12.32299805 C16.4194464 13.7169366 16.46700833 15.11062401 16.52807617 16.50366211 C16.88921593 24.96161605 16.58813347 31.01842226 10.71118164 37.57836914 C9 39 9 39 7 39 C1.75096394 33.9209641 -0.4645535 28.95031962 -0.68359375 21.6796875 C-0.63759087 19.0772386 -0.55487049 16.47520783 -0.4375 13.875 C-0.40230181 12.52351935 -0.37037788 11.17194928 -0.34179688 9.8203125 C-0.25993696 6.54591598 -0.13440524 3.27266082 0 0 Z " fill="#F7F7F7" transform="translate(65,20)"/>
<path d="M0 0 C3.97877639 1.7416771 5.81639873 3.6387272 8.00537109 7.34765625 C10.12084715 12.98892575 9.50140718 19.06540842 9.3125 25 C9.28737508 26.36063591 9.26456932 27.72131673 9.24414062 29.08203125 C9.18551525 32.38850262 9.09584541 35.69439816 9 39 C3.72 39 -1.56 39 -7 39 C-7.1621939 35.05070716 -7.30097843 31.11004989 -7.38452148 27.15917969 C-7.43638505 25.16781002 -7.52540715 23.1775186 -7.61523438 21.1875 C-7.77653486 12.06250113 -6.20338932 6.77587154 0 0 Z " fill="#F8F8F8" transform="translate(72,87)"/>
<path d="M0 0 C1.36328125 2.3984375 1.36328125 2.3984375 2.3125 5.375 C2.80169922 6.84066406 2.80169922 6.84066406 3.30078125 8.3359375 C4 11 4 11 4 14 C0.00882226 15.38118122 -3.99401407 16.72493837 -8 18.0625 C-9.68802734 18.64741211 -9.68802734 18.64741211 -11.41015625 19.24414062 C-17.81598778 21.3606873 -22.38994581 22.56237645 -29 21 C-29.763125 20.82339844 -30.52625 20.64679688 -31.3125 20.46484375 C-32.875 19.9765625 -34.4375 19.48828125 -36 19 C-35.33512334 17.66577316 -34.66805297 16.33263928 -34 15 C-33.67829834 14.33274902 -33.35659668 13.66549805 -33.02514648 12.97802734 C-30.30413667 7.94984952 -27.91198805 5.935842 -22.45507812 4.26171875 C-21.66552734 4.05160156 -20.87597656 3.84148438 -20.0625 3.625 C-19.27681641 3.39167969 -18.49113281 3.15835938 -17.68164062 2.91796875 C-16.15279793 2.46507309 -14.6197655 2.02603558 -13.08251953 1.60253906 C-11.27620844 1.07991588 -9.50563373 0.43669747 -7.74609375 -0.2265625 C-4.61034221 -1.10974714 -3.00947634 -1.27423611 0 0 Z " fill="#D139F8" transform="translate(122,51)"/>
<path d="M0 0 C5.08938811 1.59043379 8.87456643 4.7446951 13 8 C12.11446703 12.30274458 9.87363452 15.3248892 7.3125 18.8125 C6.85697754 19.43616455 6.40145508 20.0598291 5.93212891 20.70239258 C5.03038643 21.92870465 4.12458223 23.15204243 3.21435547 24.37207031 C2.22700803 25.69567963 1.25391035 27.02990963 0.28515625 28.3671875 C-3.07393116 32.70329479 -6.60402977 34.85308325 -12 36 C-13.32 36 -14.64 36 -16 36 C-17.28082558 28.44442286 -16.54823698 23.03313133 -12.30981445 16.70507812 C-10.40168837 14.05429805 -8.45361048 11.44277103 -6.44384766 8.86816406 C-4.2071557 5.97415547 -2.11075475 2.98669868 0 0 Z " fill="#F50259" transform="translate(97,26)"/>
<path d="M0 0 C1.60433809 0.47859241 3.20846416 0.95789558 4.8125 1.4375 C6.15248047 1.83775391 6.15248047 1.83775391 7.51953125 2.24609375 C9.35473055 2.80387873 11.18033726 3.39344575 13 4 C13 4.66 13 5.32 13 6 C13.99 6.33 14.98 6.66 16 7 C17.58076641 9.03490924 19.02159277 11.04354698 20.4375 13.1875 C20.81970703 13.75275391 21.20191406 14.31800781 21.59570312 14.90039062 C22.73889346 16.59479667 23.87061505 18.29636813 25 20 C25.76149124 21.14207881 26.52319605 22.28401526 27.28515625 23.42578125 C27.85105469 24.27527344 28.41695312 25.12476562 29 26 C27.55069329 29.59584747 25.77247922 31.18832656 22.5625 33.3125 C21.78003906 33.84488281 20.99757813 34.37726563 20.19140625 34.92578125 C18 36 18 36 15 35 C13.51367188 33.31347656 13.51367188 33.31347656 11.96875 31.140625 C11.12376953 29.96113281 11.12376953 29.96113281 10.26171875 28.7578125 C9.68035156 27.93023437 9.09898438 27.10265625 8.5 26.25 C7.91863281 25.43789062 7.33726563 24.62578125 6.73828125 23.7890625 C5.13759547 21.54004404 3.5664097 19.27295128 2 17 C1.36449219 16.11441406 0.72898437 15.22882813 0.07421875 14.31640625 C-1.36255106 11.21820807 -1.09419024 9.05193745 -0.6875 5.6875 C-0.50767578 4.08455078 -0.50767578 4.08455078 -0.32421875 2.44921875 C-0.21722656 1.64097656 -0.11023438 0.83273438 0 0 Z " fill="#01EDE1" transform="translate(81,84)"/>
<path d="M0 0 C0.99 0.33 1.98 0.66 3 1 C1.41146597 5.91001429 -1.18572852 10.40632473 -5.76245117 12.99804688 C-7.73717803 13.82015538 -9.71676046 14.52353627 -11.75 15.1875 C-12.45793701 15.4345166 -13.16587402 15.6815332 -13.89526367 15.93603516 C-15.92506355 16.64029413 -17.96178248 17.32059416 -20 18 C-20.97066406 18.34417969 -21.94132812 18.68835938 -22.94140625 19.04296875 C-26.0700518 20.14082954 -28.66141692 21 -32 21 C-32.70045456 19.08802961 -33.384919 17.17019565 -34.0625 15.25 C-34.44535156 14.18265625 -34.82820313 13.1153125 -35.22265625 12.015625 C-36.01701674 8.93398531 -36.27469778 7.84511691 -35 5 C-31.26194296 2.94619829 -27.11924069 1.85046351 -23.0625 0.5625 C-21.95841797 0.17384766 -20.85433594 -0.21480469 -19.71679688 -0.61523438 C-12.12892232 -3.06683945 -7.31283944 -3.18076275 0 0 Z " fill="#D139F8" transform="translate(57,76)"/>
<path d="M0 0 C4.45682503 2.22841252 6.28822293 4.77272697 9 8.75 C9.42539062 9.3584375 9.85078125 9.966875 10.2890625 10.59375 C11.13443128 11.8073469 11.97081887 13.02725211 12.79785156 14.25341797 C13.91111214 15.87085626 15.10126162 17.43463673 16.296875 18.9921875 C18.40244124 22.71073338 18.40997709 25.13560707 18.25 29.375 C18.21390625 30.62023437 18.1778125 31.86546875 18.140625 33.1484375 C18.07101563 34.55996094 18.07101563 34.55996094 18 36 C16.62197239 35.76726645 15.24762141 35.51274601 13.875 35.25 C13.10929687 35.11078125 12.34359375 34.9715625 11.5546875 34.828125 C4.32693544 32.48518396 0.81665568 27.5182417 -3.25 21.5 C-4.04277344 20.36111328 -4.04277344 20.36111328 -4.8515625 19.19921875 C-7.16680732 15.84387664 -9.16893682 12.66212635 -11 9 C-7.37 6.03 -3.74 3.06 0 0 Z " fill="#01EDE2" transform="translate(47,26)"/>
<path d="M0 0 C1.16628126 6.91129635 1.35015629 12.39405389 -2.53125 18.31640625 C-5.05258233 21.7736043 -7.75055154 25.07358212 -10.54492188 28.31298828 C-12.42533949 30.49313689 -14.2143811 32.74197221 -16 35 C-21.08938811 33.40956621 -24.87456643 30.2553049 -29 27 C-27.36621159 21.73207967 -24.06020074 17.75112847 -20.75 13.4375 C-20.18925781 12.68275391 -19.62851562 11.92800781 -19.05078125 11.15039062 C-15.17801216 6.07464823 -11.6602692 2.02147047 -5.3125 0.25 C-3 0 -3 0 0 0 Z " fill="#F7015A" transform="translate(65,85)"/>
</svg>
