<?xml version="1.0" encoding="UTF-8"?>
<svg version="1.1" xmlns="http://www.w3.org/2000/svg" width="225" height="225">
<path d="M0 0 C74.25 0 148.5 0 225 0 C225 74.25 225 148.5 225 225 C150.75 225 76.5 225 0 225 C0 150.75 0 76.5 0 0 Z " fill="#F5F5F5" transform="translate(0,0)"/>
<path d="M0 0 C1.71203357 1.54722574 3.39982641 3.12213602 5.05078125 4.734375 C6.79098542 6.58600313 6.79098542 6.58600313 8.90625 7.51953125 C8.90625 8.17953125 8.90625 8.83953125 8.90625 9.51953125 C9.56625 9.51953125 10.22625 9.51953125 10.90625 9.51953125 C26.49835705 26.70562694 34.07992317 46.54709371 34.09375 69.70703125 C34.10599609 70.76728516 34.11824219 71.82753906 34.13085938 72.91992188 C34.14995513 83.36530074 33.00016143 93.24957082 28.84375 102.89453125 C28.53993408 103.6107666 28.23611816 104.32700195 27.9230957 105.06494141 C18.47753693 126.53320108 1.84243362 143.77628369 -20.09375 152.51953125 C-25.69486847 154.41637081 -31.38043449 156.00041876 -37.09375 157.51953125 C-37.72273193 157.69911377 -38.35171387 157.87869629 -38.99975586 158.0637207 C-59.9940382 162.63365484 -83.16145726 156.62462673 -101.09375 145.51953125 C-104.62346585 143.04408579 -107.8665866 140.37270562 -111.09375 137.51953125 C-111.69058594 137.06449219 -112.28742188 136.60945312 -112.90234375 136.140625 C-127.27081029 125.02414396 -137.77794589 104.64749053 -140.67578125 86.96875 C-143.57499277 61.16485486 -139.85509031 36.84215448 -123.41845703 16.11376953 C-93.5211637 -19.86657058 -38.15420273 -30.59080648 0 0 Z " fill="#FE6C36" transform="translate(179.09375,40.48046875)"/>
<path d="M0 0 C2.97 0 5.94 0 9 0 C9 2.97 9 5.94 9 9 C6.03 9 3.06 9 0 9 C0 6.03 0 3.06 0 0 Z M0 9 C0 12.3 0 15.6 0 19 C2.97 19 5.94 19 9 19 C8.979375 17.700625 8.95875 16.40125 8.9375 15.0625 C8.91600546 13.70834367 8.92851801 12.35243917 9 11 C9.33 10.67 9.66 10.34 10 10 C12.97 10 15.94 10 19 10 C19 22.21 19 34.42 19 47 C6.79 47 -5.42 47 -18 47 C-18 38 -18 38 -17 37 C-14.32941149 36.85884839 -11.67567762 36.95752893 -9 37 C-9 34.03 -9 31.06 -9 28 C-12.3 28 -15.6 28 -19 28 C-18.505 23.545 -18.505 23.545 -18 19 C-15.03 19 -12.06 19 -9 19 C-9 16.03 -9 13.06 -9 10 C-1.125 9 -1.125 9 0 9 Z M-28 28 C-25.03 28 -22.06 28 -19 28 C-19 30.97 -19 33.94 -19 37 C-21.97 37 -24.94 37 -28 37 C-28 34.03 -28 31.06 -28 28 Z " fill="#EFEEEE" transform="translate(206,178)"/>
<path d="M0 0 C9.24 0 18.48 0 28 0 C28 2.97 28 5.94 28 9 C25.03 9 22.06 9 19 9 C19 12.3 19 15.6 19 19 C21.97 18.67 24.94 18.34 28 18 C28.33 15.36 28.66 12.72 29 10 C31.97 10 34.94 10 38 10 C38 12.97 38 15.94 38 19 C35.03 19 32.06 19 29 19 C29 21.97 29 24.94 29 28 C31.64 28 34.28 28 37 28 C34.88229834 30.32947183 32.96664412 31.88750845 30 33 C28.515 32.505 28.515 32.505 27 32 C27.33 30.68 27.66 29.36 28 28 C25.03 28 22.06 28 19 28 C19 30.97 19 33.94 19 37 C16.03 37 13.06 37 10 37 C10 34.03 10 31.06 10 28 C6.7 28 3.4 28 0 28 C0 25.03 0 22.06 0 19 C3.3 19 6.6 19 10 19 C10 15.7 10 12.4 10 9 C6.7 9 3.4 9 0 9 C0 6.03 0 3.06 0 0 Z " fill="#FEFEFE" transform="translate(56,0)"/>
<path d="M0 0 C2.97 0 5.94 0 9 0 C9 2.97 9 5.94 9 9 C6.03 9 3.06 9 0 9 C0 6.03 0 3.06 0 0 Z M0 9 C0 12.3 0 15.6 0 19 C2.97 19 5.94 19 9 19 C9 21.97 9 24.94 9 28 C6.03 28 3.06 28 0 28 C0 30.97 0 33.94 0 37 C-1.32 37 -2.64 37 -4 37 C-4.33 37.66 -4.66 38.32 -5 39 C-5.45890625 38.25234375 -5.9178125 37.5046875 -6.390625 36.734375 C-7.00421875 35.74953125 -7.6178125 34.7646875 -8.25 33.75 C-8.85328125 32.77546875 -9.4565625 31.8009375 -10.078125 30.796875 C-11.8983254 27.96588237 -11.8983254 27.96588237 -14.234375 25.765625 C-14.81703125 25.18296875 -15.3996875 24.6003125 -16 24 C-16 23.34 -16 22.68 -16 22 C-16.66 22 -17.32 22 -18 22 C-18 21.34 -18 20.68 -18 20 C-18.53625 19.773125 -19.0725 19.54625 -19.625 19.3125 C-22.84930329 17.53064818 -25.29649295 15.51917702 -28 13 C-28 12.01 -28 11.02 -28 10 C-25.03 10 -22.06 10 -19 10 C-18.67 12.64 -18.34 15.28 -18 18 C-15.03 18.33 -12.06 18.66 -9 19 C-9 16.03 -9 13.06 -9 10 C-1.125 9 -1.125 9 0 9 Z " fill="#F0EDEC" transform="translate(206,28)"/>
<path d="M0 0 C2.4375 1.875 2.4375 1.875 4 4 C4 4.66 4 5.32 4 6 C1.85030819 7.78378682 -0.29870513 9.43387859 -2.5625 11.0625 C-3.23273193 11.54912109 -3.90296387 12.03574219 -4.59350586 12.53710938 C-13.28171474 18.7526684 -22.39208103 24.32034388 -32 29 C-32 31.97 -32 34.94 -32 38 C-38.9609375 32.328125 -38.9609375 32.328125 -41 28 C-37.46330747 24.31428952 -33.90681887 20.64928231 -30.33105469 17.00146484 C-29.11911536 15.75946942 -27.91262969 14.51212672 -26.71191406 13.25927734 C-24.97849388 11.45255332 -23.22595044 9.66638033 -21.46875 7.8828125 C-20.94132202 7.32441681 -20.41389404 6.76602112 -19.8704834 6.19070435 C-14.36636658 0.68179002 -7.80287796 -0.90033207 0 0 Z " fill="#FEFAF9" transform="translate(122,122)"/>
<path d="M0 0 C2.97 0 5.94 0 9 0 C9 2.97 9 5.94 9 9 C11.97 9 14.94 9 18 9 C18 6.03 18 3.06 18 0 C21.3 0 24.6 0 28 0 C28 2.97 28 5.94 28 9 C25.36 9.33 22.72 9.66 20 10 C19.67 12.97 19.34 15.94 19 19 C9.43 19 -0.14 19 -10 19 C-10 16.03 -10 13.06 -10 10 C-6.7 10 -3.4 10 0 10 C0 6.7 0 3.4 0 0 Z " fill="#FCFCFC" transform="translate(94,206)"/>
<path d="M0 0 C0.66 0.66 1.32 1.32 2 2 C1.37738281 2.51542358 1.37738281 2.51542358 0.7421875 3.04125977 C-6.57154329 9.26003478 -13.24092446 16.13142485 -20 22.9375 C-21.2640885 24.20661373 -22.52840956 25.47549589 -23.79296875 26.74414062 C-26.86466724 29.8267632 -29.93320008 32.91250428 -33 36 C-35.8605891 34.64062915 -37.85927699 33.35479531 -40 31 C-38.69771329 28.13279358 -37.31246553 26.05660846 -35.09375 23.828125 C-34.23257568 22.96078735 -34.23257568 22.96078735 -33.35400391 22.07592773 C-32.74218262 21.47337158 -32.13036133 20.87081543 -31.5 20.25 C-30.55713135 19.31619507 -30.55713135 19.31619507 -29.59521484 18.36352539 C-24.6671556 13.53910236 -19.59506096 9.04520958 -14 5 C-13.28070313 4.47535156 -12.56140625 3.95070313 -11.8203125 3.41015625 C-7.82874931 0.69137453 -4.99089766 -0.83181628 0 0 Z " fill="#FEF5F3" transform="translate(150,76)"/>
<path d="M0 0 C3.3 0 6.6 0 10 0 C10 3.3 10 6.6 10 10 C7.03 10 4.06 10 1 10 C1 12.97 1 15.94 1 19 C4.465 18.505 4.465 18.505 8 18 C7.82984375 18.52464844 7.6596875 19.04929687 7.484375 19.58984375 C4.86867909 27.95172271 2.95068428 36.46451854 1 45 C0.67 45 0.34 45 0 45 C0 42.69 0 40.38 0 38 C-2.97 38 -5.94 38 -9 38 C-9 35.03 -9 32.06 -9 29 C-5.04 28.505 -5.04 28.505 -1 28 C-0.505 23.545 -0.505 23.545 0 19 C-2.97 19 -5.94 19 -9 19 C-9 15.7 -9 12.4 -9 9 C-6.03 9 -3.06 9 0 9 C0 6.03 0 3.06 0 0 Z " fill="#FBFBFA" transform="translate(37,56)"/>
<path d="M0 0 C2.09448242 0.98510742 2.09448242 0.98510742 3.09448242 1.98510742 C3.45776367 4.25073242 3.45776367 4.25073242 3.09448242 6.98510742 C1.07495117 9.34448242 1.07495117 9.34448242 -1.71801758 11.73510742 C-2.21503174 12.16702393 -2.7120459 12.59894043 -3.22412109 13.04394531 C-7.41927149 16.66237001 -11.73675722 20.13713757 -16.06176758 23.59838867 C-18.16286021 25.36180571 -20.14815685 27.13410641 -22.12426758 29.02807617 C-22.66124268 29.53991455 -23.19821777 30.05175293 -23.75146484 30.57910156 C-24.79376285 31.5817478 -25.82600595 32.59497788 -26.84667969 33.61962891 C-28.27661133 34.99291992 -28.27661133 34.99291992 -30.90551758 36.98510742 C-33.25317383 36.78979492 -33.25317383 36.78979492 -34.90551758 35.98510742 C-34.90551758 31.64461485 -34.85581553 31.43285349 -32.04736328 28.57763672 C-31.11057487 27.61225227 -31.11057487 27.61225227 -30.15486145 26.62736511 C-29.12844795 25.60368584 -29.12844795 25.60368584 -28.08129883 24.55932617 C-27.38288376 23.85234085 -26.68446869 23.14535553 -25.96488953 22.41694641 C-24.48447983 20.92504732 -22.99879513 19.43836698 -21.50830078 17.95654297 C-19.22665865 15.68122455 -16.97293754 13.38057704 -14.7199707 11.0769043 C-13.27953676 9.63192486 -11.83753042 8.18851081 -10.39379883 6.74682617 C-9.71964432 6.05425217 -9.04548981 5.36167816 -8.35090637 4.64811707 C-3.59178446 -0.01841012 -3.59178446 -0.01841012 0 0 Z " fill="#FEF8F7" transform="translate(153.905517578125,80.014892578125)"/>
<path d="M0 0 C2.97 0 5.94 0 9 0 C9.33 2.97 9.66 5.94 10 9 C12.97 9 15.94 9 19 9 C19 11.97 19 14.94 19 18 C16.03 18 13.06 18 10 18 C10.020625 19.299375 10.04125 20.59875 10.0625 21.9375 C10.08399454 23.29165633 10.07148199 24.64756083 10 26 C9.67 26.33 9.34 26.66 9 27 C6.03 27 3.06 27 0 27 C0 18.09 0 9.18 0 0 Z " fill="#F0EFEF" transform="translate(0,10)"/>
<path d="M0 0 C3.3 0 6.6 0 10 0 C10 2.97 10 5.94 10 9 C12.97 9 15.94 9 19 9 C19 6.03 19 3.06 19 0 C21.97 0 24.94 0 28 0 C28.31640625 2.77734375 28.31640625 2.77734375 28 6 C25.83984375 7.94140625 25.83984375 7.94140625 22.9375 9.5625 C21.93976563 10.14257812 20.94203125 10.72265625 19.9140625 11.3203125 C18.47160156 12.15175781 18.47160156 12.15175781 17 13 C14.62290148 14.61447988 12.31758065 16.30044086 10 18 C9 17 9 17 8.9375 13.9375 C8.958125 12.968125 8.97875 11.99875 9 11 C6.03 10.67 3.06 10.34 0 10 C0 12.97 0 15.94 0 19 C-2.97 19 -5.94 19 -9 19 C-9 16.03 -9 13.06 -9 10 C-6.36 9.67 -3.72 9.34 -1 9 C-0.67 6.03 -0.34 3.06 0 0 Z " fill="#F0EEED" transform="translate(56,28)"/>
<path d="M0 0 C2.24609375 1.01953125 2.24609375 1.01953125 4 2 C0.49102731 6.18423892 -3.08060535 10.19588166 -7 14 C-5.63629701 16.99220268 -4.05091917 19.29026529 -1.875 21.75 C-1.33617187 22.36359375 -0.79734375 22.9771875 -0.2421875 23.609375 C0.37269531 24.29773438 0.37269531 24.29773438 1 25 C-2.91430448 25.86114699 -5.36687997 26.22345413 -9.1875 24.875 C-12.77176968 22.48548688 -15.0755368 19.84892639 -17 16 C-17.40137875 11.82566105 -17.26194303 9.50448287 -15.3125 5.75 C-10.61260173 0.16093179 -7.02648697 -0.5576577 0 0 Z " fill="#FEFAF9" transform="translate(169,56)"/>
<path d="M0 0 C6.27 0 12.54 0 19 0 C19 3.3 19 6.6 19 10 C15.7 10 12.4 10 9 10 C9 12.97 9 15.94 9 19 C6.03 19 3.06 19 0 19 C0 12.73 0 6.46 0 0 Z " fill="#FDFDFD" transform="translate(0,206)"/>
<path d="M0 0 C3.94097064 0.98524266 5.77231574 2.04280131 9 4.375 C9.845625 4.98085937 10.69125 5.58671875 11.5625 6.2109375 C12.7690625 7.09652344 12.7690625 7.09652344 14 8 C15.13695312 8.72509766 15.13695312 8.72509766 16.296875 9.46484375 C18 11 18 11 18.390625 13.04296875 C18.26041667 15.02864583 18.13020833 17.01432292 18 19 C15.03 19 12.06 19 9 19 C9 16.03 9 13.06 9 10 C4.545 10.495 4.545 10.495 0 11 C-0.33 13.64 -0.66 16.28 -1 19 C-3.97 19 -6.94 19 -10 19 C-10 15.7 -10 12.4 -10 9 C-7.03 9 -4.06 9 -1 9 C-0.67 6.03 -0.34 3.06 0 0 Z " fill="#FDFCFC" transform="translate(66,178)"/>
<path d="M0 0 C0.495 1.485 0.495 1.485 1 3 C-2.47110246 9.61451344 -7.82596573 15.22795445 -12.86328125 20.67578125 C-14.72287365 22.69855543 -16.49644648 24.76081851 -18.25 26.875 C-20.61097916 29.62730167 -22.90743926 32.04680374 -26 34 C-28.1875 34 -28.1875 34 -30 33 C-30.70807934 31.68818985 -31.37964074 30.35549866 -32 29 C-26.98786434 23.72935877 -21.70194022 19.06723366 -16.03125 14.51953125 C-10.48284964 9.90778095 -5.25648487 4.93892298 0 0 Z " fill="#FEF6F4" transform="translate(156,90)"/>
<path d="M0 0 C5.54512635 -1.12635379 5.54512635 -1.12635379 9 0 C10.92484809 2.35510825 12.37433769 4.76298153 13.8203125 7.43310547 C16.41467664 12.2010217 19.43707316 16.2212456 23 20.3125 C23.4935498 20.88121826 23.98709961 21.44993652 24.49560547 22.03588867 C25.65660104 23.36353334 26.8272077 24.68276453 28 26 C27.67 26.66 27.34 27.32 27 28 C24.03 28 21.06 28 18 28 C18 25.03 18 22.06 18 19 C15.03 19 12.06 19 9 19 C9 15.7 9 12.4 9 9 C6.03 9 3.06 9 0 9 C0 6.03 0 3.06 0 0 Z " fill="#FEFCFB" transform="translate(38,150)"/>
<path d="M0 0 C1.6415049 3.2830098 0.51888624 6.42545033 0 10 C-3.3 10 -6.6 10 -10 10 C-10 12.97 -10 15.94 -10 19 C-12.97 19 -15.94 19 -19 19 C-19 16.03 -19 13.06 -19 10 C-19.99 9.67 -20.98 9.34 -22 9 C-21.44014404 8.79842285 -20.88028809 8.5968457 -20.3034668 8.38916016 C-17.7632897 7.4719252 -15.22539252 6.54853634 -12.6875 5.625 C-11.80642578 5.30789062 -10.92535156 4.99078125 -10.01757812 4.6640625 C-9.17001953 4.3546875 -8.32246094 4.0453125 -7.44921875 3.7265625 C-6.66893311 3.44377441 -5.88864746 3.16098633 -5.0847168 2.86962891 C-2.75863693 1.97747757 -2.75863693 1.97747757 0 0 Z " fill="#EFECEC" transform="translate(169,187)"/>
<path d="M0 0 C0.66 0.66 1.32 1.32 2 2 C1.34 2 0.68 2 0 2 C0 4.97 0 7.94 0 11 C-3.2830098 12.6415049 -6.42545033 11.51888624 -10 11 C-10 8.03 -10 5.06 -10 2 C-8.535625 1.855625 -7.07125 1.71125 -5.5625 1.5625 C-2.48153302 1.46504174 -2.48153302 1.46504174 0 0 Z M-10 11 C-10 14.3 -10 17.6 -10 21 C-12.97 21 -15.94 21 -19 21 C-19 18.03 -19 15.06 -19 12 C-11.125 11 -11.125 11 -10 11 Z " fill="#EFEDED" transform="translate(66,176)"/>
<path d="M0 0 C2.97 0 5.94 0 9 0 C9 2.97 9 5.94 9 9 C5.7 9 2.4 9 -1 9 C-0.67 6.03 -0.34 3.06 0 0 Z M-10 9 C-7.03 9 -4.06 9 -1 9 C-1 11.97 -1 14.94 -1 18 C-3.97 18 -6.94 18 -10 18 C-10 15.03 -10 12.06 -10 9 Z " fill="#EFEEEE" transform="translate(188,197)"/>
<path d="M0 0 C2.97 0 5.94 0 9 0 C9 2.97 9 5.94 9 9 C5.7 9 2.4 9 -1 9 C-0.67 6.03 -0.34 3.06 0 0 Z M-10 9 C-7.03 9 -4.06 9 -1 9 C-1 11.97 -1 14.94 -1 18 C-3.97 18 -6.94 18 -10 18 C-10 15.03 -10 12.06 -10 9 Z " fill="#EFEEEE" transform="translate(38,197)"/>
<path d="M0 0 C2.97 0 5.94 0 9 0 C9 2.97 9 5.94 9 9 C6.03 9 3.06 9 0 9 C0 6.03 0 3.06 0 0 Z M0 9 C0 12.3 0 15.6 0 19 C-2.97 19 -5.94 19 -9 19 C-9 16.03 -9 13.06 -9 10 C-1.125 9 -1.125 9 0 9 Z " fill="#EFEEEE" transform="translate(206,178)"/>
<path d="M0 0 C2.97 0 5.94 0 9 0 C9 2.97 9 5.94 9 9 C5.7 9 2.4 9 -1 9 C-0.67 6.03 -0.34 3.06 0 0 Z M-10 9 C-7.03 9 -4.06 9 -1 9 C-1 11.97 -1 14.94 -1 18 C-3.97 18 -6.94 18 -10 18 C-10 15.03 -10 12.06 -10 9 Z " fill="#EFEEEE" transform="translate(38,47)"/>
<path d="M0 0 C0.97582031 0.00902344 1.95164062 0.01804688 2.95703125 0.02734375 C3.69308594 0.03894531 4.42914063 0.05054688 5.1875 0.0625 C5.1875 0.3925 5.1875 0.7225 5.1875 1.0625 C2.8775 1.0625 0.5675 1.0625 -1.8125 1.0625 C-1.8125 3.0425 -1.8125 5.0225 -1.8125 7.0625 C-5.1125 7.0625 -8.4125 7.0625 -11.8125 7.0625 C-11.4825 5.0825 -11.1525 3.1025 -10.8125 1.0625 C-7.13862505 0.20951624 -3.7677607 -0.04539471 0 0 Z M-20.8125 7.0625 C-17.8425 7.0625 -14.8725 7.0625 -11.8125 7.0625 C-11.8125 10.0325 -11.8125 13.0025 -11.8125 16.0625 C-14.7825 16.0625 -17.7525 16.0625 -20.8125 16.0625 C-20.8125 13.0925 -20.8125 10.1225 -20.8125 7.0625 Z " fill="#F0EDEC" transform="translate(123.8125,198.9375)"/>
<path d="M0 0 C2.64 0 5.28 0 8 0 C8 3.93800217 6.22573096 6.2802376 4.1875 9.5 C3.83107422 10.08136719 3.47464844 10.66273437 3.10742188 11.26171875 C-0.53667852 17.10565224 -0.53667852 17.10565224 -3 19 C-6.1875 19.1875 -6.1875 19.1875 -9 19 C-9 16.03 -9 13.06 -9 10 C-6.03 10 -3.06 10 0 10 C0 6.7 0 3.4 0 0 Z " fill="#F0EDED" transform="translate(47,56)"/>
<path d="M0 0 C3 1 3 1 4 3 C4.56549228 7.63518261 4.67674909 11.59939799 2 15.5625 C1.34 16.366875 0.68 17.17125 0 18 C-3.81684226 16.44499019 -6.19195732 13.96404505 -9 11 C-7.59155282 7.78475695 -5.89655214 5.67816132 -3.375 3.25 C-2.74335938 2.63640625 -2.11171875 2.0228125 -1.4609375 1.390625 C-0.73777344 0.70226563 -0.73777344 0.70226563 0 0 Z " fill="#FEEDE7" transform="translate(174,61)"/>
<path d="M0 0 C-0.59070282 0.26473114 -1.18140564 0.52946228 -1.79000854 0.80221558 C-4.0758964 2.04113479 -5.54464387 3.31498661 -7.35986328 5.16455078 C-7.99376984 5.80506378 -8.62767639 6.44557678 -9.28079224 7.10549927 C-9.95383392 7.79513763 -10.62687561 8.484776 -11.3203125 9.1953125 C-12.0201828 9.90275604 -12.7200531 10.61019958 -13.44113159 11.33908081 C-15.67394938 13.59631697 -17.90020867 15.859854 -20.125 18.125 C-23.05944621 21.11242139 -26.00028314 24.09332784 -28.9453125 27.0703125 C-29.96094772 28.11084274 -29.96094772 28.11084274 -30.99710083 29.1723938 C-31.62470306 29.80660248 -32.2523053 30.44081116 -32.89892578 31.09423828 C-33.4508963 31.65668243 -34.00286682 32.21912659 -34.57156372 32.7986145 C-36 34 -36 34 -38 34 C-38.33 34.66 -38.66 35.32 -39 36 C-39 35.34 -39 34.68 -39 34 C-40.485 34.495 -40.485 34.495 -42 35 C-43.65 32.69 -45.3 30.38 -47 28 C-43.16263678 28.95934081 -42.40339772 29.23609263 -40 32 C-37.09732099 30.6918049 -35.08505699 29.31479679 -32.88720703 27.01904297 C-32.30625275 26.41857147 -31.72529846 25.81809998 -31.1267395 25.19943237 C-30.50999359 24.55354156 -29.89324768 23.90765076 -29.2578125 23.2421875 C-27.93158215 21.88093284 -26.60474035 20.52027369 -25.27734375 19.16015625 C-23.19483214 17.01565634 -21.11730907 14.86696516 -19.05029297 12.70751953 C-17.04959849 10.6221748 -15.03049457 8.55618152 -13.0078125 6.4921875 C-12.39511505 5.84224823 -11.7824176 5.19230896 -11.15115356 4.52267456 C-7.50990908 0.83859411 -5.46589092 -0.86566712 0 0 Z " fill="#FE662C" transform="translate(155,79)"/>
<path d="M0 0 C2.31 0 4.62 0 7 0 C7 2.97 7 5.94 7 9 C4.03 9 1.06 9 -2 9 C-2 11.97 -2 14.94 -2 18 C-3.423125 18.4640625 -3.423125 18.4640625 -4.875 18.9375 C-7.86080408 19.87394742 -7.86080408 19.87394742 -10 21 C-8.27502493 16.3970402 -6.0904129 12.06744176 -3.875 7.6875 C-3.50246094 6.94693359 -3.12992188 6.20636719 -2.74609375 5.44335938 C-1.83255194 3.62798783 -0.91652513 1.81386718 0 0 Z " fill="#F1ECEB" transform="translate(208,141)"/>
<path d="M0 0 C3.3 0 6.6 0 10 0 C10 3.3 10 6.6 10 10 C6.7 10 3.4 10 0 10 C0 6.7 0 3.4 0 0 Z " fill="#F0EFEF" transform="translate(159,206)"/>
<path d="M0 0 C3.3 0 6.6 0 10 0 C10 3.3 10 6.6 10 10 C6.7 10 3.4 10 0 10 C0 6.7 0 3.4 0 0 Z " fill="#F0EFEF" transform="translate(84,206)"/>
<path d="M0 0 C3.3 0 6.6 0 10 0 C10 3.3 10 6.6 10 10 C6.7 10 3.4 10 0 10 C0 6.7 0 3.4 0 0 Z " fill="#F0EFEF" transform="translate(9,206)"/>
<path d="M0 0 C2.97 0 5.94 0 9 0 C9.9802248 5.68839118 10.11948801 11.17294333 10.0625 16.9375 C10.05798828 17.81212891 10.05347656 18.68675781 10.04882812 19.58789062 C10.03714834 21.72529047 10.01921689 23.86265463 10 26 C9.67 26 9.34 26 9 26 C9 20.39 9 14.78 9 9 C6.03 9 3.06 9 0 9 C0 6.03 0 3.06 0 0 Z " fill="#F0E5E2" transform="translate(28,94)"/>
<path d="M0 0 C3.3 0 6.6 0 10 0 C10 3.3 10 6.6 10 10 C6.7 10 3.4 10 0 10 C0 6.7 0 3.4 0 0 Z " fill="#F0EFEF" transform="translate(9,56)"/>
<path d="M0 0 C3.3 0 6.6 0 10 0 C10 3.3 10 6.6 10 10 C6.7 10 3.4 10 0 10 C0 6.7 0 3.4 0 0 Z " fill="#F0EFEF" transform="translate(206,9)"/>
<path d="M0 0 C3.3 0 6.6 0 10 0 C10 3.3 10 6.6 10 10 C6.7 10 3.4 10 0 10 C0 6.7 0 3.4 0 0 Z " fill="#F0EFEF" transform="translate(131,9)"/>
<path d="M0 0 C3.3 0 6.6 0 10 0 C10 3.3 10 6.6 10 10 C6.7 10 3.4 10 0 10 C0 6.7 0 3.4 0 0 Z " fill="#F0EFEF" transform="translate(56,9)"/>
<path d="M0 0 C0.33 0 0.66 0 1 0 C1 2.64 1 5.28 1 8 C0.34 8 -0.32 8 -1 8 C-0.67 5.36 -0.34 2.72 0 0 Z M-10 8 C-7.03 8 -4.06 8 -1 8 C-1 10.97 -1 13.94 -1 17 C-3.97 17 -6.94 17 -10 17 C-10 14.03 -10 11.06 -10 8 Z " fill="#F0ECEB" transform="translate(38,123)"/>
<path d="M0 0 C5.4185766 -0.22577402 9.77487721 0.53329887 15 2 C15 2.33 15 2.66 15 3 C13.35 3 11.7 3 10 3 C10.020625 3.804375 10.04125 4.60875 10.0625 5.4375 C10 8 10 8 9 9 C5.99668982 9.14193337 3.00782866 9.04236378 0 9 C0 6.03 0 3.06 0 0 Z " fill="#FDFBFA" transform="translate(103,197)"/>
<path d="M0 0 C2.97 0 5.94 0 9 0 C9 3.3 9 6.6 9 10 C6.03 10 3.06 10 0 10 C0 6.7 0 3.4 0 0 Z " fill="#FEFDFD" transform="translate(150,206)"/>
<path d="M0 0 C2.97 0 5.94 0 9 0 C9 3.3 9 6.6 9 10 C6.03 10 3.06 10 0 10 C0 6.7 0 3.4 0 0 Z " fill="#FEFDFD" transform="translate(75,206)"/>
<path d="M0 0 C3.3 0 6.6 0 10 0 C10 2.97 10 5.94 10 9 C6.7 9 3.4 9 0 9 C0 6.03 0 3.06 0 0 Z " fill="#FEFDFD" transform="translate(159,197)"/>
<path d="M0 0 C3.3 0 6.6 0 10 0 C10 2.97 10 5.94 10 9 C6.7 9 3.4 9 0 9 C0 6.03 0 3.06 0 0 Z " fill="#FEFDFD" transform="translate(84,197)"/>
<path d="M0 0 C3.3 0 6.6 0 10 0 C10 2.97 10 5.94 10 9 C6.7 9 3.4 9 0 9 C0 6.03 0 3.06 0 0 Z " fill="#FEFDFD" transform="translate(206,150)"/>
<path d="M0 0 C3.3 0 6.6 0 10 0 C10 2.97 10 5.94 10 9 C6.7 9 3.4 9 0 9 C0 6.03 0 3.06 0 0 Z " fill="#FEFDFD" transform="translate(9,122)"/>
<path d="M0 0 C2.97 0 5.94 0 9 0 C9 3.3 9 6.6 9 10 C6.03 10 3.06 10 0 10 C0 6.7 0 3.4 0 0 Z " fill="#FDFDFD" transform="translate(216,84)"/>
<path d="M0 0 C2.97 0 5.94 0 9 0 C9 3.3 9 6.6 9 10 C6.03 10 3.06 10 0 10 C0 6.7 0 3.4 0 0 Z " fill="#FEFDFD" transform="translate(197,9)"/>
<path d="M0 0 C2.97 0 5.94 0 9 0 C9 3.3 9 6.6 9 10 C6.03 10 3.06 10 0 10 C0 6.7 0 3.4 0 0 Z " fill="#FEFDFD" transform="translate(47,9)"/>
<path d="M0 0 C3.3 0 6.6 0 10 0 C9.67 2.97 9.34 5.94 9 9 C6.03 9 3.06 9 0 9 C0 6.03 0 3.06 0 0 Z " fill="#FEFFFF" transform="translate(28,122)"/>
<path d="M0 0 C2.64 0 5.28 0 8 0 C8 2.97 8 5.94 8 9 C3.545 9.495 3.545 9.495 -1 10 C-2.31223496 6.06329512 -1.24296256 3.87511856 0 0 Z " fill="#EFEDEC" transform="translate(207,66)"/>
<path d="M0 0 C2.97 0 5.94 0 9 0 C9.33 2.97 9.66 5.94 10 9 C6.7169902 10.6415049 3.57454967 9.51888624 0 9 C0 6.03 0 3.06 0 0 Z " fill="#FEFEFE" transform="translate(47,47)"/>
<path d="M0 0 C2.97 0 5.94 0 9 0 C9.33 3.3 9.66 6.6 10 10 C6.7 9.67 3.4 9.34 0 9 C0 6.03 0 3.06 0 0 Z " fill="#EFEDED" transform="translate(85,19)"/>
<path d="M0 0 C2.97 0 5.94 0 9 0 C9 2.97 9 5.94 9 9 C4.545 9.495 4.545 9.495 0 10 C0 6.7 0 3.4 0 0 Z " fill="#FEFEFE" transform="translate(188,206)"/>
<path d="M0 0 C2.97 0 5.94 0 9 0 C9 2.97 9 5.94 9 9 C4.545 9.495 4.545 9.495 0 10 C0 6.7 0 3.4 0 0 Z " fill="#FEFEFE" transform="translate(113,206)"/>
<path d="M0 0 C2.97 0 5.94 0 9 0 C9 2.97 9 5.94 9 9 C4.545 9.495 4.545 9.495 0 10 C0 6.7 0 3.4 0 0 Z " fill="#FEFEFE" transform="translate(38,206)"/>
<path d="M0 0 C3.3 0 6.6 0 10 0 C9.67 2.97 9.34 5.94 9 9 C6.03 9 3.06 9 0 9 C0 6.03 0 3.06 0 0 Z " fill="#FEFEFE" transform="translate(206,188)"/>
<path d="M0 0 C0 3.3 0 6.6 0 10 C-2.97 10 -5.94 10 -9 10 C-9 7.03 -9 4.06 -9 1 C-1.125 0 -1.125 0 0 0 Z " fill="#EFEEEE" transform="translate(19,187)"/>
<path d="M0 0 C2.64 0.33 5.28 0.66 8 1 C8 3.97 8 6.94 8 10 C5.03 10 2.06 10 -1 10 C-1.125 2.25 -1.125 2.25 0 0 Z " fill="#FEFFFF" transform="translate(170,187)"/>
<path d="M0 0 C2.97 0 5.94 0 9 0 C9 2.97 9 5.94 9 9 C5.7 9 2.4 9 -1 9 C-0.67 6.03 -0.34 3.06 0 0 Z " fill="#FEFEFE" transform="translate(10,178)"/>
<path d="M0 0 C0 3.3 0 6.6 0 10 C-2.97 10 -5.94 10 -9 10 C-9 7.03 -9 4.06 -9 1 C-1.125 0 -1.125 0 0 0 Z " fill="#FEFEFE" transform="translate(37,159)"/>
<path d="M0 0 C2.97 0 5.94 0 9 0 C9 2.97 9 5.94 9 9 C5.7 9 2.4 9 -1 9 C-0.67 6.03 -0.34 3.06 0 0 Z " fill="#FEFEFE" transform="translate(10,103)"/>
<path d="M0 0 C3.3 0 6.6 0 10 0 C9.67 2.97 9.34 5.94 9 9 C6.03 9 3.06 9 0 9 C0 6.03 0 3.06 0 0 Z " fill="#FEFEFE" transform="translate(206,38)"/>
<path d="M0 0 C0 3.3 0 6.6 0 10 C-2.97 10 -5.94 10 -9 10 C-9 7.03 -9 4.06 -9 1 C-1.125 0 -1.125 0 0 0 Z " fill="#EFEEEE" transform="translate(19,37)"/>
<path d="M0 0 C2.97 0 5.94 0 9 0 C9 2.97 9 5.94 9 9 C5.7 9 2.4 9 -1 9 C-0.67 6.03 -0.34 3.06 0 0 Z " fill="#FEFEFE" transform="translate(10,28)"/>
<path d="M0 0 C0 3.3 0 6.6 0 10 C-2.97 10 -5.94 10 -9 10 C-9 7.03 -9 4.06 -9 1 C-1.125 0 -1.125 0 0 0 Z " fill="#FEFEFE" transform="translate(187,9)"/>
<path d="M0 0 C0 3.3 0 6.6 0 10 C-2.97 10 -5.94 10 -9 10 C-9 7.03 -9 4.06 -9 1 C-1.125 0 -1.125 0 0 0 Z " fill="#FEFEFE" transform="translate(112,9)"/>
<path d="M0 0 C0 3.3 0 6.6 0 10 C-2.97 10 -5.94 10 -9 10 C-9 7.03 -9 4.06 -9 1 C-1.125 0 -1.125 0 0 0 Z " fill="#FEFEFE" transform="translate(37,9)"/>
<path d="M0 0 C2.97 0 5.94 0 9 0 C9 2.97 9 5.94 9 9 C6.03 9 3.06 9 0 9 C0 6.03 0 3.06 0 0 Z " fill="#FFFFFF" transform="translate(216,216)"/>
<path d="M0 0 C2.97 0 5.94 0 9 0 C9 2.97 9 5.94 9 9 C6.03 9 3.06 9 0 9 C0 6.03 0 3.06 0 0 Z " fill="#FFFFFF" transform="translate(197,216)"/>
<path d="M0 0 C2.97 0 5.94 0 9 0 C9 2.97 9 5.94 9 9 C6.03 9 3.06 9 0 9 C0 6.03 0 3.06 0 0 Z " fill="#EEEDED" transform="translate(188,216)"/>
<path d="M0 0 C2.97 0 5.94 0 9 0 C9 2.97 9 5.94 9 9 C6.03 9 3.06 9 0 9 C0 6.03 0 3.06 0 0 Z " fill="#FFFFFF" transform="translate(178,216)"/>
<path d="M0 0 C2.97 0 5.94 0 9 0 C9 2.97 9 5.94 9 9 C6.03 9 3.06 9 0 9 C0 6.03 0 3.06 0 0 Z " fill="#EEEDED" transform="translate(169,216)"/>
<path d="M0 0 C2.97 0 5.94 0 9 0 C9 2.97 9 5.94 9 9 C6.03 9 3.06 9 0 9 C0 6.03 0 3.06 0 0 Z " fill="#EEEDED" transform="translate(150,216)"/>
<path d="M0 0 C2.97 0 5.94 0 9 0 C9 2.97 9 5.94 9 9 C6.03 9 3.06 9 0 9 C0 6.03 0 3.06 0 0 Z " fill="#FFFFFF" transform="translate(141,216)"/>
<path d="M0 0 C2.97 0 5.94 0 9 0 C9 2.97 9 5.94 9 9 C6.03 9 3.06 9 0 9 C0 6.03 0 3.06 0 0 Z " fill="#FFFFFF" transform="translate(122,216)"/>
<path d="M0 0 C2.97 0 5.94 0 9 0 C9 2.97 9 5.94 9 9 C6.03 9 3.06 9 0 9 C0 6.03 0 3.06 0 0 Z " fill="#EEEDED" transform="translate(113,216)"/>
<path d="M0 0 C2.97 0 5.94 0 9 0 C9 2.97 9 5.94 9 9 C6.03 9 3.06 9 0 9 C0 6.03 0 3.06 0 0 Z " fill="#FFFFFF" transform="translate(103,216)"/>
<path d="M0 0 C2.97 0 5.94 0 9 0 C9 2.97 9 5.94 9 9 C6.03 9 3.06 9 0 9 C0 6.03 0 3.06 0 0 Z " fill="#EEEDED" transform="translate(94,216)"/>
<path d="M0 0 C2.97 0 5.94 0 9 0 C9 2.97 9 5.94 9 9 C6.03 9 3.06 9 0 9 C0 6.03 0 3.06 0 0 Z " fill="#EEEDED" transform="translate(75,216)"/>
<path d="M0 0 C2.97 0 5.94 0 9 0 C9 2.97 9 5.94 9 9 C6.03 9 3.06 9 0 9 C0 6.03 0 3.06 0 0 Z " fill="#FFFFFF" transform="translate(66,216)"/>
<path d="M0 0 C2.97 0 5.94 0 9 0 C9 2.97 9 5.94 9 9 C6.03 9 3.06 9 0 9 C0 6.03 0 3.06 0 0 Z " fill="#FFFFFF" transform="translate(47,216)"/>
<path d="M0 0 C2.97 0 5.94 0 9 0 C9 2.97 9 5.94 9 9 C6.03 9 3.06 9 0 9 C0 6.03 0 3.06 0 0 Z " fill="#EEEDED" transform="translate(38,216)"/>
<path d="M0 0 C2.97 0 5.94 0 9 0 C9 2.97 9 5.94 9 9 C6.03 9 3.06 9 0 9 C0 6.03 0 3.06 0 0 Z " fill="#FFFFFF" transform="translate(28,216)"/>
<path d="M0 0 C2.97 0 5.94 0 9 0 C9 2.97 9 5.94 9 9 C6.03 9 3.06 9 0 9 C0 6.03 0 3.06 0 0 Z " fill="#EEEDED" transform="translate(19,216)"/>
<path d="M0 0 C2.97 0 5.94 0 9 0 C9 2.97 9 5.94 9 9 C6.03 9 3.06 9 0 9 C0 6.03 0 3.06 0 0 Z " fill="#EEEDED" transform="translate(0,216)"/>
<path d="M0 0 C2.97 0 5.94 0 9 0 C9 2.97 9 5.94 9 9 C6.03 9 3.06 9 0 9 C0 6.03 0 3.06 0 0 Z " fill="#FEFEFE" transform="translate(206,206)"/>
<path d="M0 0 C2.97 0 5.94 0 9 0 C9 2.97 9 5.94 9 9 C6.03 9 3.06 9 0 9 C0 6.03 0 3.06 0 0 Z " fill="#FEFEFE" transform="translate(131,206)"/>
<path d="M0 0 C2.97 0 5.94 0 9 0 C9 2.97 9 5.94 9 9 C6.03 9 3.06 9 0 9 C0 6.03 0 3.06 0 0 Z " fill="#EFEEEE" transform="translate(122,206)"/>
<path d="M0 0 C2.97 0 5.94 0 9 0 C9 2.97 9 5.94 9 9 C6.03 9 3.06 9 0 9 C0 6.03 0 3.06 0 0 Z " fill="#FEFEFE" transform="translate(56,206)"/>
<path d="M0 0 C2.97 0 5.94 0 9 0 C9 2.97 9 5.94 9 9 C6.03 9 3.06 9 0 9 C0 6.03 0 3.06 0 0 Z " fill="#FFFFFF" transform="translate(216,197)"/>
<path d="M0 0 C2.97 0 5.94 0 9 0 C9 2.97 9 5.94 9 9 C6.03 9 3.06 9 0 9 C0 6.03 0 3.06 0 0 Z " fill="#FFFFFF" transform="translate(197,197)"/>
<path d="M0 0 C2.97 0 5.94 0 9 0 C9 2.97 9 5.94 9 9 C6.03 9 3.06 9 0 9 C0 6.03 0 3.06 0 0 Z " fill="#FFFFFF" transform="translate(178,197)"/>
<path d="M0 0 C2.97 0 5.94 0 9 0 C9 2.97 9 5.94 9 9 C6.03 9 3.06 9 0 9 C0 6.03 0 3.06 0 0 Z " fill="#EEEDED" transform="translate(169,197)"/>
<path d="M0 0 C2.97 0 5.94 0 9 0 C9 2.97 9 5.94 9 9 C6.03 9 3.06 9 0 9 C0 6.03 0 3.06 0 0 Z " fill="#EEEDED" transform="translate(75,197)"/>
<path d="M0 0 C2.97 0 5.94 0 9 0 C9 2.97 9 5.94 9 9 C6.03 9 3.06 9 0 9 C0 6.03 0 3.06 0 0 Z " fill="#FFFFFF" transform="translate(66,197)"/>
<path d="M0 0 C2.97 0 5.94 0 9 0 C9 2.97 9 5.94 9 9 C6.03 9 3.06 9 0 9 C0 6.03 0 3.06 0 0 Z " fill="#FFFFFF" transform="translate(47,197)"/>
<path d="M0 0 C2.97 0 5.94 0 9 0 C9 2.97 9 5.94 9 9 C6.03 9 3.06 9 0 9 C0 6.03 0 3.06 0 0 Z " fill="#FFFFFF" transform="translate(28,197)"/>
<path d="M0 0 C2.97 0 5.94 0 9 0 C9 2.97 9 5.94 9 9 C6.03 9 3.06 9 0 9 C0 6.03 0 3.06 0 0 Z " fill="#EEEDED" transform="translate(19,197)"/>
<path d="M0 0 C2.97 0 5.94 0 9 0 C9 2.97 9 5.94 9 9 C6.03 9 3.06 9 0 9 C0 6.03 0 3.06 0 0 Z " fill="#EEEDED" transform="translate(0,197)"/>
<path d="M0 0 C2.97 0 5.94 0 9 0 C9 2.97 9 5.94 9 9 C6.03 9 3.06 9 0 9 C0 6.03 0 3.06 0 0 Z " fill="#FFFFFF" transform="translate(188,188)"/>
<path d="M0 0 C2.97 0 5.94 0 9 0 C9 2.97 9 5.94 9 9 C6.03 9 3.06 9 0 9 C0 6.03 0 3.06 0 0 Z " fill="#EEEDED" transform="translate(178,188)"/>
<path d="M0 0 C2.97 0 5.94 0 9 0 C9 2.97 9 5.94 9 9 C6.03 9 3.06 9 0 9 C0 6.03 0 3.06 0 0 Z " fill="#FFFFFF" transform="translate(38,188)"/>
<path d="M0 0 C2.97 0 5.94 0 9 0 C9 2.97 9 5.94 9 9 C6.03 9 3.06 9 0 9 C0 6.03 0 3.06 0 0 Z " fill="#EEEDED" transform="translate(28,188)"/>
<path d="M0 0 C2.97 0 5.94 0 9 0 C9 2.97 9 5.94 9 9 C6.03 9 3.06 9 0 9 C0 6.03 0 3.06 0 0 Z " fill="#FFFFFF" transform="translate(19,188)"/>
<path d="M0 0 C2.97 0 5.94 0 9 0 C9 2.97 9 5.94 9 9 C6.03 9 3.06 9 0 9 C0 6.03 0 3.06 0 0 Z " fill="#FFFFFF" transform="translate(216,178)"/>
<path d="M0 0 C2.97 0 5.94 0 9 0 C9 2.97 9 5.94 9 9 C6.03 9 3.06 9 0 9 C0 6.03 0 3.06 0 0 Z " fill="#FFFFFF" transform="translate(197,178)"/>
<path d="M0 0 C2.97 0 5.94 0 9 0 C9 2.97 9 5.94 9 9 C6.03 9 3.06 9 0 9 C0 6.03 0 3.06 0 0 Z " fill="#EEEDED" transform="translate(188,178)"/>
<path d="M0 0 C2.97 0 5.94 0 9 0 C9 2.97 9 5.94 9 9 C6.03 9 3.06 9 0 9 C0 6.03 0 3.06 0 0 Z " fill="#FFFFFF" transform="translate(47,178)"/>
<path d="M0 0 C2.97 0 5.94 0 9 0 C9 2.97 9 5.94 9 9 C6.03 9 3.06 9 0 9 C0 6.03 0 3.06 0 0 Z " fill="#EEEDED" transform="translate(38,178)"/>
<path d="M0 0 C2.97 0 5.94 0 9 0 C9 2.97 9 5.94 9 9 C6.03 9 3.06 9 0 9 C0 6.03 0 3.06 0 0 Z " fill="#FFFFFF" transform="translate(28,178)"/>
<path d="M0 0 C2.97 0 5.94 0 9 0 C9 2.97 9 5.94 9 9 C6.03 9 3.06 9 0 9 C0 6.03 0 3.06 0 0 Z " fill="#EEEDED" transform="translate(0,178)"/>
<path d="M0 0 C2.97 0 5.94 0 9 0 C9 2.97 9 5.94 9 9 C6.03 9 3.06 9 0 9 C0 6.03 0 3.06 0 0 Z " fill="#EEEDED" transform="translate(216,169)"/>
<path d="M0 0 C2.97 0 5.94 0 9 0 C9 2.97 9 5.94 9 9 C6.03 9 3.06 9 0 9 C0 6.03 0 3.06 0 0 Z " fill="#EEEDED" transform="translate(197,169)"/>
<path d="M0 0 C2.97 0 5.94 0 9 0 C9 2.97 9 5.94 9 9 C6.03 9 3.06 9 0 9 C0 6.03 0 3.06 0 0 Z " fill="#EEEDED" transform="translate(47,169)"/>
<path d="M0 0 C2.97 0 5.94 0 9 0 C9 2.97 9 5.94 9 9 C6.03 9 3.06 9 0 9 C0 6.03 0 3.06 0 0 Z " fill="#FFFFFF" transform="translate(38,169)"/>
<path d="M0 0 C2.97 0 5.94 0 9 0 C9 2.97 9 5.94 9 9 C6.03 9 3.06 9 0 9 C0 6.03 0 3.06 0 0 Z " fill="#FFFFFF" transform="translate(19,169)"/>
<path d="M0 0 C2.97 0 5.94 0 9 0 C9 2.97 9 5.94 9 9 C6.03 9 3.06 9 0 9 C0 6.03 0 3.06 0 0 Z " fill="#FFFFFF" transform="translate(0,169)"/>
<path d="M0 0 C2.97 0 5.94 0 9 0 C9 2.97 9 5.94 9 9 C6.03 9 3.06 9 0 9 C0 6.03 0 3.06 0 0 Z " fill="#EFEEEE" transform="translate(38,160)"/>
<path d="M0 0 C2.97 0 5.94 0 9 0 C9 2.97 9 5.94 9 9 C6.03 9 3.06 9 0 9 C0 6.03 0 3.06 0 0 Z " fill="#FEFEFE" transform="translate(10,160)"/>
<path d="M0 0 C2.97 0 5.94 0 9 0 C9 2.97 9 5.94 9 9 C6.03 9 3.06 9 0 9 C0 6.03 0 3.06 0 0 Z " fill="#EEEDED" transform="translate(216,150)"/>
<path d="M0 0 C2.97 0 5.94 0 9 0 C9 2.97 9 5.94 9 9 C6.03 9 3.06 9 0 9 C0 6.03 0 3.06 0 0 Z " fill="#FFFFFF" transform="translate(19,150)"/>
<path d="M0 0 C2.97 0 5.94 0 9 0 C9 2.97 9 5.94 9 9 C6.03 9 3.06 9 0 9 C0 6.03 0 3.06 0 0 Z " fill="#FFFFFF" transform="translate(0,150)"/>
<path d="M0 0 C2.97 0 5.94 0 9 0 C9 2.97 9 5.94 9 9 C6.03 9 3.06 9 0 9 C0 6.03 0 3.06 0 0 Z " fill="#FFFFFF" transform="translate(216,141)"/>
<path d="M0 0 C2.97 0 5.94 0 9 0 C9 2.97 9 5.94 9 9 C6.03 9 3.06 9 0 9 C0 6.03 0 3.06 0 0 Z " fill="#FFFFFF" transform="translate(28,141)"/>
<path d="M0 0 C2.97 0 5.94 0 9 0 C9 2.97 9 5.94 9 9 C6.03 9 3.06 9 0 9 C0 6.03 0 3.06 0 0 Z " fill="#EEEDED" transform="translate(19,141)"/>
<path d="M0 0 C2.97 0 5.94 0 9 0 C9 2.97 9 5.94 9 9 C6.03 9 3.06 9 0 9 C0 6.03 0 3.06 0 0 Z " fill="#EEEDED" transform="translate(0,141)"/>
<path d="M0 0 C2.97 0 5.94 0 9 0 C9 2.97 9 5.94 9 9 C6.03 9 3.06 9 0 9 C0 6.03 0 3.06 0 0 Z " fill="#FFFFFF" transform="translate(216,122)"/>
<path d="M0 0 C2.97 0 5.94 0 9 0 C9 2.97 9 5.94 9 9 C6.03 9 3.06 9 0 9 C0 6.03 0 3.06 0 0 Z " fill="#EEEDED" transform="translate(19,122)"/>
<path d="M0 0 C2.97 0 5.94 0 9 0 C9 2.97 9 5.94 9 9 C6.03 9 3.06 9 0 9 C0 6.03 0 3.06 0 0 Z " fill="#EEEDED" transform="translate(0,122)"/>
<path d="M0 0 C2.97 0 5.94 0 9 0 C9 2.97 9 5.94 9 9 C6.03 9 3.06 9 0 9 C0 6.03 0 3.06 0 0 Z " fill="#FFFFFF" transform="translate(19,113)"/>
<path d="M0 0 C2.97 0 5.94 0 9 0 C9 2.97 9 5.94 9 9 C6.03 9 3.06 9 0 9 C0 6.03 0 3.06 0 0 Z " fill="#FFFFFF" transform="translate(0,113)"/>
<path d="M0 0 C2.97 0 5.94 0 9 0 C9 2.97 9 5.94 9 9 C6.03 9 3.06 9 0 9 C0 6.03 0 3.06 0 0 Z " fill="#FFFFFF" transform="translate(216,103)"/>
<path d="M0 0 C2.97 0 5.94 0 9 0 C9 2.97 9 5.94 9 9 C6.03 9 3.06 9 0 9 C0 6.03 0 3.06 0 0 Z " fill="#FEFFFF" transform="translate(28,103)"/>
<path d="M0 0 C2.97 0 5.94 0 9 0 C9 2.97 9 5.94 9 9 C6.03 9 3.06 9 0 9 C0 6.03 0 3.06 0 0 Z " fill="#FFFFFF" transform="translate(19,94)"/>
<path d="M0 0 C2.97 0 5.94 0 9 0 C9 2.97 9 5.94 9 9 C6.03 9 3.06 9 0 9 C0 6.03 0 3.06 0 0 Z " fill="#FFFFFF" transform="translate(0,94)"/>
<path d="M0 0 C2.97 0 5.94 0 9 0 C9 2.97 9 5.94 9 9 C6.03 9 3.06 9 0 9 C0 6.03 0 3.06 0 0 Z " fill="#FEFEFE" transform="translate(10,85)"/>
<path d="M0 0 C2.97 0 5.94 0 9 0 C9 2.97 9 5.94 9 9 C6.03 9 3.06 9 0 9 C0 6.03 0 3.06 0 0 Z " fill="#EEEDED" transform="translate(216,75)"/>
<path d="M0 0 C2.97 0 5.94 0 9 0 C9 2.97 9 5.94 9 9 C6.03 9 3.06 9 0 9 C0 6.03 0 3.06 0 0 Z " fill="#FFFFFF" transform="translate(19,75)"/>
<path d="M0 0 C2.97 0 5.94 0 9 0 C9 2.97 9 5.94 9 9 C6.03 9 3.06 9 0 9 C0 6.03 0 3.06 0 0 Z " fill="#FFFFFF" transform="translate(0,75)"/>
<path d="M0 0 C2.97 0 5.94 0 9 0 C9 2.97 9 5.94 9 9 C6.03 9 3.06 9 0 9 C0 6.03 0 3.06 0 0 Z " fill="#FFFFFF" transform="translate(216,66)"/>
<path d="M0 0 C2.97 0 5.94 0 9 0 C9 2.97 9 5.94 9 9 C6.03 9 3.06 9 0 9 C0 6.03 0 3.06 0 0 Z " fill="#FFFFFF" transform="translate(28,66)"/>
<path d="M0 0 C2.97 0 5.94 0 9 0 C9 2.97 9 5.94 9 9 C6.03 9 3.06 9 0 9 C0 6.03 0 3.06 0 0 Z " fill="#EEEDED" transform="translate(19,66)"/>
<path d="M0 0 C2.97 0 5.94 0 9 0 C9 2.97 9 5.94 9 9 C6.03 9 3.06 9 0 9 C0 6.03 0 3.06 0 0 Z " fill="#EEEDED" transform="translate(0,66)"/>
<path d="M0 0 C2.97 0 5.94 0 9 0 C9 2.97 9 5.94 9 9 C6.03 9 3.06 9 0 9 C0 6.03 0 3.06 0 0 Z " fill="#FEFEFE" transform="translate(206,56)"/>
<path d="M0 0 C2.97 0 5.94 0 9 0 C9 2.97 9 5.94 9 9 C6.03 9 3.06 9 0 9 C0 6.03 0 3.06 0 0 Z " fill="#FFFFFF" transform="translate(216,47)"/>
<path d="M0 0 C2.97 0 5.94 0 9 0 C9 2.97 9 5.94 9 9 C6.03 9 3.06 9 0 9 C0 6.03 0 3.06 0 0 Z " fill="#FFFFFF" transform="translate(197,47)"/>
<path d="M0 0 C2.97 0 5.94 0 9 0 C9 2.97 9 5.94 9 9 C6.03 9 3.06 9 0 9 C0 6.03 0 3.06 0 0 Z " fill="#FFFFFF" transform="translate(28,47)"/>
<path d="M0 0 C2.97 0 5.94 0 9 0 C9 2.97 9 5.94 9 9 C6.03 9 3.06 9 0 9 C0 6.03 0 3.06 0 0 Z " fill="#EEEDED" transform="translate(19,47)"/>
<path d="M0 0 C2.97 0 5.94 0 9 0 C9 2.97 9 5.94 9 9 C6.03 9 3.06 9 0 9 C0 6.03 0 3.06 0 0 Z " fill="#EEEDED" transform="translate(0,47)"/>
<path d="M0 0 C2.97 0 5.94 0 9 0 C9 2.97 9 5.94 9 9 C6.03 9 3.06 9 0 9 C0 6.03 0 3.06 0 0 Z " fill="#EEEDED" transform="translate(216,38)"/>
<path d="M0 0 C2.97 0 5.94 0 9 0 C9 2.97 9 5.94 9 9 C6.03 9 3.06 9 0 9 C0 6.03 0 3.06 0 0 Z " fill="#FFFFFF" transform="translate(188,38)"/>
<path d="M0 0 C2.97 0 5.94 0 9 0 C9 2.97 9 5.94 9 9 C6.03 9 3.06 9 0 9 C0 6.03 0 3.06 0 0 Z " fill="#FFFFFF" transform="translate(38,38)"/>
<path d="M0 0 C2.97 0 5.94 0 9 0 C9 2.97 9 5.94 9 9 C6.03 9 3.06 9 0 9 C0 6.03 0 3.06 0 0 Z " fill="#EEEDED" transform="translate(28,38)"/>
<path d="M0 0 C2.97 0 5.94 0 9 0 C9 2.97 9 5.94 9 9 C6.03 9 3.06 9 0 9 C0 6.03 0 3.06 0 0 Z " fill="#FFFFFF" transform="translate(19,38)"/>
<path d="M0 0 C2.97 0 5.94 0 9 0 C9 2.97 9 5.94 9 9 C6.03 9 3.06 9 0 9 C0 6.03 0 3.06 0 0 Z " fill="#FFFFFF" transform="translate(216,28)"/>
<path d="M0 0 C2.97 0 5.94 0 9 0 C9 2.97 9 5.94 9 9 C6.03 9 3.06 9 0 9 C0 6.03 0 3.06 0 0 Z " fill="#FFFFFF" transform="translate(197,28)"/>
<path d="M0 0 C2.97 0 5.94 0 9 0 C9 2.97 9 5.94 9 9 C6.03 9 3.06 9 0 9 C0 6.03 0 3.06 0 0 Z " fill="#EEEDED" transform="translate(188,28)"/>
<path d="M0 0 C2.97 0 5.94 0 9 0 C9 2.97 9 5.94 9 9 C6.03 9 3.06 9 0 9 C0 6.03 0 3.06 0 0 Z " fill="#FFFFFF" transform="translate(178,28)"/>
<path d="M0 0 C2.97 0 5.94 0 9 0 C9 2.97 9 5.94 9 9 C6.03 9 3.06 9 0 9 C0 6.03 0 3.06 0 0 Z " fill="#FFFFFF" transform="translate(66,28)"/>
<path d="M0 0 C2.97 0 5.94 0 9 0 C9 2.97 9 5.94 9 9 C6.03 9 3.06 9 0 9 C0 6.03 0 3.06 0 0 Z " fill="#FFFFFF" transform="translate(47,28)"/>
<path d="M0 0 C2.97 0 5.94 0 9 0 C9 2.97 9 5.94 9 9 C6.03 9 3.06 9 0 9 C0 6.03 0 3.06 0 0 Z " fill="#EEEDED" transform="translate(38,28)"/>
<path d="M0 0 C2.97 0 5.94 0 9 0 C9 2.97 9 5.94 9 9 C6.03 9 3.06 9 0 9 C0 6.03 0 3.06 0 0 Z " fill="#FFFFFF" transform="translate(28,28)"/>
<path d="M0 0 C2.97 0 5.94 0 9 0 C9 2.97 9 5.94 9 9 C6.03 9 3.06 9 0 9 C0 6.03 0 3.06 0 0 Z " fill="#EEEDED" transform="translate(19,28)"/>
<path d="M0 0 C2.97 0 5.94 0 9 0 C9 2.97 9 5.94 9 9 C6.03 9 3.06 9 0 9 C0 6.03 0 3.06 0 0 Z " fill="#EEEDED" transform="translate(0,28)"/>
<path d="M0 0 C2.97 0 5.94 0 9 0 C9 2.97 9 5.94 9 9 C6.03 9 3.06 9 0 9 C0 6.03 0 3.06 0 0 Z " fill="#EEEDED" transform="translate(216,19)"/>
<path d="M0 0 C2.97 0 5.94 0 9 0 C9 2.97 9 5.94 9 9 C6.03 9 3.06 9 0 9 C0 6.03 0 3.06 0 0 Z " fill="#EEEDED" transform="translate(197,19)"/>
<path d="M0 0 C2.97 0 5.94 0 9 0 C9 2.97 9 5.94 9 9 C6.03 9 3.06 9 0 9 C0 6.03 0 3.06 0 0 Z " fill="#FFFFFF" transform="translate(188,19)"/>
<path d="M0 0 C2.97 0 5.94 0 9 0 C9 2.97 9 5.94 9 9 C6.03 9 3.06 9 0 9 C0 6.03 0 3.06 0 0 Z " fill="#EEEDED" transform="translate(178,19)"/>
<path d="M0 0 C2.97 0 5.94 0 9 0 C9 2.97 9 5.94 9 9 C6.03 9 3.06 9 0 9 C0 6.03 0 3.06 0 0 Z " fill="#FFFFFF" transform="translate(169,19)"/>
<path d="M0 0 C2.97 0 5.94 0 9 0 C9 2.97 9 5.94 9 9 C6.03 9 3.06 9 0 9 C0 6.03 0 3.06 0 0 Z " fill="#EEEDED" transform="translate(66,19)"/>
<path d="M0 0 C2.97 0 5.94 0 9 0 C9 2.97 9 5.94 9 9 C6.03 9 3.06 9 0 9 C0 6.03 0 3.06 0 0 Z " fill="#EEEDED" transform="translate(47,19)"/>
<path d="M0 0 C2.97 0 5.94 0 9 0 C9 2.97 9 5.94 9 9 C6.03 9 3.06 9 0 9 C0 6.03 0 3.06 0 0 Z " fill="#FFFFFF" transform="translate(38,19)"/>
<path d="M0 0 C2.97 0 5.94 0 9 0 C9 2.97 9 5.94 9 9 C6.03 9 3.06 9 0 9 C0 6.03 0 3.06 0 0 Z " fill="#EEEDED" transform="translate(28,19)"/>
<path d="M0 0 C2.97 0 5.94 0 9 0 C9 2.97 9 5.94 9 9 C6.03 9 3.06 9 0 9 C0 6.03 0 3.06 0 0 Z " fill="#FFFFFF" transform="translate(19,19)"/>
<path d="M0 0 C2.97 0 5.94 0 9 0 C9 2.97 9 5.94 9 9 C6.03 9 3.06 9 0 9 C0 6.03 0 3.06 0 0 Z " fill="#EFEEEE" transform="translate(10,19)"/>
<path d="M0 0 C2.97 0 5.94 0 9 0 C9 2.97 9 5.94 9 9 C6.03 9 3.06 9 0 9 C0 6.03 0 3.06 0 0 Z " fill="#FFFFFF" transform="translate(0,19)"/>
<path d="M0 0 C2.97 0 5.94 0 9 0 C9 2.97 9 5.94 9 9 C6.03 9 3.06 9 0 9 C0 6.03 0 3.06 0 0 Z " fill="#EFEEEE" transform="translate(188,10)"/>
<path d="M0 0 C2.97 0 5.94 0 9 0 C9 2.97 9 5.94 9 9 C6.03 9 3.06 9 0 9 C0 6.03 0 3.06 0 0 Z " fill="#EFEEEE" transform="translate(169,10)"/>
<path d="M0 0 C2.97 0 5.94 0 9 0 C9 2.97 9 5.94 9 9 C6.03 9 3.06 9 0 9 C0 6.03 0 3.06 0 0 Z " fill="#FEFEFE" transform="translate(160,10)"/>
<path d="M0 0 C2.97 0 5.94 0 9 0 C9 2.97 9 5.94 9 9 C6.03 9 3.06 9 0 9 C0 6.03 0 3.06 0 0 Z " fill="#EFEEEE" transform="translate(113,10)"/>
<path d="M0 0 C2.97 0 5.94 0 9 0 C9 2.97 9 5.94 9 9 C6.03 9 3.06 9 0 9 C0 6.03 0 3.06 0 0 Z " fill="#EFEEEE" transform="translate(38,10)"/>
<path d="M0 0 C2.97 0 5.94 0 9 0 C9 2.97 9 5.94 9 9 C6.03 9 3.06 9 0 9 C0 6.03 0 3.06 0 0 Z " fill="#EFEEEE" transform="translate(19,10)"/>
<path d="M0 0 C2.97 0 5.94 0 9 0 C9 2.97 9 5.94 9 9 C6.03 9 3.06 9 0 9 C0 6.03 0 3.06 0 0 Z " fill="#FEFEFE" transform="translate(10,10)"/>
<path d="M0 0 C2.97 0 5.94 0 9 0 C9 2.97 9 5.94 9 9 C6.03 9 3.06 9 0 9 C0 6.03 0 3.06 0 0 Z " fill="#EEEDED" transform="translate(216,0)"/>
<path d="M0 0 C2.97 0 5.94 0 9 0 C9 2.97 9 5.94 9 9 C6.03 9 3.06 9 0 9 C0 6.03 0 3.06 0 0 Z " fill="#EEEDED" transform="translate(197,0)"/>
<path d="M0 0 C2.97 0 5.94 0 9 0 C9 2.97 9 5.94 9 9 C6.03 9 3.06 9 0 9 C0 6.03 0 3.06 0 0 Z " fill="#FFFFFF" transform="translate(188,0)"/>
<path d="M0 0 C2.97 0 5.94 0 9 0 C9 2.97 9 5.94 9 9 C6.03 9 3.06 9 0 9 C0 6.03 0 3.06 0 0 Z " fill="#EEEDED" transform="translate(178,0)"/>
<path d="M0 0 C2.97 0 5.94 0 9 0 C9 2.97 9 5.94 9 9 C6.03 9 3.06 9 0 9 C0 6.03 0 3.06 0 0 Z " fill="#FFFFFF" transform="translate(169,0)"/>
<path d="M0 0 C2.97 0 5.94 0 9 0 C9 2.97 9 5.94 9 9 C6.03 9 3.06 9 0 9 C0 6.03 0 3.06 0 0 Z " fill="#FFFFFF" transform="translate(150,0)"/>
<path d="M0 0 C2.97 0 5.94 0 9 0 C9 2.97 9 5.94 9 9 C6.03 9 3.06 9 0 9 C0 6.03 0 3.06 0 0 Z " fill="#EEEDED" transform="translate(141,0)"/>
<path d="M0 0 C2.97 0 5.94 0 9 0 C9 2.97 9 5.94 9 9 C6.03 9 3.06 9 0 9 C0 6.03 0 3.06 0 0 Z " fill="#EEEDED" transform="translate(122,0)"/>
<path d="M0 0 C2.97 0 5.94 0 9 0 C9 2.97 9 5.94 9 9 C6.03 9 3.06 9 0 9 C0 6.03 0 3.06 0 0 Z " fill="#EEEDED" transform="translate(103,0)"/>
<path d="M0 0 C2.97 0 5.94 0 9 0 C9 2.97 9 5.94 9 9 C6.03 9 3.06 9 0 9 C0 6.03 0 3.06 0 0 Z " fill="#FFFFFF" transform="translate(94,0)"/>
<path d="M0 0 C2.97 0 5.94 0 9 0 C9 2.97 9 5.94 9 9 C6.03 9 3.06 9 0 9 C0 6.03 0 3.06 0 0 Z " fill="#FFFFFF" transform="translate(75,0)"/>
<path d="M0 0 C2.97 0 5.94 0 9 0 C9 2.97 9 5.94 9 9 C6.03 9 3.06 9 0 9 C0 6.03 0 3.06 0 0 Z " fill="#EEEDED" transform="translate(66,0)"/>
<path d="M0 0 C2.97 0 5.94 0 9 0 C9 2.97 9 5.94 9 9 C6.03 9 3.06 9 0 9 C0 6.03 0 3.06 0 0 Z " fill="#EEEDED" transform="translate(47,0)"/>
<path d="M0 0 C2.97 0 5.94 0 9 0 C9 2.97 9 5.94 9 9 C6.03 9 3.06 9 0 9 C0 6.03 0 3.06 0 0 Z " fill="#FFFFFF" transform="translate(38,0)"/>
<path d="M0 0 C2.97 0 5.94 0 9 0 C9 2.97 9 5.94 9 9 C6.03 9 3.06 9 0 9 C0 6.03 0 3.06 0 0 Z " fill="#EEEDED" transform="translate(28,0)"/>
<path d="M0 0 C2.97 0 5.94 0 9 0 C9 2.97 9 5.94 9 9 C6.03 9 3.06 9 0 9 C0 6.03 0 3.06 0 0 Z " fill="#FFFFFF" transform="translate(19,0)"/>
<path d="M0 0 C2.97 0 5.94 0 9 0 C9 2.97 9 5.94 9 9 C6.03 9 3.06 9 0 9 C0 6.03 0 3.06 0 0 Z " fill="#FFFFFF" transform="translate(0,0)"/>
<path d="M0 0 C2.05078125 0.03255208 4.1015625 0.06510417 6.15234375 0.09765625 C6.15234375 3.06765625 6.15234375 6.03765625 6.15234375 9.09765625 C3.18234375 9.09765625 0.21234375 9.09765625 -2.84765625 9.09765625 C-2.9453125 2.9453125 -2.9453125 2.9453125 -2.84765625 1.09765625 C-1.84765625 0.09765625 -1.84765625 0.09765625 0 0 Z " fill="#EFEEEE" transform="translate(133.84765625,215.90234375)"/>
<path d="M0 0 C2.05078125 0.03255208 4.1015625 0.06510417 6.15234375 0.09765625 C6.15234375 3.06765625 6.15234375 6.03765625 6.15234375 9.09765625 C3.18234375 9.09765625 0.21234375 9.09765625 -2.84765625 9.09765625 C-2.9453125 2.9453125 -2.9453125 2.9453125 -2.84765625 1.09765625 C-1.84765625 0.09765625 -1.84765625 0.09765625 0 0 Z " fill="#EFEEEE" transform="translate(143.84765625,205.90234375)"/>
<path d="M0 0 C2.05078125 0.03255208 4.1015625 0.06510417 6.15234375 0.09765625 C6.15234375 3.06765625 6.15234375 6.03765625 6.15234375 9.09765625 C3.18234375 9.09765625 0.21234375 9.09765625 -2.84765625 9.09765625 C-2.9453125 2.9453125 -2.9453125 2.9453125 -2.84765625 1.09765625 C-1.84765625 0.09765625 -1.84765625 0.09765625 0 0 Z " fill="#FEFDFC" transform="translate(143.84765625,196.90234375)"/>
<path d="M0 0 C2.05078125 0.03255208 4.1015625 0.06510417 6.15234375 0.09765625 C6.15234375 3.06765625 6.15234375 6.03765625 6.15234375 9.09765625 C3.18234375 9.09765625 0.21234375 9.09765625 -2.84765625 9.09765625 C-2.9453125 2.9453125 -2.9453125 2.9453125 -2.84765625 1.09765625 C-1.84765625 0.09765625 -1.84765625 0.09765625 0 0 Z " fill="#EFEEEE" transform="translate(218.84765625,55.90234375)"/>
<path d="M0 0 C2.97 0 5.94 0 9 0 C9 2.97 9 5.94 9 9 C6.03 8.67 3.06 8.34 0 8 C0 5.36 0 2.72 0 0 Z " fill="#FEFCFC" transform="translate(150,19)"/>
<path d="M0 0 C0.33 0 0.66 0 1 0 C1.1967332 2.8329581 1.38259641 5.66596323 1.5625 8.5 C1.61857422 9.29148438 1.67464844 10.08296875 1.73242188 10.8984375 C2.05189484 16.09519779 1.79686914 20.85281562 1 26 C3.97 26 6.94 26 10 26 C10 26.33 10 26.66 10 27 C7.03 27 4.06 27 1 27 C1 29.97 1 32.94 1 36 C0.67 36 0.34 36 0 36 C0 33.03 0 30.06 0 27 C-1.134375 27.185625 -2.26875 27.37125 -3.4375 27.5625 C-10.93332198 28.43018357 -18.50371753 27.55942406 -26 27 C-26 26.67 -26 26.34 -26 26 C-17.42 26 -8.84 26 0 26 C0 17.42 0 8.84 0 0 Z " fill="#F5F5F5" transform="translate(215,189)"/>
<path d="M0 0 C0.33 0 0.66 0 1 0 C1.1967332 2.8329581 1.38259641 5.66596323 1.5625 8.5 C1.61857422 9.29148438 1.67464844 10.08296875 1.73242188 10.8984375 C2.05189484 16.09519779 1.79686914 20.85281562 1 26 C3.97 26 6.94 26 10 26 C10 26.33 10 26.66 10 27 C7.03 27 4.06 27 1 27 C1 29.97 1 32.94 1 36 C0.67 36 0.34 36 0 36 C0 33.03 0 30.06 0 27 C-1.134375 27.185625 -2.26875 27.37125 -3.4375 27.5625 C-10.93332198 28.43018357 -18.50371753 27.55942406 -26 27 C-26 26.67 -26 26.34 -26 26 C-17.42 26 -8.84 26 0 26 C0 17.42 0 8.84 0 0 Z " fill="#F5F5F5" transform="translate(65,189)"/>
<path d="M0 0 C2.97 0 5.94 0 9 0 C9 2.31 9 4.62 9 7 C6.03 7.66 3.06 8.32 0 9 C0 6.03 0 3.06 0 0 Z " fill="#FEFEFE" transform="translate(94,19)"/>
<path d="M0 0 C1.1446875 0.12375 1.1446875 0.12375 2.3125 0.25 C2.3125 3.22 2.3125 6.19 2.3125 9.25 C-0.6575 9.25 -3.6275 9.25 -6.6875 9.25 C-6.04078163 4.59362773 -5.23074478 0.48658091 0 0 Z " fill="#FEFEFD" transform="translate(184.6875,177.75)"/>
<path d="M0 0 C0 2.97 0 5.94 0 9 C-2.97 9 -5.94 9 -9 9 C-8.6507442 5.85669777 -8.16074267 4.20508548 -6.1875 1.6875 C-4 0 -4 0 0 0 Z " fill="#FFFFFF" transform="translate(197,169)"/>
<path d="M0 0 C2.18975773 3.28463659 2.99806563 6.20696275 4 10 C1.36 10 -1.28 10 -4 10 C-4 7.03 -4 4.06 -4 1 C-2.68 0.67 -1.36 0.34 0 0 Z " fill="#F0EAE9" transform="translate(42,140)"/>
<path d="M0 0 C4 2 4 2 8 7 C3.38 7 -1.24 7 -6 7 C-4.02 4.69 -2.04 2.38 0 0 Z " fill="#FDF1ED" transform="translate(78,153)"/>
<path d="M0 0 C2.97 0 5.94 0 9 0 C9 2.31 9 4.62 9 7 C2.25 6.125 2.25 6.125 0 5 C0 3.35 0 1.7 0 0 Z " fill="#F0EDEC" transform="translate(141,19)"/>
<path d="M0 0 C2.97 0 5.94 0 9 0 C9 1.98 9 3.96 9 6 C6.03 6 3.06 6 0 6 C0 4.02 0 2.04 0 0 Z " fill="#FFFFFF" transform="translate(122,200)"/>
<path d="M0 0 C2.97 0 5.94 0 9 0 C9 1.32 9 2.64 9 4 C9.99 4.33 10.98 4.66 12 5 C8.04 5.66 4.08 6.32 0 7 C0 4.69 0 2.38 0 0 Z " fill="#F0EEED" transform="translate(103,19)"/>
<path d="M0 0 C0.33 0.66 0.66 1.32 1 2 C0.22265625 4.1640625 0.22265625 4.1640625 -0.9375 6.625 C-1.31777344 7.44226563 -1.69804688 8.25953125 -2.08984375 9.1015625 C-2.39019531 9.72804688 -2.69054688 10.35453125 -3 11 C-3.99 10.67 -4.98 10.34 -6 10 C-6 7.03 -6 4.06 -6 1 C-4.02 0.67 -2.04 0.34 0 0 Z " fill="#FEFBFA" transform="translate(44,74)"/>
<path d="M0 0 C0.33 0.66 0.66 1.32 1 2 C1.66 2 2.32 2 3 2 C3 4.97 3 7.94 3 11 C1.02 11.33 -0.96 11.66 -3 12 C-2.40075776 7.80530429 -1.42500059 3.99000166 0 0 Z " fill="#FDF9F8" transform="translate(212,129)"/>
<path d="M0 0 C3.16115776 1.36983503 3.9927092 1.9890638 6 5 C1.71 5.99 -2.58 6.98 -7 8 C-7 7.34 -7 6.68 -7 6 C-5.46875 4.4921875 -5.46875 4.4921875 -3.5 2.875 C-2.8503125 2.33617188 -2.200625 1.79734375 -1.53125 1.2421875 C-1.0259375 0.83226563 -0.520625 0.42234375 0 0 Z " fill="#FEF2EE" transform="translate(107,108)"/>
<path d="M0 0 C0.33 0 0.66 0 1 0 C1.33 9.24 1.66 18.48 2 28 C1.34 28 0.68 28 0 28 C-1.37365621 25.25268757 -1.0128639 23.18332936 -0.87890625 20.1171875 C-0.80639648 18.36728516 -0.80639648 18.36728516 -0.73242188 16.58203125 C-0.67634766 15.35871094 -0.62027344 14.13539062 -0.5625 12.875 C-0.48418945 11.02841797 -0.48418945 11.02841797 -0.40429688 9.14453125 C-0.2743256 6.09611412 -0.13934981 3.0480005 0 0 Z " fill="#F7D0C5" transform="translate(213,103)"/>
<path d="M0 0 C2.31 0 4.62 0 7 0 C7 3 7 3 4.625 5.6875 C2 8 2 8 0 8 C0 5.36 0 2.72 0 0 Z " fill="#F2E9E6" transform="translate(56,47)"/>
<path d="M0 0 C1.32 0 2.64 0 4 0 C4.33 2.97 4.66 5.94 5 9 C4.01 9 3.02 9 2 9 C1.67 10.32 1.34 11.64 1 13 C0.63901937 11.02206479 0.28638652 9.04260427 -0.0625 7.0625 C-0.25972656 5.96035156 -0.45695313 4.85820313 -0.66015625 3.72265625 C-0.77230469 2.82417969 -0.88445312 1.92570312 -1 1 C-0.67 0.67 -0.34 0.34 0 0 Z " fill="#F2EBE9" transform="translate(211,85)"/>
<path d="M0 0 C0.33 0 0.66 0 1 0 C1 3.3 1 6.6 1 10 C3.64 10 6.28 10 9 10 C6.88229834 12.32947183 4.96664412 13.88750845 2 15 C1.01 14.67 0.02 14.34 -1 14 C-0.67 9.38 -0.34 4.76 0 0 Z " fill="#FAF6F5" transform="translate(84,18)"/>
<path d="M0 0 C2.97 0 5.94 0 9 0 C9 1.65 9 3.3 9 5 C5.26512223 4.5020163 3.18762365 4.12508244 0 2 C0 1.34 0 0.68 0 0 Z " fill="#FEF8F7" transform="translate(160,28)"/>
<path d="M0 0 C0 1.32 0 2.64 0 4 C-4.29 4 -8.58 4 -13 4 C-8.68630028 1.12420019 -5.19265239 0 0 0 Z " fill="#FCF0EC" transform="translate(160,193)"/>
<path d="M0 0 C2.31 0.33 4.62 0.66 7 1 C7.33 2.32 7.66 3.64 8 5 C4.25838897 5 0.71046443 4.48661829 -3 4 C-2.01 2.68 -1.02 1.36 0 0 Z " fill="#FEAB8E" transform="translate(115,116)"/>
<path d="M0 0 C0.33 0 0.66 0 1 0 C1 2.97 1 5.94 1 9 C3.31 9 5.62 9 8 9 C8 9.33 8 9.66 8 10 C5.69 10 3.38 10 1 10 C1 12.31 1 14.62 1 17 C0.67 17 0.34 17 0 17 C0 14.69 0 12.38 0 10 C-2.97 10 -5.94 10 -9 10 C-9 9.67 -9 9.34 -9 9 C-6.03 9 -3.06 9 0 9 C0 6.03 0 3.06 0 0 Z " fill="#F5F5F5" transform="translate(9,150)"/>
<path d="M0 0 C0.33 0 0.66 0 1 0 C1 2.97 1 5.94 1 9 C3.31 9 5.62 9 8 9 C8 9.33 8 9.66 8 10 C5.69 10 3.38 10 1 10 C1 12.31 1 14.62 1 17 C0.67 17 0.34 17 0 17 C0 14.69 0 12.38 0 10 C-2.97 10 -5.94 10 -9 10 C-9 9.67 -9 9.34 -9 9 C-6.03 9 -3.06 9 0 9 C0 6.03 0 3.06 0 0 Z " fill="#F5F5F5" transform="translate(9,75)"/>
<path d="M0 0 C0.33 0 0.66 0 1 0 C1 2.97 1 5.94 1 9 C3.31 9 5.62 9 8 9 C8 9.33 8 9.66 8 10 C5.69 10 3.38 10 1 10 C1 12.31 1 14.62 1 17 C0.67 17 0.34 17 0 17 C0 14.69 0 12.38 0 10 C-2.97 10 -5.94 10 -9 10 C-9 9.67 -9 9.34 -9 9 C-6.03 9 -3.06 9 0 9 C0 6.03 0 3.06 0 0 Z " fill="#F5F5F5" transform="translate(159,0)"/>
<path d="M0 0 C0.33 0 0.66 0 1 0 C1 2.97 1 5.94 1 9 C3.31 9 5.62 9 8 9 C8 9.33 8 9.66 8 10 C5.69 10 3.38 10 1 10 C1 12.31 1 14.62 1 17 C0.67 17 0.34 17 0 17 C0 14.69 0 12.38 0 10 C-2.97 10 -5.94 10 -9 10 C-9 9.67 -9 9.34 -9 9 C-6.03 9 -3.06 9 0 9 C0 6.03 0 3.06 0 0 Z " fill="#F5F5F5" transform="translate(84,0)"/>
<path d="M0 0 C0.33 0 0.66 0 1 0 C1 2.97 1 5.94 1 9 C3.31 9 5.62 9 8 9 C8 9.33 8 9.66 8 10 C5.69 10 3.38 10 1 10 C1 12.31 1 14.62 1 17 C0.67 17 0.34 17 0 17 C0 14.69 0 12.38 0 10 C-2.97 10 -5.94 10 -9 10 C-9 9.67 -9 9.34 -9 9 C-6.03 9 -3.06 9 0 9 C0 6.03 0 3.06 0 0 Z " fill="#F5F5F5" transform="translate(9,0)"/>
<path d="M0 0 C2.97 0 5.94 0 9 0 C9 0.99 9 1.98 9 3 C6.36 3.33 3.72 3.66 1 4 C0.67 2.68 0.34 1.36 0 0 Z " fill="#EEEEEE" transform="translate(122,19)"/>
<path d="M0 0 C0.66 0.33 1.32 0.66 2 1 C1.34 2.65 0.68 4.3 0 6 C-2.31 6 -4.62 6 -7 6 C-6.21625 5.38125 -5.4325 4.7625 -4.625 4.125 C-2.03162353 2.10141339 -2.03162353 2.10141339 0 0 Z " fill="#F3EAE7" transform="translate(178,181)"/>
<path d="M0 0 C2.31 1.98 4.62 3.96 7 6 C6.01 6.33 5.02 6.66 4 7 C2.35 5.02 0.7 3.04 -1 1 C-0.67 0.67 -0.34 0.34 0 0 Z " fill="#FF6022" transform="translate(81,152)"/>
<path d="M0 0 C1.32 0 2.64 0 4 0 C4 2.31 4 4.62 4 7 C1.49962266 4.82575883 0.56371414 3.26954202 0 0 Z " fill="#FEFAF9" transform="translate(202,66)"/>
<path d="M0 0 C5.75 0.75 5.75 0.75 8 3 C5.36 3 2.72 3 0 3 C0 2.01 0 1.02 0 0 Z " fill="#FEFBFA" transform="translate(94,194)"/>
<path d="M0 0 C1.32 1.65 2.64 3.3 4 5 C3.67 5.66 3.34 6.32 3 7 C2.01 7 1.02 7 0 7 C0 4.69 0 2.38 0 0 Z " fill="#F2E6E2" transform="translate(47,152)"/>
</svg>
