<?xml version="1.0" encoding="UTF-8"?>
<svg version="1.1" xmlns="http://www.w3.org/2000/svg" width="183" height="148">
<path d="M0 0 C60.39 0 120.78 0 183 0 C183 48.84 183 97.68 183 148 C122.61 148 62.22 148 0 148 C0 99.16 0 50.32 0 0 Z " fill="#F3F3F3" transform="translate(0,0)"/>
<path d="M0 0 C3.43685555 3.65858817 4.11349817 7.22429585 4.16113281 12.13842773 C4.17074036 12.94283798 4.1803479 13.74724823 4.19024658 14.57603455 C4.19449646 15.43652908 4.19874634 16.29702362 4.203125 17.18359375 C4.20882507 18.07611343 4.21452515 18.96863312 4.22039795 19.88819885 C4.22983118 21.77351705 4.23637526 23.65885161 4.24023438 25.54418945 C4.24995319 28.4236322 4.28099754 31.30236487 4.3125 34.18164062 C4.31902929 36.01562077 4.32428005 37.84960601 4.328125 39.68359375 C4.3404718 40.54206406 4.3528186 41.40053436 4.36553955 42.28501892 C4.34405092 48.06737231 3.42776396 51.5060243 -0.71875 55.765625 C-1.3065625 56.25546875 -1.894375 56.7453125 -2.5 57.25 C-3.0878125 57.75015625 -3.675625 58.2503125 -4.28125 58.765625 C-8.26275495 61.62506946 -12.61381994 61.13452647 -17.2890625 61.140625 C-18.97006551 61.15896449 -20.65105544 61.17853585 -22.33203125 61.19921875 C-24.97173984 61.22807604 -27.61061218 61.24999732 -30.25048828 61.25048828 C-45.11567605 61.07468323 -45.11567605 61.07468323 -57.55688477 68.47753906 C-61.83601922 73.1963158 -63.22176667 77.70741662 -63.4140625 83.95703125 C-63.45273437 85.06884766 -63.49140625 86.18066406 -63.53125 87.32617188 C-63.5621875 88.47666016 -63.593125 89.62714844 -63.625 90.8125 C-63.66367187 91.98232422 -63.70234375 93.15214844 -63.7421875 94.35742188 C-63.8362513 97.23812564 -63.92189877 100.11882654 -64 103 C-67.04263267 103.10845027 -70.08136204 103.18752063 -73.125 103.25 C-73.9809375 103.28351563 -74.836875 103.31703125 -75.71875 103.3515625 C-82.24777818 103.45200909 -85.77660019 102.0591003 -90.609375 97.47265625 C-99.57365228 86.39010796 -98.79310098 71.53127389 -98 58 C-97.14220328 50.51377411 -95.17878548 45.23365535 -90.109375 39.62109375 C-83.02611273 34.17747553 -76.02585894 34.60068419 -67.41015625 34.70703125 C-66.11049423 34.71127609 -64.81083221 34.71552094 -63.4717865 34.71989441 C-60.03740741 34.73128051 -56.60341649 34.7606925 -53.16918945 34.79400635 C-49.65646616 34.82484292 -46.14367937 34.83842859 -42.63085938 34.85351562 C-35.75374805 34.88556937 -28.87689273 34.93668885 -22 35 C-22 32.36 -22 29.72 -22 27 C-33.22 27 -44.44 27 -56 27 C-56.103125 23.32875 -56.20625 19.6575 -56.3125 15.875 C-56.35802002 14.7288623 -56.40354004 13.58272461 -56.45043945 12.40185547 C-56.56519711 3.95717262 -56.56519711 3.95717262 -53.64453125 0.3671875 C-40.77860327 -11.14943341 -13.31695716 -10.37155958 0 0 Z " fill="#0377BC" transform="translate(116,17)"/>
<path d="M0 0 C2.85520781 -0.10876982 5.70620561 -0.18766466 8.5625 -0.25 C9.36236328 -0.28351562 10.16222656 -0.31703125 10.98632812 -0.3515625 C16.88093893 -0.44780104 20.18529469 0.55056872 25 4 C33.22950928 12.28051864 34.28814692 24.27323307 34.5 35.375 C34.46189299 44.68519387 33.2583401 54.67707487 27.25 62.1875 C25.55323435 63.70873817 23.983017 64.88649381 22 66 C21.42695129 66.34553925 20.85390259 66.69107849 20.26348877 67.04708862 C17.3924293 68.25578259 15.15185495 68.24013384 12.03808594 68.22705078 C10.23667145 68.22682419 10.23667145 68.22682419 8.39886475 68.22659302 C7.10708313 68.21627045 5.81530151 68.20594788 4.484375 68.1953125 C3.14487927 68.19158034 1.80538079 68.18873432 0.46588135 68.18673706 C-3.05228265 68.17911657 -6.5702804 68.15948187 -10.08837891 68.1373291 C-13.68129223 68.11683643 -17.27423253 68.10772804 -20.8671875 68.09765625 C-27.91152617 68.07623434 -34.95575221 68.04211765 -42 68 C-42 70.64 -42 73.28 -42 76 C-30.78 76 -19.56 76 -8 76 C-7.95875 79.361875 -7.9175 82.72375 -7.875 86.1875 C-7.85679199 87.23832764 -7.83858398 88.28915527 -7.81982422 89.37182617 C-7.8148291 90.21205322 -7.80983398 91.05228027 -7.8046875 91.91796875 C-7.78897705 93.19837036 -7.78897705 93.19837036 -7.77294922 94.50463867 C-8.13272781 98.45872145 -9.19019566 101.19019566 -12 104 C-14.14974976 104.27415466 -14.14974976 104.27415466 -16.84521484 104.30639648 C-17.85321136 104.32238388 -18.86120789 104.33837128 -19.89974976 104.35484314 C-20.99244171 104.36020584 -22.08513367 104.36556854 -23.2109375 104.37109375 C-24.89046005 104.38463646 -24.89046005 104.38463646 -26.60391235 104.39845276 C-28.97614863 104.41298146 -31.34842522 104.42184847 -33.72070312 104.42553711 C-37.35355081 104.43742978 -40.9846988 104.48658969 -44.6171875 104.53710938 C-46.91926252 104.54657341 -49.221348 104.55380854 -51.5234375 104.55859375 C-52.61208099 104.57812607 -53.70072449 104.59765839 -54.82235718 104.61778259 C-62.33188692 104.57278521 -62.33188692 104.57278521 -65.59228516 101.77758789 C-66.05683105 100.86098389 -66.52137695 99.94437988 -67 99 C-67.40557129 98.24759033 -67.81114258 97.49518066 -68.22900391 96.7199707 C-69.28900976 92.98041236 -69.32493902 89.33648121 -69.3359375 85.48046875 C-69.3425943 84.66306717 -69.3492511 83.84566559 -69.35610962 83.00349426 C-69.36620878 81.27798706 -69.37092749 79.55244102 -69.37060547 77.8269043 C-69.37496886 75.2062026 -69.4112883 72.58719991 -69.44921875 69.96679688 C-69.45508973 68.28385987 -69.45905724 66.60091494 -69.4609375 64.91796875 C-69.47530853 64.14374069 -69.48967957 63.36951263 -69.50448608 62.57182312 C-69.45201869 56.2275195 -67.70230901 50.79120075 -63.21875 46.16015625 C-62.36796875 45.61681641 -62.36796875 45.61681641 -61.5 45.0625 C-60.9328125 44.68222656 -60.365625 44.30195312 -59.78125 43.91015625 C-55.39397867 41.66841454 -50.91234284 41.86611625 -46.0859375 41.859375 C-44.50389199 41.84103472 -42.92186037 41.8214633 -41.33984375 41.80078125 C-38.86483436 41.77195093 -36.39071497 41.75000312 -33.91552734 41.74951172 C-23.08350971 41.73430736 -13.79175568 41.64324913 -5.5625 33.625 C-1.11220209 26.14849952 -0.49183929 20.19640588 -0.3125 11.5625 C-0.27833984 10.44939453 -0.24417969 9.33628906 -0.20898438 8.18945312 C-0.12697571 5.45973617 -0.05767163 2.7303214 0 0 Z " fill="#FDC00A" transform="translate(128,44)"/>
<path d="M0 0 C18.81 0 37.62 0 57 0 C57 0.33 57 0.66 57 1 C52.05 1.33 47.1 1.66 42 2 C42 3.65 42 5.3 42 7 C41.360625 7.103125 40.72125 7.20625 40.0625 7.3125 C39.0415625 7.6528125 39.0415625 7.6528125 38 8 C37.67 8.99 37.34 9.98 37 11 C39.475 11.495 39.475 11.495 42 12 C42 13.32 42 14.64 42 16 C43.32 15.34 44.64 14.68 46 14 C46 13.01 46 12.02 46 11 C47.65 11 49.3 11 51 11 C51 12.65 51 14.3 51 16 C49.68 16 48.36 16 47 16 C47 17.32 47 18.64 47 20 C48.32 20.33 49.64 20.66 51 21 C51 22.32 51 23.64 51 25 C49.68 25 48.36 25 47 25 C45.25 23 45.25 23 44 21 C43.34 22.32 42.68 23.64 42 25 C40.68 25 39.36 25 38 25 C37.505 23.02 37.505 23.02 37 21 C36.34 21 35.68 21 35 21 C35 22.32 35 23.64 35 25 C35.66 25 36.32 25 37 25 C37 26.32 37 27.64 37 29 C38.65 29.33 40.3 29.66 42 30 C42 31.32 42 32.64 42 34 C43.32 34.33 44.64 34.66 46 35 C46 35.33 46 35.66 46 36 C40.72 36 35.44 36 30 36 C30.99 33.69 31.98 31.38 33 29 C33.4849362 26.31603488 33.4849362 26.31603488 33.51171875 23.72265625 C33.56138794 22.46980835 33.56138794 22.46980835 33.61206055 21.19165039 C33.63695557 20.15903076 33.66185059 19.12641113 33.6875 18.0625 C33.790625 14.741875 33.89375 11.42125 34 8 C22.78 8 11.56 8 0 8 C0 5.36 0 2.72 0 0 Z M35 11 C35 12.65 35 14.3 35 16 C35.99 16.33 36.98 16.66 38 17 C37.67 15.02 37.34 13.04 37 11 C36.34 11 35.68 11 35 11 Z " fill="#F2F0ED" transform="translate(86,112)"/>
<path d="M0 0 C1.32 0 2.64 0 4 0 C4.33 1.32 4.66 2.64 5 4 C6.32 4 7.64 4 9 4 C9 5.32 9 6.64 9 8 C7.35 8 5.7 8 4 8 C4 9.65 4 11.3 4 13 C2.68 13 1.36 13 0 13 C-0.33 14.65 -0.66 16.3 -1 18 C-1.99 18 -2.98 18 -4 18 C-4 19.32 -4 20.64 -4 22 C-2.68 22 -1.36 22 0 22 C0 20.68 0 19.36 0 18 C0.928125 17.87625 0.928125 17.87625 1.875 17.75 C4.18437567 17.18741541 4.18437567 17.18741541 5.25 14.9375 C5.4975 14.298125 5.745 13.65875 6 13 C6.99 13 7.98 13 9 13 C9 14.65 9 16.3 9 18 C7.68 18 6.36 18 5 18 C5 19.32 5 20.64 5 22 C6.32 22 7.64 22 9 22 C9.33 20.68 9.66 19.36 10 18 C11.32 18 12.64 18 14 18 C14 19.32 14 20.64 14 22 C15.32 22 16.64 22 18 22 C18.103125 21.360625 18.20625 20.72125 18.3125 20.0625 C18.539375 19.381875 18.76625 18.70125 19 18 C22.47782583 16.84072472 25.18803257 16.88686934 28.85546875 16.90234375 C29.51710526 16.9037587 30.17874176 16.90517365 30.86042786 16.90663147 C32.96949828 16.91222004 35.07846177 16.92477035 37.1875 16.9375 C38.61913909 16.94251648 40.05077985 16.94707913 41.48242188 16.95117188 C44.98831588 16.9621857 48.4941475 16.97944245 52 17 C52 18.98 52 20.96 52 23 C44.63721284 23.02318417 37.27443357 23.04094608 29.91161728 23.05181217 C26.49266011 23.0570277 23.07372794 23.0641012 19.65478516 23.07543945 C15.72298483 23.0883967 11.79119458 23.09323922 7.859375 23.09765625 C6.63321472 23.10281754 5.40705444 23.10797882 4.14373779 23.11329651 C2.43241669 23.11340981 2.43241669 23.11340981 0.68652344 23.11352539 C-0.31719299 23.115746 -1.32090942 23.11796661 -2.3550415 23.12025452 C-4.73237715 23.01216762 -6.7289895 22.68064995 -9 22 C-9 20.68 -9 19.36 -9 18 C-8.071875 17.87625 -8.071875 17.87625 -7.125 17.75 C-4.81562433 17.18741541 -4.81562433 17.18741541 -3.75 14.9375 C-3.5025 14.298125 -3.255 13.65875 -3 13 C-2.34 13 -1.68 13 -1 13 C-1.34786708 11.02463255 -1.34786708 11.02463255 -2 9 C-2.66 8.67 -3.32 8.34 -4 8 C-3.67 6.68 -3.34 5.36 -3 4 C-2.01 4 -1.02 4 0 4 C0 2.68 0 1.36 0 0 Z " fill="#F9F9F9" transform="translate(41,28)"/>
<path d="M0 0 C7.26 0 14.52 0 22 0 C22 1.65 22 3.3 22 5 C20.68 5 19.36 5 18 5 C18 6.32 18 7.64 18 9 C16.35 9 14.7 9 13 9 C13 7.68 13 6.36 13 5 C11.68 5 10.36 5 9 5 C9 6.32 9 7.64 9 9 C8.01 9.33 7.02 9.66 6 10 C5.26676204 12.01508358 5.26676204 12.01508358 5 14 C6.32 14 7.64 14 9 14 C9 15.32 9 16.64 9 18 C8.01 18.33 7.02 18.66 6 19 C5.26676204 21.01508358 5.26676204 21.01508358 5 23 C6.32 23 7.64 23 9 23 C9 24.32 9 25.64 9 27 C8.01 27.33 7.02 27.66 6 28 C5.26676204 30.01508358 5.26676204 30.01508358 5 32 C6.32 32 7.64 32 9 32 C9.33 30.68 9.66 29.36 10 28 C10.99 28 11.98 28 13 28 C13 29.32 13 30.64 13 32 C14.98491642 31.73323796 14.98491642 31.73323796 17 31 C17.33 30.01 17.66 29.02 18 28 C19.32 28 20.64 28 22 28 C22 29.32 22 30.64 22 32 C20.68 32 19.36 32 18 32 C17.67 33.65 17.34 35.3 17 37 C15.68 37 14.36 37 13 37 C13 38.32 13 39.64 13 41 C11.68 41 10.36 41 9 41 C9 39.68 9 38.36 9 37 C7.68 37 6.36 37 5 37 C5 38.32 5 39.64 5 41 C3.35 41 1.7 41 0 41 C0 39.68 0 38.36 0 37 C1.98 36.505 1.98 36.505 4 36 C4 35.01 4 34.02 4 33 C2.68 32.67 1.36 32.34 0 32 C0 30.68 0 29.36 0 28 C1.32 27.67 2.64 27.34 4 27 C4 26.01 4 25.02 4 24 C2.68 23.67 1.36 23.34 0 23 C0 21.68 0 20.36 0 19 C1.32 18.67 2.64 18.34 4 18 C4 17.01 4 16.02 4 15 C2.68 14.67 1.36 14.34 0 14 C0 12.35 0 10.7 0 9 C1.32 9 2.64 9 4 9 C4 7.68 4 6.36 4 5 C2.68 5 1.36 5 0 5 C0 3.35 0 1.7 0 0 Z M6 41 C6.99 41 7.98 41 9 41 C9 42.65 9 44.3 9 46 C7.68 46 6.36 46 5 46 C5.33 44.35 5.66 42.7 6 41 Z " fill="#FAFAFA" transform="translate(5,0)"/>
<path d="M0 0 C0.33 0 0.66 0 1 0 C1 6.93 1 13.86 1 21 C12.22 21 23.44 21 35 21 C35 23.64 35 26.28 35 29 C33.90458893 29.0154612 33.90458893 29.0154612 32.78704834 29.03123474 C25.90106277 29.12925887 19.01515722 29.23178031 12.12931442 29.33933926 C8.58933307 29.39447655 5.04934332 29.44788161 1.50927734 29.49731445 C-2.56161313 29.55423585 -6.6323535 29.61871557 -10.703125 29.68359375 C-12.60798676 29.70866249 -12.60798676 29.70866249 -14.55133057 29.73423767 C-15.73225281 29.75418289 -16.91317505 29.77412811 -18.12988281 29.79467773 C-19.68875214 29.81799416 -19.68875214 29.81799416 -21.27911377 29.84178162 C-23.67215397 29.98093589 -25.71144075 30.31731107 -28 31 C-27.67 29.68 -27.34 28.36 -27 27 C3.195 27.495 3.195 27.495 34 28 C34 26.02 34 24.04 34 22 C29.78228161 22.11833202 25.56479177 22.24258602 21.34741211 22.37231445 C19.91288997 22.41560793 18.47831816 22.45728699 17.04370117 22.49731445 C14.9808048 22.55515267 12.91815717 22.61880753 10.85546875 22.68359375 C8.99378052 22.73858032 8.99378052 22.73858032 7.09448242 22.79467773 C3.96446653 22.87144121 3.96446653 22.87144121 1 24 C0.67 24.99 0.34 25.98 0 27 C-1.32 27 -2.64 27 -4 27 C-4 25.68 -4 24.36 -4 23 C-5.98491642 23.26676204 -5.98491642 23.26676204 -8 24 C-8.33 24.99 -8.66 25.98 -9 27 C-10.32 27 -11.64 27 -13 27 C-13 25.68 -13 24.36 -13 23 C-11.68 23 -10.36 23 -9 23 C-9 21.35 -9 19.7 -9 18 C-12.11332248 18.66868314 -12.11332248 18.66868314 -13.1875 21.0625 C-13.455625 21.701875 -13.72375 22.34125 -14 23 C-15.32 23 -16.64 23 -18 23 C-18 24.32 -18 25.64 -18 27 C-19.32 27 -20.64 27 -22 27 C-22 25.68 -22 24.36 -22 23 C-21.01 22.67 -20.02 22.34 -19 22 C-18.26676204 19.98491642 -18.26676204 19.98491642 -18 18 C-16.68 18 -15.36 18 -14 18 C-14 16.35 -14 14.7 -14 13 C-12.35 13 -10.7 13 -9 13 C-9 11.68 -9 10.36 -9 9 C-8.360625 8.896875 -7.72125 8.79375 -7.0625 8.6875 C-6.381875 8.460625 -5.70125 8.23375 -5 8 C-4.67 7.01 -4.34 6.02 -4 5 C-2.68 5 -1.36 5 0 5 C0 3.35 0 1.7 0 0 Z " fill="#EFEFEF" transform="translate(59,23)"/>
<path d="M0 0 C1.65 0 3.3 0 5 0 C5 7.59 5 15.18 5 23 C3.35 23 1.7 23 0 23 C0 21.35 0 19.7 0 18 C-3.11332248 18.66868314 -3.11332248 18.66868314 -4.1875 21.0625 C-4.455625 21.701875 -4.72375 22.34125 -5 23 C-6.32 23 -7.64 23 -9 23 C-9 24.32 -9 25.64 -9 27 C-10.65 27 -12.3 27 -14 27 C-14 25.68 -14 24.36 -14 23 C-14.99 23 -15.98 23 -17 23 C-17 21.35 -17 19.7 -17 18 C-16.01 18 -15.02 18 -14 18 C-13.67 16.68 -13.34 15.36 -13 14 C-11.68 14 -10.36 14 -9 14 C-9 12.68 -9 11.36 -9 10 C-10.32 10 -11.64 10 -13 10 C-13.33 10.66 -13.66 11.32 -14 12 C-15 9 -15 9 -14.0625 6.8125 C-13.711875 6.214375 -13.36125 5.61625 -13 5 C-11.68 5 -10.36 5 -9 5 C-9 6.32 -9 7.64 -9 9 C-7.01508358 8.73323796 -7.01508358 8.73323796 -5 8 C-4.67 7.01 -4.34 6.02 -4 5 C-2.68 5 -1.36 5 0 5 C0 3.35 0 1.7 0 0 Z M-14 27 C-14 28.65 -14 30.3 -14 32 C-15.32 32 -16.64 32 -18 32 C-18 30.68 -18 29.36 -18 28 C-15 27 -15 27 -14 27 Z " fill="#FAFAFA" transform="translate(178,73)"/>
<path d="M0 0 C4.62 0 9.24 0 14 0 C13.67 1.32 13.34 2.64 13 4 C11.68 4 10.36 4 9 4 C9 4.66 9 5.32 9 6 C7.35 6 5.7 6 4 6 C4 5.34 4 4.68 4 4 C2.68 4 1.36 4 0 4 C-0.04125 4.5775 -0.0825 5.155 -0.125 5.75 C-1.45499391 9.16998433 -3.90088332 10.20251232 -7 12 C-7.99 12.33 -8.98 12.66 -10 13 C-11.18391223 15.37625345 -11.18391223 15.37625345 -12 18 C-12.33 18.99 -12.66 19.98 -13 21 C-13.14573058 22.47965926 -13.24663268 23.96403843 -13.31640625 25.44921875 C-13.35830078 26.29677734 -13.40019531 27.14433594 -13.44335938 28.01757812 C-13.48267578 28.89865234 -13.52199219 29.77972656 -13.5625 30.6875 C-13.60568359 31.58017578 -13.64886719 32.47285156 -13.69335938 33.39257812 C-13.79935353 35.59490108 -13.90142051 37.79733473 -14 40 C-15.32 40 -16.64 40 -18 40 C-18 41.32 -18 42.64 -18 44 C-19.65 44 -21.3 44 -23 44 C-23 43.34 -23 42.68 -23 42 C-22.34 42 -21.68 42 -21 42 C-21 34.41 -21 26.82 -21 19 C-20.34 19.66 -19.68 20.32 -19 21 C-18.34 19.68 -17.68 18.36 -17 17 C-16.01 17 -15.02 17 -14 17 C-13.67 15.68 -13.34 14.36 -13 13 C-11.68 12.67 -10.36 12.34 -9 12 C-8.67 10.68 -8.34 9.36 -8 8 C-7.01 8 -6.02 8 -5 8 C-5 6.35 -5 4.7 -5 3 C-3.35 3 -1.7 3 0 3 C0 2.01 0 1.02 0 0 Z M-26 44 C-25.01 44 -24.02 44 -23 44 C-23 45.65 -23 47.3 -23 49 C-24.32 49 -25.64 49 -27 49 C-26.67 47.35 -26.34 45.7 -26 44 Z " fill="#F7F7F6" transform="translate(73,79)"/>
<path d="M0 0 C1.32 0 2.64 0 4 0 C4 1.32 4 2.64 4 4 C5.65 4 7.3 4 9 4 C9 2.68 9 1.36 9 0 C10.32 0 11.64 0 13 0 C13 1.32 13 2.64 13 4 C12.01 4.33 11.02 4.66 10 5 C9.26676204 7.01508358 9.26676204 7.01508358 9 9 C10.32 9 11.64 9 13 9 C12.67 10.65 12.34 12.3 12 14 C11.01 14 10.02 14 9 14 C9 15.32 9 16.64 9 18 C7.35 18 5.7 18 4 18 C4 19.32 4 20.64 4 22 C5.32 22.33 6.64 22.66 8 23 C8 24.32 8 25.64 8 27 C6.68 27 5.36 27 4 27 C4 25.68 4 24.36 4 23 C3.01 23.33 2.02 23.66 1 24 C0.67 24.99 0.34 25.98 0 27 C-1.32 27 -2.64 27 -4 27 C-3.67 25.35 -3.34 23.7 -3 22 C-2.01 22 -1.02 22 0 22 C0 20.68 0 19.36 0 18 C-1.32 18 -2.64 18 -4 18 C-3.67 16.35 -3.34 14.7 -3 13 C-2.01 13 -1.02 13 0 13 C0 11.68 0 10.36 0 9 C-1.32 9 -2.64 9 -4 9 C-3.67 7.35 -3.34 5.7 -3 4 C-2.01 4 -1.02 4 0 4 C0 2.68 0 1.36 0 0 Z " fill="#EEEEEE" transform="translate(14,5)"/>
<path d="M0 0 C1.0859697 0.00636726 1.0859697 0.00636726 2.19387817 0.01286316 C4.48641537 0.02953903 6.77804496 0.06716794 9.0703125 0.10546875 C10.63279972 0.12053004 12.19530085 0.13421591 13.7578125 0.14648438 C17.57065755 0.17940582 21.38283161 0.23110873 25.1953125 0.29296875 C25.1953125 0.62296875 25.1953125 0.95296875 25.1953125 1.29296875 C21.5653125 1.29296875 17.9353125 1.29296875 14.1953125 1.29296875 C14.1953125 2.28296875 14.1953125 3.27296875 14.1953125 4.29296875 C13.2053125 4.62296875 12.2153125 4.95296875 11.1953125 5.29296875 C10.8653125 5.95296875 10.5353125 6.61296875 10.1953125 7.29296875 C14.8153125 7.29296875 19.4353125 7.29296875 24.1953125 7.29296875 C24.1953125 6.63296875 24.1953125 5.97296875 24.1953125 5.29296875 C25.5153125 5.29296875 26.8353125 5.29296875 28.1953125 5.29296875 C28.1953125 5.95296875 28.1953125 6.61296875 28.1953125 7.29296875 C29.8453125 7.29296875 31.4953125 7.29296875 33.1953125 7.29296875 C33.1953125 7.62296875 33.1953125 7.95296875 33.1953125 8.29296875 C20.6553125 8.62296875 8.1153125 8.95296875 -4.8046875 9.29296875 C-4.4746875 7.97296875 -4.1446875 6.65296875 -3.8046875 5.29296875 C-2.4846875 5.29296875 -1.1646875 5.29296875 0.1953125 5.29296875 C0.1953125 5.95296875 0.1953125 6.61296875 0.1953125 7.29296875 C1.8453125 7.29296875 3.4953125 7.29296875 5.1953125 7.29296875 C5.1953125 6.63296875 5.1953125 5.97296875 5.1953125 5.29296875 C5.8346875 5.18984375 6.4740625 5.08671875 7.1328125 4.98046875 C8.15375 4.64015625 8.15375 4.64015625 9.1953125 4.29296875 C9.5253125 3.30296875 9.8553125 2.31296875 10.1953125 1.29296875 C5.5753125 1.29296875 0.9553125 1.29296875 -3.8046875 1.29296875 C-3.8046875 2.28296875 -3.8046875 3.27296875 -3.8046875 4.29296875 C-5.4546875 4.29296875 -7.1046875 4.29296875 -8.8046875 4.29296875 C-8.8046875 5.94296875 -8.8046875 7.59296875 -8.8046875 9.29296875 C-9.7946875 9.62296875 -10.7846875 9.95296875 -11.8046875 10.29296875 C-12.1346875 11.28296875 -12.4646875 12.27296875 -12.8046875 13.29296875 C-14.13802083 13.95963542 -15.47135417 14.62630208 -16.8046875 15.29296875 C-17.1346875 16.28296875 -17.4646875 17.27296875 -17.8046875 18.29296875 C-18.7946875 18.62296875 -19.7846875 18.95296875 -20.8046875 19.29296875 C-22.01350846 21.29313341 -22.01350846 21.29313341 -22.8046875 23.29296875 C-24.8046875 20.29296875 -24.8046875 20.29296875 -24.6796875 18.04296875 C-22.20924599 10.27872402 -18.06013392 5.84278313 -11.09716797 1.6706543 C-7.28613584 0.07598914 -4.05296103 -0.09083581 0 0 Z " fill="#EEF0F1" transform="translate(76.8046875,77.70703125)"/>
<path d="M0 0 C0.99 0 1.98 0 3 0 C3 1.65 3 3.3 3 5 C2.01 5.33 1.02 5.66 0 6 C-1.20882096 8.00016466 -1.20882096 8.00016466 -2 10 C-3.32 10 -4.64 10 -6 10 C-6 11.32 -6 12.64 -6 14 C-7.32 14.33 -8.64 14.66 -10 15 C-10.33 17.64 -10.66 20.28 -11 23 C-13.97 23 -16.94 23 -20 23 C-20 24.65 -20 26.3 -20 28 C-21.32 28 -22.64 28 -24 28 C-24 26.35 -24 24.7 -24 23 C-25.65 23 -27.3 23 -29 23 C-29 22.01 -29 21.02 -29 20 C-27.35546875 18.75390625 -27.35546875 18.75390625 -25.1875 17.5625 C-20.97592596 15.23807935 -18.73180541 12.98761963 -17.05078125 8.421875 C-16.80714844 7.54015625 -16.56351563 6.6584375 -16.3125 5.75 C-16.06113281 4.85796875 -15.80976563 3.9659375 -15.55078125 3.046875 C-15.36902344 2.37140625 -15.18726563 1.6959375 -15 1 C-14.67 2.32 -14.34 3.64 -14 5 C-13.01 5 -12.02 5 -11 5 C-11 6.32 -11 7.64 -11 9 C-9.35 9 -7.7 9 -6 9 C-6 7.68 -6 6.36 -6 5 C-5.38125 4.9175 -4.7625 4.835 -4.125 4.75 C-1.81562433 4.18741541 -1.81562433 4.18741541 -0.75 1.9375 C-0.5025 1.298125 -0.255 0.65875 0 0 Z M-15 10 C-15 11.32 -15 12.64 -15 14 C-13.68 14 -12.36 14 -11 14 C-11 12.35 -11 10.7 -11 9 C-12.36893239 8.94729537 -12.36893239 8.94729537 -15 10 Z " fill="#F3F3F2" transform="translate(175,91)"/>
<path d="M0 0 C1.32 0 2.64 0 4 0 C4 1.32 4 2.64 4 4 C3.01 4.33 2.02 4.66 1 5 C0.26676204 7.01508358 0.26676204 7.01508358 0 9 C1.32 9 2.64 9 4 9 C3.67 10.65 3.34 12.3 3 14 C2.01 14 1.02 14 0 14 C0 15.32 0 16.64 0 18 C1.32 18 2.64 18 4 18 C3.67 19.65 3.34 21.3 3 23 C2.01 23 1.02 23 0 23 C0 24.32 0 25.64 0 27 C-1.65 26.67 -3.3 26.34 -5 26 C-5 25.01 -5 24.02 -5 23 C-6.32 23 -7.64 23 -9 23 C-9.33 24.32 -9.66 25.64 -10 27 C-11.32 27 -12.64 27 -14 27 C-14 25.35 -14 23.7 -14 22 C-12.68 22 -11.36 22 -10 22 C-9.67 20.68 -9.34 19.36 -9 18 C-7.68 18 -6.36 18 -5 18 C-5 16.68 -5 15.36 -5 14 C-6.32 14 -7.64 14 -9 14 C-9.33 15.32 -9.66 16.64 -10 18 C-11.32 18 -12.64 18 -14 18 C-14 16.35 -14 14.7 -14 13 C-12.68 13 -11.36 13 -10 13 C-9.67 11.68 -9.34 10.36 -9 9 C-7.68 9 -6.36 9 -5 9 C-5 7.35 -5 5.7 -5 4 C-3.35 4 -1.7 4 0 4 C0 2.68 0 1.36 0 0 Z " fill="#F1F1F1" transform="translate(160,5)"/>
<path d="M0 0 C-0.33 1.32 -0.66 2.64 -1 4 C0.32 4 1.64 4 3 4 C3 5.32 3 6.64 3 8 C2.01 8.33 1.02 8.66 0 9 C-0.73323796 11.01508358 -0.73323796 11.01508358 -1 13 C0.32 13 1.64 13 3 13 C2.67 14.65 2.34 16.3 2 18 C1.01 18 0.02 18 -1 18 C-1.33 19.32 -1.66 20.64 -2 22 C-3.32 22 -4.64 22 -6 22 C-6.33 20.68 -6.66 19.36 -7 18 C-7.99 18.33 -8.98 18.66 -10 19 C-10.33 19.99 -10.66 20.98 -11 22 C-12.32 22 -13.64 22 -15 22 C-14.67 20.35 -14.34 18.7 -14 17 C-13.01 17 -12.02 17 -11 17 C-11 15.68 -11 14.36 -11 13 C-9.35 13 -7.7 13 -6 13 C-5.67 11.35 -5.34 9.7 -5 8 C-4.01 8 -3.02 8 -2 8 C-2 6.68 -2 5.36 -2 4 C-3.32 4 -4.64 4 -6 4 C-6 2.68 -6 1.36 -6 0 C-2.25 -1.125 -2.25 -1.125 0 0 Z " fill="#EFEFEF" transform="translate(38,124)"/>
<path d="M0 0 C7.59 0 15.18 0 23 0 C23.33 1.32 23.66 2.64 24 4 C25.32 4.33 26.64 4.66 28 5 C28 6.32 28 7.64 28 9 C26.35 9 24.7 9 23 9 C23 7.68 23 6.36 23 5 C21.68 5 20.36 5 19 5 C19 6.32 19 7.64 19 9 C17.35 9 15.7 9 14 9 C14 7.68 14 6.36 14 5 C12.68 5 11.36 5 10 5 C9.67 6.32 9.34 7.64 9 9 C7.68 9 6.36 9 5 9 C5 7.68 5 6.36 5 5 C3.35 4.67 1.7 4.34 0 4 C0 2.68 0 1.36 0 0 Z " fill="#F6F6F6" transform="translate(68,0)"/>
<path d="M0 0 C1.32 0 2.64 0 4 0 C4.33 1.32 4.66 2.64 5 4 C6.32 4.33 7.64 4.66 9 5 C9 6.32 9 7.64 9 9 C10.98491642 8.73323796 10.98491642 8.73323796 13 8 C13.33 7.01 13.66 6.02 14 5 C15.32 5 16.64 5 18 5 C18 6.32 18 7.64 18 9 C19.65 9 21.3 9 23 9 C23 7.68 23 6.36 23 5 C24.32 5 25.64 5 27 5 C27 6.32 27 7.64 27 9 C28.65 9 30.3 9 32 9 C32 9.33 32 9.66 32 10 C30.71029297 10.05607422 30.71029297 10.05607422 29.39453125 10.11328125 C13.21743811 10.99945745 13.21743811 10.99945745 -1 18 C-1.99 18 -2.98 18 -4 18 C-4 16.68 -4 15.36 -4 14 C-2.68 14 -1.36 14 0 14 C0.33 12.35 0.66 10.7 1 9 C1.99 9 2.98 9 4 9 C4 7.68 4 6.36 4 5 C2.68 5 1.36 5 0 5 C0 3.35 0 1.7 0 0 Z " fill="#EAECED" transform="translate(64,0)"/>
<path d="M0 0 C1.32 0 2.64 0 4 0 C4 1.32 4 2.64 4 4 C3.01 4.33 2.02 4.66 1 5 C0.26676204 7.01508358 0.26676204 7.01508358 0 9 C-1.32 9 -2.64 9 -4 9 C-3.79375 10.010625 -3.5875 11.02125 -3.375 12.0625 C-2.9528506 16.49506869 -3.5640515 18.86108962 -5 23 C-6.32 23 -7.64 23 -9 23 C-9.33 24.32 -9.66 25.64 -10 27 C-11.32 27 -12.64 27 -14 27 C-14 25.35 -14 23.7 -14 22 C-12.68 22 -11.36 22 -10 22 C-10 20.68 -10 19.36 -10 18 C-11.32 18 -12.64 18 -14 18 C-13.6875 16.0625 -13.6875 16.0625 -13 14 C-12.01 13.67 -11.02 13.34 -10 13 C-9.26676204 10.98491642 -9.26676204 10.98491642 -9 9 C-7.68 9 -6.36 9 -5 9 C-5 7.35 -5 5.7 -5 4 C-3.35 4 -1.7 4 0 4 C0 2.68 0 1.36 0 0 Z " fill="#FAFBFB" transform="translate(64,5)"/>
<path d="M0 0 C1.32 0 2.64 0 4 0 C4.06058594 1.21816406 4.12117188 2.43632813 4.18359375 3.69140625 C4.26806403 5.31511277 4.35270872 6.93881022 4.4375 8.5625 C4.47681641 9.36236328 4.51613281 10.16222656 4.55664062 10.98632812 C4.80748156 15.71371506 5.25321814 20.32476901 6 25 C5.67 24.01 5.34 23.02 5 22 C3.00016466 22.79117904 3.00016466 22.79117904 1 24 C0.67 24.99 0.34 25.98 0 27 C-1.32 27 -2.64 27 -4 27 C-3.67 25.35 -3.34 23.7 -3 22 C-2.01 22 -1.02 22 0 22 C0 20.68 0 19.36 0 18 C-1.32 18 -2.64 18 -4 18 C-3.67 16.35 -3.34 14.7 -3 13 C-2.01 13 -1.02 13 0 13 C0 11.68 0 10.36 0 9 C-1.32 9 -2.64 9 -4 9 C-3.67 7.35 -3.34 5.7 -3 4 C-2.01 4 -1.02 4 0 4 C0 2.68 0 1.36 0 0 Z " fill="#F0F0F1" transform="translate(14,78)"/>
<path d="M0 0 C1.65 0.33 3.3 0.66 5 1 C5 1.99 5 2.98 5 4 C6.32 4 7.64 4 9 4 C9 5.65 9 7.3 9 9 C7.68 9 6.36 9 5 9 C4.67 10.65 4.34 12.3 4 14 C2.68 14 1.36 14 0 14 C0 15.32 0 16.64 0 18 C-1.32 18 -2.64 18 -4 18 C-4.33 16.35 -4.66 14.7 -5 13 C-3.35 13 -1.7 13 0 13 C0 11.68 0 10.36 0 9 C-1.32 9 -2.64 9 -4 9 C-4.33 7.35 -4.66 5.7 -5 4 C-3.35 4 -1.7 4 0 4 C0 2.68 0 1.36 0 0 Z " fill="#F0F0F0" transform="translate(169,5)"/>
<path d="M0 0 C0.33 0 0.66 0 1 0 C1 6.93 1 13.86 1 21 C12.22 21 23.44 21 35 21 C35 23.64 35 26.28 35 29 C33.90458893 29.0154612 33.90458893 29.0154612 32.78704834 29.03123474 C25.90106277 29.12925887 19.01515722 29.23178031 12.12931442 29.33933926 C8.58933307 29.39447655 5.04934332 29.44788161 1.50927734 29.49731445 C-2.56161313 29.55423585 -6.6323535 29.61871557 -10.703125 29.68359375 C-12.60798676 29.70866249 -12.60798676 29.70866249 -14.55133057 29.73423767 C-15.73225281 29.75418289 -16.91317505 29.77412811 -18.12988281 29.79467773 C-19.68875214 29.81799416 -19.68875214 29.81799416 -21.27911377 29.84178162 C-23.67215397 29.98093589 -25.71144075 30.31731107 -28 31 C-27.67 29.68 -27.34 28.36 -27 27 C3.195 27.495 3.195 27.495 34 28 C34 26.02 34 24.04 34 22 C22.78 22 11.56 22 0 22 C0 14.74 0 7.48 0 0 Z " fill="#B4CBE0" transform="translate(59,23)"/>
<path d="M0 0 C0.33 0 0.66 0 1 0 C1 6.27 1 12.54 1 19 C1.66 18.67 2.32 18.34 3 18 C3.65213292 15.97536745 3.65213292 15.97536745 4 14 C5.32 14 6.64 14 8 14 C8 22.91 8 31.82 8 41 C7.67 39.68 7.34 38.36 7 37 C6.01 37 5.02 37 4 37 C4 35.68 4 34.36 4 33 C4.99 33 5.98 33 7 33 C7 31.35 7 29.7 7 28 C6.01 28 5.02 28 4 28 C4 26.35 4 24.7 4 23 C4.99 23 5.98 23 7 23 C7 21.68 7 20.36 7 19 C6.01 19.33 5.02 19.66 4 20 C3.67 20.99 3.34 21.98 3 23 C2.34 23 1.68 23 1 23 C1 27.62 1 32.24 1 37 C1.66 37 2.32 37 3 37 C3 38.32 3 39.64 3 41 C1.68 41 0.36 41 -1 41 C-0.67 27.47 -0.34 13.94 0 0 Z " fill="#EFECE5" transform="translate(120,27)"/>
<path d="M0 0 C1.5 1.375 1.5 1.375 3 3 C3 3.66 3 4.32 3 5 C4.32 5 5.64 5 7 5 C6.67 6.65 6.34 8.3 6 10 C5.01 10 4.02 10 3 10 C3 11.32 3 12.64 3 14 C4.32 14 5.64 14 7 14 C7 14.66 7 15.32 7 16 C3.37471432 16.20140476 1.13498292 15.85776765 -2 14 C-2 12.68 -2 11.36 -2 10 C-3.65 9.67 -5.3 9.34 -7 9 C-7 7.68 -7 6.36 -7 5 C-7.66 5 -8.32 5 -9 5 C-9 3.68 -9 2.36 -9 1 C-8.34 1 -7.68 1 -7 1 C-6.67 2.32 -6.34 3.64 -6 5 C-4.68 5 -3.36 5 -2 5 C-1.855625 4.360625 -1.71125 3.72125 -1.5625 3.0625 C-1 1 -1 1 0 0 Z " fill="#F7F7F7" transform="translate(130,132)"/>
<path d="M0 0 C1.32 0 2.64 0 4 0 C4 1.65 4 3.3 4 5 C5.65 5 7.3 5 9 5 C9 6.32 9 7.64 9 9 C7.35 9 5.7 9 4 9 C4 10.65 4 12.3 4 14 C3.01 14.495 3.01 14.495 2 15 C0.2874346 14.2754531 -1.42335234 13.54541056 -3.11328125 12.76953125 C-5.68646671 11.72001254 -8.2526755 11.33503957 -11 11 C-10.67 10.34 -10.34 9.68 -10 9 C-8.35 9 -6.7 9 -5 9 C-5 7.68 -5 6.36 -5 5 C-3.35 5 -1.7 5 0 5 C0 3.35 0 1.7 0 0 Z " fill="#ECEDEF" transform="translate(110,0)"/>
<path d="M0 0 C1.32 0 2.64 0 4 0 C4 1.32 4 2.64 4 4 C3.01 4.33 2.02 4.66 1 5 C0.26676204 7.01508358 0.26676204 7.01508358 0 9 C1.32 9 2.64 9 4 9 C4 10.65 4 12.3 4 14 C2.68 14 1.36 14 0 14 C0 15.32 0 16.64 0 18 C-1.65 18 -3.3 18 -5 18 C-5 16.68 -5 15.36 -5 14 C-6.32 14 -7.64 14 -9 14 C-9 12.35 -9 10.7 -9 9 C-7.68 9 -6.36 9 -5 9 C-5 7.68 -5 6.36 -5 5 C-3.68 4.67 -2.36 4.34 -1 4 C-0.67 2.68 -0.34 1.36 0 0 Z " fill="#F9F9F9" transform="translate(10,96)"/>
<path d="M0 0 C18.81 0 37.62 0 57 0 C57 0.33 57 0.66 57 1 C39.84 1.33 22.68 1.66 5 2 C5 3.65 5 5.3 5 7 C14.24 7 23.48 7 33 7 C33 7.33 33 7.66 33 8 C22.11 8 11.22 8 0 8 C0 5.36 0 2.72 0 0 Z " fill="#F6E7C7" transform="translate(86,112)"/>
<path d="M0 0 C1.32 0 2.64 0 4 0 C4 1.32 4 2.64 4 4 C2.35 4 0.7 4 -1 4 C-0.67 2.68 -0.34 1.36 0 0 Z M-4 4 C-3.01 4 -2.02 4 -1 4 C-0.67 5.65 -0.34 7.3 0 9 C1.32 9 2.64 9 4 9 C4 10.32 4 11.64 4 13 C2.35 13 0.7 13 -1 13 C-1 11.68 -1 10.36 -1 9 C-2.32 9 -3.64 9 -5 9 C-4.67 7.35 -4.34 5.7 -4 4 Z M-2 13 C0 16 0 16 0 18 C1.32 18 2.64 18 4 18 C4 19.32 4 20.64 4 22 C2.35 22 0.7 22 -1 22 C-1 20.68 -1 19.36 -1 18 C-2.32 18 -3.64 18 -5 18 C-5 16.68 -5 15.36 -5 14 C-4.01 13.67 -3.02 13.34 -2 13 Z M-1 22 C-1 23.65 -1 25.3 -1 27 C-2.32 27 -3.64 27 -5 27 C-5 25.68 -5 24.36 -5 23 C-2 22 -2 22 -1 22 Z " fill="#FCFCFC" transform="translate(165,5)"/>
<path d="M0 0 C0.99 0 1.98 0 3 0 C3 1.32 3 2.64 3 4 C2.01 4 1.02 4 0 4 C0 5.65 0 7.3 0 9 C0.99 9 1.98 9 3 9 C3 10.65 3 12.3 3 14 C2.01 14 1.02 14 0 14 C0 15.32 0 16.64 0 18 C0.99 18 1.98 18 3 18 C3 19.65 3 21.3 3 23 C2.01 23 1.02 23 0 23 C-0.33 24.32 -0.66 25.64 -1 27 C-2.32 27 -3.64 27 -5 27 C-5 25.35 -5 23.7 -5 22 C-3.68 22 -2.36 22 -1 22 C-1 20.68 -1 19.36 -1 18 C-1.66 18 -2.32 18 -3 18 C-3 13.38 -3 8.76 -3 4 C-2.34 4 -1.68 4 -1 4 C-0.67 2.68 -0.34 1.36 0 0 Z " fill="#FAFAFA" transform="translate(124,46)"/>
<path d="M0 0 C4.62 0 9.24 0 14 0 C14 1.65 14 3.3 14 5 C12.35 5 10.7 5 9 5 C9 6.32 9 7.64 9 9 C8.01 9.33 7.02 9.66 6 10 C5.26676204 12.01508358 5.26676204 12.01508358 5 14 C3.02 14.33 1.04 14.66 -1 15 C-0.67 13.02 -0.34 11.04 0 9 C1.65 9 3.3 9 5 9 C5 7.68 5 6.36 5 5 C3.35 5 1.7 5 0 5 C0 3.35 0 1.7 0 0 Z " fill="#FCFCFC" transform="translate(114,0)"/>
<path d="M0 0 C10.89 0 21.78 0 33 0 C33 0.33 33 0.66 33 1 C29.37 1 25.74 1 22 1 C22 1.99 22 2.98 22 4 C21.01 4.33 20.02 4.66 19 5 C18.67 5.66 18.34 6.32 18 7 C22.62 7 27.24 7 32 7 C32 6.34 32 5.68 32 5 C33.32 5 34.64 5 36 5 C36 5.66 36 6.32 36 7 C37.65 7 39.3 7 41 7 C41 7.33 41 7.66 41 8 C22.19 8.495 22.19 8.495 3 9 C3.33 7.68 3.66 6.36 4 5 C5.32 5 6.64 5 8 5 C8 5.66 8 6.32 8 7 C9.65 7 11.3 7 13 7 C13 6.34 13 5.68 13 5 C13.639375 4.896875 14.27875 4.79375 14.9375 4.6875 C15.9584375 4.3471875 15.9584375 4.3471875 17 4 C17.33 3.01 17.66 2.02 18 1 C12.06 1 6.12 1 0 1 C0 0.67 0 0.34 0 0 Z " fill="#D9DEDD" transform="translate(69,78)"/>
<path d="M0 0 C1.32 0 2.64 0 4 0 C4 1.32 4 2.64 4 4 C3.01 4.33 2.02 4.66 1 5 C0.67 5.66 0.34 6.32 0 7 C-0.33 7.66 -0.66 8.32 -1 9 C-1.99 9.33 -2.98 9.66 -4 10 C-4.33 10.99 -4.66 11.98 -5 13 C-5.99 13.33 -6.98 13.66 -8 14 C-9.20882096 16.00016466 -9.20882096 16.00016466 -10 18 C-11.32 18 -12.64 18 -14 18 C-14 19.32 -14 20.64 -14 22 C-15.32 22 -16.64 22 -18 22 C-18 20.68 -18 19.36 -18 18 C-17.01 17.67 -16.02 17.34 -15 17 C-14.26676204 14.98491642 -14.26676204 14.98491642 -14 13 C-12.68 13 -11.36 13 -10 13 C-10 11.35 -10 9.7 -10 8 C-8.35 8 -6.7 8 -5 8 C-5 6.68 -5 5.36 -5 4 C-4.0409375 3.8453125 -4.0409375 3.8453125 -3.0625 3.6875 C-2.381875 3.460625 -1.70125 3.23375 -1 3 C-0.67 2.01 -0.34 1.02 0 0 Z " fill="#EDEDED" transform="translate(55,28)"/>
<path d="M0 0 C1.8125 1.125 1.8125 1.125 3 3 C3.39769128 6.18153026 3.55198782 8.12844028 1.8125 10.875 C-0.65507108 12.40659584 -2.14519831 12.42822025 -5 12 C-6.8125 10.875 -6.8125 10.875 -8 9 C-8.39769128 5.81846974 -8.55198782 3.87155972 -6.8125 1.125 C-4.34492892 -0.40659584 -2.85480169 -0.42822025 0 0 Z " fill="#E6ECF1" transform="translate(75,25)"/>
<path d="M0 0 C1.9375 1.125 1.9375 1.125 3 3 C2.875 6.0625 2.875 6.0625 2 9 C-1 11 -1 11 -4.0625 10.75 C-7 10 -7 10 -9 8 C-9.36023622 5.19015752 -9.38332602 3.61758081 -7.875 1.1875 C-5.12844028 -0.55198782 -3.18153026 -0.39769128 0 0 Z " fill="#F8F2E5" transform="translate(110,128)"/>
<path d="M0 0 C1.32 0 2.64 0 4 0 C4 1.65 4 3.3 4 5 C5.65 4.67 7.3 4.34 9 4 C9 5.65 9 7.3 9 9 C7.35 9 5.7 9 4 9 C4 10.65 4 12.3 4 14 C2.68 14 1.36 14 0 14 C0 12.35 0 10.7 0 9 C-1.65 9 -3.3 9 -5 9 C-5 7.68 -5 6.36 -5 5 C-3.68 4.67 -2.36 4.34 -1 4 C-0.67 2.68 -0.34 1.36 0 0 Z " fill="#F7F7F7" transform="translate(174,105)"/>
<path d="M0 0 C1.65 0 3.3 0 5 0 C4.67 1.65 4.34 3.3 4 5 C2.68 5 1.36 5 0 5 C0 6.32 0 7.64 0 9 C-0.99 9.33 -1.98 9.66 -3 10 C-4.20882096 12.00016466 -4.20882096 12.00016466 -5 14 C-6.32 14 -7.64 14 -9 14 C-9 15.32 -9 16.64 -9 18 C-10.65 18.66 -12.3 19.32 -14 20 C-14 17.69 -14 15.38 -14 13 C-12.35 13 -10.7 13 -9 13 C-9 11.68 -9 10.36 -9 9 C-8.071875 8.87625 -8.071875 8.87625 -7.125 8.75 C-4.81562433 8.18741541 -4.81562433 8.18741541 -3.75 5.9375 C-3.37875 4.9784375 -3.37875 4.9784375 -3 4 C-2.01 4 -1.02 4 0 4 C0 2.68 0 1.36 0 0 Z " fill="#EEEEEE" transform="translate(178,23)"/>
<path d="M0 0 C0.66 0.66 1.32 1.32 2 2 C1.34 3.32 0.68 4.64 0 6 C-1.32 6 -2.64 6 -4 6 C-4 7.32 -4 8.64 -4 10 C-4.61875 10.268125 -5.2375 10.53625 -5.875 10.8125 C-8.2995233 11.95556848 -8.2995233 11.95556848 -10 15 C-10.99 15 -11.98 15 -13 15 C-13 16.32 -13 17.64 -13 19 C-14.65 19 -16.3 19 -18 19 C-18 17.35 -18 15.7 -18 14 C-16.68 14 -15.36 14 -14 14 C-13.67 12.68 -13.34 11.36 -13 10 C-11.68 10 -10.36 10 -9 10 C-9 8.35 -9 6.7 -9 5 C-7.35 5 -5.7 5 -4 5 C-4 3.68 -4 2.36 -4 1 C-2.125 0.375 -2.125 0.375 0 0 Z " fill="#EEEEEE" transform="translate(173,22)"/>
<path d="M0 0 C1.32 0 2.64 0 4 0 C4.33 0.99 4.66 1.98 5 3 C7.01508358 3.73323796 7.01508358 3.73323796 9 4 C8.67 5.65 8.34 7.3 8 9 C6.68 8.67 5.36 8.34 4 8 C4 6.68 4 5.36 4 4 C2.68 4 1.36 4 0 4 C-0.33 5.65 -0.66 7.3 -1 9 C-2.32 8.67 -3.64 8.34 -5 8 C-5 6.68 -5 5.36 -5 4 C-4.0409375 3.8453125 -4.0409375 3.8453125 -3.0625 3.6875 C-2.381875 3.460625 -1.70125 3.23375 -1 3 C-0.67 2.01 -0.34 1.02 0 0 Z M-5 8 C-5 9.65 -5 11.3 -5 13 C-6.32 13 -7.64 13 -9 13 C-9 11.68 -9 10.36 -9 9 C-6 8 -6 8 -5 8 Z M4 8 C4 9.65 4 11.3 4 13 C2.68 13 1.36 13 0 13 C0 11.68 0 10.36 0 9 C3 8 3 8 4 8 Z " fill="#FCFCFC" transform="translate(151,28)"/>
<path d="M0 0 C1.32 0 2.64 0 4 0 C4 1.32 4 2.64 4 4 C2.68 4 1.36 4 0 4 C-0.33 5.65 -0.66 7.3 -1 9 C-2.32 8.67 -3.64 8.34 -5 8 C-5 6.68 -5 5.36 -5 4 C-4.0409375 3.8453125 -4.0409375 3.8453125 -3.0625 3.6875 C-2.381875 3.460625 -1.70125 3.23375 -1 3 C-0.67 2.01 -0.34 1.02 0 0 Z M-5 8 C-5 9.65 -5 11.3 -5 13 C-6.65 13 -8.3 13 -10 13 C-9.6875 11.0625 -9.6875 11.0625 -9 9 C-6 8 -6 8 -5 8 Z M-14 13 C-12.68 13 -11.36 13 -10 13 C-10 14.32 -10 15.64 -10 17 C-11.32 17 -12.64 17 -14 17 C-14 15.68 -14 14.36 -14 13 Z M-14 17 C-14 18.65 -14 20.3 -14 22 C-15.32 22 -16.64 22 -18 22 C-18 20.68 -18 19.36 -18 18 C-15 17 -15 17 -14 17 Z " fill="#FCFCFC" transform="translate(151,19)"/>
<path d="M0 0 C4.62 0 9.24 0 14 0 C14 0.99 14 1.98 14 3 C12.35 3 10.7 3 9 3 C9 3.99 9 4.98 9 6 C4.71 6 0.42 6 -4 6 C-3.67 5.01 -3.34 4.02 -3 3 C-2.01 3 -1.02 3 0 3 C0 2.01 0 1.02 0 0 Z " fill="#EDEDED" transform="translate(91,79)"/>
<path d="M0 0 C4.95 0 9.9 0 15 0 C14.01 0.495 14.01 0.495 13 1 C13 1.66 13 2.32 13 3 C12.01 3.33 11.02 3.66 10 4 C9.26676204 6.01508358 9.26676204 6.01508358 9 8 C10.32 8 11.64 8 13 8 C13 9.32 13 10.64 13 12 C11.35 11.67 9.7 11.34 8 11 C8 10.01 8 9.02 8 8 C6.68 8 5.36 8 4 8 C4 5.69 4 3.38 4 1 C2.68 0.67 1.36 0.34 0 0 Z " fill="#EAECEE" transform="translate(37,120)"/>
<path d="M0 0 C1.65 0 3.3 0 5 0 C5 1.32 5 2.64 5 4 C3.35 4 1.7 4 0 4 C0 2.68 0 1.36 0 0 Z M-3 4 C-2.01 4 -1.02 4 0 4 C0.33 5.32 0.66 6.64 1 8 C2.32 8.33 3.64 8.66 5 9 C4.67 10.65 4.34 12.3 4 14 C2.68 13.67 1.36 13.34 0 13 C0 11.68 0 10.36 0 9 C-1.32 9 -2.64 9 -4 9 C-3.67 7.35 -3.34 5.7 -3 4 Z M0 13 C0 14.65 0 16.3 0 18 C-1.32 18 -2.64 18 -4 18 C-4 16.68 -4 15.36 -4 14 C-1 13 -1 13 0 13 Z " fill="#FDFDFD" transform="translate(27,5)"/>
<path d="M0 0 C1.32 0 2.64 0 4 0 C4 1.65 4 3.3 4 5 C2.68 5 1.36 5 0 5 C0 6.32 0 7.64 0 9 C1.32 9 2.64 9 4 9 C4 10.65 4 12.3 4 14 C2.35 14 0.7 14 -1 14 C-1 12.68 -1 11.36 -1 10 C-2.32 10 -3.64 10 -5 10 C-5 8.35 -5 6.7 -5 5 C-3.68 5 -2.36 5 -1 5 C-0.67 3.35 -0.34 1.7 0 0 Z " fill="#FCFCFC" transform="translate(165,50)"/>
<path d="M0 0 C1.32 0 2.64 0 4 0 C4 1.32 4 2.64 4 4 C5.32 4 6.64 4 8 4 C8.33 5.32 8.66 6.64 9 8 C7.35 8.33 5.7 8.66 4 9 C3.67 7.68 3.34 6.36 3 5 C1.68 4.67 0.36 4.34 -1 4 C-0.67 2.68 -0.34 1.36 0 0 Z M9 0 C10.32 0 11.64 0 13 0 C13 1.32 13 2.64 13 4 C11.35 4 9.7 4 8 4 C8.33 2.68 8.66 1.36 9 0 Z M-3 4 C-2.34 4 -1.68 4 -1 4 C-0.67 5.98 -0.34 7.96 0 10 C-0.99 9.67 -1.98 9.34 -3 9 C-3 7.35 -3 5.7 -3 4 Z " fill="#FCFCFC" transform="translate(124,119)"/>
<path d="M0 0 C1.65 0 3.3 0 5 0 C5 1.32 5 2.64 5 4 C6.32 4.33 7.64 4.66 9 5 C9 6.32 9 7.64 9 9 C7.68 9 6.36 9 5 9 C5 7.68 5 6.36 5 5 C3.01508358 5.26676204 3.01508358 5.26676204 1 6 C0.67 6.99 0.34 7.98 0 9 C-1.32 9 -2.64 9 -4 9 C-4 7.35 -4 5.7 -4 4 C-2.68 4 -1.36 4 0 4 C0 2.68 0 1.36 0 0 Z " fill="#EDEDED" transform="translate(164,137)"/>
<path d="M0 0 C0.99 0 1.98 0 3 0 C1.67519115 5.43171629 -0.93431827 9.24467565 -5 13 C-5.99 13.33 -6.98 13.66 -8 14 C-8.66 13.67 -9.32 13.34 -10 13 C-10 11.68 -10 10.36 -10 9 C-8.35 9 -6.7 9 -5 9 C-5 7.35 -5 5.7 -5 4 C-4.360625 3.896875 -3.72125 3.79375 -3.0625 3.6875 C-2.381875 3.460625 -1.70125 3.23375 -1 3 C-0.67 2.01 -0.34 1.02 0 0 Z " fill="#EFECE5" transform="translate(124,69)"/>
<path d="M0 0 C1.32 0 2.64 0 4 0 C4 1.32 4 2.64 4 4 C3.01 4.33 2.02 4.66 1 5 C0.26676204 7.01508358 0.26676204 7.01508358 0 9 C-0.639375 9.103125 -1.27875 9.20625 -1.9375 9.3125 C-2.9584375 9.6528125 -2.9584375 9.6528125 -4 10 C-4.33 10.99 -4.66 11.98 -5 13 C-6.32 13 -7.64 13 -9 13 C-9 11.68 -9 10.36 -9 9 C-7.68 9 -6.36 9 -5 9 C-5 7.35 -5 5.7 -5 4 C-3.35 4 -1.7 4 0 4 C0 2.68 0 1.36 0 0 Z " fill="#ECECEC" transform="translate(160,5)"/>
<path d="M0 0 C1.32 0 2.64 0 4 0 C4 1.32 4 2.64 4 4 C2.35 4 0.7 4 -1 4 C-0.67 2.68 -0.34 1.36 0 0 Z M-5 4 C-3.68 4 -2.36 4 -1 4 C-0.67 5.65 -0.34 7.3 0 9 C1.32 9 2.64 9 4 9 C4 10.32 4 11.64 4 13 C2.35 12.67 0.7 12.34 -1 12 C-1 11.01 -1 10.02 -1 9 C-2.32 9 -3.64 9 -5 9 C-5 7.35 -5 5.7 -5 4 Z " fill="#FCFCFC" transform="translate(142,119)"/>
<path d="M0 0 C0.33 0 0.66 0 1 0 C1 12.21 1 24.42 1 37 C1.66 37 2.32 37 3 37 C3 38.32 3 39.64 3 41 C1.68 41 0.36 41 -1 41 C-0.67 27.47 -0.34 13.94 0 0 Z " fill="#C4D5E4" transform="translate(120,27)"/>
<path d="M0 0 C1.32 0 2.64 0 4 0 C4 1.32 4 2.64 4 4 C2.68 4 1.36 4 0 4 C0 2.68 0 1.36 0 0 Z M0 4 C0 5.65 0 7.3 0 9 C-1.65 9 -3.3 9 -5 9 C-4.6875 7.0625 -4.6875 7.0625 -4 5 C-1 4 -1 4 0 4 Z M-9 9 C-7.68 9 -6.36 9 -5 9 C-5 10.32 -5 11.64 -5 13 C-6.32 13 -7.64 13 -9 13 C-9 11.68 -9 10.36 -9 9 Z " fill="#FDFDFD" transform="translate(137,14)"/>
<path d="M0 0 C0.33 0 0.66 0 1 0 C1.33 2.97 1.66 5.94 2 9 C3.65 9 5.3 9 7 9 C7 10.32 7 11.64 7 13 C6.360625 13.103125 5.72125 13.20625 5.0625 13.3125 C4.0415625 13.6528125 4.0415625 13.6528125 3 14 C2.67 14.99 2.34 15.98 2 17 C1.01 17 0.02 17 -1 17 C-0.67 11.39 -0.34 5.78 0 0 Z " fill="#F2EDE5" transform="translate(162,74)"/>
<path d="M0 0 C1.65 0.33 3.3 0.66 5 1 C4.67 2.32 4.34 3.64 4 5 C2.68 5 1.36 5 0 5 C0 6.32 0 7.64 0 9 C-1.32 9 -2.64 9 -4 9 C-4 7.35 -4 5.7 -4 4 C-2.68 4 -1.36 4 0 4 C0 2.68 0 1.36 0 0 Z " fill="#EEEEEE" transform="translate(18,137)"/>
<path d="M0 0 C2.1875 -0.4375 2.1875 -0.4375 5 0 C6.98441782 2.13995327 8.5023304 4.50175965 10 7 C9.34 7.66 8.68 8.32 8 9 C7.01 9 6.02 9 5 9 C5 7.35 5 5.7 5 4 C3.35 4 1.7 4 0 4 C0 2.68 0 1.36 0 0 Z " fill="#E2E6EA" transform="translate(18,110)"/>
<path d="M0 0 C1.65 0 3.3 0 5 0 C4.67 1.65 4.34 3.3 4 5 C2.68 5 1.36 5 0 5 C0 6.32 0 7.64 0 9 C-1.32 9 -2.64 9 -4 9 C-3.67 7.35 -3.34 5.7 -3 4 C-2.01 4 -1.02 4 0 4 C0 2.68 0 1.36 0 0 Z " fill="#ECECEC" transform="translate(178,96)"/>
<path d="M0 0 C1.32 0 2.64 0 4 0 C4 1.32 4 2.64 4 4 C3.01 4.33 2.02 4.66 1 5 C-0.20882096 7.00016466 -0.20882096 7.00016466 -1 9 C-2.32 9 -3.64 9 -5 9 C-5 7.35 -5 5.7 -5 4 C-4.0409375 3.8453125 -4.0409375 3.8453125 -3.0625 3.6875 C-2.381875 3.460625 -1.70125 3.23375 -1 3 C-0.67 2.01 -0.34 1.02 0 0 Z " fill="#FCFCFC" transform="translate(151,128)"/>
<path d="M0 0 C1.32 0 2.64 0 4 0 C4 1.32 4 2.64 4 4 C3.01 4.33 2.02 4.66 1 5 C0.26676204 7.01508358 0.26676204 7.01508358 0 9 C-1.65 9 -3.3 9 -5 9 C-5 7.35 -5 5.7 -5 4 C-3.35 4 -1.7 4 0 4 C0 2.68 0 1.36 0 0 Z " fill="#FCFCFC" transform="translate(32,128)"/>
<path d="M0 0 C1.32 0 2.64 0 4 0 C4 1.32 4 2.64 4 4 C3.01 4.33 2.02 4.66 1 5 C0.26676204 7.01508358 0.26676204 7.01508358 0 9 C-1.65 9 -3.3 9 -5 9 C-5 7.35 -5 5.7 -5 4 C-3.35 4 -1.7 4 0 4 C0 2.68 0 1.36 0 0 Z " fill="#ECECEC" transform="translate(174,37)"/>
<path d="M0 0 C1.32 0 2.64 0 4 0 C4 1.32 4 2.64 4 4 C3.01 4.33 2.02 4.66 1 5 C0.26676204 7.01508358 0.26676204 7.01508358 0 9 C-1.65 9 -3.3 9 -5 9 C-5 7.35 -5 5.7 -5 4 C-3.35 4 -1.7 4 0 4 C0 2.68 0 1.36 0 0 Z " fill="#EDEDED" transform="translate(10,37)"/>
<path d="M0 0 C1.65 0 3.3 0 5 0 C5 1.65 5 3.3 5 5 C6.32 5 7.64 5 9 5 C9 6.32 9 7.64 9 9 C7.68 9 6.36 9 5 9 C4.67 8.01 4.34 7.02 4 6 C1.98491642 5.26676204 1.98491642 5.26676204 0 5 C0 3.35 0 1.7 0 0 Z " fill="#FDFDFD" transform="translate(50,0)"/>
<path d="M0 0 C1.32 0 2.64 0 4 0 C4 1.32 4 2.64 4 4 C5.65 4 7.3 4 9 4 C9 5.65 9 7.3 9 9 C7.35 9 5.7 9 4 9 C3.896875 8.360625 3.79375 7.72125 3.6875 7.0625 C3.460625 6.381875 3.23375 5.70125 3 5 C2.01 4.67 1.02 4.34 0 4 C0 2.68 0 1.36 0 0 Z " fill="#ECECEC" transform="translate(174,128)"/>
<path d="M0 0 C0.99 0.66 1.98 1.32 3 2 C2.625 4.9375 2.625 4.9375 2 8 C-0.6666419 9.33332095 -2.16680303 8.67102033 -5 8 C-5 6.68 -5 5.36 -5 4 C-4.0409375 3.8453125 -4.0409375 3.8453125 -3.0625 3.6875 C-2.381875 3.460625 -1.70125 3.23375 -1 3 C-0.67 2.01 -0.34 1.02 0 0 Z " fill="#F2EEE6" transform="translate(110,129)"/>
<path d="M0 0 C1.32 0 2.64 0 4 0 C4 1.65 4 3.3 4 5 C3.360625 5.103125 2.72125 5.20625 2.0625 5.3125 C1.381875 5.539375 0.70125 5.76625 0 6 C-0.33 6.99 -0.66 7.98 -1 9 C-2.32 9 -3.64 9 -5 9 C-5 7.68 -5 6.36 -5 5 C-3.68 5 -2.36 5 -1 5 C-0.67 3.35 -0.34 1.7 0 0 Z " fill="#FDFDFD" transform="translate(165,114)"/>
<path d="M0 0 C1.32 0 2.64 0 4 0 C4 4.29 4 8.58 4 13 C3.67 13 3.34 13 3 13 C2.67 10.03 2.34 7.06 2 4 C1.34 4 0.68 4 0 4 C0 2.68 0 1.36 0 0 Z M-3 4 C-2.01 4 -1.02 4 0 4 C0 5.65 0 7.3 0 9 C-1.32 9 -2.64 9 -4 9 C-3.67 7.35 -3.34 5.7 -3 4 Z " fill="#D1DCE6" transform="translate(14,78)"/>
<path d="M0 0 C1.32 0 2.64 0 4 0 C4 1.32 4 2.64 4 4 C2.68 4 1.36 4 0 4 C-0.33 5.65 -0.66 7.3 -1 9 C-2.32 9 -3.64 9 -5 9 C-5 7.35 -5 5.7 -5 4 C-4.0409375 3.8453125 -4.0409375 3.8453125 -3.0625 3.6875 C-2.381875 3.460625 -1.70125 3.23375 -1 3 C-0.67 2.01 -0.34 1.02 0 0 Z " fill="#FCFCFC" transform="translate(23,37)"/>
<path d="M0 0 C1.32 0 2.64 0 4 0 C4 1.32 4 2.64 4 4 C3.01 4.33 2.02 4.66 1 5 C0.26676204 7.01508358 0.26676204 7.01508358 0 9 C-1.65 8.67 -3.3 8.34 -5 8 C-5 6.68 -5 5.36 -5 4 C-3.35 4 -1.7 4 0 4 C0 2.68 0 1.36 0 0 Z " fill="#ECECEC" transform="translate(32,5)"/>
<path d="M0 0 C1.32 0 2.64 0 4 0 C4.33 1.32 4.66 2.64 5 4 C6.32 4.33 7.64 4.66 9 5 C9 6.32 9 7.64 9 9 C7.35 9 5.7 9 4 9 C4 7.68 4 6.36 4 5 C2.68 5 1.36 5 0 5 C0 3.35 0 1.7 0 0 Z " fill="#FEFEFE" transform="translate(87,0)"/>
<path d="M0 0 C1.32 0 2.64 0 4 0 C4 1.65 4 3.3 4 5 C2.68 5 1.36 5 0 5 C-0.33 6.32 -0.66 7.64 -1 9 C-2.32 9 -3.64 9 -5 9 C-5 7.68 -5 6.36 -5 5 C-3.68 4.67 -2.36 4.34 -1 4 C-0.67 2.68 -0.34 1.36 0 0 Z " fill="#ECECEC" transform="translate(142,114)"/>
<path d="M0 0 C1.32 0 2.64 0 4 0 C4 1.65 4 3.3 4 5 C2.68 5 1.36 5 0 5 C-0.33 6.32 -0.66 7.64 -1 9 C-2.32 9 -3.64 9 -5 9 C-5 7.68 -5 6.36 -5 5 C-3.68 4.67 -2.36 4.34 -1 4 C-0.67 2.68 -0.34 1.36 0 0 Z " fill="#ECECEC" transform="translate(133,114)"/>
<path d="M0 0 C1.32 0 2.64 0 4 0 C4 1.65 4 3.3 4 5 C2.68 5 1.36 5 0 5 C-0.33 6.32 -0.66 7.64 -1 9 C-2.32 9 -3.64 9 -5 9 C-5 7.68 -5 6.36 -5 5 C-3.68 4.67 -2.36 4.34 -1 4 C-0.67 2.68 -0.34 1.36 0 0 Z " fill="#ECECEC" transform="translate(174,73)"/>
<path d="M0 0 C1.32 0 2.64 0 4 0 C4 1.65 4 3.3 4 5 C2.68 5 1.36 5 0 5 C-0.33 6.32 -0.66 7.64 -1 9 C-2.32 9 -3.64 9 -5 9 C-5 7.68 -5 6.36 -5 5 C-3.68 4.67 -2.36 4.34 -1 4 C-0.67 2.68 -0.34 1.36 0 0 Z " fill="#ECECEC" transform="translate(10,73)"/>
<path d="M0 0 C1.32 0 2.64 0 4 0 C3.67 1.65 3.34 3.3 3 5 C2.01 5 1.02 5 0 5 C0 6.32 0 7.64 0 9 C-1.65 9 -3.3 9 -5 9 C-5 7.68 -5 6.36 -5 5 C-3.68 4.67 -2.36 4.34 -1 4 C-0.67 2.68 -0.34 1.36 0 0 Z " fill="#ECECEC" transform="translate(23,14)"/>
<path d="M0 0 C1.65 0 3.3 0 5 0 C5 1.32 5 2.64 5 4 C3.35 4 1.7 4 0 4 C0 2.68 0 1.36 0 0 Z M-3 4 C-2.01 4 -1.02 4 0 4 C0 5.65 0 7.3 0 9 C-1.32 9 -2.64 9 -4 9 C-3.67 7.35 -3.34 5.7 -3 4 Z " fill="#ECECEC" transform="translate(27,128)"/>
<path d="M0 0 C1.32 0 2.64 0 4 0 C4 1.32 4 2.64 4 4 C2.35 4 0.7 4 -1 4 C-0.67 2.68 -0.34 1.36 0 0 Z M-5 4 C-3.68 4 -2.36 4 -1 4 C-1 5.65 -1 7.3 -1 9 C-2.32 9 -3.64 9 -5 9 C-5 7.35 -5 5.7 -5 4 Z " fill="#ECECEC" transform="translate(165,119)"/>
<path d="M0 0 C1.32 0 2.64 0 4 0 C4.103125 0.639375 4.20625 1.27875 4.3125 1.9375 C4.539375 2.618125 4.76625 3.29875 5 4 C5.99 4.33 6.98 4.66 8 5 C8 6.32 8 7.64 8 9 C6.02 9.99 6.02 9.99 4 11 C4 9.02 4 7.04 4 5 C2.68 4.67 1.36 4.34 0 4 C0 2.68 0 1.36 0 0 Z " fill="#EDECEA" transform="translate(151,41)"/>
<path d="M0 0 C0.99 0 1.98 0 3 0 C3 1.65 3 3.3 3 5 C1.68 5 0.36 5 -1 5 C-1 6.32 -1 7.64 -1 9 C-2.65 9 -4.3 9 -6 9 C-5.6875 7.0625 -5.6875 7.0625 -5 5 C-4.01 4.67 -3.02 4.34 -2 4 C-0.79117904 1.99983534 -0.79117904 1.99983534 0 0 Z " fill="#FBFBFB" transform="translate(56,32)"/>
<path d="M0 0 C1.65 0 3.3 0 5 0 C5 1.32 5 2.64 5 4 C3.35 4 1.7 4 0 4 C0 2.68 0 1.36 0 0 Z M-3 4 C-2.01 4 -1.02 4 0 4 C0 5.65 0 7.3 0 9 C-1.32 9 -2.64 9 -4 9 C-3.67 7.35 -3.34 5.7 -3 4 Z " fill="#ECECEC" transform="translate(123,5)"/>
<path d="M0 0 C1.32 0 2.64 0 4 0 C4 1.32 4 2.64 4 4 C2.35 4 0.7 4 -1 4 C-0.67 2.68 -0.34 1.36 0 0 Z M-4 4 C-3.01 4 -2.02 4 -1 4 C-1 5.65 -1 7.3 -1 9 C-2.32 9 -3.64 9 -5 9 C-4.67 7.35 -4.34 5.7 -4 4 Z " fill="#FDFDFD" transform="translate(156,5)"/>
<path d="M0 0 C1.32 0 2.64 0 4 0 C4 1.65 4 3.3 4 5 C3.01 5.33 2.02 5.66 1 6 C0.67 6.99 0.34 7.98 0 9 C-1.32 9 -2.64 9 -4 9 C-4 7.68 -4 6.36 -4 5 C-2.68 5 -1.36 5 0 5 C0 3.35 0 1.7 0 0 Z " fill="#ECECEC" transform="translate(14,114)"/>
<path d="M0 0 C0.99 0 1.98 0 3 0 C3 1.32 3 2.64 3 4 C2.01 4.33 1.02 4.66 0 5 C-0.73323796 7.01508358 -0.73323796 7.01508358 -1 9 C-2.65 9 -4.3 9 -6 9 C-6 7.68 -6 6.36 -6 5 C-5.38125 4.9175 -4.7625 4.835 -4.125 4.75 C-1.81562433 4.18741541 -1.81562433 4.18741541 -0.75 1.9375 C-0.5025 1.298125 -0.255 0.65875 0 0 Z " fill="#FDFDFD" transform="translate(175,96)"/>
<path d="M0 0 C0.99 0 1.98 0 3 0 C3 1.32 3 2.64 3 4 C2.01 4.33 1.02 4.66 0 5 C-0.73323796 7.01508358 -0.73323796 7.01508358 -1 9 C-2.65 9 -4.3 9 -6 9 C-6 7.68 -6 6.36 -6 5 C-5.38125 4.9175 -4.7625 4.835 -4.125 4.75 C-1.81562433 4.18741541 -1.81562433 4.18741541 -0.75 1.9375 C-0.5025 1.298125 -0.255 0.65875 0 0 Z " fill="#FDFDFD" transform="translate(175,32)"/>
<path d="M0 0 C1.32 0 2.64 0 4 0 C4 1.32 4 2.64 4 4 C3.01 4.33 2.02 4.66 1 5 C-0.20882096 7.00016466 -0.20882096 7.00016466 -1 9 C-2.32 9 -3.64 9 -5 9 C-5 7.68 -5 6.36 -5 5 C-3.68 4.67 -2.36 4.34 -1 4 C-0.67 2.68 -0.34 1.36 0 0 Z " fill="#FDFDFD" transform="translate(174,14)"/>
<path d="M0 0 C1.32 0 2.64 0 4 0 C4.33 1.32 4.66 2.64 5 4 C-0.625 8 -0.625 8 -4 8 C-4 6.68 -4 5.36 -4 4 C-2.68 4 -1.36 4 0 4 C0 2.68 0 1.36 0 0 Z " fill="#E1E6EA" transform="translate(64,10)"/>
<path d="M0 0 C1.32 0 2.64 0 4 0 C4 1.32 4 2.64 4 4 C2.35 4 0.7 4 -1 4 C-0.67 2.68 -0.34 1.36 0 0 Z M-4 4 C-3.01 4 -2.02 4 -1 4 C-0.67 5.32 -0.34 6.64 0 8 C-1.65 8.33 -3.3 8.66 -5 9 C-4.67 7.35 -4.34 5.7 -4 4 Z " fill="#FDFDFD" transform="translate(46,5)"/>
<path d="M0 0 C1.32 0 2.64 0 4 0 C4 1.32 4 2.64 4 4 C2.68 4 1.36 4 0 4 C-0.33 5.32 -0.66 6.64 -1 8 C-2.32 8 -3.64 8 -5 8 C-5 6.68 -5 5.36 -5 4 C-4.0409375 3.8453125 -4.0409375 3.8453125 -3.0625 3.6875 C-2.381875 3.460625 -1.70125 3.23375 -1 3 C-0.67 2.01 -0.34 1.02 0 0 Z " fill="#ECECEC" transform="translate(174,83)"/>
<path d="M0 0 C0.99 0 1.98 0 3 0 C3 1.32 3 2.64 3 4 C2.01 4.33 1.02 4.66 0 5 C-1.20882096 7.00016466 -1.20882096 7.00016466 -2 9 C-3.32 9 -4.64 9 -6 9 C-6 7.68 -6 6.36 -6 5 C-5.38125 4.9175 -4.7625 4.835 -4.125 4.75 C-1.81562433 4.18741541 -1.81562433 4.18741541 -0.75 1.9375 C-0.5025 1.298125 -0.255 0.65875 0 0 Z " fill="#FDFDFD" transform="translate(175,23)"/>
<path d="M0 0 C0.99 0 1.98 0 3 0 C3 1.32 3 2.64 3 4 C1.35 4 -0.3 4 -2 4 C-2 3.34 -2 2.68 -2 2 C-1.34 2 -0.68 2 0 2 C0 1.34 0 0.68 0 0 Z M-5 4 C-4.01 4 -3.02 4 -2 4 C-2 5.65 -2 7.3 -2 9 C-3.32 9 -4.64 9 -6 9 C-5.67 7.35 -5.34 5.7 -5 4 Z " fill="#FDFDFD" transform="translate(52,119)"/>
<path d="M0 0 C1.32 0 2.64 0 4 0 C4 1.32 4 2.64 4 4 C2.68 4 1.36 4 0 4 C0 2.68 0 1.36 0 0 Z M-3 4 C-2.01 4 -1.02 4 0 4 C0 5.65 0 7.3 0 9 C-1.32 9 -2.64 9 -4 9 C-3.67 7.35 -3.34 5.7 -3 4 Z " fill="#EBEBEB" transform="translate(14,5)"/>
<path d="M0 0 C1.32 0 2.64 0 4 0 C4 1.32 4 2.64 4 4 C2.68 4 1.36 4 0 4 C0 2.68 0 1.36 0 0 Z M-3 4 C-2.01 4 -1.02 4 0 4 C0 5.65 0 7.3 0 9 C-1.32 9 -2.64 9 -4 9 C-3.67 7.35 -3.34 5.7 -3 4 Z " fill="#FDFDFD" transform="translate(137,5)"/>
<path d="M0 0 C0.99 0 1.98 0 3 0 C3 1.32 3 2.64 3 4 C1.68 4 0.36 4 -1 4 C-0.67 2.68 -0.34 1.36 0 0 Z M-4 4 C-3.01 4 -2.02 4 -1 4 C-1 5.65 -1 7.3 -1 9 C-2.32 9 -3.64 9 -5 9 C-4.67 7.35 -4.34 5.7 -4 4 Z " fill="#FDFDFD" transform="translate(15,119)"/>
<path d="M0 0 C0.99 0 1.98 0 3 0 C3 1.32 3 2.64 3 4 C1.35 4 -0.3 4 -2 4 C-1.34 2.68 -0.68 1.36 0 0 Z M-2 4 C-2 5.65 -2 7.3 -2 9 C-3.32 9 -4.64 9 -6 9 C-6 7.68 -6 6.36 -6 5 C-3 4 -3 4 -2 4 Z " fill="#FEFEFE" transform="translate(166,96)"/>
<path d="M0 0 C0.33 1.32 0.66 2.64 1 4 C1.99 4 2.98 4 4 4 C4 5.32 4 6.64 4 8 C2.35 8 0.7 8 -1 8 C-1 9.65 -1 11.3 -1 13 C-1.99 12.67 -2.98 12.34 -4 12 C-2.68 8.04 -1.36 4.08 0 0 Z " fill="#F0E7D2" transform="translate(160,92)"/>
<path d="M0 0 C1.32 0 2.64 0 4 0 C4 1.32 4 2.64 4 4 C2.35 4 0.7 4 -1 4 C-0.67 2.68 -0.34 1.36 0 0 Z M-4 4 C-3.01 4 -2.02 4 -1 4 C-1 5.65 -1 7.3 -1 9 C-1.99 9 -2.98 9 -4 9 C-4 7.35 -4 5.7 -4 4 Z " fill="#FDFDFD" transform="translate(165,87)"/>
<path d="M0 0 C0 1.65 0 3.3 0 5 C-1.32 5 -2.64 5 -4 5 C-4.33 6.65 -4.66 8.3 -5 10 C-5.66 10 -6.32 10 -7 10 C-7 8.35 -7 6.7 -7 5 C-6.34 5 -5.68 5 -5 5 C-4.896875 4.360625 -4.79375 3.72125 -4.6875 3.0625 C-4.460625 2.381875 -4.23375 1.70125 -4 1 C-1 0 -1 0 0 0 Z " fill="#FBFBFB" transform="translate(128,36)"/>
<path d="M0 0 C0.99 0 1.98 0 3 0 C3 1.32 3 2.64 3 4 C1.68 4 0.36 4 -1 4 C-0.67 2.68 -0.34 1.36 0 0 Z M-4 4 C-3.01 4 -2.02 4 -1 4 C-1 5.65 -1 7.3 -1 9 C-2.32 9 -3.64 9 -5 9 C-4.67 7.35 -4.34 5.7 -4 4 Z " fill="#FDFDFD" transform="translate(15,37)"/>
<path d="M0 0 C1.65 0 3.3 0 5 0 C4.67 1.65 4.34 3.3 4 5 C3.01 5.33 2.02 5.66 1 6 C0.67 6.99 0.34 7.98 0 9 C-0.66 9 -1.32 9 -2 9 C-1.41196203 5.97580475 -0.77321882 2.98241547 0 0 Z " fill="#EEEEEE" transform="translate(123,32)"/>
<path d="M0 0 C0.99 0 1.98 0 3 0 C3 1.32 3 2.64 3 4 C1.35 4 -0.3 4 -2 4 C-1.34 2.68 -0.68 1.36 0 0 Z M-2 4 C-2 5.65 -2 7.3 -2 9 C-3.32 9 -4.64 9 -6 9 C-6 7.68 -6 6.36 -6 5 C-3 4 -3 4 -2 4 Z " fill="#FDFDFD" transform="translate(166,32)"/>
<path d="M0 0 C0 1.65 0 3.3 0 5 C-1.65 5 -3.3 5 -5 5 C-4.6875 3.0625 -4.6875 3.0625 -4 1 C-1 0 -1 0 0 0 Z M-9 5 C-7.68 5 -6.36 5 -5 5 C-5 6.32 -5 7.64 -5 9 C-6.32 9 -7.64 9 -9 9 C-9 7.68 -9 6.36 -9 5 Z " fill="#FDFDFD" transform="translate(137,27)"/>
<path d="M0 0 C1.65 0 3.3 0 5 0 C4.67 1.65 4.34 3.3 4 5 C3.01 5.33 2.02 5.66 1 6 C0.67 6.99 0.34 7.98 0 9 C-0.66 9 -1.32 9 -2 9 C-1.41196203 5.97580475 -0.77321882 2.98241547 0 0 Z " fill="#EEEEEE" transform="translate(123,23)"/>
<path d="M0 0 C0.99 0 1.98 0 3 0 C2.1875 1.9375 2.1875 1.9375 1 4 C0.01 4.33 -0.98 4.66 -2 5 C-3.10636395 7.39068734 -3.10636395 7.39068734 -4 10 C-4.66 10.99 -5.32 11.98 -6 13 C-6.125 9.625 -6.125 9.625 -6 6 C-5.34 5.34 -4.68 4.68 -4 4 C-3.01 4 -2.02 4 -1 4 C-0.67 2.68 -0.34 1.36 0 0 Z " fill="#FBF5E7" transform="translate(65,87)"/>
<path d="M0 0 C0.99 0 1.98 0 3 0 C3 1.32 3 2.64 3 4 C1.68 4 0.36 4 -1 4 C-0.67 2.68 -0.34 1.36 0 0 Z M-1 4 C-1 5.65 -1 7.3 -1 9 C-2.32 9 -3.64 9 -5 9 C-5 7.68 -5 6.36 -5 5 C-2 4 -2 4 -1 4 Z " fill="#FDFDFD" transform="translate(15,137)"/>
<path d="M0 0 C1.32 0 2.64 0 4 0 C4 1.32 4 2.64 4 4 C2.35 4 0.7 4 -1 4 C-0.67 2.68 -0.34 1.36 0 0 Z M-5 4 C-3.68 4 -2.36 4 -1 4 C-0.67 4.99 -0.34 5.98 0 7 C-1.65 7 -3.3 7 -5 7 C-5 6.01 -5 5.02 -5 4 Z " fill="#E0E5E9" transform="translate(78,5)"/>
<path d="M0 0 C2.97 0 5.94 0 9 0 C9 0.33 9 0.66 9 1 C7.35 1 5.7 1 4 1 C4 2.65 4 4.3 4 6 C2.68 6 1.36 6 0 6 C0 4.02 0 2.04 0 0 Z " fill="#FBFBFB" transform="translate(110,113)"/>
<path d="M0 0 C3.875 4.75 3.875 4.75 5 7 C1.7 7 -1.6 7 -5 7 C-4 5 -4 5 -1 4 C-0.26676204 1.98491642 -0.26676204 1.98491642 0 0 Z " fill="#F3EFE6" transform="translate(60,141)"/>
<path d="M0 0 C0.66 0 1.32 0 2 0 C2 1.65 2 3.3 2 5 C3.32 5 4.64 5 6 5 C6 6.32 6 7.64 6 9 C5.01 9 4.02 9 3 9 C2.67 9.66 2.34 10.32 2 11 C1.34 7.37 0.68 3.74 0 0 Z " fill="#EEE8D9" transform="translate(158,55)"/>
<path d="M0 0 C1.65 0 3.3 0 5 0 C5 0.99 5 1.98 5 3 C3.35 3 1.7 3 0 3 C0 2.01 0 1.02 0 0 Z M-3 3 C-2.01 3 -1.02 3 0 3 C0 3.99 0 4.98 0 6 C-1.32 6 -2.64 6 -4 6 C-3.67 5.01 -3.34 4.02 -3 3 Z " fill="#FDFDFD" transform="translate(100,79)"/>
<path d="M0 0 C1.65 0 3.3 0 5 0 C5 0.99 5 1.98 5 3 C3.35 3 1.7 3 0 3 C0 2.01 0 1.02 0 0 Z M-3 3 C-2.01 3 -1.02 3 0 3 C0 3.99 0 4.98 0 6 C-1.32 6 -2.64 6 -4 6 C-3.67 5.01 -3.34 4.02 -3 3 Z " fill="#FDFDFD" transform="translate(91,79)"/>
<path d="M0 0 C1.65 0 3.3 0 5 0 C5 1.65 5 3.3 5 5 C3.35 5 1.7 5 0 5 C0 3.35 0 1.7 0 0 Z " fill="#EDEDED" transform="translate(178,114)"/>
<path d="M0 0 C1.65 0 3.3 0 5 0 C5 1.65 5 3.3 5 5 C3.35 5 1.7 5 0 5 C0 3.35 0 1.7 0 0 Z " fill="#EDEDED" transform="translate(169,114)"/>
<path d="M0 0 C1.65 0 3.3 0 5 0 C5 1.65 5 3.3 5 5 C3.35 5 1.7 5 0 5 C0 3.35 0 1.7 0 0 Z " fill="#FCFCFC" transform="translate(155,114)"/>
<path d="M0 0 C1.65 0 3.3 0 5 0 C5 1.65 5 3.3 5 5 C3.35 5 1.7 5 0 5 C0 3.35 0 1.7 0 0 Z " fill="#FDFDFD" transform="translate(91,114)"/>
<path d="M0 0 C1.65 0 3.3 0 5 0 C5 1.65 5 3.3 5 5 C3.35 5 1.7 5 0 5 C0 3.35 0 1.7 0 0 Z " fill="#FCFCFC" transform="translate(18,114)"/>
<path d="M0 0 C1.65 0 3.3 0 5 0 C5 1.65 5 3.3 5 5 C3.35 5 1.7 5 0 5 C0 3.35 0 1.7 0 0 Z " fill="#EDEDED" transform="translate(5,114)"/>
<path d="M0 0 C1.65 0 3.3 0 5 0 C5 1.65 5 3.3 5 5 C3.35 5 1.7 5 0 5 C0 3.35 0 1.7 0 0 Z " fill="#FCFCFC" transform="translate(178,91)"/>
<path d="M0 0 C1.65 0 3.3 0 5 0 C5 1.65 5 3.3 5 5 C3.35 5 1.7 5 0 5 C0 3.35 0 1.7 0 0 Z " fill="#EDEDED" transform="translate(178,50)"/>
<path d="M0 0 C1.65 0 3.3 0 5 0 C5 1.65 5 3.3 5 5 C3.35 5 1.7 5 0 5 C0 3.35 0 1.7 0 0 Z " fill="#FDFDFD" transform="translate(18,50)"/>
<path d="M0 0 C1.65 0 3.3 0 5 0 C5 1.65 5 3.3 5 5 C3.35 5 1.7 5 0 5 C0 3.35 0 1.7 0 0 Z " fill="#EDEDED" transform="translate(178,41)"/>
<path d="M0 0 C1.65 0 3.3 0 5 0 C5 1.65 5 3.3 5 5 C3.35 5 1.7 5 0 5 C0 3.35 0 1.7 0 0 Z " fill="#FDFDFD" transform="translate(178,0)"/>
<path d="M0 0 C1.65 0 3.3 0 5 0 C5 1.65 5 3.3 5 5 C3.35 5 1.7 5 0 5 C0 3.35 0 1.7 0 0 Z " fill="#FDFDFD" transform="translate(114,0)"/>
<path d="M0 0 C1.65 0 3.3 0 5 0 C5 1.65 5 3.3 5 5 C3.35 5 1.7 5 0 5 C0 3.35 0 1.7 0 0 Z " fill="#FDFDFD" transform="translate(105,0)"/>
<path d="M0 0 C1.65 0 3.3 0 5 0 C5 1.65 5 3.3 5 5 C3.35 5 1.7 5 0 5 C0 3.35 0 1.7 0 0 Z " fill="#ECECEC" transform="translate(27,0)"/>
<path d="M0 0 C1.65 0 3.3 0 5 0 C5 1.65 5 3.3 5 5 C3.35 4.67 1.7 4.34 0 4 C0 2.68 0 1.36 0 0 Z " fill="#FCFCFC" transform="translate(164,123)"/>
<path d="M0 0 C1.32 0 2.64 0 4 0 C4 0.99 4 1.98 4 3 C3.01 3.33 2.02 3.66 1 4 C0.67 4.66 0.34 5.32 0 6 C-1.65 6 -3.3 6 -5 6 C-5 5.34 -5 4.68 -5 4 C-4.0409375 3.8453125 -4.0409375 3.8453125 -3.0625 3.6875 C-2.381875 3.460625 -1.70125 3.23375 -1 3 C-0.67 2.01 -0.34 1.02 0 0 Z " fill="#ECECEC" transform="translate(87,79)"/>
<path d="M0 0 C1.65 0 3.3 0 5 0 C4.67 1.65 4.34 3.3 4 5 C2.68 5 1.36 5 0 5 C0 3.35 0 1.7 0 0 Z " fill="#FCFCFC" transform="translate(169,73)"/>
<path d="M0 0 C1.65 0 3.3 0 5 0 C4.67 1.65 4.34 3.3 4 5 C2.68 5 1.36 5 0 5 C0 3.35 0 1.7 0 0 Z " fill="#FCFCFC" transform="translate(5,73)"/>
<path d="M0 0 C1.65 0 3.3 0 5 0 C5 1.65 5 3.3 5 5 C3.35 4.67 1.7 4.34 0 4 C0 2.68 0 1.36 0 0 Z " fill="#ECECEC" transform="translate(91,0)"/>
<path d="M0 0 C1.65 0 3.3 0 5 0 C5 1.65 5 3.3 5 5 C3.35 4.67 1.7 4.34 0 4 C0 2.68 0 1.36 0 0 Z " fill="#FDFDFD" transform="translate(68,0)"/>
<path d="M0 0 C1.65 0 3.3 0 5 0 C4.75 1.875 4.75 1.875 4 4 C1.9375 5.25 1.9375 5.25 0 6 C0 4.02 0 2.04 0 0 Z " fill="#F6F8FA" transform="translate(27,50)"/>
<path d="M0 0 C1.65 0 3.3 0 5 0 C4.67 1.65 4.34 3.3 4 5 C2.68 4.67 1.36 4.34 0 4 C0 2.68 0 1.36 0 0 Z " fill="#FBFBFB" transform="translate(155,41)"/>
<path d="M0 0 C1.65 0 3.3 0 5 0 C4.67 1.65 4.34 3.3 4 5 C2.68 4.67 1.36 4.34 0 4 C0 2.68 0 1.36 0 0 Z " fill="#FBFBFB" transform="translate(27,41)"/>
<path d="M0 0 C0.99 0 1.98 0 3 0 C3 1.65 3 3.3 3 5 C1.35 5 -0.3 5 -2 5 C-1.125 1.125 -1.125 1.125 0 0 Z " fill="#FCFCFC" transform="translate(166,132)"/>
<path d="M0 0 C2.475 0.495 2.475 0.495 5 1 C5 2.32 5 3.64 5 5 C3.68 5 2.36 5 1 5 C0.67 3.35 0.34 1.7 0 0 Z " fill="#EDEDED" transform="translate(123,123)"/>
<path d="M0 0 C0.33 0 0.66 0 1 0 C1 3.96 1 7.92 1 12 C0.67 10.68 0.34 9.36 0 8 C-0.66 8 -1.32 8 -2 8 C-2 6.35 -2 4.7 -2 3 C-1.34 3 -0.68 3 0 3 C0 2.01 0 1.02 0 0 Z " fill="#F9F9F9" transform="translate(16,79)"/>
<path d="M0 0 C0 1.65 0 3.3 0 5 C-1.65 5 -3.3 5 -5 5 C-5 3.68 -5 2.36 -5 1 C-1.125 0 -1.125 0 0 0 Z " fill="#ECECEC" transform="translate(183,141)"/>
<path d="M0 0 C1.65 0 3.3 0 5 0 C4.67 1.65 4.34 3.3 4 5 C2.68 4.67 1.36 4.34 0 4 C0 2.68 0 1.36 0 0 Z " fill="#FCFCFC" transform="translate(5,137)"/>
<path d="M0 0 C1.65 0 3.3 0 5 0 C4.67 1.65 4.34 3.3 4 5 C2.68 4.67 1.36 4.34 0 4 C0 2.68 0 1.36 0 0 Z " fill="#FDFDFD" transform="translate(178,128)"/>
<path d="M0 0 C1.65 0 3.3 0 5 0 C4.67 1.65 4.34 3.3 4 5 C2.68 4.67 1.36 4.34 0 4 C0 2.68 0 1.36 0 0 Z " fill="#FDFCFA" transform="translate(105,128)"/>
<path d="M0 0 C1.32 0 2.64 0 4 0 C4.33 1.32 4.66 2.64 5 4 C3.35 4.33 1.7 4.66 0 5 C0 3.35 0 1.7 0 0 Z " fill="#FDFDFD" transform="translate(128,114)"/>
<path d="M0 0 C1.32 0 2.64 0 4 0 C4.33 1.32 4.66 2.64 5 4 C3.35 4.33 1.7 4.66 0 5 C0 3.35 0 1.7 0 0 Z " fill="#FDFDFD" transform="translate(119,114)"/>
<path d="M0 0 C1.32 0 2.64 0 4 0 C4.33 1.65 4.66 3.3 5 5 C3.35 5 1.7 5 0 5 C0 3.35 0 1.7 0 0 Z " fill="#ECECEC" transform="translate(96,114)"/>
<path d="M0 0 C0 1.65 0 3.3 0 5 C-1.65 5 -3.3 5 -5 5 C-5 3.68 -5 2.36 -5 1 C-1.125 0 -1.125 0 0 0 Z " fill="#FDFDFD" transform="translate(183,100)"/>
<path d="M0 0 C0 1.65 0 3.3 0 5 C-1.32 5 -2.64 5 -4 5 C-4 4.01 -4 3.02 -4 2 C-4.99 1.67 -5.98 1.34 -7 1 C-2.25 0 -2.25 0 0 0 Z " fill="#E2E7EB" transform="translate(109,77)"/>
<path d="M0 0 C0 1.65 0 3.3 0 5 C-1.65 5 -3.3 5 -5 5 C-5 3.68 -5 2.36 -5 1 C-1.125 0 -1.125 0 0 0 Z " fill="#ECECEC" transform="translate(183,68)"/>
<path d="M0 0 C1.65 0 3.3 0 5 0 C4.67 1.65 4.34 3.3 4 5 C2.68 4.67 1.36 4.34 0 4 C0 2.68 0 1.36 0 0 Z " fill="#FDFDFD" transform="translate(178,64)"/>
<path d="M0 0 C1.65 0 3.3 0 5 0 C4.67 1.65 4.34 3.3 4 5 C2.68 4.67 1.36 4.34 0 4 C0 2.68 0 1.36 0 0 Z " fill="#FDFDFD" transform="translate(5,64)"/>
<path d="M0 0 C0 1.65 0 3.3 0 5 C-1.65 5 -3.3 5 -5 5 C-5 3.68 -5 2.36 -5 1 C-1.125 0 -1.125 0 0 0 Z " fill="#ECECEC" transform="translate(183,59)"/>
<path d="M0 0 C0.99 0 1.98 0 3 0 C3 1.65 3 3.3 3 5 C1.35 4.67 -0.3 4.34 -2 4 C-1.34 2.68 -0.68 1.36 0 0 Z " fill="#FCFCFC" transform="translate(166,41)"/>
<path d="M0 0 C0 1.65 0 3.3 0 5 C-1.65 5 -3.3 5 -5 5 C-5 3.68 -5 2.36 -5 1 C-1.125 0 -1.125 0 0 0 Z " fill="#FDFDFD" transform="translate(183,36)"/>
<path d="M0 0 C0.33 0 0.66 0 1 0 C1.125 2.375 1.125 2.375 1 5 C0.34 5.66 -0.32 6.32 -1 7 C-3.125 6.625 -3.125 6.625 -5 6 C-4.67 5.01 -4.34 4.02 -4 3 C-2.68 3 -1.36 3 0 3 C0 2.01 0 1.02 0 0 Z " fill="#F6F8FA" transform="translate(77,29)"/>
<path d="M0 0 C1.32 0 2.64 0 4 0 C4 0.99 4 1.98 4 3 C4.66 3.66 5.32 4.32 6 5 C3.625 5.1875 3.625 5.1875 1 5 C0.34 4.01 -0.32 3.02 -1 2 C-0.67 1.34 -0.34 0.68 0 0 Z " fill="#CCD8E4" transform="translate(69,32)"/>
<path d="M0 0 C1.65 0 3.3 0 5 0 C4.67 1.65 4.34 3.3 4 5 C2.68 4.67 1.36 4.34 0 4 C0 2.68 0 1.36 0 0 Z " fill="#FCFCFC" transform="translate(18,23)"/>
<path d="M0 0 C0 1.65 0 3.3 0 5 C-1.65 5 -3.3 5 -5 5 C-5 3.68 -5 2.36 -5 1 C-1.125 0 -1.125 0 0 0 Z " fill="#FCFCFC" transform="translate(183,18)"/>
<path d="M0 0 C1.65 0 3.3 0 5 0 C4.67 1.65 4.34 3.3 4 5 C2.68 4.67 1.36 4.34 0 4 C0 2.68 0 1.36 0 0 Z " fill="#FDFDFD" transform="translate(18,14)"/>
<path d="M0 0 C0 1.65 0 3.3 0 5 C-1.65 5 -3.3 5 -5 5 C-4.6875 3.0625 -4.6875 3.0625 -4 1 C-1 0 -1 0 0 0 Z " fill="#FCFCFC" transform="translate(32,141)"/>
<path d="M0 0 C1.32 0 2.64 0 4 0 C4 1.65 4 3.3 4 5 C2.68 5 1.36 5 0 5 C0 3.35 0 1.7 0 0 Z " fill="#ECECEC" transform="translate(169,123)"/>
<path d="M0 0 C1.32 0 2.64 0 4 0 C4 1.65 4 3.3 4 5 C2.68 5 1.36 5 0 5 C0 3.35 0 1.7 0 0 Z " fill="#ECECEC" transform="translate(23,123)"/>
<path d="M0 0 C1.32 0 2.64 0 4 0 C4 1.65 4 3.3 4 5 C2.68 5 1.36 5 0 5 C0 3.35 0 1.7 0 0 Z " fill="#EDEDED" transform="translate(14,123)"/>
<path d="M0 0 C1.65 0 3.3 0 5 0 C5 1.32 5 2.64 5 4 C3.35 4 1.7 4 0 4 C0 2.68 0 1.36 0 0 Z " fill="#FEFEFE" transform="translate(178,119)"/>
<path d="M0 0 C1.65 0 3.3 0 5 0 C5 1.32 5 2.64 5 4 C3.35 4 1.7 4 0 4 C0 2.68 0 1.36 0 0 Z " fill="#FDFDFD" transform="translate(169,119)"/>
<path d="M0 0 C1.65 0 3.3 0 5 0 C5 1.32 5 2.64 5 4 C3.35 4 1.7 4 0 4 C0 2.68 0 1.36 0 0 Z " fill="#EBEBEB" transform="translate(155,119)"/>
<path d="M0 0 C1.65 0 3.3 0 5 0 C5 1.32 5 2.64 5 4 C3.35 4 1.7 4 0 4 C0 2.68 0 1.36 0 0 Z " fill="#ECECEC" transform="translate(18,119)"/>
<path d="M0 0 C1.65 0 3.3 0 5 0 C5 1.32 5 2.64 5 4 C3.35 4 1.7 4 0 4 C0 2.68 0 1.36 0 0 Z " fill="#FDFDFD" transform="translate(5,119)"/>
<path d="M0 0 C1.32 0 2.64 0 4 0 C4 1.65 4 3.3 4 5 C2.68 5 1.36 5 0 5 C0 3.35 0 1.7 0 0 Z " fill="#FEFEFE" transform="translate(174,114)"/>
<path d="M0 0 C1.32 0 2.64 0 4 0 C4 1.65 4 3.3 4 5 C2.68 5 1.36 5 0 5 C0 3.35 0 1.7 0 0 Z " fill="#ECECEC" transform="translate(160,114)"/>
<path d="M0 0 C1.32 0 2.64 0 4 0 C4 1.65 4 3.3 4 5 C2.68 5 1.36 5 0 5 C0 3.35 0 1.7 0 0 Z " fill="#ECECEC" transform="translate(151,114)"/>
<path d="M0 0 C1.32 0 2.64 0 4 0 C4 1.65 4 3.3 4 5 C2.68 5 1.36 5 0 5 C0 3.35 0 1.7 0 0 Z " fill="#FEFEFE" transform="translate(55,114)"/>
<path d="M0 0 C1.32 0 2.64 0 4 0 C4 1.65 4 3.3 4 5 C2.68 5 1.36 5 0 5 C0 3.35 0 1.7 0 0 Z " fill="#FDFDFD" transform="translate(10,114)"/>
<path d="M0 0 C1.32 0 2.64 0 4 0 C4 1.65 4 3.3 4 5 C2.68 5 1.36 5 0 5 C0 3.35 0 1.7 0 0 Z " fill="#FDFDFD" transform="translate(1,114)"/>
<path d="M0 0 C0.66 0.33 1.32 0.66 2 1 C1.67 2.32 1.34 3.64 1 5 C-0.65 5 -2.3 5 -4 5 C-4 4.01 -4 3.02 -4 2 C-2.125 0.9375 -2.125 0.9375 0 0 Z " fill="#EDEAE4" transform="translate(150,109)"/>
<path d="M0 0 C1.65 0 3.3 0 5 0 C5 1.32 5 2.64 5 4 C3.35 4 1.7 4 0 4 C0 2.68 0 1.36 0 0 Z " fill="#EBEBEB" transform="translate(155,110)"/>
<path d="M0 0 C1.32 0 2.64 0 4 0 C4 1.65 4 3.3 4 5 C2.68 5 1.36 5 0 5 C0 3.35 0 1.7 0 0 Z " fill="#FDFDFD" transform="translate(174,105)"/>
<path d="M0 0 C1.32 0 2.64 0 4 0 C4 1.65 4 3.3 4 5 C2.68 5 1.36 5 0 5 C0 3.35 0 1.7 0 0 Z " fill="#FDFDFD" transform="translate(1,105)"/>
<path d="M0 0 C1.32 0 2.64 0 4 0 C4.33 2.31 4.66 4.62 5 7 C4.67 6.01 4.34 5.02 4 4 C2.68 4 1.36 4 0 4 C0 2.68 0 1.36 0 0 Z " fill="#D3DDE6" transform="translate(15,96)"/>
<path d="M0 0 C1.65 0 3.3 0 5 0 C5 1.32 5 2.64 5 4 C3.35 4 1.7 4 0 4 C0 2.68 0 1.36 0 0 Z " fill="#ECECEC" transform="translate(178,87)"/>
<path d="M0 0 C1.65 0 3.3 0 5 0 C5 1.32 5 2.64 5 4 C3.35 4 1.7 4 0 4 C0 2.68 0 1.36 0 0 Z " fill="#ECECEC" transform="translate(178,78)"/>
<path d="M0 0 C1.32 0 2.64 0 4 0 C4 1.65 4 3.3 4 5 C2.68 5 1.36 5 0 5 C0 3.35 0 1.7 0 0 Z " fill="#FCFCFC" transform="translate(14,73)"/>
<path d="M0 0 C1.32 0 2.64 0 4 0 C3.34 1.65 2.68 3.3 2 5 C1.01 5 0.02 5 -1 5 C-0.67 3.35 -0.34 1.7 0 0 Z " fill="#F9FAFB" transform="translate(19,59)"/>
<path d="M0 0 C1.32 0 2.64 0 4 0 C4 1.65 4 3.3 4 5 C2.68 5 1.36 5 0 5 C0 3.35 0 1.7 0 0 Z " fill="#FEFEFE" transform="translate(10,50)"/>
<path d="M0 0 C1.32 0 2.64 0 4 0 C4 1.65 4 3.3 4 5 C2.68 5 1.36 5 0 5 C0 3.35 0 1.7 0 0 Z " fill="#EBEBEB" transform="translate(5,50)"/>
<path d="M0 0 C1.32 0 2.64 0 4 0 C4 1.65 4 3.3 4 5 C2.68 5 1.36 5 0 5 C0 3.35 0 1.7 0 0 Z " fill="#FEFEFE" transform="translate(1,50)"/>
<path d="M0 0 C1.65 0 3.3 0 5 0 C5 1.32 5 2.64 5 4 C3.35 4 1.7 4 0 4 C0 2.68 0 1.36 0 0 Z " fill="#FEFEFE" transform="translate(178,46)"/>
<path d="M0 0 C1.65 0 3.3 0 5 0 C5 1.32 5 2.64 5 4 C3.35 4 1.7 4 0 4 C0 2.68 0 1.36 0 0 Z " fill="#FDFDFD" transform="translate(169,46)"/>
<path d="M0 0 C1.65 0 3.3 0 5 0 C5 1.32 5 2.64 5 4 C3.35 4 1.7 4 0 4 C0 2.68 0 1.36 0 0 Z " fill="#EBEBEB" transform="translate(82,46)"/>
<path d="M0 0 C1.65 0 3.3 0 5 0 C5 1.32 5 2.64 5 4 C3.35 4 1.7 4 0 4 C0 2.68 0 1.36 0 0 Z " fill="#FDFDFD" transform="translate(5,46)"/>
<path d="M0 0 C1.32 0 2.64 0 4 0 C4 1.65 4 3.3 4 5 C2.68 5 1.36 5 0 5 C0 3.35 0 1.7 0 0 Z " fill="#FBFBFB" transform="translate(14,9)"/>
<path d="M0 0 C1.65 0 3.3 0 5 0 C5 1.32 5 2.64 5 4 C3.35 4 1.7 4 0 4 C0 2.68 0 1.36 0 0 Z " fill="#EBEBEB" transform="translate(178,5)"/>
<path d="M0 0 C1.65 0 3.3 0 5 0 C5 1.32 5 2.64 5 4 C3.35 4 1.7 4 0 4 C0 2.68 0 1.36 0 0 Z " fill="#FDFDFD" transform="translate(82,5)"/>
<path d="M0 0 C1.65 0 3.3 0 5 0 C5 1.32 5 2.64 5 4 C3.35 4 1.7 4 0 4 C0 2.68 0 1.36 0 0 Z " fill="#FDFDFD" transform="translate(18,5)"/>
<path d="M0 0 C1.32 0 2.64 0 4 0 C4 1.65 4 3.3 4 5 C2.68 5 1.36 5 0 5 C0 3.35 0 1.7 0 0 Z " fill="#EAEAEA" transform="translate(174,0)"/>
<path d="M0 0 C1.32 0 2.64 0 4 0 C4 1.65 4 3.3 4 5 C2.68 5 1.36 5 0 5 C0 3.35 0 1.7 0 0 Z " fill="#EBEBEB" transform="translate(165,0)"/>
<path d="M0 0 C1.32 0 2.64 0 4 0 C4 1.65 4 3.3 4 5 C2.68 5 1.36 5 0 5 C0 3.35 0 1.7 0 0 Z " fill="#FEFEFE" transform="translate(151,0)"/>
<path d="M0 0 C1.32 0 2.64 0 4 0 C4 1.65 4 3.3 4 5 C2.68 5 1.36 5 0 5 C0 3.35 0 1.7 0 0 Z " fill="#FEFEFE" transform="translate(142,0)"/>
<path d="M0 0 C1.32 0 2.64 0 4 0 C4 1.65 4 3.3 4 5 C2.68 5 1.36 5 0 5 C0 3.35 0 1.7 0 0 Z " fill="#FDFDFD" transform="translate(133,0)"/>
<path d="M0 0 C1.32 0 2.64 0 4 0 C4 1.65 4 3.3 4 5 C2.68 5 1.36 5 0 5 C0 3.35 0 1.7 0 0 Z " fill="#EAEAEA" transform="translate(119,0)"/>
<path d="M0 0 C1.32 0 2.64 0 4 0 C4 1.65 4 3.3 4 5 C2.68 5 1.36 5 0 5 C0 3.35 0 1.7 0 0 Z " fill="#EAEAEA" transform="translate(101,0)"/>
<path d="M0 0 C1.32 0 2.64 0 4 0 C4 1.65 4 3.3 4 5 C2.68 5 1.36 5 0 5 C0 3.35 0 1.7 0 0 Z " fill="#FEFEFE" transform="translate(96,0)"/>
<path d="M0 0 C1.32 0 2.64 0 4 0 C4 1.65 4 3.3 4 5 C2.68 5 1.36 5 0 5 C0 3.35 0 1.7 0 0 Z " fill="#EBEBEB" transform="translate(73,0)"/>
<path d="M0 0 C1.32 0 2.64 0 4 0 C4 1.65 4 3.3 4 5 C2.68 5 1.36 5 0 5 C0 3.35 0 1.7 0 0 Z " fill="#EBEBEB" transform="translate(55,0)"/>
<path d="M0 0 C1.32 0 2.64 0 4 0 C4 1.65 4 3.3 4 5 C2.68 5 1.36 5 0 5 C0 3.35 0 1.7 0 0 Z " fill="#EBEBEB" transform="translate(46,0)"/>
<path d="M0 0 C1.32 0 2.64 0 4 0 C4 1.65 4 3.3 4 5 C2.68 5 1.36 5 0 5 C0 3.35 0 1.7 0 0 Z " fill="#EBEBEB" transform="translate(37,0)"/>
<path d="M0 0 C1.32 0 2.64 0 4 0 C4 1.65 4 3.3 4 5 C2.68 5 1.36 5 0 5 C0 3.35 0 1.7 0 0 Z " fill="#FEFEFE" transform="translate(32,0)"/>
<path d="M0 0 C1.32 0 2.64 0 4 0 C4 1.65 4 3.3 4 5 C2.68 5 1.36 5 0 5 C0 3.35 0 1.7 0 0 Z " fill="#FEFEFE" transform="translate(23,0)"/>
<path d="M0 0 C1.32 0 2.64 0 4 0 C4 1.65 4 3.3 4 5 C2.68 5 1.36 5 0 5 C0 3.35 0 1.7 0 0 Z " fill="#EAEAEA" transform="translate(10,0)"/>
<path d="M0 0 C1.32 0 2.64 0 4 0 C4 1.65 4 3.3 4 5 C2.68 5 1.36 5 0 5 C0 3.35 0 1.7 0 0 Z " fill="#EAEAEA" transform="translate(1,0)"/>
<path d="M0 0 C0.99 0 1.98 0 3 0 C3 1.65 3 3.3 3 5 C1.68 5 0.36 5 -1 5 C-0.67 3.35 -0.34 1.7 0 0 Z " fill="#FDFDFD" transform="translate(56,132)"/>
<path d="M0 0 C0.99 0 1.98 0 3 0 C3 1.65 3 3.3 3 5 C1.68 5 0.36 5 -1 5 C-0.67 3.35 -0.34 1.7 0 0 Z " fill="#FCFCFC" transform="translate(38,132)"/>
<path d="M0 0 C0.99 0 1.98 0 3 0 C3 1.65 3 3.3 3 5 C1.68 5 0.36 5 -1 5 C-0.67 3.35 -0.34 1.7 0 0 Z " fill="#ECECEC" transform="translate(152,123)"/>
<path d="M0 0 C0.99 0 1.98 0 3 0 C3 1.65 3 3.3 3 5 C1.68 5 0.36 5 -1 5 C-0.67 3.35 -0.34 1.7 0 0 Z " fill="#FDFDFD" transform="translate(175,123)"/>
<path d="M0 0 C0.99 0 1.98 0 3 0 C3 1.65 3 3.3 3 5 C1.68 5 0.36 5 -1 5 C-0.67 3.35 -0.34 1.7 0 0 Z " fill="#FDFDFD" transform="translate(56,123)"/>
<path d="M0 0 C0.99 0 1.98 0 3 0 C3 1.65 3 3.3 3 5 C1.68 5 0.36 5 -1 5 C-0.67 3.35 -0.34 1.7 0 0 Z " fill="#FCFCFC" transform="translate(38,123)"/>
<path d="M0 0 C0.99 0 1.98 0 3 0 C3 1.65 3 3.3 3 5 C1.68 5 0.36 5 -1 5 C-0.67 3.35 -0.34 1.7 0 0 Z " fill="#FDFDFD" transform="translate(2,123)"/>
<path d="M0 0 C0.99 0 1.98 0 3 0 C3 1.65 3 3.3 3 5 C1.68 5 0.36 5 -1 5 C-0.67 3.35 -0.34 1.7 0 0 Z " fill="#FDFDFD" transform="translate(2,59)"/>
<path d="M0 0 C0.99 0 1.98 0 3 0 C3 1.65 3 3.3 3 5 C1.68 5 0.36 5 -1 5 C-0.67 3.35 -0.34 1.7 0 0 Z " fill="#FCFCFC" transform="translate(2,41)"/>
<path d="M0 0 C1.32 0.33 2.64 0.66 4 1 C4 2.32 4 3.64 4 5 C2.68 5 1.36 5 0 5 C0 3.35 0 1.7 0 0 Z " fill="#EDEDED" transform="translate(146,18)"/>
<path d="M0 0 C1.32 0 2.64 0 4 0 C4 1.32 4 2.64 4 4 C3.01 4 2.02 4 1 4 C0.67 4.66 0.34 5.32 0 6 C-0.38218767 4.34385343 -0.71395102 2.67542976 -1 1 C-0.67 0.67 -0.34 0.34 0 0 Z " fill="#E0E4E9" transform="translate(119,19)"/>
<path d="M0 0 C0.99 0 1.98 0 3 0 C3 1.65 3 3.3 3 5 C1.68 5 0.36 5 -1 5 C-0.67 3.35 -0.34 1.7 0 0 Z " fill="#EBEBEB" transform="translate(175,9)"/>
<path d="M0 0 C1.32 0 2.64 0 4 0 C4 1.65 4 3.3 4 5 C2.68 4.67 1.36 4.34 0 4 C0 2.68 0 1.36 0 0 Z " fill="#EBEBEB" transform="translate(146,0)"/>
<path d="M0 0 C1.32 0 2.64 0 4 0 C4 1.32 4 2.64 4 4 C2.35 3.67 0.7 3.34 -1 3 C-0.67 2.01 -0.34 1.02 0 0 Z " fill="#FDFDFD" transform="translate(165,142)"/>
<path d="M0 0 C2.475 0.495 2.475 0.495 5 1 C4.67 1.99 4.34 2.98 4 4 C2.68 4 1.36 4 0 4 C0 2.68 0 1.36 0 0 Z " fill="#EDEBE8" transform="translate(55,137)"/>
<path d="M0 0 C0.99 0.33 1.98 0.66 3 1 C3 2.32 3 3.64 3 5 C1.68 5 0.36 5 -1 5 C-0.67 3.35 -0.34 1.7 0 0 Z " fill="#FDFDFD" transform="translate(175,132)"/>
<path d="M0 0 C0.99 0.66 1.98 1.32 3 2 C2.67 2.99 2.34 3.98 2 5 C0.68 5 -0.64 5 -2 5 C-2 3.68 -2 2.36 -2 1 C-1.34 0.67 -0.68 0.34 0 0 Z " fill="#E7EAEC" transform="translate(30,118)"/>
<path d="M0 0 C2.475 0.495 2.475 0.495 5 1 C5 2.32 5 3.64 5 5 C3.68 5 2.36 5 1 5 C0.67 3.35 0.34 1.7 0 0 Z " fill="#FEFEFE" transform="translate(109,77)"/>
<path d="M0 0 C1.32 0 2.64 0 4 0 C4 1.65 4 3.3 4 5 C2.68 4.67 1.36 4.34 0 4 C0 2.68 0 1.36 0 0 Z " fill="#ECECEC" transform="translate(165,73)"/>
<path d="M0 0 C1.32 0 2.64 0 4 0 C4 1.32 4 2.64 4 4 C2.35 3.67 0.7 3.34 -1 3 C-0.67 2.01 -0.34 1.02 0 0 Z " fill="#FDFDFD" transform="translate(165,69)"/>
<path d="M0 0 C2.97 0.33 5.94 0.66 9 1 C9 1.33 9 1.66 9 2 C5.7 2.66 2.4 3.32 -1 4 C-0.67 2.68 -0.34 1.36 0 0 Z " fill="#D5DFE9" transform="translate(32,50)"/>
<path d="M0 0 C1.32 0 2.64 0 4 0 C3.67 1.98 3.34 3.96 3 6 C1.68 4.35 0.36 2.7 -1 1 C-0.67 0.67 -0.34 0.34 0 0 Z " fill="#E6E9EC" transform="translate(115,14)"/>
<path d="M0 0 C1.65 0 3.3 0 5 0 C5 0.99 5 1.98 5 3 C3.35 3.33 1.7 3.66 0 4 C0 2.68 0 1.36 0 0 Z " fill="#FBFBFB" transform="translate(68,9)"/>
<path d="M0 0 C0 1.65 0 3.3 0 5 C-1.32 5 -2.64 5 -4 5 C-4 3.68 -4 2.36 -4 1 C-1 0 -1 0 0 0 Z " fill="#FCFCFC" transform="translate(41,141)"/>
<path d="M0 0 C1.32 0 2.64 0 4 0 C3.67 1.65 3.34 3.3 3 5 C2.01 4.67 1.02 4.34 0 4 C0 2.68 0 1.36 0 0 Z " fill="#FDFDFD" transform="translate(133,137)"/>
<path d="M0 0 C0.99 0.33 1.98 0.66 3 1 C3 2.32 3 3.64 3 5 C1.68 5 0.36 5 -1 5 C-0.67 3.35 -0.34 1.7 0 0 Z " fill="#FDFDFD" transform="translate(2,132)"/>
<path d="M0 0 C0.99 0.99 1.98 1.98 3 3 C2.67 3.66 2.34 4.32 2 5 C0.68 5 -0.64 5 -2 5 C-1.125 1.125 -1.125 1.125 0 0 Z " fill="#FDFDFD" transform="translate(130,132)"/>
<path d="M0 0 C0.99 0.33 1.98 0.66 3 1 C3 2.32 3 3.64 3 5 C1.68 5 0.36 5 -1 5 C-0.67 3.35 -0.34 1.7 0 0 Z " fill="#FDFDFD" transform="translate(47,132)"/>
<path d="M0 0 C1.32 0 2.64 0 4 0 C3.67 1.65 3.34 3.3 3 5 C2.01 4.67 1.02 4.34 0 4 C0 2.68 0 1.36 0 0 Z " fill="#FDFDFD" transform="translate(133,128)"/>
<path d="M0 0 C1.32 0.33 2.64 0.66 4 1 C4 2.65 4 4.3 4 6 C3.67 5.34 3.34 4.68 3 4 C2.01 4 1.02 4 0 4 C0 2.68 0 1.36 0 0 Z " fill="#DDE3E9" transform="translate(15,69)"/>
<path d="M0 0 C0.99 0 1.98 0 3 0 C3 1.65 3 3.3 3 5 C2.01 5 1.02 5 0 5 C-0.5625 3.0625 -0.5625 3.0625 -1 1 C-0.67 0.67 -0.34 0.34 0 0 Z " fill="#FDFCF9" transform="translate(157,50)"/>
<path d="M0 0 C1.32 0 2.64 0 4 0 C4.33 1.32 4.66 2.64 5 4 C3.35 4 1.7 4 0 4 C0 2.68 0 1.36 0 0 Z " fill="#EBEBEC" transform="translate(55,19)"/>
<path d="M0 0 C1.32 0 2.64 0 4 0 C4.33 0.99 4.66 1.98 5 3 C3.35 3.33 1.7 3.66 0 4 C0 2.68 0 1.36 0 0 Z " fill="#FDFDFD" transform="translate(41,19)"/>
<path d="M0 0 C1.32 0 2.64 0 4 0 C4.33 0.99 4.66 1.98 5 3 C3.35 3.33 1.7 3.66 0 4 C0 2.68 0 1.36 0 0 Z " fill="#FDFDFD" transform="translate(32,19)"/>
<path d="M0 0 C1.32 0 2.64 0 4 0 C3.67 1.65 3.34 3.3 3 5 C2.01 4.67 1.02 4.34 0 4 C0 2.68 0 1.36 0 0 Z " fill="#FDFDFD" transform="translate(37,14)"/>
</svg>
