<?xml version="1.0" encoding="UTF-8"?>
<svg version="1.1" xmlns="http://www.w3.org/2000/svg" width="225" height="225">
<path d="M0 0 C16.21835418 14.98868388 25.88679433 35.29130502 27.203125 57.33984375 C27.49983314 79.71658261 20.6136405 101.13937015 5.17578125 117.84375 C-12.41739141 134.77362531 -33.35436737 143.37055157 -57.890625 143.15234375 C-79.0157017 142.34022881 -99.76735399 132.80322118 -114.33984375 117.4765625 C-129.52077556 99.77845055 -137.50679932 78.34149587 -136 54.9375 C-134.87304547 42.97733384 -131.5079196 32.58042257 -126 21.9375 C-125.49855469 20.96296875 -124.99710938 19.9884375 -124.48046875 18.984375 C-114.20051307 1.18313529 -95.69931259 -12.09043162 -76.06542969 -17.60595703 C-48.58707745 -24.43148754 -21.87480627 -17.59687037 0 0 Z M-110.49609375 12.99609375 C-123.98496394 28.84183361 -129.33860347 48.41921869 -128 68.9375 C-125.21586715 89.05721003 -116.35259923 105.66539319 -101 118.9375 C-98.08520093 121.09548922 -95.11733948 123.08516784 -92 124.9375 C-90.30639461 121.95902171 -89.70922428 119.67604796 -89.53833008 116.26416016 C-89.48941116 115.34285309 -89.44049225 114.42154602 -89.39009094 113.47232056 C-89.22124839 109.27679374 -89.05747566 105.08170518 -88.92749023 100.88476562 C-88.85092724 98.67272892 -88.75461402 96.46128627 -88.63842773 94.25097656 C-88.47092595 91.055338 -88.36370948 87.86260333 -88.26953125 84.6640625 C-88.20748001 83.6795108 -88.14542877 82.69495911 -88.08149719 81.68057251 C-88.03776407 78.83277143 -88.10522538 76.64495322 -89 73.9375 C-91.10456004 71.91127001 -93.14683275 70.60432705 -95.7273407 69.24520874 C-101.57480186 65.88052664 -104.72807475 59.5176723 -106.52734375 53.21484375 C-108.3400437 44.4809258 -106.47070861 36.34860477 -101.64453125 28.82421875 C-98.3432657 24.69099889 -94.84564377 22.05196274 -90 19.9375 C-88.35 20.2675 -86.7 20.5975 -85 20.9375 C-84.505 31.3325 -84.505 31.3325 -84 41.9375 C-78.65372045 45.44413335 -78.65372045 45.44413335 -75.25 44.1875 C-74.5075 43.775 -73.765 43.3625 -73 42.9375 C-72.34 42.6075 -71.68 42.2775 -71 41.9375 C-70.96241577 41.09771606 -70.96241577 41.09771606 -70.92407227 40.2409668 C-70.80796255 37.70208695 -70.6853042 35.16356447 -70.5625 32.625 C-70.52318359 31.74392578 -70.48386719 30.86285156 -70.44335938 29.95507812 C-70.38051758 28.68374023 -70.38051758 28.68374023 -70.31640625 27.38671875 C-70.27974854 26.60643311 -70.24309082 25.82614746 -70.20532227 25.0222168 C-70 22.9375 -70 22.9375 -69 19.9375 C-62.67853655 19.9375 -59.54224733 22.38420909 -55.01953125 26.67578125 C-49.08876252 33.31778337 -47.68875722 40.43833359 -47.78125 49.12109375 C-48.29829111 55.777998 -51.29177992 60.56697436 -55 65.9375 C-55 66.5975 -55 67.2575 -55 67.9375 C-55.53625 68.185 -56.0725 68.4325 -56.625 68.6875 C-59.66456801 70.28727264 -62.30924809 71.7756255 -65 73.9375 C-65.84081102 76.94128285 -65.84081102 76.94128285 -65.62109375 80.34375 C-65.60691406 81.6328125 -65.59273437 82.921875 -65.578125 84.25 C-65.5320353 85.64585948 -65.48514287 87.04169266 -65.4375 88.4375 C-65.41033389 89.8645392 -65.38562052 91.29162707 -65.36328125 92.71875 C-65.29694279 96.39659126 -65.19201254 100.07210446 -65.07147217 103.74853516 C-65.00143857 105.89344109 -64.93753038 108.03844317 -64.87548828 110.18359375 C-64.64290451 118.10417194 -64.35232911 126.02133961 -64 133.9375 C-60.99560236 135.43969882 -58.2169449 135.10838994 -54.875 135.125 C-53.59367187 135.13917969 -52.31234375 135.15335938 -50.9921875 135.16796875 C-46.69679601 134.91999605 -43.12814722 134.10055261 -39 132.9375 C-38.29994196 129.66922393 -37.61713756 126.39757824 -36.9375 123.125 C-36.63875977 121.7318457 -36.63875977 121.7318457 -36.33398438 120.31054688 C-36.15029297 119.41787109 -35.96660156 118.52519531 -35.77734375 117.60546875 C-35.60452881 116.78328857 -35.43171387 115.9611084 -35.25366211 115.11401367 C-34.8234995 112.76046335 -34.8234995 112.76046335 -36 109.9375 C-36.07051114 107.19884713 -36.09357765 104.48722412 -36.0625 101.75 C-36.05798828 101.00041016 -36.05347656 100.25082031 -36.04882812 99.47851562 C-36.03706354 97.63147617 -36.01912865 95.78447787 -36 93.9375 C-34.02 93.6075 -32.04 93.2775 -30 92.9375 C-29.87516022 88.42098891 -29.7850875 83.90542666 -29.7253418 79.38769531 C-29.70040241 77.8552905 -29.66643734 76.32300208 -29.62280273 74.79101562 C-29.39089321 66.43135939 -29.20325211 59.30677956 -33.95996094 52.02954102 C-36.08795007 47.74908588 -34.24171843 43.30283014 -33 38.9375 C-32.67153862 37.60650858 -32.347578 36.27440103 -32.02734375 34.94140625 C-31.68706852 33.56456538 -31.34463298 32.18825656 -31 30.8125 C-30.83443604 30.14839111 -30.66887207 29.48428223 -30.49829102 28.80004883 C-30.06166853 27.16116356 -29.53759779 25.5460934 -29 23.9375 C-26.26922124 22.57211062 -24.04439633 22.80518174 -21 22.8125 C-19.39125 22.80863281 -19.39125 22.80863281 -17.75 22.8046875 C-15 22.9375 -15 22.9375 -13 23.9375 C-12.31396484 25.86767578 -12.31396484 25.86767578 -11.7109375 28.3828125 C-11.49179688 29.29546875 -11.27265625 30.208125 -11.046875 31.1484375 C-10.82515625 32.11007813 -10.6034375 33.07171875 -10.375 34.0625 C-10.14554687 35.0009375 -9.91609375 35.939375 -9.6796875 36.90625 C-6.6736918 49.68173172 -6.6736918 49.68173172 -9.984375 55.3125 C-13.52650231 61.78453508 -12.41144354 69.77153919 -12.25 76.9375 C-12.22990643 78.49086242 -12.2116607 80.0442499 -12.1953125 81.59765625 C-12.15153679 85.37822979 -12.08266974 89.15758511 -12 92.9375 C-10.02 93.2675 -8.04 93.5975 -6 93.9375 C-5.97289877 96.5000718 -5.95311229 99.06235365 -5.9375 101.625 C-5.92912109 102.34623047 -5.92074219 103.06746094 -5.91210938 103.81054688 C-5.89456368 107.65305382 -6.06475779 111.20389526 -7 114.9375 C-3.461918 114.9375 -3.15800869 114.5273825 -0.75 112.125 C13.24722516 97.44858459 19.39131162 77.81181025 19.21484375 57.91015625 C18.10799951 37.44360004 9.01477921 19.57801781 -5.80078125 5.69921875 C-14.6172989 -2.14637619 -24.77221702 -6.73724533 -36 -10.0625 C-36.82757813 -10.30871094 -37.65515625 -10.55492187 -38.5078125 -10.80859375 C-65.26544292 -17.38462157 -92.04107381 -6.31854866 -110.49609375 12.99609375 Z M-93 29.9375 C-97.97709422 36.06315443 -100.36060098 41.40017055 -100 49.375 C-99.0055803 56.13705396 -95.12869575 61.19978919 -89.9375 65.4375 C-87.17764 66.84679021 -85.01740612 67.40830905 -82 67.9375 C-81.90644276 80.92246527 -82.20043451 93.8941639 -82.5 106.875 C-82.54833039 109.02278301 -82.59650857 111.17056946 -82.64453125 113.31835938 C-82.76126842 118.52478075 -82.88005716 123.73115153 -83 128.9375 C-81.35500958 129.60624384 -79.70898352 130.27244074 -78.0625 130.9375 C-76.68771484 131.494375 -76.68771484 131.494375 -75.28515625 132.0625 C-73.25217842 132.997098 -73.25217842 132.997098 -72 132.9375 C-72 111.8175 -72 90.6975 -72 68.9375 C-69.03 67.2875 -66.06 65.6375 -63 63.9375 C-57.66010123 58.59760123 -55.04943654 54.2781214 -54.625 46.625 C-54.73617466 41.57938071 -56.30843644 37.19539152 -59 32.9375 C-59.99 32.2775 -60.98 31.6175 -62 30.9375 C-62.03867188 32.27554688 -62.03867188 32.27554688 -62.078125 33.640625 C-62.16320312 35.39632812 -62.16320312 35.39632812 -62.25 37.1875 C-62.29640625 38.34765625 -62.3428125 39.5078125 -62.390625 40.703125 C-63.26524918 45.34536101 -65.4547887 46.81932892 -69.1484375 49.4921875 C-75.13989004 53.04501374 -75.13989004 53.04501374 -79 52.5625 C-79.99 52.02625 -80.98 51.49 -82 50.9375 C-82.76957031 50.70546875 -83.53914063 50.4734375 -84.33203125 50.234375 C-87.29215036 49.13423624 -88.89452723 48.32163828 -91 45.9375 C-92.10289371 40.55818997 -92.16078985 35.41078634 -92 29.9375 C-92.33 29.9375 -92.66 29.9375 -93 29.9375 Z M-23 29.9375 C-23.7047491 32.2876719 -24.3887943 34.64091833 -25.0625 37 C-25.26166016 37.65677734 -25.46082031 38.31355469 -25.66601562 38.99023438 C-27.32407533 44.89525403 -27.16566356 49.47536369 -24.48144531 55.14501953 C-22.77199065 59.06022006 -22.52649344 62.82721875 -22.48828125 67.05859375 C-22.47033005 67.80335464 -22.45237885 68.54811554 -22.43388367 69.31544495 C-22.3801769 71.66857423 -22.34601457 74.02150544 -22.3125 76.375 C-22.27929171 77.98114713 -22.24479885 79.58726824 -22.20898438 81.19335938 C-22.12447426 85.10792899 -22.05747629 89.02244394 -22 92.9375 C-21.34 92.9375 -20.68 92.9375 -20 92.9375 C-19.9906543 91.91914063 -19.98130859 90.90078125 -19.97167969 89.8515625 C-19.93154381 86.0417242 -19.86572237 82.23267355 -19.79248047 78.42333984 C-19.76440669 76.78053981 -19.74312505 75.13760811 -19.72900391 73.49462891 C-19.70738379 71.12074027 -19.6606424 68.74841208 -19.609375 66.375 C-19.60753204 65.28856201 -19.60753204 65.28856201 -19.60565186 64.18017578 C-19.46824107 59.30132096 -18.32466642 55.96728755 -15.84747314 51.75708008 C-14.30722366 48.45006404 -15.17163826 45.31997712 -16 41.9375 C-16.2475 40.89078125 -16.495 39.8440625 -16.75 38.765625 C-17.47051175 35.81429803 -18.22180999 32.87406606 -19 29.9375 C-20.32 29.9375 -21.64 29.9375 -23 29.9375 Z M-30 100.9375 C-30 101.5975 -30 102.2575 -30 102.9375 C-24.39 102.9375 -18.78 102.9375 -13 102.9375 C-13 102.2775 -13 101.6175 -13 100.9375 C-18.61 100.9375 -24.22 100.9375 -30 100.9375 Z M-27 110.9375 C-28.32 117.5375 -29.64 124.1375 -31 130.9375 C-24.44791797 128.48046924 -18.81978532 125.81735688 -13 121.9375 C-13.66 118.3075 -14.32 114.6775 -15 110.9375 C-18.96 110.9375 -22.92 110.9375 -27 110.9375 Z " fill="#010101" transform="translate(167,51.0625)"/>
<path d="M0 0 C1.71123047 -0.02900391 1.71123047 -0.02900391 3.45703125 -0.05859375 C11.72618546 -0.01000883 11.72618546 -0.01000883 15.265625 2.89453125 C17.05497066 6.85260916 16.79131662 9.32807992 16.5 13.625 C17.44101563 13.81835938 18.38203125 14.01171875 19.3515625 14.2109375 C21.21941406 14.60152344 21.21941406 14.60152344 23.125 15 C24.35476562 15.25523438 25.58453125 15.51046875 26.8515625 15.7734375 C30.15820196 16.54522273 33.30141713 17.49319375 36.5 18.625 C36.8403125 17.2328125 36.8403125 17.2328125 37.1875 15.8125 C38.5 12.625 38.5 12.625 40.75 10.6875 C44.27124312 9.32701971 45.84066173 9.69612429 49.5 10.625 C52.17706135 11.90676817 54.67246012 13.42778912 57.1875 15 C57.85072266 15.39960938 58.51394531 15.79921875 59.19726562 16.2109375 C65.21255608 19.89401564 65.21255608 19.89401564 67.5 22.625 C68.10308568 27.95225688 66.97738745 30.97826004 64.5 35.625 C65.17546875 36.22828125 65.8509375 36.8315625 66.546875 37.453125 C67.43890625 38.25234375 68.3309375 39.0515625 69.25 39.875 C70.13171875 40.66390625 71.0134375 41.4528125 71.921875 42.265625 C74.17866165 44.33092672 76.35739926 46.44235064 78.5 48.625 C79.180625 48.13 79.86125 47.635 80.5625 47.125 C84.27306506 45.23024338 86.38370608 44.96345276 90.5 45.625 C94.22202963 49.584859 97.12866722 53.88756274 99.875 58.5625 C100.24238281 59.14451172 100.60976562 59.72652344 100.98828125 60.32617188 C102.90621952 63.59390444 103.50063309 65.59830007 103.41015625 69.4140625 C102.5 72.625 102.5 72.625 99.5625 75.0625 C96.5 76.625 96.5 76.625 94.5 76.625 C94.77714844 77.56601563 95.05429688 78.50703125 95.33984375 79.4765625 C95.70207031 80.72179687 96.06429687 81.96703125 96.4375 83.25 C96.97697266 85.09464844 96.97697266 85.09464844 97.52734375 86.9765625 C98.38485972 90.19310836 99.01903985 93.33421999 99.5 96.625 C100.716875 96.5425 101.93375 96.46 103.1875 96.375 C106.06176055 96.18013488 107.57427014 96.65857563 110.23046875 97.859375 C113.97086269 102.41737657 113.22166996 107.4214722 113.125 113.125 C113.14433594 114.26582031 113.16367188 115.40664062 113.18359375 116.58203125 C113.13500883 124.85118546 113.13500883 124.85118546 110.23046875 128.390625 C106.27239084 130.17997066 103.79692008 129.91631662 99.5 129.625 C99.30664062 130.56601563 99.11328125 131.50703125 98.9140625 132.4765625 C98.65367187 133.72179687 98.39328125 134.96703125 98.125 136.25 C97.86976563 137.47976562 97.61453125 138.70953125 97.3515625 139.9765625 C96.57977727 143.28320196 95.63180625 146.42641713 94.5 149.625 C95.8921875 149.9653125 95.8921875 149.9653125 97.3125 150.3125 C100.5 151.625 100.5 151.625 102.4375 153.875 C103.79798029 157.39624312 103.42887571 158.96566173 102.5 162.625 C101.21823183 165.30206135 99.69721088 167.79746012 98.125 170.3125 C97.72539062 170.97572266 97.32578125 171.63894531 96.9140625 172.32226562 C93.23098436 178.33755608 93.23098436 178.33755608 90.5 180.625 C85.17274312 181.22808568 82.14673996 180.10238745 77.5 177.625 C76.89671875 178.30046875 76.2934375 178.9759375 75.671875 179.671875 C74.87265625 180.56390625 74.0734375 181.4559375 73.25 182.375 C72.46109375 183.25671875 71.6721875 184.1384375 70.859375 185.046875 C68.79407328 187.30366165 66.68264936 189.48239926 64.5 191.625 C64.995 192.305625 65.49 192.98625 66 193.6875 C67.89475662 197.39806506 68.16154724 199.50870608 67.5 203.625 C63.52495323 207.36692372 59.2044436 210.25745318 54.5 213 C53.90960938 213.36738281 53.31921875 213.73476562 52.7109375 214.11328125 C49.66021886 215.89398706 47.765432 216.6379095 44.20703125 216.46484375 C40.95210202 215.45501722 39.57237818 214.31141616 37.5 211.625 C37.1253063 210.30269386 36.7846968 208.96955815 36.5 207.625 C35.55898437 207.90214844 34.61796875 208.17929688 33.6484375 208.46484375 C32.40320313 208.82707031 31.15796875 209.18929687 29.875 209.5625 C28.03035156 210.10197266 28.03035156 210.10197266 26.1484375 210.65234375 C22.93189164 211.50985972 19.79078001 212.14403985 16.5 212.625 C16.5825 213.841875 16.665 215.05875 16.75 216.3125 C16.94486512 219.18676055 16.46642437 220.69927014 15.265625 223.35546875 C10.70762343 227.09586269 5.7035278 226.34666996 0 226.25 C-1.14082031 226.26933594 -2.28164062 226.28867188 -3.45703125 226.30859375 C-11.72618546 226.26000883 -11.72618546 226.26000883 -15.265625 223.35546875 C-17.05497066 219.39739084 -16.79131662 216.92192008 -16.5 212.625 C-17.44101563 212.43164062 -18.38203125 212.23828125 -19.3515625 212.0390625 C-20.59679687 211.77867187 -21.84203125 211.51828125 -23.125 211.25 C-24.35476562 210.99476563 -25.58453125 210.73953125 -26.8515625 210.4765625 C-30.15820196 209.70477727 -33.30141713 208.75680625 -36.5 207.625 C-36.768125 208.388125 -37.03625 209.15125 -37.3125 209.9375 C-38.49415892 212.61178071 -39.14353655 213.94181182 -41.5 215.625 C-44.47648823 216.63981486 -46.56479578 216.99818353 -49.53369141 215.81347656 C-51.81044087 214.580387 -53.99840834 213.25758421 -56.1875 211.875 C-56.94611328 211.41867188 -57.70472656 210.96234375 -58.48632812 210.4921875 C-65.20901639 206.38618549 -65.20901639 206.38618549 -67.5 203.625 C-68.10308568 198.29774312 -66.97738745 195.27173996 -64.5 190.625 C-65.17546875 190.02171875 -65.8509375 189.4184375 -66.546875 188.796875 C-67.43890625 187.99765625 -68.3309375 187.1984375 -69.25 186.375 C-70.57257813 185.19164062 -70.57257813 185.19164062 -71.921875 183.984375 C-74.17866165 181.91907328 -76.35739926 179.80764936 -78.5 177.625 C-79.180625 178.12 -79.86125 178.615 -80.5625 179.125 C-84.27306506 181.01975662 -86.38370608 181.28654724 -90.5 180.625 C-94.24192372 176.64995323 -97.13245318 172.3294436 -99.875 167.625 C-100.24238281 167.03460938 -100.60976562 166.44421875 -100.98828125 165.8359375 C-102.76898706 162.78521886 -103.5129095 160.890432 -103.33984375 157.33203125 C-102.33001722 154.07710202 -101.18641616 152.69737818 -98.5 150.625 C-97.17769386 150.2503063 -95.84455815 149.9096968 -94.5 149.625 C-94.91572266 148.21347656 -94.91572266 148.21347656 -95.33984375 146.7734375 C-95.88318359 144.90558594 -95.88318359 144.90558594 -96.4375 143 C-96.79714844 141.77023438 -97.15679687 140.54046875 -97.52734375 139.2734375 C-98.38485972 136.05689164 -99.01903985 132.91578001 -99.5 129.625 C-100.716875 129.7075 -101.93375 129.79 -103.1875 129.875 C-106.06176055 130.06986512 -107.57427014 129.59142437 -110.23046875 128.390625 C-113.97086269 123.83262343 -113.22166996 118.8285278 -113.125 113.125 C-113.14433594 111.98417969 -113.16367188 110.84335938 -113.18359375 109.66796875 C-113.13500883 101.39881454 -113.13500883 101.39881454 -110.23046875 97.859375 C-106.27239084 96.07002934 -103.79692008 96.33368338 -99.5 96.625 C-99.30664062 95.68398437 -99.11328125 94.74296875 -98.9140625 93.7734375 C-98.52347656 91.90558594 -98.52347656 91.90558594 -98.125 90 C-97.86976562 88.77023438 -97.61453125 87.54046875 -97.3515625 86.2734375 C-96.57977727 82.96679804 -95.63180625 79.82358287 -94.5 76.625 C-95.428125 76.398125 -96.35625 76.17125 -97.3125 75.9375 C-100.5 74.625 -100.5 74.625 -102.4375 72.375 C-103.79798029 68.85375688 -103.42887571 67.28433827 -102.5 63.625 C-101.21823183 60.94793865 -99.69721088 58.45253988 -98.125 55.9375 C-97.72539063 55.27427734 -97.32578125 54.61105469 -96.9140625 53.92773438 C-93.23098436 47.91244392 -93.23098436 47.91244392 -90.5 45.625 C-85.17274312 45.02191432 -82.14673996 46.14761255 -77.5 48.625 C-76.89671875 47.94953125 -76.2934375 47.2740625 -75.671875 46.578125 C-74.87265625 45.68609375 -74.0734375 44.7940625 -73.25 43.875 C-72.46109375 42.99328125 -71.6721875 42.1115625 -70.859375 41.203125 C-68.79407328 38.94633835 -66.68264936 36.76760074 -64.5 34.625 C-64.995 33.944375 -65.49 33.26375 -66 32.5625 C-67.89475662 28.85193494 -68.16154724 26.74129392 -67.5 22.625 C-65.47961636 20.38012929 -64.00868811 19.20454437 -61.5 17.625 C-60.55640625 17.02171875 -59.6128125 16.4184375 -58.640625 15.796875 C-49.34147542 10.10635063 -49.34147542 10.10635063 -43.5 9.625 C-40.75 10.6875 -40.75 10.6875 -38.5 12.625 C-37.77635959 14.60509823 -37.10301584 16.60489695 -36.5 18.625 C-35.21416016 18.20927734 -35.21416016 18.20927734 -33.90234375 17.78515625 C-22.5456942 14.18739016 -22.5456942 14.18739016 -16.5 13.625 C-16.5825 12.408125 -16.665 11.19125 -16.75 9.9375 C-16.94486512 7.06323945 -16.46642437 5.55072986 -15.265625 2.89453125 C-10.70762343 -0.84586269 -5.7035278 -0.09666996 0 0 Z M-8.5 7.625 C-8.83 11.585 -9.16 15.545 -9.5 19.625 C-10.55058594 19.87894531 -11.60117188 20.13289063 -12.68359375 20.39453125 C-21.77316539 22.57928173 -21.77316539 22.57928173 -30.6875 25.375 C-36.83435369 27.43950304 -36.83435369 27.43950304 -39.5 26.625 C-41.47407082 24.11503183 -43.01881574 21.44870446 -44.5 18.625 C-48.15564909 19.31261019 -51.01867272 20.87949545 -54.25 22.6875 C-55.23484375 23.23535156 -56.2196875 23.78320312 -57.234375 24.34765625 C-57.98203125 24.76917969 -58.7296875 25.19070312 -59.5 25.625 C-58.10116193 29.2012487 -58.10116193 29.2012487 -56.375 32.625 C-55.30623727 35.06788623 -55.3534307 36.98675261 -55.5 39.625 C-56.09167969 39.90085938 -56.68335938 40.17671875 -57.29296875 40.4609375 C-63.7388494 43.86071172 -69.20243204 49.82524263 -73.5 55.625 C-73.5 56.285 -73.5 56.945 -73.5 57.625 C-78.32242341 57.15221339 -81.46011724 56.2797801 -85.5 53.625 C-86.16 53.625 -86.82 53.625 -87.5 53.625 C-89.33041655 56.22608946 -89.33041655 56.22608946 -91.125 59.4375 C-91.75664063 60.51644531 -92.38828125 61.59539063 -93.0390625 62.70703125 C-94.72384617 65.5282168 -94.72384617 65.5282168 -94.5 68.625 C-92.73267901 70.0944809 -92.73267901 70.0944809 -90.5 71.3125 C-89.7575 71.74949219 -89.015 72.18648438 -88.25 72.63671875 C-87.6725 72.96285156 -87.095 73.28898437 -86.5 73.625 C-87.018814 80.11017501 -88.66934756 86.02724813 -90.51171875 92.2578125 C-91.61781993 96.02642601 -92.58360316 99.80667982 -93.5 103.625 C-99.44 104.12 -99.44 104.12 -105.5 104.625 C-105.5 110.235 -105.5 115.845 -105.5 121.625 C-101.54 121.955 -97.58 122.285 -93.5 122.625 C-93.24605469 123.67558594 -92.99210937 124.72617188 -92.73046875 125.80859375 C-90.54571827 134.89816539 -90.54571827 134.89816539 -87.75 143.8125 C-85.68549696 149.95935369 -85.68549696 149.95935369 -86.5 152.625 C-89.00996817 154.59907082 -91.67629554 156.14381574 -94.5 157.625 C-93.81238981 161.28064909 -92.24550455 164.14367272 -90.4375 167.375 C-89.88964844 168.35984375 -89.34179688 169.3446875 -88.77734375 170.359375 C-88.14505859 171.48085938 -88.14505859 171.48085938 -87.5 172.625 C-83.9237513 171.22616193 -83.9237513 171.22616193 -80.5 169.5 C-78.05711377 168.43123727 -76.13824739 168.4784307 -73.5 168.625 C-73.22414062 169.21667969 -72.94828125 169.80835938 -72.6640625 170.41796875 C-69.26428828 176.8638494 -63.29975737 182.32743204 -57.5 186.625 C-56.84 186.625 -56.18 186.625 -55.5 186.625 C-55.97278661 191.44742341 -56.8452199 194.58511724 -59.5 198.625 C-59.5 199.285 -59.5 199.945 -59.5 200.625 C-56.89891054 202.45541655 -56.89891054 202.45541655 -53.6875 204.25 C-52.60855469 204.88164062 -51.52960937 205.51328125 -50.41796875 206.1640625 C-47.5967832 207.84884617 -47.5967832 207.84884617 -44.5 207.625 C-43.0305191 205.85767901 -43.0305191 205.85767901 -41.8125 203.625 C-41.37550781 202.8825 -40.93851562 202.14 -40.48828125 201.375 C-40.16214844 200.7975 -39.83601563 200.22 -39.5 199.625 C-34.70415188 200.21685403 -30.25048105 201.17275796 -25.625 202.5625 C-20.27536545 204.13424092 -14.95875751 205.49560189 -9.5 206.625 C-9.17 210.585 -8.84 214.545 -8.5 218.625 C-2.89 218.625 2.72 218.625 8.5 218.625 C8.83 214.665 9.16 210.705 9.5 206.625 C10.55058594 206.37105469 11.60117188 206.11710938 12.68359375 205.85546875 C21.77316539 203.67071827 21.77316539 203.67071827 30.6875 200.875 C36.83435369 198.81049696 36.83435369 198.81049696 39.5 199.625 C41.47407082 202.13496817 43.01881574 204.80129554 44.5 207.625 C48.15564909 206.93738981 51.01867272 205.37050455 54.25 203.5625 C55.23484375 203.01464844 56.2196875 202.46679688 57.234375 201.90234375 C57.98203125 201.48082031 58.7296875 201.05929688 59.5 200.625 C58.10116193 197.0487513 58.10116193 197.0487513 56.375 193.625 C55.30623727 191.18211377 55.3534307 189.26324739 55.5 186.625 C56.08007812 186.36074219 56.66015625 186.09648437 57.2578125 185.82421875 C63.5759815 182.44498899 69.41646613 176.48734597 73.5 170.625 C73.5 169.965 73.5 169.305 73.5 168.625 C78.32242341 169.09778661 81.46011724 169.9702199 85.5 172.625 C86.16 172.625 86.82 172.625 87.5 172.625 C89.33041655 170.02391054 89.33041655 170.02391054 91.125 166.8125 C91.75664062 165.73355469 92.38828125 164.65460938 93.0390625 163.54296875 C94.72384617 160.7217832 94.72384617 160.7217832 94.5 157.625 C92.73267901 156.1555191 92.73267901 156.1555191 90.5 154.9375 C89.7575 154.50050781 89.015 154.06351563 88.25 153.61328125 C87.6725 153.28714844 87.095 152.96101562 86.5 152.625 C87.09185403 147.82915188 88.04775796 143.37548105 89.4375 138.75 C91.00924092 133.40036545 92.37060189 128.08375751 93.5 122.625 C99.44 122.13 99.44 122.13 105.5 121.625 C105.5 116.015 105.5 110.405 105.5 104.625 C101.54 104.295 97.58 103.965 93.5 103.625 C93.24605469 102.57441406 92.99210938 101.52382812 92.73046875 100.44140625 C90.54571827 91.35183461 90.54571827 91.35183461 87.75 82.4375 C85.68549696 76.29064631 85.68549696 76.29064631 86.5 73.625 C89.00996817 71.65092918 91.67629554 70.10618426 94.5 68.625 C93.81238981 64.96935091 92.24550455 62.10632728 90.4375 58.875 C89.88964844 57.89015625 89.34179688 56.9053125 88.77734375 55.890625 C88.35582031 55.14296875 87.93429688 54.3953125 87.5 53.625 C83.9237513 55.02383807 83.9237513 55.02383807 80.5 56.75 C78.05711377 57.81876273 76.13824739 57.7715693 73.5 57.625 C73.22414062 57.03332031 72.94828125 56.44164062 72.6640625 55.83203125 C69.26428828 49.3861506 63.29975737 43.92256796 57.5 39.625 C56.84 39.625 56.18 39.625 55.5 39.625 C55.97278661 34.80257659 56.8452199 31.66488276 59.5 27.625 C59.5 26.965 59.5 26.305 59.5 25.625 C56.89891054 23.79458345 56.89891054 23.79458345 53.6875 22 C52.06908203 21.05253906 52.06908203 21.05253906 50.41796875 20.0859375 C47.5967832 18.40115383 47.5967832 18.40115383 44.5 18.625 C43.0305191 20.39232099 43.0305191 20.39232099 41.8125 22.625 C41.37550781 23.3675 40.93851563 24.11 40.48828125 24.875 C40.16214844 25.4525 39.83601562 26.03 39.5 26.625 C33.01482499 26.106186 27.09775187 24.45565244 20.8671875 22.61328125 C17.09857399 21.50718007 13.31832018 20.54139684 9.5 19.625 C9.005 13.685 9.005 13.685 8.5 7.625 C2.89 7.625 -2.72 7.625 -8.5 7.625 Z " fill="#010101" transform="translate(112.5,-0.625)"/>
</svg>
