<?xml version="1.0" encoding="UTF-8"?>
<svg version="1.1" xmlns="http://www.w3.org/2000/svg" width="225" height="225">
<path d="M0 0 C1.02996094 0.44730469 2.05992188 0.89460938 3.12109375 1.35546875 C19.79645276 8.48537667 35.96755387 12.90510206 54 15 C55.1454126 15.14248169 55.1454126 15.14248169 56.31396484 15.2878418 C66.12762653 16.35798445 76.01463845 16.28713893 85.875 16.3125 C86.8475473 16.31511841 87.8200946 16.31773682 88.82211304 16.32043457 C117.54114939 16.32869285 146.06811983 13.29346012 172 0 C175.00916719 3.00916719 173.32401114 14.40811896 173.35009766 18.69018555 C173.36662584 20.67956262 173.39387426 22.66888108 173.43212891 24.65795898 C173.48702561 27.52619238 173.50879453 30.39302999 173.5234375 33.26171875 C173.54610687 34.14631271 173.56877625 35.03090668 173.59213257 35.94230652 C173.57749394 40.24236493 173.38330231 43.09373543 170.61572266 46.50317383 C150.89545129 65.32706922 111.1496726 65.22890125 85.75 65.25 C84.64115952 65.25101212 84.64115952 65.25101212 83.50991821 65.25204468 C57.59385891 65.21480346 23.26648266 63.90412724 2 47 C-0.04709949 43.92935076 -0.25930479 43.20887833 -0.3347168 39.72802734 C-0.35781418 38.87058929 -0.38091156 38.01315125 -0.40470886 37.12973022 C-0.41939713 36.20777863 -0.43408539 35.28582703 -0.44921875 34.3359375 C-0.47095657 33.38812408 -0.4926944 32.44031067 -0.51509094 31.46377563 C-0.55899247 29.46162268 -0.59819578 27.45936202 -0.63305664 25.45703125 C-0.68741412 22.37986167 -0.75755871 19.3033522 -0.83007812 16.2265625 C-0.87072305 14.28387343 -0.91046761 12.34116527 -0.94921875 10.3984375 C-0.96997971 9.47243744 -0.99074066 8.54643738 -1.01213074 7.59237671 C-1.02577164 6.74124298 -1.03941254 5.89010925 -1.0534668 5.01318359 C-1.06741989 4.26056244 -1.08137299 3.50794128 -1.0957489 2.73251343 C-1 1 -1 1 0 0 Z " fill="#0B976A" transform="translate(26,101)"/>
<path d="M0 0 C2.51824697 0.99011865 5.01152718 2.00517362 7.48046875 3.11328125 C32.27647418 14.09794744 59.18773504 16.22690405 86 16.1875 C86.7645752 16.18689575 87.52915039 16.1862915 88.31689453 16.18566895 C115.38361648 16.12785817 144.94114269 14.26970953 169.1796875 0.91796875 C171 0 171 0 173 0 C173.19841251 5.99549184 173.34323103 11.98905652 173.43945312 17.98706055 C173.47957765 20.02515973 173.53409345 22.06303014 173.60351562 24.1003418 C173.70106296 27.03752088 173.74603371 29.97164781 173.78125 32.91015625 C173.82254028 33.81459976 173.86383057 34.71904327 173.90637207 35.65089417 C173.90912973 39.57740959 173.80365926 42.01973531 171.25901794 45.12356567 C167.82636974 48.17239049 164.22641782 50.78548493 160.0625 52.75 C159.31097656 53.11609375 158.55945313 53.4821875 157.78515625 53.859375 C149.91034837 57.08440151 141.9658198 58.99310047 133.625 60.625 C132.56539062 60.8415625 131.50578125 61.058125 130.4140625 61.28125 C129.3621875 61.49007812 128.3103125 61.69890625 127.2265625 61.9140625 C126.29408691 62.0992041 125.36161133 62.2843457 124.40087891 62.47509766 C115.91765148 63.78442565 107.4404622 64.17048231 98.8671875 64.23828125 C97.32612083 64.25290405 97.32612083 64.25290405 95.75392151 64.26782227 C53.33040878 64.58821583 53.33040878 64.58821583 35 60 C34.20561523 59.81276367 33.41123047 59.62552734 32.59277344 59.43261719 C22.32496018 56.96271113 13.24823697 53.08579751 4 48 C4 47.34 4 46.68 4 46 C3.01 45.67 2.02 45.34 1 45 C-0.64600199 41.70799602 -0.26492786 38.03755301 -0.3515625 34.4140625 C-0.37471527 33.56073334 -0.39786804 32.70740417 -0.42172241 31.82821655 C-0.4693835 30.02095514 -0.51461493 28.21362827 -0.55761719 26.40625 C-0.62456458 23.64297197 -0.70239275 20.88014825 -0.78125 18.1171875 C-0.82618095 16.36199594 -0.87047277 14.60678788 -0.9140625 12.8515625 C-0.93796051 12.02540436 -0.96185852 11.19924622 -0.98648071 10.34805298 C-1.0033493 9.57400116 -1.0202179 8.79994934 -1.03759766 8.00244141 C-1.05456696 7.32452545 -1.07153625 6.6466095 -1.08901978 5.94815063 C-0.99324053 3.85207264 -0.57277152 2.01399068 0 0 Z " fill="#0B976A" transform="translate(26,161)"/>
<path d="M0 0 C4.79560247 1.89346666 9.52403819 3.93431074 14.2578125 5.9765625 C16.98061381 7.17483023 16.98061381 7.17483023 20 7 C20 7.66 20 8.32 20 9 C21.41732422 9.18755859 21.41732422 9.18755859 22.86328125 9.37890625 C26.74022759 9.93192266 30.57255674 10.66661847 34.41699219 11.40917969 C76.14854667 19.36715324 130.8069117 22.05551474 169.1796875 0.91796875 C171 0 171 0 173 0 C173.09899561 6.03225939 173.17152907 12.06404427 173.21972656 18.09692383 C173.23982199 20.14843993 173.26710324 22.19989889 173.30175781 24.2512207 C173.35036669 27.20278025 173.37298952 30.15358148 173.390625 33.10546875 C173.41127014 34.02023483 173.43191528 34.93500092 173.45318604 35.87748718 C173.45464396 40.02998577 173.38109155 42.3677239 171.19946289 45.98730469 C169.28104669 47.74281842 167.74780339 48.98897632 165.41796875 50.09765625 C164.7420166 50.42217773 164.06606445 50.74669922 163.36962891 51.08105469 C162.64952637 51.40493164 161.92942383 51.72880859 161.1875 52.0625 C160.42614746 52.40829102 159.66479492 52.75408203 158.88037109 53.11035156 C151.74808186 56.25550846 144.64635225 58.47105906 137 60 C136.17097168 60.18046875 135.34194336 60.3609375 134.48779297 60.546875 C93.90634993 69.10403058 43.9733124 68.26732774 6.34765625 49.58984375 C3.41192998 47.60175625 1.90713869 46.02471802 0 43 C-0.61272697 39.7903072 -0.62853037 36.62045494 -0.64453125 33.359375 C-0.66343918 32.43658752 -0.68234711 31.51380005 -0.701828 30.56304932 C-0.7382392 28.61998075 -0.76541699 26.6767199 -0.78393555 24.73339844 C-0.8125372 21.74611487 -0.86761557 18.76023791 -0.92773438 15.7734375 C-0.95986131 13.88544205 -0.99051225 11.99742078 -1.01953125 10.109375 C-1.0340181 9.21152283 -1.04850494 8.31367065 -1.06343079 7.38861084 C-1.08198636 5.25904977 -1.04663989 3.12913113 -1 1 C-0.67 0.67 -0.34 0.34 0 0 Z " fill="#0B976A" transform="translate(26,42)"/>
<path d="M0 0 C0.74926758 0.14453613 1.49853516 0.28907227 2.27050781 0.43798828 C14.53080003 2.88841853 28.74134543 6.97549558 37.9375 15.875 C39 18 39 18 39.1875 20.875 C37.42486712 25.51350759 34.093742 27.40874841 30 30 C28.91912109 30.73669922 28.91912109 30.73669922 27.81640625 31.48828125 C23.92825248 33.57526531 19.91182951 34.76228306 15.6875 36 C14.79667725 36.26200195 13.90585449 36.52400391 12.98803711 36.79394531 C5.06389564 39.0699305 -2.82443739 40.86482105 -11 42 C-11.73637695 42.10296387 -12.47275391 42.20592773 -13.23144531 42.31201172 C-47.78895899 46.87879797 -97.35788242 48.45525341 -128.00390625 28.55859375 C-130.86421417 26.32520264 -132.89383719 23.94862793 -135 21 C-132.75576956 14.71615476 -128.62738311 12.08125118 -123 9 C-86.84680926 -7.30028253 -38.4657068 -7.72446791 0 0 Z " fill="#02B67E" transform="translate(160,3)"/>
<path d="M0 0 C0.99 0.495 0.99 0.495 2 1 C2.12389553 6.87150428 2.21447924 12.74224243 2.2746582 18.61474609 C2.29975272 20.61097473 2.33383626 22.60711193 2.37719727 24.60302734 C2.43807246 27.47776888 2.46626024 30.35129248 2.48828125 33.2265625 C2.51408768 34.11429352 2.5398941 35.00202454 2.56648254 35.91665649 C2.56841956 40.2272082 2.39350661 43.08621197 -0.38208008 46.50537109 C-20.59530609 65.76665463 -60.81583721 65.20840947 -86.8125 65.0625 C-88.3912746 65.05746947 -89.97005078 65.05290934 -91.54882812 65.04882812 C-95.3659252 65.03795816 -99.18294455 65.02078136 -103 65 C-103 64.67 -103 64.34 -103 64 C-102.35450195 63.97494385 -101.70900391 63.9498877 -101.04394531 63.92407227 C-98.11244106 63.80785567 -95.18123783 63.68524558 -92.25 63.5625 C-91.23421875 63.52318359 -90.2184375 63.48386719 -89.171875 63.44335938 C-88.1921875 63.40146484 -87.2125 63.35957031 -86.203125 63.31640625 C-85.30239258 63.27974854 -84.40166016 63.24309082 -83.47363281 63.20532227 C-81.19592971 63.01626302 -79.20672422 62.55958237 -77 62 C-74.66699067 61.96111651 -72.33290199 61.9551365 -70 62 C-69.505 61.01 -69.505 61.01 -69 60 C-69 60.66 -69 61.32 -69 62 C-67.08302063 61.85833643 -65.16642277 61.71150416 -63.25 61.5625 C-62.18265625 61.48128906 -61.1153125 61.40007812 -60.015625 61.31640625 C-57.16216505 61.09394287 -57.16216505 61.09394287 -55.09375 60.5 C-51.85511174 59.72659385 -48.5636037 59.62854898 -45.25 59.4375 C-44.55261719 59.39431641 -43.85523438 59.35113281 -43.13671875 59.30664062 C-41.42468078 59.20110404 -39.71236439 59.1001009 -38 59 C-37.67 57.35 -37.34 55.7 -37 54 C-36.34 54 -35.68 54 -35 54 C-35 53.34 -35 52.68 -35 52 C-33.68 52 -32.36 52 -31 52 C-31 52.66 -31 53.32 -31 54 C-29.02 54.66 -27.04 55.32 -25 56 C-25 54.35 -25 52.7 -25 51 C-21.37 51 -17.74 51 -14 51 C-13.67 48.36 -13.34 45.72 -13 43 C-12.28972656 42.95101562 -11.57945312 42.90203125 -10.84765625 42.8515625 C-9.92855469 42.77679688 -9.00945312 42.70203125 -8.0625 42.625 C-6.68771484 42.52058594 -6.68771484 42.52058594 -5.28515625 42.4140625 C-4.15400391 42.20910156 -4.15400391 42.20910156 -3 42 C-2.505 41.01 -2.505 41.01 -2 40 C-1.34 40 -0.68 40 0 40 C0 29.77 0 19.54 0 9 C-2.33075929 9.95865509 -2.33075929 9.95865509 -4 13 C-4.495 12.01 -4.495 12.01 -5 11 C-10.76071671 9.77431559 -14.38025929 10.16081213 -20 12 C-20.33 12.66 -20.66 13.32 -21 14 C-21.66 14 -22.32 14 -23 14 C-22.01 15.98 -22.01 15.98 -21 18 C-22.32 18.33 -23.64 18.66 -25 19 C-25 18.34 -25 17.68 -25 17 C-25.928125 17.2784375 -25.928125 17.2784375 -26.875 17.5625 C-29 18 -29 18 -31 17 C-31.33 17.66 -31.66 18.32 -32 19 C-34.31 19 -36.62 19 -39 19 C-39 18.34 -39 17.68 -39 17 C-39.66 17 -40.32 17 -41 17 C-41 17.66 -41 18.32 -41 19 C-41.54785156 18.91621094 -42.09570312 18.83242187 -42.66015625 18.74609375 C-47.70220387 18.09841609 -52.3739815 18.0380855 -57.4375 18.5 C-69.27225195 19.46585269 -81.15905183 18.56901582 -93 18 C-93 17.67 -93 17.34 -93 17 C-91.81917847 16.98598145 -91.81917847 16.98598145 -90.61450195 16.97167969 C-44.64305148 16.71019032 -44.64305148 16.71019032 -2.2578125 1.28515625 C-1.51273437 0.86105469 -0.76765625 0.43695313 0 0 Z " fill="#167559" transform="translate(197,101)"/>
<path d="M0 0 C1.00023193 0.00523682 2.00046387 0.01047363 3.03100586 0.01586914 C4.1105957 0.0190918 5.19018555 0.02231445 6.30249023 0.02563477 C8.00695312 0.03820312 8.00695312 0.03820312 9.74584961 0.05102539 C11.45611328 0.05779297 11.45611328 0.05779297 13.20092773 0.06469727 C16.02845312 0.07652792 18.85587601 0.09301129 21.68334961 0.11352539 C24.07089756 4.40846087 24.22827334 8.22301875 24.49584961 13.05102539 C24.5596582 13.84959961 24.6234668 14.64817383 24.68920898 15.47094727 C24.7349707 16.24889648 24.78073242 17.0268457 24.82788086 17.82836914 C24.89519409 18.88205688 24.89519409 18.88205688 24.96386719 19.95703125 C24.56816636 22.99900288 23.60345306 24.7312605 21.68334961 27.11352539 C19.23144531 27.68115234 19.23144531 27.68115234 16.35913086 27.60180664 C14.81708984 27.57763672 14.81708984 27.57763672 13.24389648 27.55297852 C12.17204102 27.51108398 11.10018555 27.46918945 9.99584961 27.42602539 C8.91239258 27.4034668 7.82893555 27.3809082 6.71264648 27.35766602 C4.03483056 27.29868329 1.35977934 27.21642846 -1.31665039 27.11352539 C-1.31665039 26.45352539 -1.31665039 25.79352539 -1.31665039 25.11352539 C-1.97665039 25.11352539 -2.63665039 25.11352539 -3.31665039 25.11352539 C-3.34552023 21.1343738 -3.36340445 17.15524886 -3.37915039 13.17602539 C-3.3875293 12.0397168 -3.3959082 10.9034082 -3.40454102 9.73266602 C-3.40776367 8.65307617 -3.41098633 7.57348633 -3.41430664 6.46118164 C-3.41954346 5.46094971 -3.42478027 4.46071777 -3.43017578 3.43017578 C-3.27687502 0.30185115 -3.12832463 0.15330076 0 0 Z " fill="#02B57D" transform="translate(102.316650390625,68.886474609375)"/>
<path d="M0 0 C2.71343263 4.38323733 2.43872943 9.49879005 2.5 14.5 C2.54125 15.34175781 2.5825 16.18351562 2.625 17.05078125 C2.70154532 23.12656608 2.70154532 23.12656608 0.62890625 25.70703125 C-1.03125 27.09375 -1.03125 27.09375 -4 29 C-4 28.34 -4 27.68 -4 27 C-5.18078125 27.02320313 -6.3615625 27.04640625 -7.578125 27.0703125 C-9.13541033 27.08907497 -10.69270252 27.10727466 -12.25 27.125 C-13.02730469 27.14175781 -13.80460937 27.15851563 -14.60546875 27.17578125 C-15.35957031 27.18222656 -16.11367187 27.18867188 -16.890625 27.1953125 C-17.58188477 27.20578613 -18.27314453 27.21625977 -18.98535156 27.22705078 C-21 27 -21 27 -25 25 C-25 17.41 -25 9.82 -25 2 C-20.39244195 0.15697678 -16.77723931 -0.44351681 -11.9375 -0.6875 C-11.23044922 -0.73455078 -10.52339844 -0.78160156 -9.79492188 -0.83007812 C-2.44882819 -1.2508403 -2.44882819 -1.2508403 0 0 Z " fill="#137A57" transform="translate(124,129)"/>
<path d="M0 0 C0.98291016 0.00966797 1.96582031 0.01933594 2.97851562 0.02929688 C4.00267578 0.05443359 5.02683594 0.07957031 6.08203125 0.10546875 C7.11779297 0.11900391 8.15355469 0.13253906 9.22070312 0.14648438 C11.77916824 0.18185486 14.33658905 0.23121331 16.89453125 0.29296875 C19.53731988 4.90565644 19.26214129 9.15663058 19.26953125 14.35546875 C19.29402344 15.26619141 19.31851563 16.17691406 19.34375 17.11523438 C19.37241003 23.59717725 19.37241003 23.59717725 17.4296875 26.42578125 C13.5513324 27.75242968 10.00295394 27.42719272 5.95703125 27.10546875 C5.15845703 27.06099609 4.35988281 27.01652344 3.53710938 26.97070312 C-0.70624114 26.68593809 -4.2296817 26.19562785 -8.10546875 24.29296875 C-8.19250698 20.85562812 -8.24587147 17.41857038 -8.29296875 13.98046875 C-8.31810547 13.00400391 -8.34324219 12.02753906 -8.36914062 11.02148438 C-8.37880859 10.08369141 -8.38847656 9.14589844 -8.3984375 8.1796875 C-8.41414795 7.31561279 -8.4298584 6.45153809 -8.44604492 5.5612793 C-8.10546875 3.29296875 -8.10546875 3.29296875 -6.90625 1.50585938 C-4.48899816 -0.12224626 -2.90024127 -0.0502932 0 0 Z " fill="#02B67D" transform="translate(107.10546875,188.70703125)"/>
<path d="M0 0 C4.79560247 1.89346666 9.52403819 3.93431074 14.2578125 5.9765625 C16.98061381 7.17483023 16.98061381 7.17483023 20 7 C20 7.66 20 8.32 20 9 C21.41732422 9.18755859 21.41732422 9.18755859 22.86328125 9.37890625 C26.74028474 9.93193081 30.57266793 10.6667754 34.41723633 11.40893555 C56.89652563 15.69796889 79.18246289 16.49467824 102 17 C102 17.33 102 17.66 102 18 C96.44540145 18.77371259 91.0180433 19.17842886 85.4140625 19.28125 C83.80859344 19.31899708 82.2031247 19.35675788 80.59765625 19.39453125 C78.09589107 19.4483911 75.59409774 19.50063747 73.09228516 19.55224609 C70.65777255 19.60386288 68.2234383 19.66109132 65.7890625 19.71875 C64.66100693 19.73911316 64.66100693 19.73911316 63.51016235 19.7598877 C59.62685105 19.78476719 59.62685105 19.78476719 56 21 C53.7927077 21.07092842 51.58332548 21.08415025 49.375 21.0625 C48.18648437 21.05347656 46.99796875 21.04445313 45.7734375 21.03515625 C44.85820313 21.02355469 43.94296875 21.01195313 43 21 C42.505 19.515 42.505 19.515 42 18 C39.98491642 17.26676204 39.98491642 17.26676204 38 17 C38 16.34 38 15.68 38 15 C37.10796875 14.93941406 36.2159375 14.87882812 35.296875 14.81640625 C34.12640625 14.73261719 32.9559375 14.64882813 31.75 14.5625 C30.58984375 14.48128906 29.4296875 14.40007813 28.234375 14.31640625 C25 14 25 14 22.640625 13.40234375 C22.09921875 13.26957031 21.5578125 13.13679688 21 13 C20.67 13.33 20.34 13.66 20 14 C19.01 14 18.02 14 17 14 C17 13.34 17 12.68 17 12 C16.37351562 12.16757812 15.74703125 12.33515625 15.1015625 12.5078125 C14.28429688 12.71148437 13.46703125 12.91515625 12.625 13.125 C11.40683594 13.43824219 11.40683594 13.43824219 10.1640625 13.7578125 C9.44992188 13.83773437 8.73578125 13.91765625 8 14 C7.34 13.34 6.68 12.68 6 12 C6 11.01 6 10.02 6 9 C6.99 9 7.98 9 9 9 C9 9.99 9 10.98 9 12 C9.66 12 10.32 12 11 12 C10.67 10.68 10.34 9.36 10 8 C8.68 8 7.36 8 6 8 C6 7.34 6 6.68 6 6 C5.01 6.33 4.02 6.66 3 7 C1.77600548 13.64041122 1.88772247 20.20221697 1.9375 26.9375 C1.94201172 28.09830078 1.94652344 29.25910156 1.95117188 30.45507812 C1.96289353 33.30343934 1.9793024 36.15169222 2 39 C3.98 38.505 3.98 38.505 6 38 C5.938125 39.11375 5.87625 40.2275 5.8125 41.375 C5.874375 42.57125 5.93625 43.7675 6 45 C6.99 45.66 7.98 46.32 9 47 C10.175625 46.7525 10.175625 46.7525 11.375 46.5 C14.59842054 45.88601513 16.05591299 46.68290844 19 48 C19.99 48 20.98 48 22 48 C22 49.65 22 51.3 22 53 C26.05924083 53.98405838 29.83223959 54.07718075 34 54 C35.66666667 54 37.33333333 54 39 54 C39.33 54.99 39.66 55.98 40 57 C41.98 56.505 41.98 56.505 44 56 C44 56.99 44 57.98 44 59 C44.66 59.66 45.32 60.32 46 61 C32.24424982 60.9381764 12.11556099 55.69322825 1.89355469 46.00317383 C-0.76407242 41.78818272 -0.62052781 38.25142632 -0.64453125 33.359375 C-0.66343918 32.43658752 -0.68234711 31.51380005 -0.701828 30.56304932 C-0.7382392 28.61998075 -0.76541699 26.6767199 -0.78393555 24.73339844 C-0.8125372 21.74611487 -0.86761557 18.76023791 -0.92773438 15.7734375 C-0.95986131 13.88544205 -0.99051225 11.99742078 -1.01953125 10.109375 C-1.0340181 9.21152283 -1.04850494 8.31367065 -1.06343079 7.38861084 C-1.08198636 5.25904977 -1.04663989 3.12913113 -1 1 C-0.67 0.67 -0.34 0.34 0 0 Z " fill="#1A6F54" transform="translate(26,42)"/>
<path d="M0 0 C2.51824697 0.99011865 5.01152718 2.00517362 7.48046875 3.11328125 C26.92567066 11.72753376 47.87844282 14.9858855 69 16 C65.72872414 18.18085057 64.72623277 18.24887859 60.9375 18.1875 C60.05964844 18.18105469 59.18179688 18.17460937 58.27734375 18.16796875 C56 18 56 18 54 17 C50.33777909 16.55800782 46.67591773 16.18573356 43.00390625 15.83789062 C39.09402286 15.43912142 35.39799647 14.90577404 31.6015625 13.87109375 C28.07360118 12.68080603 28.07360118 12.68080603 25 14 C24.01 14 23.02 14 22 14 C21.175 14.165 20.35 14.33 19.5 14.5 C17 15 17 15 14 15 C14.33 13.35 14.66 11.7 15 10 C10.60746227 8.43727811 10.60746227 8.43727811 6 8 C6 7.34 6 6.68 6 6 C5.01 6.66 4.02 7.32 3 8 C2.73272986 10.48340903 2.65133666 12.71472068 2.70703125 15.1953125 C2.71127609 15.90275604 2.71552094 16.61019958 2.71989441 17.33908081 C2.73670453 19.60143905 2.77435872 21.86291048 2.8125 24.125 C2.82754393 25.65753923 2.84123284 27.1900924 2.85351562 28.72265625 C2.88661538 32.48211318 2.93841175 36.24090618 3 40 C3.99 40 4.98 40 6 40 C5.67 41.98 5.34 43.96 5 46 C9.13050921 47.73916177 10.98384089 48.1847562 15.4375 47.375 C19 47 19 47 22 49 C22 49.66 22 50.32 22 51 C22.33 51.99 22.66 52.98 23 54 C28.29624375 54.75454486 28.29624375 54.75454486 33.625 54.9375 C36.67373057 55.01772975 39.15788809 55.94246999 42 57 C42 57.66 42 58.32 42 59 C45.96 59.66 49.92 60.32 54 61 C54 61.33 54 61.66 54 62 C36.89169608 62.34027566 18.45213973 57.30536632 4 48 C4 47.34 4 46.68 4 46 C3.01 45.67 2.02 45.34 1 45 C-0.64600199 41.70799602 -0.26492786 38.03755301 -0.3515625 34.4140625 C-0.37471527 33.56073334 -0.39786804 32.70740417 -0.42172241 31.82821655 C-0.4693835 30.02095514 -0.51461493 28.21362827 -0.55761719 26.40625 C-0.62456458 23.64297197 -0.70239275 20.88014825 -0.78125 18.1171875 C-0.82618095 16.36199594 -0.87047277 14.60678788 -0.9140625 12.8515625 C-0.93796051 12.02540436 -0.96185852 11.19924622 -0.98648071 10.34805298 C-1.0033493 9.57400116 -1.0202179 8.79994934 -1.03759766 8.00244141 C-1.05456696 7.32452545 -1.07153625 6.6466095 -1.08901978 5.94815063 C-0.99324053 3.85207264 -0.57277152 2.01399068 0 0 Z " fill="#1D6D54" transform="translate(26,161)"/>
<path d="M0 0 C0.09899561 6.03225939 0.17152907 12.06404427 0.21972656 18.09692383 C0.23982199 20.14843993 0.26710324 22.19989889 0.30175781 24.2512207 C0.35036669 27.20278025 0.37298952 30.15358148 0.390625 33.10546875 C0.41127014 34.02023483 0.43191528 34.93500092 0.45318604 35.87748718 C0.45464112 40.02188118 0.37865949 42.36836704 -1.78955078 45.98510742 C-3.76846931 47.78895264 -5.34456929 49.01819773 -7.7578125 50.1328125 C-8.46107666 50.4628125 -9.16434082 50.7928125 -9.88891602 51.1328125 C-10.99577759 51.62394531 -10.99577759 51.62394531 -12.125 52.125 C-12.88546631 52.47046875 -13.64593262 52.8159375 -14.42944336 53.171875 C-22.60895628 56.82230811 -29.93507217 59.64749485 -39 59 C-39.66 58.67 -40.32 58.34 -41 58 C-41 57.34 -41 56.68 -41 56 C-37.32589215 54.82428549 -33.83070817 54.92633254 -30 55 C-30 54.67 -30 54.34 -30 54 C-27.69 54 -25.38 54 -23 54 C-23 52.02 -23 50.04 -23 48 C-22.01 48 -21.02 48 -20 48 C-19.67 47.34 -19.34 46.68 -19 46 C-18.38125 46.185625 -17.7625 46.37125 -17.125 46.5625 C-14.95839822 47.23686176 -14.95839822 47.23686176 -13 46 C-13 46.66 -13 47.32 -13 48 C-12.34 48 -11.68 48 -11 48 C-10.67 47.34 -10.34 46.68 -10 46 C-9.01 46 -8.02 46 -7 46 C-7 43.36 -7 40.72 -7 38 C-5.35 38 -3.7 38 -2 38 C-2.495 34.535 -2.495 34.535 -3 31 C-3.33 31 -3.66 31 -4 31 C-4.66 23.08 -5.32 15.16 -6 7 C-7.65 8.98 -9.3 10.96 -11 13 C-11.99 13.33 -12.98 13.66 -14 14 C-14 13.01 -14 12.02 -14 11 C-14.5775 11.495 -15.155 11.99 -15.75 12.5 C-19.82453929 15.21635952 -24.39123989 13.70904002 -29 13 C-26.41741077 10.41741077 -24.27124388 10.27012534 -20.77734375 9.5625 C-20.19082031 9.376875 -19.60429687 9.19125 -19 9 C-18.67 8.34 -18.34 7.68 -18 7 C-16.0926842 6.09972386 -14.14804129 5.27757865 -12.1875 4.5 C-7.90401749 2.8019989 -7.90401749 2.8019989 -3.73828125 0.84375 C-2 0 -2 0 0 0 Z " fill="#1F9F78" transform="translate(199,42)"/>
<path d="M0 0 C9.74796724 0.44032874 19.31456196 1.49063162 28.96923828 2.89575195 C41.03094281 4.63633242 53.01837152 5.24021738 65.1875 5.5625 C66.72722239 5.60580621 68.26693606 5.64942381 69.80664062 5.69335938 C73.53766684 5.79915736 77.26879289 5.90076068 81 6 C81 6.33 81 6.66 81 7 C75.44540145 7.77371259 70.0180433 8.17842886 64.4140625 8.28125 C62.80859344 8.31899708 61.2031247 8.35675788 59.59765625 8.39453125 C57.09589107 8.4483911 54.59409774 8.50063747 52.09228516 8.55224609 C49.65777255 8.60386288 47.2234383 8.66109132 44.7890625 8.71875 C44.03702545 8.73232544 43.2849884 8.74590088 42.51016235 8.7598877 C38.62685105 8.78476719 38.62685105 8.78476719 35 10 C32.7927077 10.07092842 30.58332548 10.08415025 28.375 10.0625 C27.18648437 10.05347656 25.99796875 10.04445313 24.7734375 10.03515625 C23.85820313 10.02355469 22.94296875 10.01195312 22 10 C21.67 9.01 21.34 8.02 21 7 C18.98491642 6.26676204 18.98491642 6.26676204 17 6 C17 5.34 17 4.68 17 4 C16.10796875 3.93941406 15.2159375 3.87882812 14.296875 3.81640625 C13.12640625 3.73261719 11.9559375 3.64882813 10.75 3.5625 C9.58984375 3.48128906 8.4296875 3.40007813 7.234375 3.31640625 C4.69022624 3.06752213 2.44046752 2.71885058 0 2 C0 1.34 0 0.68 0 0 Z " fill="#167C5C" transform="translate(47,53)"/>
<path d="M0 0 C0.66 0.33 1.32 0.66 2 1 C2.07409532 6.92648574 2.12857616 12.85270253 2.16479492 18.77954102 C2.17989179 20.79619034 2.20037115 22.81280679 2.22631836 24.8293457 C2.26266211 27.72615671 2.2797172 30.62253406 2.29296875 33.51953125 C2.30845261 34.42274612 2.32393646 35.325961 2.33988953 36.25654602 C2.34011612 37.09719101 2.34034271 37.937836 2.34057617 38.80395508 C2.34723801 39.54341873 2.35389984 40.28288239 2.36076355 41.04475403 C2 43 2 43 -1 46 C-0.67 33.79 -0.34 21.58 0 9 C-2.33075929 9.95865509 -2.33075929 9.95865509 -4 13 C-4.33 12.34 -4.66 11.68 -5 11 C-10.68296361 9.79085881 -14.3873044 10.30640148 -19.90625 11.7578125 C-20.94265625 11.87769531 -20.94265625 11.87769531 -22 12 C-22.66 11.34 -23.32 10.68 -24 10 C-22.85402344 9.61328125 -21.70804688 9.2265625 -20.52734375 8.828125 C-18.99726814 8.30245485 -17.46732735 7.77639221 -15.9375 7.25 C-14.80924805 6.87101562 -14.80924805 6.87101562 -13.65820312 6.484375 C-9.89635709 5.18157118 -6.4825722 3.79275448 -3.06640625 1.734375 C-1.54853516 0.87585938 -1.54853516 0.87585938 0 0 Z " fill="#185E48" transform="translate(197,101)"/>
<path d="M0 0 C5.94 0.99 5.94 0.99 12 2 C12 2.66 12 3.32 12 4 C18.76363972 4.71758706 25.52548482 5.27055088 32.3125 5.71875 C35 6 35 6 37 7 C38.54626964 7.09498893 40.09656811 7.12794614 41.64575195 7.12939453 C42.61047928 7.13254669 43.5752066 7.13569885 44.56916809 7.13894653 C45.61497543 7.1369223 46.66078278 7.13489807 47.73828125 7.1328125 C49.34765816 7.13424759 49.34765816 7.13424759 50.98954773 7.13571167 C53.26345885 7.13639321 55.5373719 7.13454075 57.8112793 7.13037109 C61.28764241 7.12503813 64.76387539 7.1303089 68.24023438 7.13671875 C70.44791695 7.13605766 72.65559945 7.13477585 74.86328125 7.1328125 C76.42288322 7.13584885 76.42288322 7.13584885 78.01399231 7.13894653 C78.98817612 7.13579437 79.96235992 7.13264221 80.96606445 7.12939453 C82.24608086 7.12820114 82.24608086 7.12820114 83.55195618 7.12698364 C86.11951695 6.99380048 88.48495713 6.51736702 91 6 C93.61481958 5.93225856 96.19979256 5.90499742 98.8125 5.9375 C99.50537109 5.94201172 100.19824219 5.94652344 100.91210938 5.95117188 C102.60811068 5.96286844 104.30406703 5.98080076 106 6 C106 6.33 106 6.66 106 7 C70.32501878 11.72705025 33.79643326 12.39253473 -1 2 C-0.67 1.34 -0.34 0.68 0 0 Z " fill="#249C79" transform="translate(50,37)"/>
<path d="M0 0 C0.0247366 5.33853824 0.0428774 10.67704303 0.05493164 16.015625 C0.05995741 17.83138612 0.06677903 19.6471432 0.07543945 21.46289062 C0.08758189 24.0742289 0.09324591 26.68551362 0.09765625 29.296875 C0.10281754 30.10743347 0.10797882 30.91799194 0.11329651 31.75311279 C0.11365296 35.3420417 -0.02954053 38.54740786 -1 42 C-2.9375 41.1875 -2.9375 41.1875 -5 40 C-6.30150824 36.09547529 -5.61429966 32.79848139 -5.0625 28.8125 C-3.61521769 19.26048593 -3.61521769 19.26048593 -4.5625 9.75 C-5.11110164 7.55559342 -4.68325879 6.12569402 -4 4 C-4.99 3.67 -5.98 3.34 -7 3 C-3.375 0 -3.375 0 0 0 Z " fill="#05B57D" transform="translate(198,164)"/>
<path d="M0 0 C0 0.99 0 1.98 0 3 C0.33 3.99 0.66 4.98 1 6 C6.29624375 6.75454486 6.29624375 6.75454486 11.625 6.9375 C14.67373057 7.01772975 17.15788809 7.94246999 20 9 C20 9.66 20 10.32 20 11 C25.94 11.99 25.94 11.99 32 13 C32 13.33 32 13.66 32 14 C20.4233237 14.23025434 9.50292385 11.75282828 -1.4375 8.125 C-2.17734131 7.89280762 -2.91718262 7.66061523 -3.67944336 7.42138672 C-5.74609375 6.6953125 -5.74609375 6.6953125 -9 5 C-9.97265625 2.3046875 -9.97265625 2.3046875 -10 0 C-6.7169902 -1.6415049 -3.57454967 -0.51888624 0 0 Z " fill="#1A7256" transform="translate(48,209)"/>
<path d="M0 0 C0.99 0.66 1.98 1.32 3 2 C3 4.625 3 4.625 2 8 C-0.43050586 10.36803958 -3.13884698 12.18895102 -6 14 C-6.7115625 14.48855469 -7.423125 14.97710937 -8.15625 15.48046875 C-12.18520718 17.63330438 -16.37931726 18.83836411 -20.75 20.125 C-21.6059375 20.38925781 -22.461875 20.65351562 -23.34375 20.92578125 C-28.91524165 22.58878709 -34.20479958 23.51902183 -40 24 C-40 23.34 -40 22.68 -40 22 C-39.35973877 21.86424561 -38.71947754 21.72849121 -38.05981445 21.58862305 C-35.14192946 20.96436209 -32.22728307 20.32608085 -29.3125 19.6875 C-28.30509766 19.47416016 -27.29769531 19.26082031 -26.25976562 19.04101562 C-19.20123032 17.55175945 -19.20123032 17.55175945 -13 14 C-12.67 13.34 -12.34 12.68 -12 12 C-11.01 12 -10.02 12 -9 12 C-9 11.34 -9 10.68 -9 10 C-7.02 9.01 -5.04 8.02 -3 7 C-3 7.66 -3 8.32 -3 9 C-2.34 9 -1.68 9 -1 9 C-0.67 6.03 -0.34 3.06 0 0 Z " fill="#12B57F" transform="translate(196,19)"/>
<path d="M0 0 C-0.33 0.99 -0.66 1.98 -1 3 C-1.97582031 3.06058594 -2.95164063 3.12117187 -3.95703125 3.18359375 C-5.22933594 3.26738281 -6.50164062 3.35117187 -7.8125 3.4375 C-9.07707031 3.51871094 -10.34164062 3.59992188 -11.64453125 3.68359375 C-14.99181893 3.87184547 -14.99181893 3.87184547 -18 5 C-21.49363657 5.39865148 -24.98593923 5.76249197 -28.48828125 6.07421875 C-33.52327559 6.59814232 -37.48406471 7.67183647 -42 10 C-42.33 10.66 -42.66 11.32 -43 12 C-45.64 11.67 -48.28 11.34 -51 11 C-51 11.66 -51 12.32 -51 13 C-51.99 13 -52.98 13 -54 13 C-54.33 13.99 -54.66 14.98 -55 16 C-56.65 16 -58.3 16 -60 16 C-47.55477368 2.24474986 -17.15216113 0 0 0 Z " fill="#24A57D" transform="translate(92,0)"/>
<path d="M0 0 C0.84827362 0.02220612 1.69654724 0.04441223 2.57052612 0.06729126 C3.53137115 0.08746307 4.49221619 0.10763489 5.48217773 0.12841797 C6.52179657 0.16061432 7.56141541 0.19281067 8.63253784 0.22598267 C10.22640823 0.26352158 10.22640823 0.26352158 11.85247803 0.30181885 C15.25604387 0.38418158 18.65904347 0.48070861 22.06222534 0.57754517 C24.36558741 0.63576805 26.66897291 0.69307167 28.97238159 0.74942017 C34.62764493 0.88978449 40.28250694 1.04178863 45.93722534 1.20254517 C45.93722534 1.53254517 45.93722534 1.86254517 45.93722534 2.20254517 C39.78169834 3.08504674 33.74487041 3.40621298 27.53097534 3.51895142 C26.56566895 3.53973251 25.60036255 3.56051361 24.60580444 3.58192444 C21.54967747 3.64683478 18.49347126 3.70603033 15.43722534 3.76504517 C13.35388411 3.80828616 11.27055063 3.85190215 9.18722534 3.89590454 C4.10397134 4.00245542 -0.97936165 4.10388432 -6.06277466 4.20254517 C-6.39277466 3.21254517 -6.72277466 2.22254517 -7.06277466 1.20254517 C-6.07277466 1.53254517 -5.08277466 1.86254517 -4.06277466 2.20254517 C-2.06277466 0.20254517 -2.06277466 0.20254517 0 0 Z " fill="#1A8663" transform="translate(82.06277465820313,57.797454833984375)"/>
<path d="M0 0 C0.33 0.66 0.66 1.32 1 2 C2.89533342 2.46523063 2.89533342 2.46523063 5.0625 2.625 C6.361875 2.74875 7.66125 2.8725 9 3 C8.01 4.32 7.02 5.64 6 7 C5.0925 6.814375 4.185 6.62875 3.25 6.4375 C0.19163521 5.80275577 0.19163521 5.80275577 -1.9375 6.5625 C-4 7 -4 7 -7.4375 6 C-10.94414706 5.01567802 -12.58626986 4.96553632 -16 6 C-16 5.34 -16 4.68 -16 4 C-18.97 3.505 -18.97 3.505 -22 3 C-22 2.67 -22 2.34 -22 2 C-21.40461426 1.97494385 -20.80922852 1.9498877 -20.19580078 1.92407227 C-17.50530864 1.80822506 -14.8151766 1.68544804 -12.125 1.5625 C-11.18785156 1.52318359 -10.25070313 1.48386719 -9.28515625 1.44335938 C-8.38925781 1.40146484 -7.49335938 1.35957031 -6.5703125 1.31640625 C-5.32918701 1.26141968 -5.32918701 1.26141968 -4.06298828 1.20532227 C-1.93820571 1.11761673 -1.93820571 1.11761673 0 0 Z " fill="#0AA473" transform="translate(152,57)"/>
<path d="M0 0 C2.6875 0.3125 2.6875 0.3125 5 1 C5 1.66 5 2.32 5 3 C4.34 3 3.68 3 3 3 C3.66 4.32 4.32 5.64 5 7 C3.68 7.33 2.36 7.66 1 8 C1 7.34 1 6.68 1 6 C0.38125 6.185625 -0.2375 6.37125 -0.875 6.5625 C-3 7 -3 7 -5 6 C-5.33 6.66 -5.66 7.32 -6 8 C-8.31 8 -10.62 8 -13 8 C-13 7.34 -13 6.68 -13 6 C-13.66 6 -14.32 6 -15 6 C-15 6.66 -15 7.32 -15 8 C-17.97 7.505 -17.97 7.505 -21 7 C-21 6.34 -21 5.68 -21 5 C-15.50318887 3.54457956 -10.63504437 2.80459351 -4.9453125 3.22265625 C-2.39745757 2.9310343 -1.72791098 1.80928075 0 0 Z " fill="#12815D" transform="translate(171,112)"/>
<path d="M0 0 C2.77090295 -0.02743468 5.54152388 -0.04704436 8.3125 -0.0625 C9.07884766 -0.07087891 9.84519531 -0.07925781 10.63476562 -0.08789062 C14.84750025 -0.10537085 18.96706705 0.06169347 23.15820312 0.5 C28.61494629 1.01258335 34.00300612 1.12964403 39.48046875 1.09765625 C40.41933426 1.0962413 41.35819977 1.09482635 42.32551575 1.09336853 C45.27954504 1.08783898 48.23349421 1.07530045 51.1875 1.0625 C53.20898327 1.05747587 55.23046774 1.05291458 57.25195312 1.04882812 C62.1679989 1.03789277 67.08398594 1.02067824 72 1 C72 1.33 72 1.66 72 2 C65.72665294 2.92214522 59.61733195 3.16061221 53.28125 3.16796875 C52.2651062 3.17129715 51.2489624 3.17462555 50.20202637 3.17805481 C48.05721485 3.18309782 45.91239556 3.18546395 43.76757812 3.18530273 C40.5376234 3.1874747 37.3080188 3.2056187 34.078125 3.22460938 C22.54968193 3.25491583 11.39209559 2.86038571 0 1 C0 0.67 0 0.34 0 0 Z " fill="#19785A" transform="translate(72,103)"/>
<path d="M0 0 C0.99 0.495 0.99 0.495 2 1 C2 3.31 2 5.62 2 8 C5.69541586 8.95024979 8.30458414 8.95024979 12 8 C12.84454356 11.37817425 13.10844919 13.67465243 12 17 C5.25 15.25 5.25 15.25 3 13 C3 11.68 3 10.36 3 9 C2.01 8.67 1.02 8.34 0 8 C0 5.36 0 2.72 0 0 Z " fill="#08B37C" transform="translate(27,136)"/>
<path d="M0 0 C0.99 0.33 1.98 0.66 3 1 C-10.60208346 8.1682686 -28.5761621 12.70108354 -44 12 C-44 11.67 -44 11.34 -44 11 C-39.95544894 9.68112465 -36.24466762 8.85696746 -32 8.5 C-27.73977841 8.13742795 -24.0666046 7.30131347 -20 6 C-18 5.5 -18 5.5 -16 5 C-13.62280758 4.34119379 -11.24799931 3.67375346 -8.875 3 C-7.63492188 2.649375 -6.39484375 2.29875 -5.1171875 1.9375 C-2.12835683 1.13528745 -2.12835683 1.13528745 0 0 Z " fill="#249573" transform="translate(184,212)"/>
<path d="M0 0 C1.22589844 0.01353516 1.22589844 0.01353516 2.4765625 0.02734375 C3.41628906 0.04474609 3.41628906 0.04474609 4.375 0.0625 C4.045 0.7225 3.715 1.3825 3.375 2.0625 C1.72050895 2.45179201 0.04953799 2.771276 -1.625 3.0625 C-2.78 3.3925 -3.935 3.7225 -5.125 4.0625 C-7.96815327 4.87482951 -10.71967817 5.54103198 -13.625 6.0625 C-15.1409375 6.4028125 -15.1409375 6.4028125 -16.6875 6.75 C-19.82778391 7.08407276 -21.02825104 6.76037432 -23.625 5.0625 C-18.81421499 2.07201202 -14.64083696 1.59619556 -9.015625 1.2734375 C-5.75978662 0.98615764 -3.39842978 -0.048549 0 0 Z " fill="#0AA272" transform="translate(148.625,176.9375)"/>
<path d="M0 0 C0.763125 0.309375 1.52625 0.61875 2.3125 0.9375 C4.18789677 1.67893593 6.08684652 2.36228217 8 3 C7.67 3.66 7.34 4.32 7 5 C6.01 5 5.02 5 4 5 C4 4.34 4 3.68 4 3 C3.01 3.66 2.02 4.32 1 5 C0.73272986 7.48340903 0.65133666 9.71472068 0.70703125 12.1953125 C0.71127609 12.90275604 0.71552094 13.61019958 0.71989441 14.33908081 C0.73670453 16.60143905 0.77435872 18.86291048 0.8125 21.125 C0.82754393 22.65753923 0.84123284 24.1900924 0.85351562 25.72265625 C0.88661538 29.48211318 0.93841175 33.24090618 1 37 C1.99 37 2.98 37 4 37 C3.67 38.32 3.34 39.64 3 41 C1.68 40.34 0.36 39.68 -1 39 C-1.02464849 33.60653012 -1.04283531 28.21309275 -1.05493164 22.81958008 C-1.05997231 20.98331125 -1.06680477 19.14704646 -1.07543945 17.31079102 C-1.08751672 14.67723599 -1.09323081 12.04373384 -1.09765625 9.41015625 C-1.10281754 8.58411392 -1.10797882 7.75807159 -1.11329651 6.90699768 C-1.11349205 4.93763632 -1.06204152 2.96838386 -1 1 C-0.67 0.67 -0.34 0.34 0 0 Z " fill="#0F7351" transform="translate(28,164)"/>
<path d="M0 0 C3.63 1.65 7.26 3.3 11 5 C11 5.33 11 5.66 11 6 C7.02958963 6.22057835 5.76687864 5.88343932 2 4 C2 16.87 2 29.74 2 43 C2.66 43.33 3.32 43.66 4 44 C4 44.99 4 45.98 4 47 C3.34 47 2.68 47 2 47 C-0.04709949 43.92935076 -0.25930479 43.20887833 -0.3347168 39.72802734 C-0.35781418 38.87058929 -0.38091156 38.01315125 -0.40470886 37.12973022 C-0.41939713 36.20777863 -0.43408539 35.28582703 -0.44921875 34.3359375 C-0.47095657 33.38812408 -0.4926944 32.44031067 -0.51509094 31.46377563 C-0.55899247 29.46162268 -0.59819578 27.45936202 -0.63305664 25.45703125 C-0.68741412 22.37986167 -0.75755871 19.3033522 -0.83007812 16.2265625 C-0.87072305 14.28387343 -0.91046761 12.34116527 -0.94921875 10.3984375 C-0.96997971 9.47243744 -0.99074066 8.54643738 -1.01213074 7.59237671 C-1.02577164 6.74124298 -1.03941254 5.89010925 -1.0534668 5.01318359 C-1.06741989 4.26056244 -1.08137299 3.50794128 -1.0957489 2.73251343 C-1 1 -1 1 0 0 Z " fill="#1D9771" transform="translate(26,101)"/>
<path d="M0 0 C0 0.99 0 1.98 0 3 C-2.5 4.6875 -2.5 4.6875 -5 6 C-5 5.01 -5 4.02 -5 3 C-5.86625 3.7425 -5.86625 3.7425 -6.75 4.5 C-10.82453929 7.21635952 -15.39123989 5.70904002 -20 5 C-17.56348996 2.56348996 -15.38454864 2.25691772 -12.09375 1.51171875 C-9.777208 0.98636956 -9.777208 0.98636956 -6.75 -0.1875 C-3.93363138 -1.01960891 -2.69710636 -1.0373486 0 0 Z " fill="#07B07B" transform="translate(190,50)"/>
<path d="M0 0 C0 14.19 0 28.38 0 43 C-0.99 43.495 -0.99 43.495 -2 44 C-1.67 30.47 -1.34 16.94 -1 3 C-4.465 4.485 -4.465 4.485 -8 6 C-10.4375 5.6875 -10.4375 5.6875 -12 5 C-10.37750059 4.16180842 -8.75191503 3.3295884 -7.125 2.5 C-6.22007812 2.0359375 -5.31515625 1.571875 -4.3828125 1.09375 C-2 0 -2 0 0 0 Z " fill="#2E9174" transform="translate(199,161)"/>
<path d="M0 0 C0.66 0 1.32 0 2 0 C2 8.25 2 16.5 2 25 C1.34 25.33 0.68 25.66 0 26 C-0.83646801 20.14472395 -1.10922375 14.40557734 -1.125 8.5 C-1.12951172 7.78134766 -1.13402344 7.06269531 -1.13867188 6.32226562 C-1.1237479 1.1237479 -1.1237479 1.1237479 0 0 Z " fill="#03B57D" transform="translate(195,47)"/>
<path d="M0 0 C0 0.66 0 1.32 0 2 C0.804375 2.144375 1.60875 2.28875 2.4375 2.4375 C5 3 5 3 6 4 C8.32817964 4.36760731 10.6618385 4.70241581 13 5 C13 5.66 13 6.32 13 7 C13.99 7.33 14.98 7.66 16 8 C7.45988044 7.55052002 -0.01533633 4.85091417 -8 2 C-8 1.34 -8 0.68 -8 0 C-4.94736336 -0.98120464 -3.05263664 -0.98120464 0 0 Z " fill="#1A9C74" transform="translate(48,153)"/>
<path d="M0 0 C0.33 0 0.66 0 1 0 C1.16240455 3.06463399 1.28104814 6.12064274 1.375 9.1875 C1.45041016 10.48397461 1.45041016 10.48397461 1.52734375 11.80664062 C1.67307052 18.1457553 1.67307052 18.1457553 -0.36230469 20.72900391 C-2.0234375 22.11328125 -2.0234375 22.11328125 -5 24 C-5 23.34 -5 22.68 -5 22 C-6.18078125 22.02320313 -7.3615625 22.04640625 -8.578125 22.0703125 C-10.13541033 22.08907497 -11.69270252 22.10727466 -13.25 22.125 C-14.02730469 22.14175781 -14.80460937 22.15851563 -15.60546875 22.17578125 C-22.72431144 22.23662606 -22.72431144 22.23662606 -26 20 C-26 19.34 -26 18.68 -26 18 C-25.34128906 18.32484375 -24.68257813 18.6496875 -24.00390625 18.984375 C-20.27837329 20.24398302 -16.82108924 20.29271592 -12.9375 20.25 C-12.23044922 20.25773437 -11.52339844 20.26546875 -10.79492188 20.2734375 C-6.72963988 20.25816884 -4.73365872 19.86682936 -1 18 C-0.67 12.06 -0.34 6.12 0 0 Z " fill="#108861" transform="translate(125,134)"/>
<path d="M0 0 C-1 2 -1 2 -4.0625 3.125 C-8.09858291 4.19682285 -11.84184728 4.1459001 -16 4 C-16 2.68 -16 1.36 -16 0 C-10.31302429 -0.91397824 -5.68697571 -0.91397824 0 0 Z " fill="#0E8D66" transform="translate(100,179)"/>
<path d="M0 0 C0 12.54 0 25.08 0 38 C-0.33 38 -0.66 38 -1 38 C-1.33 26.78 -1.66 15.56 -2 4 C-3.65 3.67 -5.3 3.34 -7 3 C-3.375 0 -3.375 0 0 0 Z " fill="#13AF7D" transform="translate(198,164)"/>
<path d="M0 0 C3.3 0.99 6.6 1.98 10 3 C9.67 4.32 9.34 5.64 9 7 C8.34 7 7.68 7 7 7 C7 6.34 7 5.68 7 5 C6.37351562 5.16757812 5.74703125 5.33515625 5.1015625 5.5078125 C4.28429688 5.71148437 3.46703125 5.91515625 2.625 6.125 C1.81289063 6.33382812 1.00078125 6.54265625 0.1640625 6.7578125 C-0.55007812 6.83773437 -1.26421875 6.91765625 -2 7 C-2.66 6.34 -3.32 5.68 -4 5 C-4 4.01 -4 3.02 -4 2 C-3.01 2 -2.02 2 -1 2 C-1 2.99 -1 3.98 -1 5 C-0.34 5 0.32 5 1 5 C0.67 3.35 0.34 1.7 0 0 Z " fill="#157D5B" transform="translate(36,49)"/>
<path d="M0 0 C0.33 0 0.66 0 1 0 C1.01458252 0.56509277 1.02916504 1.13018555 1.04418945 1.71240234 C1.11856058 4.26730019 1.21525242 6.82087498 1.3125 9.375 C1.33505859 10.26445312 1.35761719 11.15390625 1.38085938 12.0703125 C1.41630859 12.92109375 1.45175781 13.771875 1.48828125 14.6484375 C1.51446533 15.43395996 1.54064941 16.21948242 1.56762695 17.02880859 C1.84889597 19.40040156 1.84889597 19.40040156 5 21 C5 21.66 5 22.32 5 23 C6.1446875 23.433125 6.1446875 23.433125 7.3125 23.875 C10 25 10 25 13 27 C13 27.66 13 28.32 13 29 C9.9168649 27.80100302 6.93720508 26.52299523 4 25 C4 24.34 4 23.68 4 23 C3.01 22.67 2.02 22.34 1 22 C-0.20029908 19.59940183 -0.11459743 18.10639351 -0.09765625 15.4296875 C-0.09443359 14.53378906 -0.09121094 13.63789063 -0.08789062 12.71484375 C-0.07951172 11.77769531 -0.07113281 10.84054688 -0.0625 9.875 C-0.05798828 8.93011719 -0.05347656 7.98523438 -0.04882812 7.01171875 C-0.03702357 4.67441613 -0.02055759 2.33723939 0 0 Z " fill="#1B624A" transform="translate(26,184)"/>
<path d="M0 0 C9.45406594 0.4968942 18.66048365 1.37779058 28 3 C28 3.33 28 3.66 28 4 C21.64530009 4.83673985 17.09528355 5.15874626 11 3 C7.32719141 2.82096337 3.67425584 2.88231921 0 3 C0 2.01 0 1.02 0 0 Z " fill="#207258" transform="translate(47,53)"/>
<path d="M0 0 C9.24 0.99 18.48 1.98 28 3 C28 3.33 28 3.66 28 4 C26.97060303 3.99214478 26.97060303 3.99214478 25.92041016 3.98413086 C22.82194936 3.96339044 19.72350314 3.95034924 16.625 3.9375 C15.00464844 3.92493164 15.00464844 3.92493164 13.3515625 3.91210938 C12.3203125 3.90888672 11.2890625 3.90566406 10.2265625 3.90234375 C8.79691162 3.89448853 8.79691162 3.89448853 7.33837891 3.88647461 C4.97675594 3.84357401 4.97675594 3.84357401 3 5 C2.87625 4.360625 2.7525 3.72125 2.625 3.0625 C2.315625 2.0415625 2.315625 2.0415625 2 1 C1.34 0.67 0.68 0.34 0 0 Z " fill="#1F8E6C" transform="translate(62,114)"/>
<path d="M0 0 C1.2065625 0.0309375 1.2065625 0.0309375 2.4375 0.0625 C-0.949539 2.320526 -4.34067428 3.4332435 -8.1875 4.625 C-8.90228516 4.84824951 -9.61707031 5.07149902 -10.35351562 5.30151367 C-15.43622034 6.83888209 -20.24303404 7.77752861 -25.5625 8.0625 C-25.5625 7.4025 -25.5625 6.7425 -25.5625 6.0625 C-24.9012915 5.91627197 -24.24008301 5.77004395 -23.55883789 5.61938477 C-20.58003377 4.95838968 -17.60251597 4.29177255 -14.625 3.625 C-13.58408203 3.39490234 -12.54316406 3.16480469 -11.47070312 2.92773438 C-10.48134766 2.70537109 -9.49199219 2.48300781 -8.47265625 2.25390625 C-7.55621338 2.04967041 -6.63977051 1.84543457 -5.69555664 1.63500977 C-2.96537139 0.90223142 -2.95907011 0.07217244 0 0 Z " fill="#27A27D" transform="translate(181.5625,34.9375)"/>
<path d="M0 0 C2.475 0.99 2.475 0.99 5 2 C4.2733313 2.5101062 4.2733313 2.5101062 3.53198242 3.03051758 C1.25626814 5.95612508 1.52050278 8.94990707 1.48828125 12.51171875 C1.47033005 13.23994339 1.45237885 13.96816803 1.43388367 14.71846008 C1.37975787 17.04141471 1.3458792 19.36416366 1.3125 21.6875 C1.27932875 23.26370051 1.24483927 24.83987388 1.20898438 26.41601562 C1.1240307 30.27719536 1.05723124 34.13831387 1 38 C0.67 38 0.34 38 0 38 C-0.16723026 32.74912156 -0.32782815 27.49809906 -0.48217773 22.24682617 C-0.53567402 20.45900968 -0.59100904 18.67124725 -0.64819336 16.88354492 C-0.72989235 14.31961734 -0.80505945 11.75557047 -0.87890625 9.19140625 C-0.90594131 8.3872377 -0.93297638 7.58306915 -0.96083069 6.75453186 C-1.01285627 4.83701578 -1.01187441 2.91818497 -1 1 C-0.67 0.67 -0.34 0.34 0 0 Z " fill="#1E624D" transform="translate(26,42)"/>
<path d="M0 0 C9.59453303 2.70615034 9.59453303 2.70615034 13 7 C10 7 10 7 7.625 6.4375 C4.76412489 5.96068748 2.79154233 6.30211442 0 7 C-0.33 7 -0.66 7 -1 7 C-1.04254356 5.00045254 -1.04080783 2.99958364 -1 1 C-0.67 0.67 -0.34 0.34 0 0 Z " fill="#0BB37F" transform="translate(28,104)"/>
<path d="M0 0 C0.33 0.66 0.66 1.32 1 2 C-12.9767569 10.07929997 -12.9767569 10.07929997 -21 11 C-21.66 10.34 -22.32 9.68 -23 9 C-21.84242188 8.60167969 -20.68484375 8.20335938 -19.4921875 7.79296875 C-17.95305112 7.25802501 -16.41399273 6.72285685 -14.875 6.1875 C-14.11445313 5.92646484 -13.35390625 5.66542969 -12.5703125 5.39648438 C-8.20375341 3.87195297 -4.09520766 2.17844114 0 0 Z " fill="#1D6651" transform="translate(196,102)"/>
<path d="M0 0 C0.2475 0.598125 0.495 1.19625 0.75 1.8125 C2.16444091 4.28777159 3.72860188 5.33430804 6 7 C6 7.66 6 8.32 6 9 C6.556875 9.12375 7.11375 9.2475 7.6875 9.375 C10.22114364 10.05976855 12.57921032 10.99133763 15 12 C15 12.66 15 13.32 15 14 C15.78375 14.12375 16.5675 14.2475 17.375 14.375 C20 15 20 15 22 17 C14.29950532 15.78487607 6.45510409 12.13654114 1.1875 6.3125 C0.1046875 4.6728125 0.1046875 4.6728125 -1 3 C-0.67 2.01 -0.34 1.02 0 0 Z " fill="#2D9E7B" transform="translate(26,21)"/>
<path d="M0 0 C3 1 3 1 5 2 C5.33 1.34 5.66 0.68 6 0 C8.9719385 1.12451727 11.33440687 2.22293791 14 4 C13.67 4.66 13.34 5.32 13 6 C8.15018224 6.34641555 5.1306623 5.59367168 1 3 C0.67 2.01 0.34 1.02 0 0 Z " fill="#08AE7A" transform="translate(47,152)"/>
<path d="M0 0 C-0.66 1.65 -1.32 3.3 -2 5 C-4.31 5.33 -6.62 5.66 -9 6 C-9 5.34 -9 4.68 -9 4 C-9.66 3.67 -10.32 3.34 -11 3 C-7.74003139 -0.25996861 -4.40088745 -1.46696248 0 0 Z " fill="#04B17B" transform="translate(185,170)"/>
<path d="M0 0 C0.99 1.32 1.98 2.64 3 4 C2.01 5.485 2.01 5.485 1 7 C-2.625 7.1875 -2.625 7.1875 -6 7 C-5.8125 4.625 -5.8125 4.625 -5 2 C-2.4375 0.6875 -2.4375 0.6875 0 0 Z " fill="#127D5A" transform="translate(46,169)"/>
<path d="M0 0 C0.78375 0.185625 1.5675 0.37125 2.375 0.5625 C4.97089775 1.25962266 4.97089775 1.25962266 7 0 C7 0.66 7 1.32 7 2 C7.66 2 8.32 2 9 2 C9.33 1.34 9.66 0.68 10 0 C10 0.99 10 1.98 10 3 C7.03 3.66 4.06 4.32 1 5 C1 5.66 1 6.32 1 7 C-0.32 6.34 -1.64 5.68 -3 5 C-3 4.01 -3 3.02 -3 2 C-2.01 2 -1.02 2 0 2 C0 1.34 0 0.68 0 0 Z " fill="#08B17B" transform="translate(179,88)"/>
<path d="M0 0 C0 1.65 0 3.3 0 5 C-0.99 5 -1.98 5 -3 5 C-3 4.34 -3 3.68 -3 3 C-4.093125 2.855625 -5.18625 2.71125 -6.3125 2.5625 C-10 2 -10 2 -13 1 C-13 0.34 -13 -0.32 -13 -1 C-9.09644308 -2.95177846 -4.08025075 -1.14247021 0 0 Z " fill="#167E5D" transform="translate(48,90)"/>
<path d="M0 0 C0.99 0.33 1.98 0.66 3 1 C6.05270463 1.15811388 6.05270463 1.15811388 9 0 C9 1.32 9 2.64 9 4 C4.87831311 5.62950412 2.29299643 6.26264601 -2 5 C-1.34 3.35 -0.68 1.7 0 0 Z " fill="#09AE78" transform="translate(179,208)"/>
<path d="M0 0 C0.90105469 0.01804687 1.80210937 0.03609375 2.73046875 0.0546875 C3.41753906 0.07789062 4.10460937 0.10109375 4.8125 0.125 C4.8125 1.45833333 4.8125 2.79166667 4.8125 4.125 C-1.6225 4.62 -1.6225 4.62 -8.1875 5.125 C-8.1875 4.135 -8.1875 3.145 -8.1875 2.125 C-4.87379 -0.08414 -3.8428979 -0.09981553 0 0 Z " fill="#08A874" transform="translate(152.1875,96.875)"/>
<path d="M0 0 C5.71693634 0.11602638 11.1515021 1.77992059 16.625 3.3125 C16.625 3.6425 16.625 3.9725 16.625 4.3125 C15.16676788 4.3395043 13.70839325 4.35889787 12.25 4.375 C11.43789062 4.38660156 10.62578125 4.39820313 9.7890625 4.41015625 C7.625 4.3125 7.625 4.3125 5.625 3.3125 C3.75443209 3.0849985 1.87814042 2.90287189 0 2.75 C-1.00289062 2.66621094 -2.00578125 2.58242187 -3.0390625 2.49609375 C-3.80992187 2.43550781 -4.58078125 2.37492188 -5.375 2.3125 C-3.375 0.3125 -3.375 0.3125 0 0 Z " fill="#2AA57F" transform="translate(155.375,2.6875)"/>
<path d="M0 0 C1.32 0 2.64 0 4 0 C4 0.66 4 1.32 4 2 C6.475 2.99 6.475 2.99 9 4 C6 6 6 6 3.8125 5.625 C3.214375 5.41875 2.61625 5.2125 2 5 C1.67 5.66 1.34 6.32 1 7 C0.01 6.67 -0.98 6.34 -2 6 C-2 4.68 -2 3.36 -2 2 C-1.34 2 -0.68 2 0 2 C0 1.34 0 0.68 0 0 Z " fill="#0F805C" transform="translate(162,153)"/>
<path d="M0 0 C1.65 1.32 3.3 2.64 5 4 C4.67 4.99 4.34 5.98 4 7 C-2.75 5.375 -2.75 5.375 -5 2 C-3.35 1.34 -1.7 0.68 0 0 Z " fill="#18AC7B" transform="translate(35,146)"/>
<path d="M0 0 C3.63 1.65 7.26 3.3 11 5 C11 5.33 11 5.66 11 6 C7.37471432 6.20140476 5.13498292 5.85776765 2 4 C1.67 6.31 1.34 8.62 1 11 C0.67 11 0.34 11 0 11 C-0.19406478 9.35492782 -0.38007935 7.70890406 -0.5625 6.0625 C-0.66691406 5.14597656 -0.77132813 4.22945313 -0.87890625 3.28515625 C-0.91886719 2.53105469 -0.95882813 1.77695313 -1 1 C-0.67 0.67 -0.34 0.34 0 0 Z " fill="#269B77" transform="translate(26,101)"/>
<path d="M0 0 C1.65 0.33 3.3 0.66 5 1 C3.53751886 4.88056075 1.68145519 6.04133478 -2 7.8125 C-2.886875 8.25207031 -3.77375 8.69164063 -4.6875 9.14453125 C-5.450625 9.42683594 -6.21375 9.70914063 -7 10 C-7.66 9.67 -8.32 9.34 -9 9 C-8.3503125 8.60167969 -7.700625 8.20335938 -7.03125 7.79296875 C-6.1959375 7.26316406 -5.360625 6.73335938 -4.5 6.1875 C-3.6646875 5.66542969 -2.829375 5.14335938 -1.96875 4.60546875 C-1.3190625 4.07566406 -0.669375 3.54585938 0 3 C0 2.01 0 1.02 0 0 Z " fill="#249D7A" transform="translate(192,85)"/>
<path d="M0 0 C-1.90354807 2.50828536 -3.00579726 3.00135005 -6.13671875 3.73046875 C-7.30847656 3.88128906 -8.48023438 4.03210938 -9.6875 4.1875 C-10.86699219 4.34605469 -12.04648438 4.50460938 -13.26171875 4.66796875 C-14.16535156 4.77753906 -15.06898438 4.88710937 -16 5 C-16.33 4.34 -16.66 3.68 -17 3 C-14.69 3 -12.38 3 -10 3 C-10 2.34 -10 1.68 -10 1 C-8.68 1.33 -7.36 1.66 -6 2 C-6 1.34 -6 0.68 -6 0 C-3.50907189 -1.24546405 -2.58919267 -0.7767578 0 0 Z " fill="#10A676" transform="translate(186,93)"/>
<path d="M0 0 C0.33 0 0.66 0 1 0 C1.24954942 2.89537458 1.47522263 5.78935524 1.6875 8.6875 C1.76033203 9.50412109 1.83316406 10.32074219 1.90820312 11.16210938 C2.24367373 16.03629996 2.17688738 18.99009845 -1 23 C-1.66 22.67 -2.32 22.34 -3 22 C-2.68289062 21.35675781 -2.36578125 20.71351562 -2.0390625 20.05078125 C-0.68561702 16.07694321 -0.54279839 12.35798921 -0.375 8.1875 C-0.33632812 7.39923828 -0.29765625 6.61097656 -0.2578125 5.79882812 C-0.16411156 3.8662462 -0.08099221 1.93315624 0 0 Z " fill="#05AA74" transform="translate(125,73)"/>
<path d="M0 0 C2.97 0 5.94 0 9 0 C9.33 0.99 9.66 1.98 10 3 C9.67 3.66 9.34 4.32 9 5 C7.35 4.67 5.7 4.34 4 4 C4 3.34 4 2.68 4 2 C2.68 1.67 1.36 1.34 0 1 C0 0.67 0 0.34 0 0 Z " fill="#0F8862" transform="translate(64,58)"/>
<path d="M0 0 C2.475 0.99 2.475 0.99 5 2 C2.08149788 3.94566808 0.42377152 4.5152457 -2.9375 5.1875 C-3.79214844 5.36667969 -4.64679688 5.54585937 -5.52734375 5.73046875 C-8.01134859 6.00123705 -9.64449502 5.77059444 -12 5 C-7.8803623 3.70756464 -4.33168317 2.73747375 0 3 C0 2.01 0 1.02 0 0 Z " fill="#23735B" transform="translate(163,157)"/>
<path d="M0 0 C2.475 0.99 2.475 0.99 5 2 C5 3.32 5 4.64 5 6 C1.7 5.34 -1.6 4.68 -5 4 C-2 2 -2 2 0 2 C0 1.34 0 0.68 0 0 Z " fill="#11B683" transform="translate(51,33)"/>
<path d="M0 0 C5.28 0 10.56 0 16 0 C16 0.33 16 0.66 16 1 C13.02148438 1.29296875 13.02148438 1.29296875 10.04296875 1.5859375 C7.70011858 1.92665391 7.70011858 1.92665391 5 4 C5 3.34 5 2.68 5 2 C3.35 2 1.7 2 0 2 C0 1.34 0 0.68 0 0 Z " fill="#17BE88" transform="translate(92,0)"/>
<path d="M0 0 C1.99609375 0.234375 1.99609375 0.234375 4.4375 0.75 C5.24058594 0.90984375 6.04367188 1.0696875 6.87109375 1.234375 C9 2 9 2 11 5 C5.52368308 5.24339186 3.52760188 4.01840125 -1 1 C-0.67 0.67 -0.34 0.34 0 0 Z " fill="#199D75" transform="translate(37,107)"/>
<path d="M0 0 C0 0.66 0 1.32 0 2 C4.29 2 8.58 2 13 2 C13 2.33 13 2.66 13 3 C10.62492145 3.02719556 8.25016036 3.04693247 5.875 3.0625 C4.87726563 3.07506836 4.87726563 3.07506836 3.859375 3.08789062 C-0.20681354 3.10782292 -4.0120092 2.78890161 -8 2 C-8 1.67 -8 1.34 -8 1 C-2.25 0 -2.25 0 0 0 Z " fill="#137D62" transform="translate(88,222)"/>
<path d="M0 0 C1.65 0.33 3.3 0.66 5 1 C5 4 5 4 4 7 C2.02 5.68 0.04 4.36 -2 3 C-1.34 2.01 -0.68 1.02 0 0 Z " fill="#12825C" transform="translate(43,208)"/>
<path d="M0 0 C2.64 0.33 5.28 0.66 8 1 C7.67 2.65 7.34 4.3 7 6 C6.34 5.34 5.68 4.68 5 4 C3.01178687 3.60235737 1.01055661 3.26224651 -1 3 C-0.67 2.01 -0.34 1.02 0 0 Z " fill="#137D59" transform="translate(187,108)"/>
<path d="M0 0 C-1.65 0.33 -3.3 0.66 -5 1 C-5 1.66 -5 2.32 -5 3 C-5.99 3 -6.98 3 -8 3 C-8.33 3.99 -8.66 4.98 -9 6 C-10.65 6 -12.3 6 -14 6 C-10.6606106 2.30909593 -5.08263987 -2.54131994 0 0 Z " fill="#30A27E" transform="translate(46,10)"/>
<path d="M0 0 C0 1.33333333 0 2.66666667 0 4 C-2.31 4 -4.62 4 -7 4 C-6.01 3.67 -5.02 3.34 -4 3 C-4 2.34 -4 1.68 -4 1 C-4.99 0.67 -5.98 0.34 -7 0 C-3.86650268 -1.04449911 -3.01031744 -0.93423645 0 0 Z " fill="#0DA878" transform="translate(154,217)"/>
<path d="M0 0 C-1.0625 2 -1.0625 2 -3 4 C-6.6875 4.25 -6.6875 4.25 -10 4 C-9.34 3.67 -8.68 3.34 -8 3 C-8 2.34 -8 1.68 -8 1 C-5.07175348 0.02391783 -3.04386724 -0.08226668 0 0 Z " fill="#189C75" transform="translate(176,171)"/>
<path d="M0 0 C0.99 0.66 1.98 1.32 3 2 C2.72510809 6.03174806 2.46508424 7.56894631 -0.5625 10.375 C-1.366875 10.91125 -2.17125 11.4475 -3 12 C-3.33 11.34 -3.66 10.68 -4 10 C-3.34 9.46375 -2.68 8.9275 -2 8.375 C0.31024799 6.10041408 0.31024799 6.10041408 0.25 2.75 C0.1675 1.8425 0.085 0.935 0 0 Z " fill="#2B9F79" transform="translate(196,19)"/>
<path d="M0 0 C5.28 0 10.56 0 16 0 C16 0.33 16 0.66 16 1 C14.77023438 1.09087891 14.77023438 1.09087891 13.515625 1.18359375 C11.89914063 1.30927734 11.89914063 1.30927734 10.25 1.4375 C9.18265625 1.51871094 8.1153125 1.59992188 7.015625 1.68359375 C4.56320038 1.94090773 2.36078709 2.31812218 0 3 C0 2.01 0 1.02 0 0 Z " fill="#139066" transform="translate(100,128)"/>
<path d="M0 0 C-1.4317616 0.69937202 -2.87067032 1.38412718 -4.3125 2.0625 C-5.51326172 2.63677734 -5.51326172 2.63677734 -6.73828125 3.22265625 C-9 4 -9 4 -12 3 C-10.68 2.67 -9.36 2.34 -8 2 C-8 1.34 -8 0.68 -8 0 C-4.71303767 -0.79953138 -3.28976808 -1.09658936 0 0 Z " fill="#1F5F4C" transform="translate(188,153)"/>
<path d="M0 0 C-1.17578125 1.51953125 -1.17578125 1.51953125 -3 3 C-5.48046875 3.07421875 -5.48046875 3.07421875 -8.1875 2.6875 C-9.53908203 2.50767578 -9.53908203 2.50767578 -10.91796875 2.32421875 C-11.94857422 2.16373047 -11.94857422 2.16373047 -13 2 C-13 1.67 -13 1.34 -13 1 C-11.20994059 0.63779734 -9.41787943 0.28547531 -7.625 -0.0625 C-6.12839844 -0.35833984 -6.12839844 -0.35833984 -4.6015625 -0.66015625 C-2 -1 -2 -1 0 0 Z " fill="#19644E" transform="translate(171,113)"/>
<path d="M0 0 C3.34373475 0.55728913 6.03312999 1.35173889 9 3 C8.67 3.33 8.34 3.66 8 4 C5.66055264 3.71269945 3.3260857 3.38063221 1 3 C0.67 2.01 0.34 1.02 0 0 Z " fill="#0CA979" transform="translate(49,112)"/>
<path d="M0 0 C2.475 0.495 2.475 0.495 5 1 C4.34 2.98 3.68 4.96 3 7 C0 3.375 0 3.375 0 0 Z " fill="#07B67D" transform="translate(192,80)"/>
<path d="M0 0 C0.66 0.66 1.32 1.32 2 2 C-0.68841859 4.25245881 -2.64641875 5.88213958 -6 7 C-5.67 5.68 -5.34 4.36 -5 3 C-3.35 2.67 -1.7 2.34 0 2 C0 1.34 0 0.68 0 0 Z " fill="#219E76" transform="translate(194,205)"/>
<path d="M0 0 C0.763125 0.309375 1.52625 0.61875 2.3125 0.9375 C4.18789677 1.67893593 6.08684652 2.36228217 8 3 C7.67 3.66 7.34 4.32 7 5 C6.01 5 5.02 5 4 5 C4 4.34 4 3.68 4 3 C2.02 3.99 2.02 3.99 0 5 C-0.5625 3.0625 -0.5625 3.0625 -1 1 C-0.67 0.67 -0.34 0.34 0 0 Z " fill="#137B59" transform="translate(28,164)"/>
<path d="M0 0 C2.97 0 5.94 0 9 0 C9 0.66 9 1.32 9 2 C9.99 2.33 10.98 2.66 12 3 C10.56163249 2.88541307 9.12429034 2.75790884 7.6875 2.625 C6.88699219 2.55539063 6.08648437 2.48578125 5.26171875 2.4140625 C3 2 3 2 0 0 Z " fill="#1D8E6F" transform="translate(52,158)"/>
<path d="M0 0 C2.64 0 5.28 0 8 0 C8 0.66 8 1.32 8 2 C5.36 2.33 2.72 2.66 0 3 C0 2.01 0 1.02 0 0 Z " fill="#15805E" transform="translate(172,152)"/>
<path d="M0 0 C0.66 0.33 1.32 0.66 2 1 C2 1.99 2 2.98 2 4 C4.31 4 6.62 4 9 4 C9 4.33 9 4.66 9 5 C1.49230769 5.36923077 1.49230769 5.36923077 -1 3.5 C-1.33 3.005 -1.66 2.51 -2 2 C-1.34 1.34 -0.68 0.68 0 0 Z " fill="#148562" transform="translate(71,98)"/>
<path d="M0 0 C-0.33 1.32 -0.66 2.64 -1 4 C-3.31 3.67 -5.62 3.34 -8 3 C-5.36657694 0.36657694 -3.69534435 0 0 0 Z " fill="#1B7959" transform="translate(197,105)"/>
<path d="M0 0 C0.66 1.32 1.32 2.64 2 4 C-0.31 4 -2.62 4 -5 4 C-5 3.34 -5 2.68 -5 2 C-3.35 1.34 -1.7 0.68 0 0 Z " fill="#15785A" transform="translate(59,96)"/>
<path d="M0 0 C3.63 0.33 7.26 0.66 11 1 C11 1.33 11 1.66 11 2 C7.37 2.33 3.74 2.66 0 3 C0 2.01 0 1.02 0 0 Z " fill="#157D5C" transform="translate(47,53)"/>
<path d="M0 0 C0.66 0.66 1.32 1.32 2 2 C-1.22791555 4.1519437 -2.28400809 4.20086443 -6 4 C-4 1 -4 1 -2 0.1875 C-1.34 0.125625 -0.68 0.06375 0 0 Z " fill="#11AE7E" transform="translate(180,170)"/>
</svg>
